%TF.GenerationSoftware,KiCad,Pcbnew,10.0.4*%
%TF.CreationDate,2026-07-21T15:04:48+10:00*%
%TF.ProjectId,led_controller,6c65645f-636f-46e7-9472-6f6c6c65722e,rev?*%
%TF.SameCoordinates,Original*%
%TF.FileFunction,Soldermask,Top*%
%TF.FilePolarity,Negative*%
%FSLAX46Y46*%
G04 Gerber Fmt 4.6, Leading zero omitted, Abs format (unit mm)*
G04 Created by KiCad (PCBNEW 10.0.4) date 2026-07-21 15:04:48*
%MOMM*%
%LPD*%
G01*
G04 APERTURE LIST*
G04 Aperture macros list*
%AMRoundRect*
0 Rectangle with rounded corners*
0 $1 Rounding radius*
0 $2 $3 $4 $5 $6 $7 $8 $9 X,Y pos of 4 corners*
0 Add a 4 corners polygon primitive as box body*
4,1,4,$2,$3,$4,$5,$6,$7,$8,$9,$2,$3,0*
0 Add four circle primitives for the rounded corners*
1,1,$1+$1,$2,$3*
1,1,$1+$1,$4,$5*
1,1,$1+$1,$6,$7*
1,1,$1+$1,$8,$9*
0 Add four rect primitives between the rounded corners*
20,1,$1+$1,$2,$3,$4,$5,0*
20,1,$1+$1,$4,$5,$6,$7,0*
20,1,$1+$1,$6,$7,$8,$9,0*
20,1,$1+$1,$8,$9,$2,$3,0*%
G04 Aperture macros list end*
%ADD10C,2.000000*%
%ADD11RoundRect,0.250000X0.312500X0.625000X-0.312500X0.625000X-0.312500X-0.625000X0.312500X-0.625000X0*%
%ADD12RoundRect,0.250000X0.750000X-0.750000X0.750000X0.750000X-0.750000X0.750000X-0.750000X-0.750000X0*%
%ADD13RoundRect,0.250000X-0.650000X0.412500X-0.650000X-0.412500X0.650000X-0.412500X0.650000X0.412500X0*%
%ADD14RoundRect,0.150000X-0.825000X-0.150000X0.825000X-0.150000X0.825000X0.150000X-0.825000X0.150000X0*%
%ADD15RoundRect,0.250000X0.412500X0.650000X-0.412500X0.650000X-0.412500X-0.650000X0.412500X-0.650000X0*%
%ADD16RoundRect,0.250000X-1.250000X-0.550000X1.250000X-0.550000X1.250000X0.550000X-1.250000X0.550000X0*%
%ADD17C,5.400000*%
%ADD18R,1.200000X1.200000*%
%ADD19R,1.700000X1.700000*%
%ADD20C,1.700000*%
%ADD21RoundRect,0.250000X-1.050000X-1.050000X1.050000X-1.050000X1.050000X1.050000X-1.050000X1.050000X0*%
%ADD22C,2.600000*%
%ADD23RoundRect,0.192000X-1.158000X-0.608000X1.158000X-0.608000X1.158000X0.608000X-1.158000X0.608000X0*%
%ADD24RoundRect,0.160000X-0.640000X-0.640000X0.640000X-0.640000X0.640000X0.640000X-0.640000X0.640000X0*%
%ADD25R,2.700000X1.600000*%
%ADD26O,1.600000X1.600000*%
G04 APERTURE END LIST*
D10*
%TO.C,FID1*%
X129500000Y-54500000D03*
%TD*%
%TO.C,FID2*%
X167000000Y-86000000D03*
%TD*%
D11*
%TO.C,R2*%
X132392500Y-77350000D03*
X129467500Y-77350000D03*
%TD*%
D12*
%TO.C,J6*%
X163317500Y-94475000D03*
D10*
X163317500Y-91935000D03*
%TD*%
D11*
%TO.C,R3*%
X132392500Y-90050000D03*
X129467500Y-90050000D03*
%TD*%
D10*
%TO.C,FID3*%
X132500000Y-114500000D03*
%TD*%
D13*
%TO.C,C10*%
X150200000Y-79537500D03*
X150200000Y-82662500D03*
%TD*%
D11*
%TO.C,R5*%
X155600000Y-77650000D03*
X152675000Y-77650000D03*
%TD*%
D14*
%TO.C,U1*%
X137500000Y-79350000D03*
X137500000Y-80620000D03*
X137500000Y-81890000D03*
X137500000Y-83160000D03*
X137500000Y-84430000D03*
X137500000Y-85700000D03*
X137500000Y-86970000D03*
X142450000Y-86970000D03*
X142450000Y-85700000D03*
X142450000Y-84430000D03*
X142450000Y-83160000D03*
X142450000Y-81890000D03*
X142450000Y-80620000D03*
X142450000Y-79350000D03*
%TD*%
D15*
%TO.C,C4*%
X132742500Y-100200000D03*
X129617500Y-100200000D03*
%TD*%
D11*
%TO.C,R4*%
X132392500Y-102800000D03*
X129467500Y-102800000D03*
%TD*%
D16*
%TO.C,C5*%
X154100000Y-84800000D03*
X158500000Y-84800000D03*
%TD*%
D17*
%TO.C,H4*%
X166500000Y-116500000D03*
%TD*%
D18*
%TO.C,D1*%
X153500000Y-90200000D03*
X150700000Y-90200000D03*
%TD*%
D19*
%TO.C,J1*%
X125750000Y-62120000D03*
D20*
X125750000Y-64660000D03*
X125750000Y-67200000D03*
X125750000Y-69740000D03*
%TD*%
D15*
%TO.C,C1*%
X132742500Y-62000000D03*
X129617500Y-62000000D03*
%TD*%
D19*
%TO.C,J2*%
X125750000Y-74820000D03*
D20*
X125750000Y-77360000D03*
X125750000Y-79900000D03*
X125750000Y-82440000D03*
%TD*%
D17*
%TO.C,H2*%
X166500000Y-53500000D03*
%TD*%
D21*
%TO.C,J5*%
X139045000Y-108774236D03*
D22*
X144125000Y-108774236D03*
%TD*%
D13*
%TO.C,C6*%
X145600000Y-79537500D03*
X145600000Y-82662500D03*
%TD*%
D18*
%TO.C,D2*%
X164299096Y-84463788D03*
X164299096Y-81663788D03*
%TD*%
D13*
%TO.C,C8*%
X135350000Y-53437500D03*
X135350000Y-56562500D03*
%TD*%
D19*
%TO.C,J4*%
X125750000Y-100220000D03*
D20*
X125750000Y-102760000D03*
X125750000Y-105300000D03*
X125750000Y-107840000D03*
%TD*%
D13*
%TO.C,C9*%
X158450000Y-77487500D03*
X158450000Y-80612500D03*
%TD*%
D11*
%TO.C,R1*%
X132392500Y-64625000D03*
X129467500Y-64625000D03*
%TD*%
D19*
%TO.C,J7*%
X164050000Y-73915000D03*
D20*
X164050000Y-71375000D03*
X164050000Y-68835000D03*
X164050000Y-66295000D03*
X164050000Y-63755000D03*
X164050000Y-61215000D03*
%TD*%
D23*
%TO.C,U3*%
X141960000Y-53570000D03*
D24*
X142510000Y-53570000D03*
D25*
X141960000Y-56110000D03*
D26*
X142510000Y-56110000D03*
D25*
X141960000Y-58650000D03*
D26*
X142510000Y-58650000D03*
D25*
X141960000Y-61190000D03*
D26*
X142510000Y-61190000D03*
D25*
X141960000Y-63730000D03*
D26*
X142510000Y-63730000D03*
D25*
X141960000Y-66270000D03*
D26*
X142510000Y-66270000D03*
D25*
X141960000Y-68810000D03*
D26*
X142510000Y-68810000D03*
D25*
X141960000Y-71350000D03*
D26*
X142510000Y-71350000D03*
D25*
X141960000Y-73890000D03*
D26*
X142510000Y-73890000D03*
X157750000Y-73890000D03*
D25*
X158300000Y-73890000D03*
D26*
X157750000Y-71350000D03*
D25*
X158300000Y-71350000D03*
D26*
X157750000Y-68810000D03*
D25*
X158300000Y-68810000D03*
D26*
X157750000Y-66270000D03*
D25*
X158300000Y-66270000D03*
D26*
X157750000Y-63730000D03*
D25*
X158300000Y-63730000D03*
D26*
X157750000Y-61190000D03*
D25*
X158300000Y-61190000D03*
D26*
X157750000Y-58650000D03*
D25*
X158300000Y-58650000D03*
D26*
X157750000Y-56110000D03*
D25*
X158300000Y-56110000D03*
D26*
X157750000Y-53570000D03*
D25*
X158300000Y-53570000D03*
%TD*%
D19*
%TO.C,J3*%
X125750000Y-87520001D03*
D20*
X125750000Y-90060001D03*
X125750000Y-92600001D03*
X125750000Y-95140001D03*
%TD*%
D15*
%TO.C,C2*%
X132742500Y-74800000D03*
X129617500Y-74800000D03*
%TD*%
%TO.C,C3*%
X132742500Y-87500000D03*
X129617500Y-87500000D03*
%TD*%
D17*
%TO.C,H1*%
X123500000Y-53500000D03*
%TD*%
%TO.C,H3*%
X123500000Y-116500000D03*
%TD*%
D13*
%TO.C,C7*%
X138150000Y-53437500D03*
X138150000Y-56562500D03*
%TD*%
M02*
