%TF.GenerationSoftware,KiCad,Pcbnew,10.0.4*%
%TF.CreationDate,2026-07-21T15:04:48+10:00*%
%TF.ProjectId,led_controller,6c65645f-636f-46e7-9472-6f6c6c65722e,rev?*%
%TF.SameCoordinates,Original*%
%TF.FileFunction,Legend,Top*%
%TF.FilePolarity,Positive*%
%FSLAX46Y46*%
G04 Gerber Fmt 4.6, Leading zero omitted, Abs format (unit mm)*
G04 Created by KiCad (PCBNEW 10.0.4) date 2026-07-21 15:04:48*
%MOMM*%
%LPD*%
G01*
G04 APERTURE LIST*
%ADD10C,0.000000*%
%ADD11C,0.264583*%
%ADD12C,0.100000*%
%ADD13C,0.150000*%
%ADD14C,0.120000*%
G04 APERTURE END LIST*
D10*
G36*
X168304776Y-101937818D02*
G01*
X169062014Y-101937818D01*
X169062014Y-102295005D01*
X167841863Y-102295005D01*
X167841863Y-100254750D01*
X168304776Y-100254750D01*
X168304776Y-101937818D01*
G37*
D11*
X153308826Y-100839797D02*
X153308826Y-102374380D01*
X154155492Y-102374380D01*
X154155492Y-104226464D01*
X150557159Y-104226464D01*
X148334659Y-102109797D01*
X148334659Y-98934797D01*
X151403826Y-98934797D01*
X153308826Y-100839797D01*
D10*
G36*
X163780085Y-100614796D02*
G01*
X163285736Y-100614796D01*
X163285736Y-102295005D01*
X162822823Y-102295005D01*
X162822823Y-100614796D01*
X162328475Y-100614796D01*
X162328475Y-100254750D01*
X163780085Y-100254750D01*
X163780085Y-100614796D01*
G37*
G36*
X158758184Y-100609081D02*
G01*
X158100959Y-100609081D01*
X158100959Y-101057708D01*
X158712464Y-101057708D01*
X158712464Y-101412038D01*
X158100959Y-101412038D01*
X158100959Y-101937818D01*
X158758184Y-101937818D01*
X158758184Y-102295005D01*
X157638044Y-102295005D01*
X157638044Y-100254750D01*
X158758184Y-100254750D01*
X158758184Y-100609081D01*
G37*
G36*
X159536799Y-101189153D02*
G01*
X159555552Y-101159149D01*
X159574661Y-101129146D01*
X159594128Y-101099142D01*
X159613951Y-101069138D01*
X159635204Y-101039134D01*
X159656100Y-101009131D01*
X159676638Y-100979127D01*
X159696819Y-100949124D01*
X160156876Y-100254751D01*
X160665511Y-100254751D01*
X160031147Y-101157721D01*
X160662654Y-102295005D01*
X160139731Y-102295005D01*
X159699677Y-101434898D01*
X159536799Y-101566343D01*
X159536799Y-102295005D01*
X159073884Y-102295005D01*
X159073884Y-100254750D01*
X159536799Y-100254750D01*
X159536799Y-101189153D01*
G37*
G36*
X162509977Y-102295005D02*
G01*
X162009914Y-102295005D01*
X161892757Y-101809230D01*
X161232674Y-101809230D01*
X161112659Y-102295005D01*
X160609740Y-102295005D01*
X160879613Y-101446328D01*
X161335543Y-101446328D01*
X161792743Y-101446328D01*
X161658441Y-100971983D01*
X161645583Y-100925727D01*
X161632724Y-100878400D01*
X161619866Y-100830001D01*
X161607007Y-100780530D01*
X161594506Y-100728381D01*
X161582718Y-100674803D01*
X161571646Y-100619796D01*
X161561287Y-100563361D01*
X161550929Y-100619975D01*
X161539855Y-100675517D01*
X161528068Y-100729988D01*
X161515566Y-100783388D01*
X161490563Y-100881972D01*
X161466988Y-100971983D01*
X161335543Y-101446328D01*
X160879613Y-101446328D01*
X161261251Y-100246178D01*
X161855609Y-100246178D01*
X162509977Y-102295005D01*
G37*
G36*
X156170771Y-101814945D02*
G01*
X156179343Y-101814945D01*
X156616540Y-100254750D01*
X157239476Y-100254750D01*
X157239476Y-102295005D01*
X156810850Y-102295005D01*
X156810850Y-101329170D01*
X156811029Y-101278807D01*
X156811565Y-101224872D01*
X156812457Y-101167365D01*
X156813707Y-101106286D01*
X156815315Y-101044314D01*
X156817279Y-100984128D01*
X156819601Y-100925727D01*
X156822280Y-100869113D01*
X156830853Y-100697663D01*
X156819422Y-100697663D01*
X156379368Y-102295005D01*
X155945027Y-102295005D01*
X155519260Y-100694806D01*
X155507830Y-100694806D01*
X155516402Y-100866256D01*
X155522117Y-100984842D01*
X155527832Y-101112001D01*
X155530333Y-101174866D01*
X155532119Y-101234873D01*
X155533190Y-101292023D01*
X155533548Y-101346316D01*
X155533548Y-102295005D01*
X155122068Y-102295005D01*
X155122068Y-100254750D01*
X155745003Y-100254750D01*
X156170771Y-101814945D01*
G37*
D11*
X149100000Y-99200000D02*
X149124186Y-99201839D01*
X149148021Y-99204868D01*
X149171474Y-99209056D01*
X149194515Y-99214374D01*
X149217115Y-99220792D01*
X149239243Y-99228279D01*
X149260871Y-99236807D01*
X149281967Y-99246344D01*
X149302502Y-99256861D01*
X149322445Y-99268329D01*
X149341768Y-99280717D01*
X149360440Y-99293995D01*
X149378432Y-99308133D01*
X149395712Y-99323102D01*
X149412252Y-99338871D01*
X149428021Y-99355411D01*
X149442990Y-99372691D01*
X149457128Y-99390683D01*
X149470406Y-99409355D01*
X149482794Y-99428678D01*
X149494262Y-99448622D01*
X149504779Y-99469156D01*
X149514316Y-99490253D01*
X149522844Y-99511880D01*
X149530331Y-99534008D01*
X149536749Y-99556608D01*
X149542067Y-99579650D01*
X149546255Y-99603102D01*
X149549284Y-99626937D01*
X149551123Y-99651123D01*
X149551742Y-99675631D01*
X149551123Y-99700138D01*
X149549284Y-99724324D01*
X149546255Y-99748159D01*
X149542067Y-99771612D01*
X149536749Y-99794653D01*
X149530331Y-99817253D01*
X149522844Y-99839381D01*
X149514316Y-99861009D01*
X149504779Y-99882105D01*
X149494262Y-99902640D01*
X149482794Y-99922583D01*
X149470406Y-99941906D01*
X149457128Y-99960578D01*
X149442990Y-99978570D01*
X149428021Y-99995850D01*
X149412252Y-100012390D01*
X149395712Y-100028159D01*
X149378432Y-100043128D01*
X149360440Y-100057266D01*
X149341768Y-100070544D01*
X149322445Y-100082932D01*
X149302502Y-100094400D01*
X149281967Y-100104917D01*
X149260871Y-100114454D01*
X149239243Y-100122982D01*
X149217115Y-100130469D01*
X149194515Y-100136887D01*
X149171474Y-100142205D01*
X149148021Y-100146393D01*
X149124186Y-100149422D01*
X149100000Y-100151261D01*
X149075493Y-100151880D01*
X149050985Y-100151261D01*
X149026799Y-100149422D01*
X149002964Y-100146393D01*
X148979512Y-100142205D01*
X148956470Y-100136887D01*
X148933870Y-100130469D01*
X148911742Y-100122982D01*
X148890115Y-100114454D01*
X148869018Y-100104917D01*
X148848484Y-100094400D01*
X148828540Y-100082932D01*
X148809217Y-100070544D01*
X148790545Y-100057266D01*
X148772553Y-100043128D01*
X148755273Y-100028159D01*
X148738733Y-100012390D01*
X148722964Y-99995850D01*
X148707995Y-99978570D01*
X148693857Y-99960578D01*
X148680579Y-99941906D01*
X148668191Y-99922583D01*
X148656723Y-99902640D01*
X148646206Y-99882105D01*
X148636669Y-99861009D01*
X148628141Y-99839381D01*
X148620654Y-99817253D01*
X148614236Y-99794653D01*
X148608918Y-99771612D01*
X148604730Y-99748159D01*
X148601701Y-99724324D01*
X148599862Y-99700138D01*
X148599243Y-99675631D01*
X148599862Y-99651123D01*
X148601701Y-99626937D01*
X148604730Y-99603102D01*
X148608918Y-99579650D01*
X148614236Y-99556608D01*
X148620654Y-99534008D01*
X148628141Y-99511880D01*
X148636669Y-99490253D01*
X148646206Y-99469156D01*
X148656723Y-99448622D01*
X148668191Y-99428678D01*
X148680579Y-99409355D01*
X148693857Y-99390683D01*
X148707995Y-99372691D01*
X148722964Y-99355411D01*
X148738733Y-99338871D01*
X148755273Y-99323102D01*
X148772553Y-99308133D01*
X148790545Y-99293995D01*
X148809217Y-99280717D01*
X148828540Y-99268329D01*
X148848484Y-99256861D01*
X148869018Y-99246344D01*
X148890115Y-99236807D01*
X148911742Y-99228279D01*
X148933870Y-99220792D01*
X148956470Y-99214374D01*
X148979512Y-99209056D01*
X149002964Y-99204868D01*
X149026799Y-99201839D01*
X149050985Y-99200000D01*
X149075493Y-99199381D01*
X149100000Y-99200000D01*
X149100000Y-101157917D02*
X149124186Y-101159756D01*
X149148021Y-101162784D01*
X149171474Y-101166973D01*
X149194515Y-101172291D01*
X149217115Y-101178708D01*
X149239243Y-101186196D01*
X149260871Y-101194723D01*
X149281967Y-101204260D01*
X149302502Y-101214778D01*
X149322445Y-101226245D01*
X149341768Y-101238633D01*
X149360440Y-101251911D01*
X149378432Y-101266049D01*
X149395712Y-101281018D01*
X149412252Y-101296787D01*
X149428021Y-101313327D01*
X149442990Y-101330608D01*
X149457128Y-101348599D01*
X149470406Y-101367271D01*
X149482794Y-101386594D01*
X149494262Y-101406538D01*
X149504779Y-101427073D01*
X149514316Y-101448169D01*
X149522844Y-101469796D01*
X149530331Y-101491925D01*
X149536749Y-101514525D01*
X149542067Y-101537566D01*
X149546255Y-101561019D01*
X149549284Y-101584853D01*
X149551123Y-101609039D01*
X149551742Y-101633547D01*
X149551123Y-101658055D01*
X149549284Y-101682241D01*
X149546255Y-101706075D01*
X149542067Y-101729528D01*
X149536749Y-101752569D01*
X149530331Y-101775169D01*
X149522844Y-101797298D01*
X149514316Y-101818925D01*
X149504779Y-101840021D01*
X149494262Y-101860556D01*
X149482794Y-101880500D01*
X149470406Y-101899823D01*
X149457128Y-101918495D01*
X149442990Y-101936486D01*
X149428021Y-101953767D01*
X149412252Y-101970307D01*
X149395712Y-101986076D01*
X149378432Y-102001045D01*
X149360440Y-102015183D01*
X149341768Y-102028461D01*
X149322445Y-102040849D01*
X149302502Y-102052316D01*
X149281967Y-102062834D01*
X149260871Y-102072371D01*
X149239243Y-102080898D01*
X149217115Y-102088386D01*
X149194515Y-102094804D01*
X149171474Y-102100121D01*
X149148021Y-102104310D01*
X149124186Y-102107338D01*
X149100000Y-102109177D01*
X149075493Y-102109797D01*
X149050985Y-102109177D01*
X149026799Y-102107338D01*
X149002964Y-102104310D01*
X148979512Y-102100121D01*
X148956470Y-102094804D01*
X148933870Y-102088386D01*
X148911742Y-102080898D01*
X148890115Y-102072371D01*
X148869018Y-102062834D01*
X148848484Y-102052316D01*
X148828540Y-102040849D01*
X148809217Y-102028461D01*
X148790545Y-102015183D01*
X148772553Y-102001045D01*
X148755273Y-101986076D01*
X148738733Y-101970307D01*
X148722964Y-101953767D01*
X148707995Y-101936486D01*
X148693857Y-101918495D01*
X148680579Y-101899823D01*
X148668191Y-101880500D01*
X148656723Y-101860556D01*
X148646206Y-101840021D01*
X148636669Y-101818925D01*
X148628141Y-101797298D01*
X148620654Y-101775169D01*
X148614236Y-101752569D01*
X148608918Y-101729528D01*
X148604730Y-101706075D01*
X148601701Y-101682241D01*
X148599862Y-101658055D01*
X148599243Y-101633547D01*
X148599862Y-101609039D01*
X148601701Y-101584853D01*
X148604730Y-101561019D01*
X148608918Y-101537566D01*
X148614236Y-101514525D01*
X148620654Y-101491925D01*
X148628141Y-101469796D01*
X148636669Y-101448169D01*
X148646206Y-101427073D01*
X148656723Y-101406538D01*
X148668191Y-101386594D01*
X148680579Y-101367271D01*
X148693857Y-101348599D01*
X148707995Y-101330608D01*
X148722964Y-101313327D01*
X148738733Y-101296787D01*
X148755273Y-101281018D01*
X148772553Y-101266049D01*
X148790545Y-101251911D01*
X148809217Y-101238633D01*
X148828540Y-101226245D01*
X148848484Y-101214778D01*
X148869018Y-101204260D01*
X148890115Y-101194723D01*
X148911742Y-101186196D01*
X148933870Y-101178708D01*
X148956470Y-101172291D01*
X148979512Y-101166973D01*
X149002964Y-101162784D01*
X149026799Y-101159756D01*
X149050985Y-101157917D01*
X149075493Y-101157297D01*
X149100000Y-101157917D01*
X150908698Y-102348783D02*
X150942289Y-102351337D01*
X150975393Y-102355543D01*
X151007966Y-102361360D01*
X151039968Y-102368746D01*
X151071357Y-102377660D01*
X151102091Y-102388059D01*
X151132129Y-102399903D01*
X151161429Y-102413149D01*
X151189949Y-102427756D01*
X151217649Y-102443684D01*
X151244487Y-102460889D01*
X151270420Y-102479330D01*
X151295408Y-102498967D01*
X151319409Y-102519757D01*
X151342381Y-102541659D01*
X151364283Y-102564631D01*
X151385072Y-102588632D01*
X151404709Y-102613619D01*
X151423151Y-102639553D01*
X151440356Y-102666390D01*
X151456283Y-102694090D01*
X151470890Y-102722611D01*
X151484137Y-102751911D01*
X151495980Y-102781949D01*
X151506380Y-102812683D01*
X151515293Y-102844072D01*
X151522679Y-102876074D01*
X151528496Y-102908647D01*
X151532702Y-102941750D01*
X151535257Y-102975342D01*
X151536117Y-103009381D01*
X151535257Y-103043419D01*
X151532702Y-103077011D01*
X151528496Y-103110114D01*
X151522679Y-103142687D01*
X151515293Y-103174689D01*
X151506380Y-103206078D01*
X151495980Y-103236812D01*
X151484137Y-103266850D01*
X151470890Y-103296150D01*
X151456283Y-103324671D01*
X151440356Y-103352371D01*
X151423151Y-103379208D01*
X151404709Y-103405141D01*
X151385072Y-103430129D01*
X151364283Y-103454130D01*
X151342381Y-103477102D01*
X151319409Y-103499004D01*
X151295408Y-103519794D01*
X151270420Y-103539430D01*
X151244487Y-103557872D01*
X151217649Y-103575077D01*
X151189949Y-103591004D01*
X151161429Y-103605612D01*
X151132129Y-103618858D01*
X151102091Y-103630702D01*
X151071357Y-103641101D01*
X151039968Y-103650014D01*
X151007966Y-103657400D01*
X150975393Y-103663217D01*
X150942289Y-103667424D01*
X150908698Y-103669978D01*
X150874659Y-103670839D01*
X150840621Y-103669978D01*
X150807029Y-103667424D01*
X150773926Y-103663217D01*
X150741352Y-103657400D01*
X150709351Y-103650014D01*
X150677962Y-103641101D01*
X150647228Y-103630702D01*
X150617190Y-103618858D01*
X150587890Y-103605612D01*
X150559369Y-103591004D01*
X150531669Y-103575077D01*
X150504832Y-103557872D01*
X150478898Y-103539430D01*
X150453910Y-103519794D01*
X150429910Y-103499004D01*
X150406937Y-103477102D01*
X150385036Y-103454130D01*
X150364246Y-103430129D01*
X150344609Y-103405141D01*
X150326167Y-103379208D01*
X150308962Y-103352371D01*
X150293035Y-103324671D01*
X150278428Y-103296150D01*
X150265181Y-103266850D01*
X150253338Y-103236812D01*
X150242939Y-103206078D01*
X150234025Y-103174689D01*
X150226639Y-103142687D01*
X150220822Y-103110114D01*
X150216616Y-103077011D01*
X150214061Y-103043419D01*
X150213201Y-103009381D01*
X150214061Y-102975342D01*
X150216616Y-102941750D01*
X150220822Y-102908647D01*
X150226639Y-102876074D01*
X150234025Y-102844072D01*
X150242939Y-102812683D01*
X150253338Y-102781949D01*
X150265181Y-102751911D01*
X150278428Y-102722611D01*
X150293035Y-102694090D01*
X150308962Y-102666390D01*
X150326167Y-102639553D01*
X150344609Y-102613619D01*
X150364246Y-102588632D01*
X150385036Y-102564631D01*
X150406937Y-102541659D01*
X150429910Y-102519757D01*
X150453910Y-102498967D01*
X150478898Y-102479330D01*
X150504832Y-102460889D01*
X150531669Y-102443684D01*
X150559369Y-102427756D01*
X150587890Y-102413149D01*
X150617190Y-102399903D01*
X150647228Y-102388059D01*
X150677962Y-102377660D01*
X150709351Y-102368746D01*
X150741352Y-102361360D01*
X150773926Y-102355543D01*
X150807029Y-102351337D01*
X150840621Y-102348783D01*
X150874659Y-102347922D01*
X150908698Y-102348783D01*
X151216667Y-99729167D02*
X151240853Y-99731006D01*
X151264687Y-99734035D01*
X151288140Y-99738223D01*
X151311181Y-99743541D01*
X151333781Y-99749958D01*
X151355910Y-99757446D01*
X151377537Y-99765973D01*
X151398633Y-99775511D01*
X151419168Y-99786028D01*
X151439112Y-99797495D01*
X151458435Y-99809883D01*
X151477107Y-99823161D01*
X151495098Y-99837300D01*
X151512379Y-99852268D01*
X151528919Y-99868038D01*
X151544688Y-99884577D01*
X151559657Y-99901858D01*
X151573795Y-99919849D01*
X151587073Y-99938521D01*
X151599461Y-99957844D01*
X151610928Y-99977788D01*
X151621446Y-99998323D01*
X151630983Y-100019419D01*
X151639510Y-100041047D01*
X151646998Y-100063175D01*
X151653415Y-100085775D01*
X151658733Y-100108816D01*
X151662921Y-100132269D01*
X151665950Y-100156103D01*
X151667789Y-100180289D01*
X151668409Y-100204797D01*
X151667789Y-100229305D01*
X151665950Y-100253491D01*
X151662921Y-100277325D01*
X151658733Y-100300778D01*
X151653415Y-100323819D01*
X151646998Y-100346419D01*
X151639510Y-100368548D01*
X151630983Y-100390175D01*
X151621446Y-100411271D01*
X151610928Y-100431806D01*
X151599461Y-100451750D01*
X151587073Y-100471073D01*
X151573795Y-100489745D01*
X151559657Y-100507736D01*
X151544688Y-100525017D01*
X151528919Y-100541557D01*
X151512379Y-100557326D01*
X151495098Y-100572295D01*
X151477107Y-100586433D01*
X151458435Y-100599711D01*
X151439112Y-100612099D01*
X151419168Y-100623566D01*
X151398633Y-100634084D01*
X151377537Y-100643621D01*
X151355910Y-100652148D01*
X151333781Y-100659636D01*
X151311181Y-100666053D01*
X151288140Y-100671371D01*
X151264687Y-100675560D01*
X151240853Y-100678588D01*
X151216667Y-100680427D01*
X151192159Y-100681047D01*
X151167651Y-100680427D01*
X151143465Y-100678588D01*
X151119631Y-100675560D01*
X151096178Y-100671371D01*
X151073137Y-100666053D01*
X151050537Y-100659636D01*
X151028408Y-100652148D01*
X151006781Y-100643621D01*
X150985685Y-100634084D01*
X150965150Y-100623566D01*
X150945206Y-100612099D01*
X150925883Y-100599711D01*
X150907211Y-100586433D01*
X150889220Y-100572295D01*
X150871939Y-100557326D01*
X150855400Y-100541557D01*
X150839630Y-100525017D01*
X150824661Y-100507736D01*
X150810523Y-100489745D01*
X150797245Y-100471073D01*
X150784857Y-100451750D01*
X150773390Y-100431806D01*
X150762873Y-100411271D01*
X150753335Y-100390175D01*
X150744808Y-100368548D01*
X150737320Y-100346419D01*
X150730903Y-100323819D01*
X150725585Y-100300778D01*
X150721397Y-100277325D01*
X150718368Y-100253491D01*
X150716529Y-100229305D01*
X150715909Y-100204797D01*
X150716529Y-100180289D01*
X150718368Y-100156103D01*
X150721397Y-100132269D01*
X150725585Y-100108816D01*
X150730903Y-100085775D01*
X150737320Y-100063175D01*
X150744808Y-100041047D01*
X150753335Y-100019419D01*
X150762873Y-99998323D01*
X150773390Y-99977788D01*
X150784857Y-99957844D01*
X150797245Y-99938521D01*
X150810523Y-99919849D01*
X150824661Y-99901858D01*
X150839630Y-99884577D01*
X150855400Y-99868038D01*
X150871939Y-99852268D01*
X150889220Y-99837300D01*
X150907211Y-99823161D01*
X150925883Y-99809883D01*
X150945206Y-99797495D01*
X150965150Y-99786028D01*
X150985685Y-99775511D01*
X151006781Y-99765973D01*
X151028408Y-99757446D01*
X151050537Y-99749958D01*
X151073137Y-99743541D01*
X151096178Y-99738223D01*
X151119631Y-99734035D01*
X151143465Y-99731006D01*
X151167651Y-99729167D01*
X151192159Y-99728547D01*
X151216667Y-99729167D01*
X152539583Y-100681667D02*
X152563769Y-100683506D01*
X152587604Y-100686535D01*
X152611057Y-100690723D01*
X152634098Y-100696041D01*
X152656698Y-100702458D01*
X152678826Y-100709946D01*
X152700454Y-100718473D01*
X152721550Y-100728011D01*
X152742085Y-100738528D01*
X152762029Y-100749995D01*
X152781352Y-100762383D01*
X152800024Y-100775661D01*
X152818015Y-100789799D01*
X152835295Y-100804768D01*
X152851835Y-100820538D01*
X152867605Y-100837077D01*
X152882573Y-100854358D01*
X152896712Y-100872349D01*
X152909990Y-100891021D01*
X152922377Y-100910344D01*
X152933845Y-100930288D01*
X152944362Y-100950823D01*
X152953900Y-100971919D01*
X152962427Y-100993546D01*
X152969914Y-101015675D01*
X152976332Y-101038275D01*
X152981650Y-101061316D01*
X152985838Y-101084769D01*
X152988867Y-101108603D01*
X152990706Y-101132789D01*
X152991326Y-101157297D01*
X152990706Y-101181805D01*
X152988867Y-101205991D01*
X152985838Y-101229825D01*
X152981650Y-101253278D01*
X152976332Y-101276319D01*
X152969914Y-101298919D01*
X152962427Y-101321048D01*
X152953900Y-101342675D01*
X152944362Y-101363771D01*
X152933845Y-101384306D01*
X152922377Y-101404250D01*
X152909990Y-101423573D01*
X152896712Y-101442245D01*
X152882573Y-101460236D01*
X152867605Y-101477517D01*
X152851835Y-101494057D01*
X152835295Y-101509826D01*
X152818015Y-101524795D01*
X152800024Y-101538933D01*
X152781352Y-101552211D01*
X152762029Y-101564599D01*
X152742085Y-101576066D01*
X152721550Y-101586584D01*
X152700454Y-101596121D01*
X152678826Y-101604648D01*
X152656698Y-101612136D01*
X152634098Y-101618553D01*
X152611057Y-101623871D01*
X152587604Y-101628060D01*
X152563769Y-101631088D01*
X152539583Y-101632927D01*
X152515076Y-101633547D01*
X152490568Y-101632927D01*
X152466382Y-101631088D01*
X152442547Y-101628060D01*
X152419095Y-101623871D01*
X152396053Y-101618553D01*
X152373453Y-101612136D01*
X152351325Y-101604648D01*
X152329698Y-101596121D01*
X152308602Y-101586584D01*
X152288067Y-101576066D01*
X152268123Y-101564599D01*
X152248800Y-101552211D01*
X152230128Y-101538933D01*
X152212136Y-101524795D01*
X152194856Y-101509826D01*
X152178316Y-101494057D01*
X152162547Y-101477517D01*
X152147578Y-101460236D01*
X152133440Y-101442245D01*
X152120162Y-101423573D01*
X152107774Y-101404250D01*
X152096306Y-101384306D01*
X152085789Y-101363771D01*
X152076252Y-101342675D01*
X152067724Y-101321048D01*
X152060237Y-101298919D01*
X152053819Y-101276319D01*
X152048501Y-101253278D01*
X152044313Y-101229825D01*
X152041284Y-101205991D01*
X152039445Y-101181805D01*
X152038826Y-101157297D01*
X152039445Y-101132789D01*
X152041284Y-101108603D01*
X152044313Y-101084769D01*
X152048501Y-101061316D01*
X152053819Y-101038275D01*
X152060237Y-101015675D01*
X152067724Y-100993546D01*
X152076252Y-100971919D01*
X152085789Y-100950823D01*
X152096306Y-100930288D01*
X152107774Y-100910344D01*
X152120162Y-100891021D01*
X152133440Y-100872349D01*
X152147578Y-100854358D01*
X152162547Y-100837077D01*
X152178316Y-100820538D01*
X152194856Y-100804768D01*
X152212136Y-100789799D01*
X152230128Y-100775661D01*
X152248800Y-100762383D01*
X152268123Y-100749995D01*
X152288067Y-100738528D01*
X152308602Y-100728011D01*
X152329698Y-100718473D01*
X152351325Y-100709946D01*
X152373453Y-100702458D01*
X152396053Y-100696041D01*
X152419095Y-100690723D01*
X152442547Y-100686535D01*
X152466382Y-100683506D01*
X152490568Y-100681667D01*
X152515076Y-100681047D01*
X152539583Y-100681667D01*
D10*
G36*
X164700701Y-100257139D02*
G01*
X164788101Y-100264305D01*
X164869472Y-100276249D01*
X164944817Y-100292970D01*
X164980228Y-100303121D01*
X165014133Y-100314468D01*
X165046531Y-100327008D01*
X165077422Y-100340743D01*
X165106807Y-100355673D01*
X165134684Y-100371796D01*
X165161054Y-100389114D01*
X165185918Y-100407627D01*
X165209274Y-100427333D01*
X165231124Y-100448235D01*
X165251467Y-100470330D01*
X165270303Y-100493620D01*
X165287632Y-100518104D01*
X165303454Y-100543782D01*
X165317770Y-100570655D01*
X165330578Y-100598722D01*
X165341880Y-100627984D01*
X165351674Y-100658439D01*
X165359962Y-100690089D01*
X165366743Y-100722934D01*
X165372017Y-100756973D01*
X165375784Y-100792206D01*
X165378045Y-100828634D01*
X165378798Y-100866255D01*
X165378419Y-100892029D01*
X165377280Y-100917199D01*
X165375383Y-100941767D01*
X165372726Y-100965732D01*
X165369311Y-100989095D01*
X165365136Y-101011854D01*
X165360203Y-101034011D01*
X165354510Y-101055565D01*
X165348058Y-101076516D01*
X165340848Y-101096865D01*
X165332878Y-101116611D01*
X165324149Y-101135754D01*
X165314662Y-101154294D01*
X165304415Y-101172231D01*
X165293409Y-101189566D01*
X165281644Y-101206298D01*
X165269310Y-101222483D01*
X165256596Y-101238177D01*
X165243503Y-101253380D01*
X165230030Y-101268092D01*
X165216178Y-101282312D01*
X165201946Y-101296041D01*
X165187335Y-101309280D01*
X165172345Y-101322027D01*
X165156974Y-101334283D01*
X165141225Y-101346048D01*
X165125095Y-101357321D01*
X165108587Y-101368104D01*
X165091698Y-101378396D01*
X165074430Y-101388196D01*
X165056783Y-101397505D01*
X165038756Y-101406323D01*
X165598827Y-102295005D01*
X165081621Y-102295005D01*
X164650139Y-101512050D01*
X164475830Y-101512050D01*
X164475830Y-102295005D01*
X164012917Y-102295005D01*
X164012917Y-101160578D01*
X164475830Y-101160578D01*
X164590131Y-101160578D01*
X164629232Y-101159473D01*
X164665810Y-101156157D01*
X164683153Y-101153671D01*
X164699866Y-101150632D01*
X164715947Y-101147041D01*
X164731399Y-101142897D01*
X164746219Y-101138200D01*
X164760409Y-101132951D01*
X164773968Y-101127150D01*
X164786896Y-101120796D01*
X164799194Y-101113889D01*
X164810862Y-101106430D01*
X164821898Y-101098419D01*
X164832304Y-101089855D01*
X164842079Y-101080738D01*
X164851224Y-101071069D01*
X164859738Y-101060847D01*
X164867621Y-101050073D01*
X164874873Y-101038746D01*
X164881495Y-101026867D01*
X164887487Y-101014435D01*
X164892847Y-101001451D01*
X164897577Y-100987914D01*
X164901676Y-100973825D01*
X164905145Y-100959183D01*
X164907983Y-100943988D01*
X164910190Y-100928241D01*
X164911767Y-100911942D01*
X164912713Y-100895090D01*
X164913028Y-100877685D01*
X164912716Y-100859804D01*
X164911778Y-100842592D01*
X164910215Y-100826049D01*
X164908028Y-100810177D01*
X164905215Y-100794974D01*
X164901777Y-100780441D01*
X164897714Y-100766578D01*
X164893026Y-100753384D01*
X164887712Y-100740860D01*
X164881774Y-100729006D01*
X164875211Y-100717822D01*
X164868023Y-100707307D01*
X164860209Y-100697462D01*
X164851771Y-100688287D01*
X164842707Y-100679781D01*
X164833019Y-100671945D01*
X164823017Y-100664333D01*
X164812302Y-100657211D01*
X164800872Y-100650581D01*
X164788727Y-100644442D01*
X164775868Y-100638794D01*
X164762295Y-100633637D01*
X164748007Y-100628971D01*
X164733005Y-100624797D01*
X164717289Y-100621113D01*
X164700859Y-100617921D01*
X164683713Y-100615219D01*
X164665854Y-100613009D01*
X164647280Y-100611290D01*
X164627992Y-100610063D01*
X164607990Y-100609326D01*
X164587273Y-100609080D01*
X164587273Y-100609081D01*
X164475830Y-100609081D01*
X164475830Y-101160578D01*
X164012917Y-101160578D01*
X164012917Y-100609081D01*
X164012917Y-100254750D01*
X164607274Y-100254750D01*
X164700701Y-100257139D01*
G37*
G36*
X166639876Y-100223831D02*
G01*
X166678508Y-100225372D01*
X166716225Y-100227939D01*
X166753026Y-100231533D01*
X166788912Y-100236154D01*
X166823883Y-100241802D01*
X166857939Y-100248477D01*
X166891079Y-100256179D01*
X166923304Y-100264908D01*
X166954613Y-100274664D01*
X166985008Y-100285446D01*
X167014487Y-100297256D01*
X167043050Y-100310092D01*
X167070699Y-100323956D01*
X167097432Y-100338846D01*
X167123250Y-100354763D01*
X167148197Y-100371261D01*
X167172318Y-100388607D01*
X167195614Y-100406801D01*
X167218083Y-100425843D01*
X167239726Y-100445734D01*
X167260544Y-100466473D01*
X167280535Y-100488061D01*
X167299700Y-100510497D01*
X167318040Y-100533781D01*
X167335553Y-100557913D01*
X167352241Y-100582894D01*
X167368102Y-100608723D01*
X167383138Y-100635401D01*
X167397347Y-100662926D01*
X167410731Y-100691301D01*
X167423288Y-100720523D01*
X167435053Y-100750136D01*
X167446059Y-100780396D01*
X167456305Y-100811304D01*
X167465793Y-100842860D01*
X167474522Y-100875062D01*
X167482491Y-100907912D01*
X167489702Y-100941410D01*
X167496154Y-100975555D01*
X167501846Y-101010347D01*
X167506780Y-101045787D01*
X167510955Y-101081874D01*
X167514370Y-101118608D01*
X167517027Y-101155990D01*
X167518924Y-101194020D01*
X167520063Y-101232696D01*
X167520443Y-101272021D01*
X167520444Y-101272021D01*
X167518926Y-101350066D01*
X167517029Y-101388151D01*
X167514372Y-101425611D01*
X167510957Y-101462446D01*
X167506782Y-101498656D01*
X167501848Y-101534241D01*
X167496156Y-101569201D01*
X167489704Y-101603535D01*
X167482494Y-101637245D01*
X167474524Y-101670329D01*
X167465795Y-101702789D01*
X167456307Y-101734623D01*
X167446061Y-101765832D01*
X167435055Y-101796416D01*
X167423290Y-101826375D01*
X167410732Y-101855263D01*
X167397349Y-101883347D01*
X167383139Y-101910627D01*
X167368104Y-101937104D01*
X167352243Y-101962776D01*
X167335555Y-101987646D01*
X167318042Y-102011711D01*
X167299703Y-102034973D01*
X167280537Y-102057431D01*
X167260546Y-102079086D01*
X167239729Y-102099936D01*
X167218085Y-102119984D01*
X167195616Y-102139227D01*
X167172320Y-102157667D01*
X167148199Y-102175303D01*
X167123252Y-102192135D01*
X167097422Y-102208053D01*
X167070656Y-102222943D01*
X167042951Y-102236806D01*
X167014309Y-102249643D01*
X166984729Y-102261452D01*
X166954212Y-102272235D01*
X166922757Y-102281990D01*
X166890365Y-102290719D01*
X166857035Y-102298421D01*
X166822767Y-102305096D01*
X166787562Y-102310744D01*
X166751419Y-102315365D01*
X166714339Y-102318959D01*
X166676321Y-102321527D01*
X166637365Y-102323067D01*
X166597472Y-102323580D01*
X166558259Y-102323067D01*
X166519917Y-102321527D01*
X166482446Y-102318959D01*
X166445845Y-102315365D01*
X166410115Y-102310744D01*
X166375256Y-102305096D01*
X166341268Y-102298421D01*
X166308150Y-102290719D01*
X166275902Y-102281990D01*
X166244526Y-102272235D01*
X166214020Y-102261452D01*
X166184384Y-102249643D01*
X166155619Y-102236806D01*
X166127725Y-102222943D01*
X166100702Y-102208053D01*
X166074549Y-102192135D01*
X166049590Y-102175292D01*
X166025436Y-102157622D01*
X166002085Y-102139127D01*
X165979537Y-102119805D01*
X165957794Y-102099657D01*
X165936853Y-102078684D01*
X165916717Y-102056884D01*
X165897384Y-102034258D01*
X165878855Y-102010807D01*
X165861130Y-101986529D01*
X165844208Y-101961426D01*
X165828090Y-101935496D01*
X165812775Y-101908741D01*
X165798265Y-101881159D01*
X165784557Y-101852751D01*
X165771654Y-101823518D01*
X165759889Y-101793559D01*
X165748884Y-101762975D01*
X165738637Y-101731765D01*
X165729149Y-101699931D01*
X165720421Y-101667472D01*
X165712451Y-101634387D01*
X165705240Y-101600677D01*
X165698789Y-101566343D01*
X165693096Y-101531383D01*
X165688162Y-101495798D01*
X165683988Y-101459588D01*
X165680572Y-101422753D01*
X165677915Y-101385293D01*
X165676018Y-101347208D01*
X165674879Y-101308498D01*
X165674527Y-101272021D01*
X166160274Y-101272021D01*
X166160676Y-101311501D01*
X166161881Y-101349932D01*
X166163891Y-101387314D01*
X166166704Y-101423647D01*
X166170320Y-101458930D01*
X166174740Y-101493164D01*
X166179964Y-101526349D01*
X166185992Y-101558485D01*
X166192823Y-101589571D01*
X166200458Y-101619608D01*
X166208897Y-101648596D01*
X166218139Y-101676535D01*
X166228185Y-101703425D01*
X166239034Y-101729265D01*
X166250687Y-101754056D01*
X166263144Y-101777798D01*
X166269699Y-101789049D01*
X166276505Y-101799944D01*
X166283562Y-101810481D01*
X166290871Y-101820660D01*
X166298430Y-101830483D01*
X166306241Y-101839949D01*
X166314303Y-101849057D01*
X166322616Y-101857808D01*
X166331180Y-101866202D01*
X166339995Y-101874239D01*
X166349062Y-101881918D01*
X166358379Y-101889240D01*
X166367948Y-101896206D01*
X166377768Y-101902814D01*
X166387839Y-101909064D01*
X166398161Y-101914958D01*
X166408734Y-101920494D01*
X166419559Y-101925674D01*
X166430635Y-101930496D01*
X166441961Y-101934960D01*
X166453539Y-101939068D01*
X166465368Y-101942819D01*
X166477449Y-101946212D01*
X166489780Y-101949248D01*
X166502362Y-101951927D01*
X166515196Y-101954249D01*
X166528281Y-101956213D01*
X166541617Y-101957820D01*
X166555204Y-101959071D01*
X166569042Y-101959964D01*
X166597472Y-101960678D01*
X166626583Y-101959964D01*
X166654622Y-101957820D01*
X166681589Y-101954249D01*
X166707485Y-101949248D01*
X166732310Y-101942819D01*
X166756063Y-101934960D01*
X166778744Y-101925674D01*
X166800354Y-101914958D01*
X166820892Y-101902814D01*
X166840359Y-101889240D01*
X166858754Y-101874239D01*
X166876077Y-101857808D01*
X166892329Y-101839949D01*
X166907510Y-101820660D01*
X166921619Y-101799944D01*
X166934656Y-101777798D01*
X166946767Y-101754056D01*
X166958097Y-101729265D01*
X166968645Y-101703425D01*
X166978412Y-101676535D01*
X166987398Y-101648596D01*
X166995602Y-101619608D01*
X167003025Y-101589571D01*
X167009667Y-101558485D01*
X167015527Y-101526349D01*
X167020606Y-101493164D01*
X167024903Y-101458930D01*
X167028419Y-101423647D01*
X167031154Y-101387314D01*
X167033107Y-101349932D01*
X167034279Y-101311501D01*
X167034670Y-101272021D01*
X167034279Y-101232205D01*
X167033107Y-101193484D01*
X167031154Y-101155856D01*
X167028419Y-101119323D01*
X167024903Y-101083883D01*
X167020606Y-101049537D01*
X167015527Y-101016285D01*
X167009667Y-100984127D01*
X167003025Y-100953063D01*
X166995602Y-100923093D01*
X166987398Y-100894217D01*
X166978412Y-100866434D01*
X166968645Y-100839746D01*
X166958097Y-100814151D01*
X166946767Y-100789650D01*
X166934656Y-100766243D01*
X166928274Y-100754992D01*
X166921630Y-100744098D01*
X166914723Y-100733560D01*
X166907555Y-100723381D01*
X166900123Y-100713558D01*
X166892430Y-100704092D01*
X166884474Y-100694984D01*
X166876256Y-100686233D01*
X166867776Y-100677839D01*
X166859033Y-100669802D01*
X166850028Y-100662123D01*
X166840761Y-100654801D01*
X166831231Y-100647835D01*
X166821439Y-100641227D01*
X166811385Y-100634977D01*
X166801068Y-100629083D01*
X166790489Y-100623547D01*
X166779648Y-100618367D01*
X166768545Y-100613545D01*
X166757179Y-100609081D01*
X166745551Y-100604973D01*
X166733661Y-100601222D01*
X166721508Y-100597829D01*
X166709093Y-100594793D01*
X166696416Y-100592114D01*
X166683476Y-100589792D01*
X166670274Y-100587828D01*
X166656810Y-100586220D01*
X166643083Y-100584970D01*
X166629094Y-100584077D01*
X166600330Y-100583363D01*
X166571554Y-100584077D01*
X166543805Y-100586220D01*
X166517083Y-100589792D01*
X166491387Y-100594793D01*
X166466719Y-100601222D01*
X166443078Y-100609081D01*
X166420463Y-100618367D01*
X166398875Y-100629083D01*
X166378315Y-100641227D01*
X166358781Y-100654801D01*
X166340274Y-100669802D01*
X166322794Y-100686233D01*
X166306341Y-100704092D01*
X166290915Y-100723381D01*
X166276516Y-100744098D01*
X166263144Y-100766243D01*
X166250687Y-100789650D01*
X166239034Y-100814151D01*
X166228185Y-100839746D01*
X166218139Y-100866434D01*
X166208897Y-100894217D01*
X166200458Y-100923093D01*
X166192823Y-100953063D01*
X166185992Y-100984127D01*
X166179964Y-101016285D01*
X166174740Y-101049537D01*
X166170320Y-101083883D01*
X166166704Y-101119323D01*
X166163891Y-101155856D01*
X166161881Y-101193484D01*
X166160676Y-101232205D01*
X166160274Y-101272021D01*
X165674527Y-101272021D01*
X165674500Y-101269163D01*
X165676018Y-101191162D01*
X165677915Y-101153133D01*
X165680572Y-101115751D01*
X165683988Y-101079016D01*
X165688162Y-101042929D01*
X165693096Y-101007490D01*
X165698789Y-100972697D01*
X165705240Y-100938552D01*
X165712451Y-100905055D01*
X165720421Y-100872205D01*
X165729149Y-100840002D01*
X165738637Y-100808447D01*
X165748884Y-100777539D01*
X165759889Y-100747278D01*
X165771654Y-100717665D01*
X165784569Y-100688789D01*
X165798310Y-100660739D01*
X165812876Y-100633514D01*
X165828269Y-100607116D01*
X165844487Y-100581543D01*
X165861532Y-100556797D01*
X165879403Y-100532877D01*
X165898099Y-100509782D01*
X165917622Y-100487514D01*
X165937970Y-100466071D01*
X165959144Y-100445455D01*
X165981145Y-100425665D01*
X166003971Y-100406700D01*
X166027624Y-100388562D01*
X166052102Y-100371249D01*
X166077407Y-100354763D01*
X166103559Y-100338846D01*
X166130583Y-100323956D01*
X166158477Y-100310092D01*
X166187241Y-100297256D01*
X166216877Y-100285446D01*
X166247383Y-100274664D01*
X166278759Y-100264908D01*
X166311006Y-100256179D01*
X166344124Y-100248477D01*
X166378113Y-100241802D01*
X166412972Y-100236154D01*
X166448702Y-100231533D01*
X166485302Y-100227939D01*
X166522774Y-100225372D01*
X166561116Y-100223831D01*
X166600328Y-100223318D01*
X166639876Y-100223831D01*
G37*
D11*
X149472368Y-100072506D02*
X150424868Y-101210214D01*
X149604659Y-101681172D02*
X149842784Y-101739380D01*
X149842784Y-101739380D02*
X150504243Y-102427297D01*
X150424868Y-101210214D02*
X150424868Y-102533130D01*
X151192159Y-100681047D02*
X151192159Y-102427297D01*
X151192159Y-103644380D02*
X154102576Y-103644380D01*
X151536117Y-102850630D02*
X154102576Y-102850630D01*
X151536117Y-103247505D02*
X154102576Y-103247505D01*
X152208159Y-101519776D02*
X151350909Y-102533130D01*
D12*
X153500000Y-109000000D02*
X168800000Y-109000000D01*
X168800000Y-111400000D01*
X153500000Y-111400000D01*
X153500000Y-109000000D01*
G36*
X153500000Y-109000000D02*
G01*
X168800000Y-109000000D01*
X168800000Y-111400000D01*
X153500000Y-111400000D01*
X153500000Y-109000000D01*
G37*
X138888408Y-114927631D02*
X138507456Y-114927631D01*
X138507456Y-114927631D02*
X138469360Y-115308583D01*
X138469360Y-115308583D02*
X138507456Y-115270488D01*
X138507456Y-115270488D02*
X138583646Y-115232393D01*
X138583646Y-115232393D02*
X138774122Y-115232393D01*
X138774122Y-115232393D02*
X138850313Y-115270488D01*
X138850313Y-115270488D02*
X138888408Y-115308583D01*
X138888408Y-115308583D02*
X138926503Y-115384774D01*
X138926503Y-115384774D02*
X138926503Y-115575250D01*
X138926503Y-115575250D02*
X138888408Y-115651440D01*
X138888408Y-115651440D02*
X138850313Y-115689536D01*
X138850313Y-115689536D02*
X138774122Y-115727631D01*
X138774122Y-115727631D02*
X138583646Y-115727631D01*
X138583646Y-115727631D02*
X138507456Y-115689536D01*
X138507456Y-115689536D02*
X138469360Y-115651440D01*
X139155075Y-114927631D02*
X139421742Y-115727631D01*
X139421742Y-115727631D02*
X139688408Y-114927631D01*
X143511265Y-114965726D02*
X143435075Y-114927631D01*
X143435075Y-114927631D02*
X143320789Y-114927631D01*
X143320789Y-114927631D02*
X143206503Y-114965726D01*
X143206503Y-114965726D02*
X143130313Y-115041916D01*
X143130313Y-115041916D02*
X143092218Y-115118107D01*
X143092218Y-115118107D02*
X143054122Y-115270488D01*
X143054122Y-115270488D02*
X143054122Y-115384774D01*
X143054122Y-115384774D02*
X143092218Y-115537155D01*
X143092218Y-115537155D02*
X143130313Y-115613345D01*
X143130313Y-115613345D02*
X143206503Y-115689536D01*
X143206503Y-115689536D02*
X143320789Y-115727631D01*
X143320789Y-115727631D02*
X143396980Y-115727631D01*
X143396980Y-115727631D02*
X143511265Y-115689536D01*
X143511265Y-115689536D02*
X143549361Y-115651440D01*
X143549361Y-115651440D02*
X143549361Y-115384774D01*
X143549361Y-115384774D02*
X143396980Y-115384774D01*
X143892218Y-115727631D02*
X143892218Y-114927631D01*
X143892218Y-114927631D02*
X144349361Y-115727631D01*
X144349361Y-115727631D02*
X144349361Y-114927631D01*
X144730313Y-115727631D02*
X144730313Y-114927631D01*
X144730313Y-114927631D02*
X144920789Y-114927631D01*
X144920789Y-114927631D02*
X145035075Y-114965726D01*
X145035075Y-114965726D02*
X145111265Y-115041916D01*
X145111265Y-115041916D02*
X145149360Y-115118107D01*
X145149360Y-115118107D02*
X145187456Y-115270488D01*
X145187456Y-115270488D02*
X145187456Y-115384774D01*
X145187456Y-115384774D02*
X145149360Y-115537155D01*
X145149360Y-115537155D02*
X145111265Y-115613345D01*
X145111265Y-115613345D02*
X145035075Y-115689536D01*
X145035075Y-115689536D02*
X144920789Y-115727631D01*
X144920789Y-115727631D02*
X144730313Y-115727631D01*
X144496895Y-73815163D02*
X145068323Y-73815163D01*
X145068323Y-73815163D02*
X145182609Y-73853258D01*
X145182609Y-73853258D02*
X145258800Y-73929449D01*
X145258800Y-73929449D02*
X145296895Y-74043734D01*
X145296895Y-74043734D02*
X145296895Y-74119925D01*
X145296895Y-73053258D02*
X145296895Y-73434210D01*
X145296895Y-73434210D02*
X144496895Y-73434210D01*
X145220704Y-72329448D02*
X145258800Y-72367544D01*
X145258800Y-72367544D02*
X145296895Y-72481829D01*
X145296895Y-72481829D02*
X145296895Y-72558020D01*
X145296895Y-72558020D02*
X145258800Y-72672306D01*
X145258800Y-72672306D02*
X145182609Y-72748496D01*
X145182609Y-72748496D02*
X145106419Y-72786591D01*
X145106419Y-72786591D02*
X144954038Y-72824687D01*
X144954038Y-72824687D02*
X144839752Y-72824687D01*
X144839752Y-72824687D02*
X144687371Y-72786591D01*
X144687371Y-72786591D02*
X144611180Y-72748496D01*
X144611180Y-72748496D02*
X144534990Y-72672306D01*
X144534990Y-72672306D02*
X144496895Y-72558020D01*
X144496895Y-72558020D02*
X144496895Y-72481829D01*
X144496895Y-72481829D02*
X144534990Y-72367544D01*
X144534990Y-72367544D02*
X144573085Y-72329448D01*
X144496895Y-71758020D02*
X145068323Y-71758020D01*
X145068323Y-71758020D02*
X145182609Y-71796115D01*
X145182609Y-71796115D02*
X145258800Y-71872306D01*
X145258800Y-71872306D02*
X145296895Y-71986591D01*
X145296895Y-71986591D02*
X145296895Y-72062782D01*
X145296895Y-70996115D02*
X145296895Y-71377067D01*
X145296895Y-71377067D02*
X144496895Y-71377067D01*
X145220704Y-70272305D02*
X145258800Y-70310401D01*
X145258800Y-70310401D02*
X145296895Y-70424686D01*
X145296895Y-70424686D02*
X145296895Y-70500877D01*
X145296895Y-70500877D02*
X145258800Y-70615163D01*
X145258800Y-70615163D02*
X145182609Y-70691353D01*
X145182609Y-70691353D02*
X145106419Y-70729448D01*
X145106419Y-70729448D02*
X144954038Y-70767544D01*
X144954038Y-70767544D02*
X144839752Y-70767544D01*
X144839752Y-70767544D02*
X144687371Y-70729448D01*
X144687371Y-70729448D02*
X144611180Y-70691353D01*
X144611180Y-70691353D02*
X144534990Y-70615163D01*
X144534990Y-70615163D02*
X144496895Y-70500877D01*
X144496895Y-70500877D02*
X144496895Y-70424686D01*
X144496895Y-70424686D02*
X144534990Y-70310401D01*
X144534990Y-70310401D02*
X144573085Y-70272305D01*
X144496895Y-69700877D02*
X145068323Y-69700877D01*
X145068323Y-69700877D02*
X145182609Y-69738972D01*
X145182609Y-69738972D02*
X145258800Y-69815163D01*
X145258800Y-69815163D02*
X145296895Y-69929448D01*
X145296895Y-69929448D02*
X145296895Y-70005639D01*
X145296895Y-68938972D02*
X145296895Y-69319924D01*
X145296895Y-69319924D02*
X144496895Y-69319924D01*
X145220704Y-68215162D02*
X145258800Y-68253258D01*
X145258800Y-68253258D02*
X145296895Y-68367543D01*
X145296895Y-68367543D02*
X145296895Y-68443734D01*
X145296895Y-68443734D02*
X145258800Y-68558020D01*
X145258800Y-68558020D02*
X145182609Y-68634210D01*
X145182609Y-68634210D02*
X145106419Y-68672305D01*
X145106419Y-68672305D02*
X144954038Y-68710401D01*
X144954038Y-68710401D02*
X144839752Y-68710401D01*
X144839752Y-68710401D02*
X144687371Y-68672305D01*
X144687371Y-68672305D02*
X144611180Y-68634210D01*
X144611180Y-68634210D02*
X144534990Y-68558020D01*
X144534990Y-68558020D02*
X144496895Y-68443734D01*
X144496895Y-68443734D02*
X144496895Y-68367543D01*
X144496895Y-68367543D02*
X144534990Y-68253258D01*
X144534990Y-68253258D02*
X144573085Y-68215162D01*
X144496895Y-67643734D02*
X145068323Y-67643734D01*
X145068323Y-67643734D02*
X145182609Y-67681829D01*
X145182609Y-67681829D02*
X145258800Y-67758020D01*
X145258800Y-67758020D02*
X145296895Y-67872305D01*
X145296895Y-67872305D02*
X145296895Y-67948496D01*
X145296895Y-66881829D02*
X145296895Y-67262781D01*
X145296895Y-67262781D02*
X144496895Y-67262781D01*
X145220704Y-66158019D02*
X145258800Y-66196115D01*
X145258800Y-66196115D02*
X145296895Y-66310400D01*
X145296895Y-66310400D02*
X145296895Y-66386591D01*
X145296895Y-66386591D02*
X145258800Y-66500877D01*
X145258800Y-66500877D02*
X145182609Y-66577067D01*
X145182609Y-66577067D02*
X145106419Y-66615162D01*
X145106419Y-66615162D02*
X144954038Y-66653258D01*
X144954038Y-66653258D02*
X144839752Y-66653258D01*
X144839752Y-66653258D02*
X144687371Y-66615162D01*
X144687371Y-66615162D02*
X144611180Y-66577067D01*
X144611180Y-66577067D02*
X144534990Y-66500877D01*
X144534990Y-66500877D02*
X144496895Y-66386591D01*
X144496895Y-66386591D02*
X144496895Y-66310400D01*
X144496895Y-66310400D02*
X144534990Y-66196115D01*
X144534990Y-66196115D02*
X144573085Y-66158019D01*
X166911490Y-61828735D02*
X166873395Y-61904925D01*
X166873395Y-61904925D02*
X166873395Y-62019211D01*
X166873395Y-62019211D02*
X166911490Y-62133497D01*
X166911490Y-62133497D02*
X166987680Y-62209687D01*
X166987680Y-62209687D02*
X167063871Y-62247782D01*
X167063871Y-62247782D02*
X167216252Y-62285878D01*
X167216252Y-62285878D02*
X167330538Y-62285878D01*
X167330538Y-62285878D02*
X167482919Y-62247782D01*
X167482919Y-62247782D02*
X167559109Y-62209687D01*
X167559109Y-62209687D02*
X167635300Y-62133497D01*
X167635300Y-62133497D02*
X167673395Y-62019211D01*
X167673395Y-62019211D02*
X167673395Y-61943020D01*
X167673395Y-61943020D02*
X167635300Y-61828735D01*
X167635300Y-61828735D02*
X167597204Y-61790639D01*
X167597204Y-61790639D02*
X167330538Y-61790639D01*
X167330538Y-61790639D02*
X167330538Y-61943020D01*
X167673395Y-61447782D02*
X166873395Y-61447782D01*
X166873395Y-61447782D02*
X167673395Y-60990639D01*
X167673395Y-60990639D02*
X166873395Y-60990639D01*
X167673395Y-60609687D02*
X166873395Y-60609687D01*
X166873395Y-60609687D02*
X166873395Y-60419211D01*
X166873395Y-60419211D02*
X166911490Y-60304925D01*
X166911490Y-60304925D02*
X166987680Y-60228735D01*
X166987680Y-60228735D02*
X167063871Y-60190640D01*
X167063871Y-60190640D02*
X167216252Y-60152544D01*
X167216252Y-60152544D02*
X167330538Y-60152544D01*
X167330538Y-60152544D02*
X167482919Y-60190640D01*
X167482919Y-60190640D02*
X167559109Y-60228735D01*
X167559109Y-60228735D02*
X167635300Y-60304925D01*
X167635300Y-60304925D02*
X167673395Y-60419211D01*
X167673395Y-60419211D02*
X167673395Y-60609687D01*
X167673395Y-64559210D02*
X166873395Y-64559210D01*
X166873395Y-64025877D02*
X166873395Y-63873496D01*
X166873395Y-63873496D02*
X166911490Y-63797306D01*
X166911490Y-63797306D02*
X166987680Y-63721115D01*
X166987680Y-63721115D02*
X167140061Y-63683020D01*
X167140061Y-63683020D02*
X167406728Y-63683020D01*
X167406728Y-63683020D02*
X167559109Y-63721115D01*
X167559109Y-63721115D02*
X167635300Y-63797306D01*
X167635300Y-63797306D02*
X167673395Y-63873496D01*
X167673395Y-63873496D02*
X167673395Y-64025877D01*
X167673395Y-64025877D02*
X167635300Y-64102068D01*
X167635300Y-64102068D02*
X167559109Y-64178258D01*
X167559109Y-64178258D02*
X167406728Y-64216354D01*
X167406728Y-64216354D02*
X167140061Y-64216354D01*
X167140061Y-64216354D02*
X166987680Y-64178258D01*
X166987680Y-64178258D02*
X166911490Y-64102068D01*
X166911490Y-64102068D02*
X166873395Y-64025877D01*
X166873395Y-63416354D02*
X166873395Y-62921116D01*
X166873395Y-62921116D02*
X167178157Y-63187782D01*
X167178157Y-63187782D02*
X167178157Y-63073497D01*
X167178157Y-63073497D02*
X167216252Y-62997306D01*
X167216252Y-62997306D02*
X167254347Y-62959211D01*
X167254347Y-62959211D02*
X167330538Y-62921116D01*
X167330538Y-62921116D02*
X167521014Y-62921116D01*
X167521014Y-62921116D02*
X167597204Y-62959211D01*
X167597204Y-62959211D02*
X167635300Y-62997306D01*
X167635300Y-62997306D02*
X167673395Y-63073497D01*
X167673395Y-63073497D02*
X167673395Y-63302068D01*
X167673395Y-63302068D02*
X167635300Y-63378259D01*
X167635300Y-63378259D02*
X167597204Y-63416354D01*
X167673395Y-67099210D02*
X166873395Y-67099210D01*
X166873395Y-66565877D02*
X166873395Y-66413496D01*
X166873395Y-66413496D02*
X166911490Y-66337306D01*
X166911490Y-66337306D02*
X166987680Y-66261115D01*
X166987680Y-66261115D02*
X167140061Y-66223020D01*
X167140061Y-66223020D02*
X167406728Y-66223020D01*
X167406728Y-66223020D02*
X167559109Y-66261115D01*
X167559109Y-66261115D02*
X167635300Y-66337306D01*
X167635300Y-66337306D02*
X167673395Y-66413496D01*
X167673395Y-66413496D02*
X167673395Y-66565877D01*
X167673395Y-66565877D02*
X167635300Y-66642068D01*
X167635300Y-66642068D02*
X167559109Y-66718258D01*
X167559109Y-66718258D02*
X167406728Y-66756354D01*
X167406728Y-66756354D02*
X167140061Y-66756354D01*
X167140061Y-66756354D02*
X166987680Y-66718258D01*
X166987680Y-66718258D02*
X166911490Y-66642068D01*
X166911490Y-66642068D02*
X166873395Y-66565877D01*
X166949585Y-65918259D02*
X166911490Y-65880163D01*
X166911490Y-65880163D02*
X166873395Y-65803973D01*
X166873395Y-65803973D02*
X166873395Y-65613497D01*
X166873395Y-65613497D02*
X166911490Y-65537306D01*
X166911490Y-65537306D02*
X166949585Y-65499211D01*
X166949585Y-65499211D02*
X167025776Y-65461116D01*
X167025776Y-65461116D02*
X167101966Y-65461116D01*
X167101966Y-65461116D02*
X167216252Y-65499211D01*
X167216252Y-65499211D02*
X167673395Y-65956354D01*
X167673395Y-65956354D02*
X167673395Y-65461116D01*
X167673395Y-69639210D02*
X166873395Y-69639210D01*
X166873395Y-69105877D02*
X166873395Y-68953496D01*
X166873395Y-68953496D02*
X166911490Y-68877306D01*
X166911490Y-68877306D02*
X166987680Y-68801115D01*
X166987680Y-68801115D02*
X167140061Y-68763020D01*
X167140061Y-68763020D02*
X167406728Y-68763020D01*
X167406728Y-68763020D02*
X167559109Y-68801115D01*
X167559109Y-68801115D02*
X167635300Y-68877306D01*
X167635300Y-68877306D02*
X167673395Y-68953496D01*
X167673395Y-68953496D02*
X167673395Y-69105877D01*
X167673395Y-69105877D02*
X167635300Y-69182068D01*
X167635300Y-69182068D02*
X167559109Y-69258258D01*
X167559109Y-69258258D02*
X167406728Y-69296354D01*
X167406728Y-69296354D02*
X167140061Y-69296354D01*
X167140061Y-69296354D02*
X166987680Y-69258258D01*
X166987680Y-69258258D02*
X166911490Y-69182068D01*
X166911490Y-69182068D02*
X166873395Y-69105877D01*
X167673395Y-68001116D02*
X167673395Y-68458259D01*
X167673395Y-68229687D02*
X166873395Y-68229687D01*
X166873395Y-68229687D02*
X166987680Y-68305878D01*
X166987680Y-68305878D02*
X167063871Y-68382068D01*
X167063871Y-68382068D02*
X167101966Y-68458259D01*
X166873395Y-72369687D02*
X166873395Y-71874449D01*
X166873395Y-71874449D02*
X167178157Y-72141115D01*
X167178157Y-72141115D02*
X167178157Y-72026830D01*
X167178157Y-72026830D02*
X167216252Y-71950639D01*
X167216252Y-71950639D02*
X167254347Y-71912544D01*
X167254347Y-71912544D02*
X167330538Y-71874449D01*
X167330538Y-71874449D02*
X167521014Y-71874449D01*
X167521014Y-71874449D02*
X167597204Y-71912544D01*
X167597204Y-71912544D02*
X167635300Y-71950639D01*
X167635300Y-71950639D02*
X167673395Y-72026830D01*
X167673395Y-72026830D02*
X167673395Y-72255401D01*
X167673395Y-72255401D02*
X167635300Y-72331592D01*
X167635300Y-72331592D02*
X167597204Y-72369687D01*
X166873395Y-71645877D02*
X167673395Y-71379210D01*
X167673395Y-71379210D02*
X166873395Y-71112544D01*
X166873395Y-70922068D02*
X166873395Y-70426830D01*
X166873395Y-70426830D02*
X167178157Y-70693496D01*
X167178157Y-70693496D02*
X167178157Y-70579211D01*
X167178157Y-70579211D02*
X167216252Y-70503020D01*
X167216252Y-70503020D02*
X167254347Y-70464925D01*
X167254347Y-70464925D02*
X167330538Y-70426830D01*
X167330538Y-70426830D02*
X167521014Y-70426830D01*
X167521014Y-70426830D02*
X167597204Y-70464925D01*
X167597204Y-70464925D02*
X167635300Y-70503020D01*
X167635300Y-70503020D02*
X167673395Y-70579211D01*
X167673395Y-70579211D02*
X167673395Y-70807782D01*
X167673395Y-70807782D02*
X167635300Y-70883973D01*
X167635300Y-70883973D02*
X167597204Y-70922068D01*
X166873395Y-74071592D02*
X166873395Y-74452544D01*
X166873395Y-74452544D02*
X167254347Y-74490640D01*
X167254347Y-74490640D02*
X167216252Y-74452544D01*
X167216252Y-74452544D02*
X167178157Y-74376354D01*
X167178157Y-74376354D02*
X167178157Y-74185878D01*
X167178157Y-74185878D02*
X167216252Y-74109687D01*
X167216252Y-74109687D02*
X167254347Y-74071592D01*
X167254347Y-74071592D02*
X167330538Y-74033497D01*
X167330538Y-74033497D02*
X167521014Y-74033497D01*
X167521014Y-74033497D02*
X167597204Y-74071592D01*
X167597204Y-74071592D02*
X167635300Y-74109687D01*
X167635300Y-74109687D02*
X167673395Y-74185878D01*
X167673395Y-74185878D02*
X167673395Y-74376354D01*
X167673395Y-74376354D02*
X167635300Y-74452544D01*
X167635300Y-74452544D02*
X167597204Y-74490640D01*
X166873395Y-73804925D02*
X167673395Y-73538258D01*
X167673395Y-73538258D02*
X166873395Y-73271592D01*
X169070895Y-92358258D02*
X168270895Y-92358258D01*
X169070895Y-91977306D02*
X168270895Y-91977306D01*
X168270895Y-91977306D02*
X169070895Y-91520163D01*
X169070895Y-91520163D02*
X168270895Y-91520163D01*
X168308990Y-95088735D02*
X168270895Y-95164925D01*
X168270895Y-95164925D02*
X168270895Y-95279211D01*
X168270895Y-95279211D02*
X168308990Y-95393497D01*
X168308990Y-95393497D02*
X168385180Y-95469687D01*
X168385180Y-95469687D02*
X168461371Y-95507782D01*
X168461371Y-95507782D02*
X168613752Y-95545878D01*
X168613752Y-95545878D02*
X168728038Y-95545878D01*
X168728038Y-95545878D02*
X168880419Y-95507782D01*
X168880419Y-95507782D02*
X168956609Y-95469687D01*
X168956609Y-95469687D02*
X169032800Y-95393497D01*
X169032800Y-95393497D02*
X169070895Y-95279211D01*
X169070895Y-95279211D02*
X169070895Y-95203020D01*
X169070895Y-95203020D02*
X169032800Y-95088735D01*
X169032800Y-95088735D02*
X168994704Y-95050639D01*
X168994704Y-95050639D02*
X168728038Y-95050639D01*
X168728038Y-95050639D02*
X168728038Y-95203020D01*
X169070895Y-94707782D02*
X168270895Y-94707782D01*
X168270895Y-94707782D02*
X169070895Y-94250639D01*
X169070895Y-94250639D02*
X168270895Y-94250639D01*
X169070895Y-93869687D02*
X168270895Y-93869687D01*
X168270895Y-93869687D02*
X168270895Y-93679211D01*
X168270895Y-93679211D02*
X168308990Y-93564925D01*
X168308990Y-93564925D02*
X168385180Y-93488735D01*
X168385180Y-93488735D02*
X168461371Y-93450640D01*
X168461371Y-93450640D02*
X168613752Y-93412544D01*
X168613752Y-93412544D02*
X168728038Y-93412544D01*
X168728038Y-93412544D02*
X168880419Y-93450640D01*
X168880419Y-93450640D02*
X168956609Y-93488735D01*
X168956609Y-93488735D02*
X169032800Y-93564925D01*
X169032800Y-93564925D02*
X169070895Y-93679211D01*
X169070895Y-93679211D02*
X169070895Y-93869687D01*
X122926604Y-61963408D02*
X122926604Y-61582456D01*
X122926604Y-61582456D02*
X122545652Y-61544360D01*
X122545652Y-61544360D02*
X122583747Y-61582456D01*
X122583747Y-61582456D02*
X122621842Y-61658646D01*
X122621842Y-61658646D02*
X122621842Y-61849122D01*
X122621842Y-61849122D02*
X122583747Y-61925313D01*
X122583747Y-61925313D02*
X122545652Y-61963408D01*
X122545652Y-61963408D02*
X122469461Y-62001503D01*
X122469461Y-62001503D02*
X122278985Y-62001503D01*
X122278985Y-62001503D02*
X122202795Y-61963408D01*
X122202795Y-61963408D02*
X122164700Y-61925313D01*
X122164700Y-61925313D02*
X122126604Y-61849122D01*
X122126604Y-61849122D02*
X122126604Y-61658646D01*
X122126604Y-61658646D02*
X122164700Y-61582456D01*
X122164700Y-61582456D02*
X122202795Y-61544360D01*
X122926604Y-62230075D02*
X122126604Y-62496742D01*
X122126604Y-62496742D02*
X122926604Y-62763408D01*
X122126604Y-64446265D02*
X122926604Y-64446265D01*
X122926604Y-64446265D02*
X122926604Y-64636741D01*
X122926604Y-64636741D02*
X122888509Y-64751027D01*
X122888509Y-64751027D02*
X122812319Y-64827217D01*
X122812319Y-64827217D02*
X122736128Y-64865312D01*
X122736128Y-64865312D02*
X122583747Y-64903408D01*
X122583747Y-64903408D02*
X122469461Y-64903408D01*
X122469461Y-64903408D02*
X122317080Y-64865312D01*
X122317080Y-64865312D02*
X122240890Y-64827217D01*
X122240890Y-64827217D02*
X122164700Y-64751027D01*
X122164700Y-64751027D02*
X122126604Y-64636741D01*
X122126604Y-64636741D02*
X122126604Y-64446265D01*
X122888509Y-69126265D02*
X122926604Y-69050075D01*
X122926604Y-69050075D02*
X122926604Y-68935789D01*
X122926604Y-68935789D02*
X122888509Y-68821503D01*
X122888509Y-68821503D02*
X122812319Y-68745313D01*
X122812319Y-68745313D02*
X122736128Y-68707218D01*
X122736128Y-68707218D02*
X122583747Y-68669122D01*
X122583747Y-68669122D02*
X122469461Y-68669122D01*
X122469461Y-68669122D02*
X122317080Y-68707218D01*
X122317080Y-68707218D02*
X122240890Y-68745313D01*
X122240890Y-68745313D02*
X122164700Y-68821503D01*
X122164700Y-68821503D02*
X122126604Y-68935789D01*
X122126604Y-68935789D02*
X122126604Y-69011980D01*
X122126604Y-69011980D02*
X122164700Y-69126265D01*
X122164700Y-69126265D02*
X122202795Y-69164361D01*
X122202795Y-69164361D02*
X122469461Y-69164361D01*
X122469461Y-69164361D02*
X122469461Y-69011980D01*
X122126604Y-69507218D02*
X122926604Y-69507218D01*
X122926604Y-69507218D02*
X122126604Y-69964361D01*
X122126604Y-69964361D02*
X122926604Y-69964361D01*
X122126604Y-70345313D02*
X122926604Y-70345313D01*
X122926604Y-70345313D02*
X122926604Y-70535789D01*
X122926604Y-70535789D02*
X122888509Y-70650075D01*
X122888509Y-70650075D02*
X122812319Y-70726265D01*
X122812319Y-70726265D02*
X122736128Y-70764360D01*
X122736128Y-70764360D02*
X122583747Y-70802456D01*
X122583747Y-70802456D02*
X122469461Y-70802456D01*
X122469461Y-70802456D02*
X122317080Y-70764360D01*
X122317080Y-70764360D02*
X122240890Y-70726265D01*
X122240890Y-70726265D02*
X122164700Y-70650075D01*
X122164700Y-70650075D02*
X122126604Y-70535789D01*
X122126604Y-70535789D02*
X122126604Y-70345313D01*
X122926604Y-74663408D02*
X122926604Y-74282456D01*
X122926604Y-74282456D02*
X122545652Y-74244360D01*
X122545652Y-74244360D02*
X122583747Y-74282456D01*
X122583747Y-74282456D02*
X122621842Y-74358646D01*
X122621842Y-74358646D02*
X122621842Y-74549122D01*
X122621842Y-74549122D02*
X122583747Y-74625313D01*
X122583747Y-74625313D02*
X122545652Y-74663408D01*
X122545652Y-74663408D02*
X122469461Y-74701503D01*
X122469461Y-74701503D02*
X122278985Y-74701503D01*
X122278985Y-74701503D02*
X122202795Y-74663408D01*
X122202795Y-74663408D02*
X122164700Y-74625313D01*
X122164700Y-74625313D02*
X122126604Y-74549122D01*
X122126604Y-74549122D02*
X122126604Y-74358646D01*
X122126604Y-74358646D02*
X122164700Y-74282456D01*
X122164700Y-74282456D02*
X122202795Y-74244360D01*
X122926604Y-74930075D02*
X122126604Y-75196742D01*
X122126604Y-75196742D02*
X122926604Y-75463408D01*
X122126604Y-77146265D02*
X122926604Y-77146265D01*
X122926604Y-77146265D02*
X122926604Y-77336741D01*
X122926604Y-77336741D02*
X122888509Y-77451027D01*
X122888509Y-77451027D02*
X122812319Y-77527217D01*
X122812319Y-77527217D02*
X122736128Y-77565312D01*
X122736128Y-77565312D02*
X122583747Y-77603408D01*
X122583747Y-77603408D02*
X122469461Y-77603408D01*
X122469461Y-77603408D02*
X122317080Y-77565312D01*
X122317080Y-77565312D02*
X122240890Y-77527217D01*
X122240890Y-77527217D02*
X122164700Y-77451027D01*
X122164700Y-77451027D02*
X122126604Y-77336741D01*
X122126604Y-77336741D02*
X122126604Y-77146265D01*
X122888509Y-81826265D02*
X122926604Y-81750075D01*
X122926604Y-81750075D02*
X122926604Y-81635789D01*
X122926604Y-81635789D02*
X122888509Y-81521503D01*
X122888509Y-81521503D02*
X122812319Y-81445313D01*
X122812319Y-81445313D02*
X122736128Y-81407218D01*
X122736128Y-81407218D02*
X122583747Y-81369122D01*
X122583747Y-81369122D02*
X122469461Y-81369122D01*
X122469461Y-81369122D02*
X122317080Y-81407218D01*
X122317080Y-81407218D02*
X122240890Y-81445313D01*
X122240890Y-81445313D02*
X122164700Y-81521503D01*
X122164700Y-81521503D02*
X122126604Y-81635789D01*
X122126604Y-81635789D02*
X122126604Y-81711980D01*
X122126604Y-81711980D02*
X122164700Y-81826265D01*
X122164700Y-81826265D02*
X122202795Y-81864361D01*
X122202795Y-81864361D02*
X122469461Y-81864361D01*
X122469461Y-81864361D02*
X122469461Y-81711980D01*
X122126604Y-82207218D02*
X122926604Y-82207218D01*
X122926604Y-82207218D02*
X122126604Y-82664361D01*
X122126604Y-82664361D02*
X122926604Y-82664361D01*
X122126604Y-83045313D02*
X122926604Y-83045313D01*
X122926604Y-83045313D02*
X122926604Y-83235789D01*
X122926604Y-83235789D02*
X122888509Y-83350075D01*
X122888509Y-83350075D02*
X122812319Y-83426265D01*
X122812319Y-83426265D02*
X122736128Y-83464360D01*
X122736128Y-83464360D02*
X122583747Y-83502456D01*
X122583747Y-83502456D02*
X122469461Y-83502456D01*
X122469461Y-83502456D02*
X122317080Y-83464360D01*
X122317080Y-83464360D02*
X122240890Y-83426265D01*
X122240890Y-83426265D02*
X122164700Y-83350075D01*
X122164700Y-83350075D02*
X122126604Y-83235789D01*
X122126604Y-83235789D02*
X122126604Y-83045313D01*
X122926604Y-87363409D02*
X122926604Y-86982457D01*
X122926604Y-86982457D02*
X122545652Y-86944361D01*
X122545652Y-86944361D02*
X122583747Y-86982457D01*
X122583747Y-86982457D02*
X122621842Y-87058647D01*
X122621842Y-87058647D02*
X122621842Y-87249123D01*
X122621842Y-87249123D02*
X122583747Y-87325314D01*
X122583747Y-87325314D02*
X122545652Y-87363409D01*
X122545652Y-87363409D02*
X122469461Y-87401504D01*
X122469461Y-87401504D02*
X122278985Y-87401504D01*
X122278985Y-87401504D02*
X122202795Y-87363409D01*
X122202795Y-87363409D02*
X122164700Y-87325314D01*
X122164700Y-87325314D02*
X122126604Y-87249123D01*
X122126604Y-87249123D02*
X122126604Y-87058647D01*
X122126604Y-87058647D02*
X122164700Y-86982457D01*
X122164700Y-86982457D02*
X122202795Y-86944361D01*
X122926604Y-87630076D02*
X122126604Y-87896743D01*
X122126604Y-87896743D02*
X122926604Y-88163409D01*
X122126604Y-89846266D02*
X122926604Y-89846266D01*
X122926604Y-89846266D02*
X122926604Y-90036742D01*
X122926604Y-90036742D02*
X122888509Y-90151028D01*
X122888509Y-90151028D02*
X122812319Y-90227218D01*
X122812319Y-90227218D02*
X122736128Y-90265313D01*
X122736128Y-90265313D02*
X122583747Y-90303409D01*
X122583747Y-90303409D02*
X122469461Y-90303409D01*
X122469461Y-90303409D02*
X122317080Y-90265313D01*
X122317080Y-90265313D02*
X122240890Y-90227218D01*
X122240890Y-90227218D02*
X122164700Y-90151028D01*
X122164700Y-90151028D02*
X122126604Y-90036742D01*
X122126604Y-90036742D02*
X122126604Y-89846266D01*
X122888509Y-94526266D02*
X122926604Y-94450076D01*
X122926604Y-94450076D02*
X122926604Y-94335790D01*
X122926604Y-94335790D02*
X122888509Y-94221504D01*
X122888509Y-94221504D02*
X122812319Y-94145314D01*
X122812319Y-94145314D02*
X122736128Y-94107219D01*
X122736128Y-94107219D02*
X122583747Y-94069123D01*
X122583747Y-94069123D02*
X122469461Y-94069123D01*
X122469461Y-94069123D02*
X122317080Y-94107219D01*
X122317080Y-94107219D02*
X122240890Y-94145314D01*
X122240890Y-94145314D02*
X122164700Y-94221504D01*
X122164700Y-94221504D02*
X122126604Y-94335790D01*
X122126604Y-94335790D02*
X122126604Y-94411981D01*
X122126604Y-94411981D02*
X122164700Y-94526266D01*
X122164700Y-94526266D02*
X122202795Y-94564362D01*
X122202795Y-94564362D02*
X122469461Y-94564362D01*
X122469461Y-94564362D02*
X122469461Y-94411981D01*
X122126604Y-94907219D02*
X122926604Y-94907219D01*
X122926604Y-94907219D02*
X122126604Y-95364362D01*
X122126604Y-95364362D02*
X122926604Y-95364362D01*
X122126604Y-95745314D02*
X122926604Y-95745314D01*
X122926604Y-95745314D02*
X122926604Y-95935790D01*
X122926604Y-95935790D02*
X122888509Y-96050076D01*
X122888509Y-96050076D02*
X122812319Y-96126266D01*
X122812319Y-96126266D02*
X122736128Y-96164361D01*
X122736128Y-96164361D02*
X122583747Y-96202457D01*
X122583747Y-96202457D02*
X122469461Y-96202457D01*
X122469461Y-96202457D02*
X122317080Y-96164361D01*
X122317080Y-96164361D02*
X122240890Y-96126266D01*
X122240890Y-96126266D02*
X122164700Y-96050076D01*
X122164700Y-96050076D02*
X122126604Y-95935790D01*
X122126604Y-95935790D02*
X122126604Y-95745314D01*
X122926604Y-100063408D02*
X122926604Y-99682456D01*
X122926604Y-99682456D02*
X122545652Y-99644360D01*
X122545652Y-99644360D02*
X122583747Y-99682456D01*
X122583747Y-99682456D02*
X122621842Y-99758646D01*
X122621842Y-99758646D02*
X122621842Y-99949122D01*
X122621842Y-99949122D02*
X122583747Y-100025313D01*
X122583747Y-100025313D02*
X122545652Y-100063408D01*
X122545652Y-100063408D02*
X122469461Y-100101503D01*
X122469461Y-100101503D02*
X122278985Y-100101503D01*
X122278985Y-100101503D02*
X122202795Y-100063408D01*
X122202795Y-100063408D02*
X122164700Y-100025313D01*
X122164700Y-100025313D02*
X122126604Y-99949122D01*
X122126604Y-99949122D02*
X122126604Y-99758646D01*
X122126604Y-99758646D02*
X122164700Y-99682456D01*
X122164700Y-99682456D02*
X122202795Y-99644360D01*
X122926604Y-100330075D02*
X122126604Y-100596742D01*
X122126604Y-100596742D02*
X122926604Y-100863408D01*
X122126604Y-102546265D02*
X122926604Y-102546265D01*
X122926604Y-102546265D02*
X122926604Y-102736741D01*
X122926604Y-102736741D02*
X122888509Y-102851027D01*
X122888509Y-102851027D02*
X122812319Y-102927217D01*
X122812319Y-102927217D02*
X122736128Y-102965312D01*
X122736128Y-102965312D02*
X122583747Y-103003408D01*
X122583747Y-103003408D02*
X122469461Y-103003408D01*
X122469461Y-103003408D02*
X122317080Y-102965312D01*
X122317080Y-102965312D02*
X122240890Y-102927217D01*
X122240890Y-102927217D02*
X122164700Y-102851027D01*
X122164700Y-102851027D02*
X122126604Y-102736741D01*
X122126604Y-102736741D02*
X122126604Y-102546265D01*
X122888509Y-107226265D02*
X122926604Y-107150075D01*
X122926604Y-107150075D02*
X122926604Y-107035789D01*
X122926604Y-107035789D02*
X122888509Y-106921503D01*
X122888509Y-106921503D02*
X122812319Y-106845313D01*
X122812319Y-106845313D02*
X122736128Y-106807218D01*
X122736128Y-106807218D02*
X122583747Y-106769122D01*
X122583747Y-106769122D02*
X122469461Y-106769122D01*
X122469461Y-106769122D02*
X122317080Y-106807218D01*
X122317080Y-106807218D02*
X122240890Y-106845313D01*
X122240890Y-106845313D02*
X122164700Y-106921503D01*
X122164700Y-106921503D02*
X122126604Y-107035789D01*
X122126604Y-107035789D02*
X122126604Y-107111980D01*
X122126604Y-107111980D02*
X122164700Y-107226265D01*
X122164700Y-107226265D02*
X122202795Y-107264361D01*
X122202795Y-107264361D02*
X122469461Y-107264361D01*
X122469461Y-107264361D02*
X122469461Y-107111980D01*
X122126604Y-107607218D02*
X122926604Y-107607218D01*
X122926604Y-107607218D02*
X122126604Y-108064361D01*
X122126604Y-108064361D02*
X122926604Y-108064361D01*
X122126604Y-108445313D02*
X122926604Y-108445313D01*
X122926604Y-108445313D02*
X122926604Y-108635789D01*
X122926604Y-108635789D02*
X122888509Y-108750075D01*
X122888509Y-108750075D02*
X122812319Y-108826265D01*
X122812319Y-108826265D02*
X122736128Y-108864360D01*
X122736128Y-108864360D02*
X122583747Y-108902456D01*
X122583747Y-108902456D02*
X122469461Y-108902456D01*
X122469461Y-108902456D02*
X122317080Y-108864360D01*
X122317080Y-108864360D02*
X122240890Y-108826265D01*
X122240890Y-108826265D02*
X122164700Y-108750075D01*
X122164700Y-108750075D02*
X122126604Y-108635789D01*
X122126604Y-108635789D02*
X122126604Y-108445313D01*
X143603884Y-102572419D02*
X143603884Y-101572419D01*
X143603884Y-101572419D02*
X143984836Y-101572419D01*
X143984836Y-101572419D02*
X144080074Y-101620038D01*
X144080074Y-101620038D02*
X144127693Y-101667657D01*
X144127693Y-101667657D02*
X144175312Y-101762895D01*
X144175312Y-101762895D02*
X144175312Y-101905752D01*
X144175312Y-101905752D02*
X144127693Y-102000990D01*
X144127693Y-102000990D02*
X144080074Y-102048609D01*
X144080074Y-102048609D02*
X143984836Y-102096228D01*
X143984836Y-102096228D02*
X143603884Y-102096228D01*
X144508646Y-101572419D02*
X144746741Y-102572419D01*
X144746741Y-102572419D02*
X144937217Y-101858133D01*
X144937217Y-101858133D02*
X145127693Y-102572419D01*
X145127693Y-102572419D02*
X145365789Y-101572419D01*
X146318169Y-102572419D02*
X145984836Y-102096228D01*
X145746741Y-102572419D02*
X145746741Y-101572419D01*
X145746741Y-101572419D02*
X146127693Y-101572419D01*
X146127693Y-101572419D02*
X146222931Y-101620038D01*
X146222931Y-101620038D02*
X146270550Y-101667657D01*
X146270550Y-101667657D02*
X146318169Y-101762895D01*
X146318169Y-101762895D02*
X146318169Y-101905752D01*
X146318169Y-101905752D02*
X146270550Y-102000990D01*
X146270550Y-102000990D02*
X146222931Y-102048609D01*
X146222931Y-102048609D02*
X146127693Y-102096228D01*
X146127693Y-102096228D02*
X145746741Y-102096228D01*
X148203884Y-53948609D02*
X148537217Y-53948609D01*
X148680074Y-54472419D02*
X148203884Y-54472419D01*
X148203884Y-54472419D02*
X148203884Y-53472419D01*
X148203884Y-53472419D02*
X148680074Y-53472419D01*
X149061027Y-54424800D02*
X149203884Y-54472419D01*
X149203884Y-54472419D02*
X149441979Y-54472419D01*
X149441979Y-54472419D02*
X149537217Y-54424800D01*
X149537217Y-54424800D02*
X149584836Y-54377180D01*
X149584836Y-54377180D02*
X149632455Y-54281942D01*
X149632455Y-54281942D02*
X149632455Y-54186704D01*
X149632455Y-54186704D02*
X149584836Y-54091466D01*
X149584836Y-54091466D02*
X149537217Y-54043847D01*
X149537217Y-54043847D02*
X149441979Y-53996228D01*
X149441979Y-53996228D02*
X149251503Y-53948609D01*
X149251503Y-53948609D02*
X149156265Y-53900990D01*
X149156265Y-53900990D02*
X149108646Y-53853371D01*
X149108646Y-53853371D02*
X149061027Y-53758133D01*
X149061027Y-53758133D02*
X149061027Y-53662895D01*
X149061027Y-53662895D02*
X149108646Y-53567657D01*
X149108646Y-53567657D02*
X149156265Y-53520038D01*
X149156265Y-53520038D02*
X149251503Y-53472419D01*
X149251503Y-53472419D02*
X149489598Y-53472419D01*
X149489598Y-53472419D02*
X149632455Y-53520038D01*
X150061027Y-54472419D02*
X150061027Y-53472419D01*
X150061027Y-53472419D02*
X150441979Y-53472419D01*
X150441979Y-53472419D02*
X150537217Y-53520038D01*
X150537217Y-53520038D02*
X150584836Y-53567657D01*
X150584836Y-53567657D02*
X150632455Y-53662895D01*
X150632455Y-53662895D02*
X150632455Y-53805752D01*
X150632455Y-53805752D02*
X150584836Y-53900990D01*
X150584836Y-53900990D02*
X150537217Y-53948609D01*
X150537217Y-53948609D02*
X150441979Y-53996228D01*
X150441979Y-53996228D02*
X150061027Y-53996228D01*
X150965789Y-53472419D02*
X151584836Y-53472419D01*
X151584836Y-53472419D02*
X151251503Y-53853371D01*
X151251503Y-53853371D02*
X151394360Y-53853371D01*
X151394360Y-53853371D02*
X151489598Y-53900990D01*
X151489598Y-53900990D02*
X151537217Y-53948609D01*
X151537217Y-53948609D02*
X151584836Y-54043847D01*
X151584836Y-54043847D02*
X151584836Y-54281942D01*
X151584836Y-54281942D02*
X151537217Y-54377180D01*
X151537217Y-54377180D02*
X151489598Y-54424800D01*
X151489598Y-54424800D02*
X151394360Y-54472419D01*
X151394360Y-54472419D02*
X151108646Y-54472419D01*
X151108646Y-54472419D02*
X151013408Y-54424800D01*
X151013408Y-54424800D02*
X150965789Y-54377180D01*
X151965789Y-53567657D02*
X152013408Y-53520038D01*
X152013408Y-53520038D02*
X152108646Y-53472419D01*
X152108646Y-53472419D02*
X152346741Y-53472419D01*
X152346741Y-53472419D02*
X152441979Y-53520038D01*
X152441979Y-53520038D02*
X152489598Y-53567657D01*
X152489598Y-53567657D02*
X152537217Y-53662895D01*
X152537217Y-53662895D02*
X152537217Y-53758133D01*
X152537217Y-53758133D02*
X152489598Y-53900990D01*
X152489598Y-53900990D02*
X151918170Y-54472419D01*
X151918170Y-54472419D02*
X152537217Y-54472419D01*
X150956265Y-110624800D02*
X151099122Y-110672419D01*
X151099122Y-110672419D02*
X151337217Y-110672419D01*
X151337217Y-110672419D02*
X151432455Y-110624800D01*
X151432455Y-110624800D02*
X151480074Y-110577180D01*
X151480074Y-110577180D02*
X151527693Y-110481942D01*
X151527693Y-110481942D02*
X151527693Y-110386704D01*
X151527693Y-110386704D02*
X151480074Y-110291466D01*
X151480074Y-110291466D02*
X151432455Y-110243847D01*
X151432455Y-110243847D02*
X151337217Y-110196228D01*
X151337217Y-110196228D02*
X151146741Y-110148609D01*
X151146741Y-110148609D02*
X151051503Y-110100990D01*
X151051503Y-110100990D02*
X151003884Y-110053371D01*
X151003884Y-110053371D02*
X150956265Y-109958133D01*
X150956265Y-109958133D02*
X150956265Y-109862895D01*
X150956265Y-109862895D02*
X151003884Y-109767657D01*
X151003884Y-109767657D02*
X151051503Y-109720038D01*
X151051503Y-109720038D02*
X151146741Y-109672419D01*
X151146741Y-109672419D02*
X151384836Y-109672419D01*
X151384836Y-109672419D02*
X151527693Y-109720038D01*
X151956265Y-110672419D02*
X151956265Y-109672419D01*
X151956265Y-109672419D02*
X152527693Y-110672419D01*
X152527693Y-110672419D02*
X152527693Y-109672419D01*
X153003884Y-110577180D02*
X153051503Y-110624800D01*
X153051503Y-110624800D02*
X153003884Y-110672419D01*
X153003884Y-110672419D02*
X152956265Y-110624800D01*
X152956265Y-110624800D02*
X153003884Y-110577180D01*
X153003884Y-110577180D02*
X153003884Y-110672419D01*
X153003884Y-110053371D02*
X153051503Y-110100990D01*
X153051503Y-110100990D02*
X153003884Y-110148609D01*
X153003884Y-110148609D02*
X152956265Y-110100990D01*
X152956265Y-110100990D02*
X153003884Y-110053371D01*
X153003884Y-110053371D02*
X153003884Y-110148609D01*
X159172419Y-95112782D02*
X158172419Y-95112782D01*
X159172419Y-94636592D02*
X158172419Y-94636592D01*
X158172419Y-94636592D02*
X159172419Y-94065164D01*
X159172419Y-94065164D02*
X158172419Y-94065164D01*
X159172419Y-93588973D02*
X158172419Y-93588973D01*
X158172419Y-93588973D02*
X158172419Y-93208021D01*
X158172419Y-93208021D02*
X158220038Y-93112783D01*
X158220038Y-93112783D02*
X158267657Y-93065164D01*
X158267657Y-93065164D02*
X158362895Y-93017545D01*
X158362895Y-93017545D02*
X158505752Y-93017545D01*
X158505752Y-93017545D02*
X158600990Y-93065164D01*
X158600990Y-93065164D02*
X158648609Y-93112783D01*
X158648609Y-93112783D02*
X158696228Y-93208021D01*
X158696228Y-93208021D02*
X158696228Y-93588973D01*
X158172419Y-92588973D02*
X158981942Y-92588973D01*
X158981942Y-92588973D02*
X159077180Y-92541354D01*
X159077180Y-92541354D02*
X159124800Y-92493735D01*
X159124800Y-92493735D02*
X159172419Y-92398497D01*
X159172419Y-92398497D02*
X159172419Y-92208021D01*
X159172419Y-92208021D02*
X159124800Y-92112783D01*
X159124800Y-92112783D02*
X159077180Y-92065164D01*
X159077180Y-92065164D02*
X158981942Y-92017545D01*
X158981942Y-92017545D02*
X158172419Y-92017545D01*
X158172419Y-91684211D02*
X158172419Y-91112783D01*
X159172419Y-91398497D02*
X158172419Y-91398497D01*
X129127580Y-68929360D02*
X129127580Y-69119836D01*
X129127580Y-69119836D02*
X129079961Y-69215074D01*
X129079961Y-69215074D02*
X128984723Y-69310312D01*
X128984723Y-69310312D02*
X128794247Y-69357931D01*
X128794247Y-69357931D02*
X128460914Y-69357931D01*
X128460914Y-69357931D02*
X128270438Y-69310312D01*
X128270438Y-69310312D02*
X128175200Y-69215074D01*
X128175200Y-69215074D02*
X128127580Y-69119836D01*
X128127580Y-69119836D02*
X128127580Y-68929360D01*
X128127580Y-68929360D02*
X128175200Y-68834122D01*
X128175200Y-68834122D02*
X128270438Y-68738884D01*
X128270438Y-68738884D02*
X128460914Y-68691265D01*
X128460914Y-68691265D02*
X128794247Y-68691265D01*
X128794247Y-68691265D02*
X128984723Y-68738884D01*
X128984723Y-68738884D02*
X129079961Y-68834122D01*
X129079961Y-68834122D02*
X129127580Y-68929360D01*
X128127580Y-69786503D02*
X129127580Y-69786503D01*
X129127580Y-69786503D02*
X129127580Y-70167455D01*
X129127580Y-70167455D02*
X129079961Y-70262693D01*
X129079961Y-70262693D02*
X129032342Y-70310312D01*
X129032342Y-70310312D02*
X128937104Y-70357931D01*
X128937104Y-70357931D02*
X128794247Y-70357931D01*
X128794247Y-70357931D02*
X128699009Y-70310312D01*
X128699009Y-70310312D02*
X128651390Y-70262693D01*
X128651390Y-70262693D02*
X128603771Y-70167455D01*
X128603771Y-70167455D02*
X128603771Y-69786503D01*
X128127580Y-71310312D02*
X128127580Y-70738884D01*
X128127580Y-71024598D02*
X129127580Y-71024598D01*
X129127580Y-71024598D02*
X128984723Y-70929360D01*
X128984723Y-70929360D02*
X128889485Y-70834122D01*
X128889485Y-70834122D02*
X128841866Y-70738884D01*
X129127580Y-81609360D02*
X129127580Y-81799836D01*
X129127580Y-81799836D02*
X129079961Y-81895074D01*
X129079961Y-81895074D02*
X128984723Y-81990312D01*
X128984723Y-81990312D02*
X128794247Y-82037931D01*
X128794247Y-82037931D02*
X128460914Y-82037931D01*
X128460914Y-82037931D02*
X128270438Y-81990312D01*
X128270438Y-81990312D02*
X128175200Y-81895074D01*
X128175200Y-81895074D02*
X128127580Y-81799836D01*
X128127580Y-81799836D02*
X128127580Y-81609360D01*
X128127580Y-81609360D02*
X128175200Y-81514122D01*
X128175200Y-81514122D02*
X128270438Y-81418884D01*
X128270438Y-81418884D02*
X128460914Y-81371265D01*
X128460914Y-81371265D02*
X128794247Y-81371265D01*
X128794247Y-81371265D02*
X128984723Y-81418884D01*
X128984723Y-81418884D02*
X129079961Y-81514122D01*
X129079961Y-81514122D02*
X129127580Y-81609360D01*
X128127580Y-82466503D02*
X129127580Y-82466503D01*
X129127580Y-82466503D02*
X129127580Y-82847455D01*
X129127580Y-82847455D02*
X129079961Y-82942693D01*
X129079961Y-82942693D02*
X129032342Y-82990312D01*
X129032342Y-82990312D02*
X128937104Y-83037931D01*
X128937104Y-83037931D02*
X128794247Y-83037931D01*
X128794247Y-83037931D02*
X128699009Y-82990312D01*
X128699009Y-82990312D02*
X128651390Y-82942693D01*
X128651390Y-82942693D02*
X128603771Y-82847455D01*
X128603771Y-82847455D02*
X128603771Y-82466503D01*
X129032342Y-83418884D02*
X129079961Y-83466503D01*
X129079961Y-83466503D02*
X129127580Y-83561741D01*
X129127580Y-83561741D02*
X129127580Y-83799836D01*
X129127580Y-83799836D02*
X129079961Y-83895074D01*
X129079961Y-83895074D02*
X129032342Y-83942693D01*
X129032342Y-83942693D02*
X128937104Y-83990312D01*
X128937104Y-83990312D02*
X128841866Y-83990312D01*
X128841866Y-83990312D02*
X128699009Y-83942693D01*
X128699009Y-83942693D02*
X128127580Y-83371265D01*
X128127580Y-83371265D02*
X128127580Y-83990312D01*
X129127580Y-94322693D02*
X129127580Y-94513169D01*
X129127580Y-94513169D02*
X129079961Y-94608407D01*
X129079961Y-94608407D02*
X128984723Y-94703645D01*
X128984723Y-94703645D02*
X128794247Y-94751264D01*
X128794247Y-94751264D02*
X128460914Y-94751264D01*
X128460914Y-94751264D02*
X128270438Y-94703645D01*
X128270438Y-94703645D02*
X128175200Y-94608407D01*
X128175200Y-94608407D02*
X128127580Y-94513169D01*
X128127580Y-94513169D02*
X128127580Y-94322693D01*
X128127580Y-94322693D02*
X128175200Y-94227455D01*
X128175200Y-94227455D02*
X128270438Y-94132217D01*
X128270438Y-94132217D02*
X128460914Y-94084598D01*
X128460914Y-94084598D02*
X128794247Y-94084598D01*
X128794247Y-94084598D02*
X128984723Y-94132217D01*
X128984723Y-94132217D02*
X129079961Y-94227455D01*
X129079961Y-94227455D02*
X129127580Y-94322693D01*
X128127580Y-95179836D02*
X129127580Y-95179836D01*
X129127580Y-95179836D02*
X129127580Y-95560788D01*
X129127580Y-95560788D02*
X129079961Y-95656026D01*
X129079961Y-95656026D02*
X129032342Y-95703645D01*
X129032342Y-95703645D02*
X128937104Y-95751264D01*
X128937104Y-95751264D02*
X128794247Y-95751264D01*
X128794247Y-95751264D02*
X128699009Y-95703645D01*
X128699009Y-95703645D02*
X128651390Y-95656026D01*
X128651390Y-95656026D02*
X128603771Y-95560788D01*
X128603771Y-95560788D02*
X128603771Y-95179836D01*
X129127580Y-96084598D02*
X129127580Y-96703645D01*
X129127580Y-96703645D02*
X128746628Y-96370312D01*
X128746628Y-96370312D02*
X128746628Y-96513169D01*
X128746628Y-96513169D02*
X128699009Y-96608407D01*
X128699009Y-96608407D02*
X128651390Y-96656026D01*
X128651390Y-96656026D02*
X128556152Y-96703645D01*
X128556152Y-96703645D02*
X128318057Y-96703645D01*
X128318057Y-96703645D02*
X128222819Y-96656026D01*
X128222819Y-96656026D02*
X128175200Y-96608407D01*
X128175200Y-96608407D02*
X128127580Y-96513169D01*
X128127580Y-96513169D02*
X128127580Y-96227455D01*
X128127580Y-96227455D02*
X128175200Y-96132217D01*
X128175200Y-96132217D02*
X128222819Y-96084598D01*
X129127580Y-107029360D02*
X129127580Y-107219836D01*
X129127580Y-107219836D02*
X129079961Y-107315074D01*
X129079961Y-107315074D02*
X128984723Y-107410312D01*
X128984723Y-107410312D02*
X128794247Y-107457931D01*
X128794247Y-107457931D02*
X128460914Y-107457931D01*
X128460914Y-107457931D02*
X128270438Y-107410312D01*
X128270438Y-107410312D02*
X128175200Y-107315074D01*
X128175200Y-107315074D02*
X128127580Y-107219836D01*
X128127580Y-107219836D02*
X128127580Y-107029360D01*
X128127580Y-107029360D02*
X128175200Y-106934122D01*
X128175200Y-106934122D02*
X128270438Y-106838884D01*
X128270438Y-106838884D02*
X128460914Y-106791265D01*
X128460914Y-106791265D02*
X128794247Y-106791265D01*
X128794247Y-106791265D02*
X128984723Y-106838884D01*
X128984723Y-106838884D02*
X129079961Y-106934122D01*
X129079961Y-106934122D02*
X129127580Y-107029360D01*
X128127580Y-107886503D02*
X129127580Y-107886503D01*
X129127580Y-107886503D02*
X129127580Y-108267455D01*
X129127580Y-108267455D02*
X129079961Y-108362693D01*
X129079961Y-108362693D02*
X129032342Y-108410312D01*
X129032342Y-108410312D02*
X128937104Y-108457931D01*
X128937104Y-108457931D02*
X128794247Y-108457931D01*
X128794247Y-108457931D02*
X128699009Y-108410312D01*
X128699009Y-108410312D02*
X128651390Y-108362693D01*
X128651390Y-108362693D02*
X128603771Y-108267455D01*
X128603771Y-108267455D02*
X128603771Y-107886503D01*
X128794247Y-109315074D02*
X128127580Y-109315074D01*
X129175200Y-109076979D02*
X128460914Y-108838884D01*
X128460914Y-108838884D02*
X128460914Y-109457931D01*
D13*
X150912969Y-106169819D02*
X150436779Y-106169819D01*
X150436779Y-106169819D02*
X150436779Y-105169819D01*
X151246303Y-105646009D02*
X151579636Y-105646009D01*
X151722493Y-106169819D02*
X151246303Y-106169819D01*
X151246303Y-106169819D02*
X151246303Y-105169819D01*
X151246303Y-105169819D02*
X151722493Y-105169819D01*
X152151065Y-106169819D02*
X152151065Y-105169819D01*
X152151065Y-105169819D02*
X152389160Y-105169819D01*
X152389160Y-105169819D02*
X152532017Y-105217438D01*
X152532017Y-105217438D02*
X152627255Y-105312676D01*
X152627255Y-105312676D02*
X152674874Y-105407914D01*
X152674874Y-105407914D02*
X152722493Y-105598390D01*
X152722493Y-105598390D02*
X152722493Y-105741247D01*
X152722493Y-105741247D02*
X152674874Y-105931723D01*
X152674874Y-105931723D02*
X152627255Y-106026961D01*
X152627255Y-106026961D02*
X152532017Y-106122200D01*
X152532017Y-106122200D02*
X152389160Y-106169819D01*
X152389160Y-106169819D02*
X152151065Y-106169819D01*
X154484398Y-106074580D02*
X154436779Y-106122200D01*
X154436779Y-106122200D02*
X154293922Y-106169819D01*
X154293922Y-106169819D02*
X154198684Y-106169819D01*
X154198684Y-106169819D02*
X154055827Y-106122200D01*
X154055827Y-106122200D02*
X153960589Y-106026961D01*
X153960589Y-106026961D02*
X153912970Y-105931723D01*
X153912970Y-105931723D02*
X153865351Y-105741247D01*
X153865351Y-105741247D02*
X153865351Y-105598390D01*
X153865351Y-105598390D02*
X153912970Y-105407914D01*
X153912970Y-105407914D02*
X153960589Y-105312676D01*
X153960589Y-105312676D02*
X154055827Y-105217438D01*
X154055827Y-105217438D02*
X154198684Y-105169819D01*
X154198684Y-105169819D02*
X154293922Y-105169819D01*
X154293922Y-105169819D02*
X154436779Y-105217438D01*
X154436779Y-105217438D02*
X154484398Y-105265057D01*
X155055827Y-106169819D02*
X154960589Y-106122200D01*
X154960589Y-106122200D02*
X154912970Y-106074580D01*
X154912970Y-106074580D02*
X154865351Y-105979342D01*
X154865351Y-105979342D02*
X154865351Y-105693628D01*
X154865351Y-105693628D02*
X154912970Y-105598390D01*
X154912970Y-105598390D02*
X154960589Y-105550771D01*
X154960589Y-105550771D02*
X155055827Y-105503152D01*
X155055827Y-105503152D02*
X155198684Y-105503152D01*
X155198684Y-105503152D02*
X155293922Y-105550771D01*
X155293922Y-105550771D02*
X155341541Y-105598390D01*
X155341541Y-105598390D02*
X155389160Y-105693628D01*
X155389160Y-105693628D02*
X155389160Y-105979342D01*
X155389160Y-105979342D02*
X155341541Y-106074580D01*
X155341541Y-106074580D02*
X155293922Y-106122200D01*
X155293922Y-106122200D02*
X155198684Y-106169819D01*
X155198684Y-106169819D02*
X155055827Y-106169819D01*
X155817732Y-105503152D02*
X155817732Y-106169819D01*
X155817732Y-105598390D02*
X155865351Y-105550771D01*
X155865351Y-105550771D02*
X155960589Y-105503152D01*
X155960589Y-105503152D02*
X156103446Y-105503152D01*
X156103446Y-105503152D02*
X156198684Y-105550771D01*
X156198684Y-105550771D02*
X156246303Y-105646009D01*
X156246303Y-105646009D02*
X156246303Y-106169819D01*
X156579637Y-105503152D02*
X156960589Y-105503152D01*
X156722494Y-105169819D02*
X156722494Y-106026961D01*
X156722494Y-106026961D02*
X156770113Y-106122200D01*
X156770113Y-106122200D02*
X156865351Y-106169819D01*
X156865351Y-106169819D02*
X156960589Y-106169819D01*
X157293923Y-106169819D02*
X157293923Y-105503152D01*
X157293923Y-105693628D02*
X157341542Y-105598390D01*
X157341542Y-105598390D02*
X157389161Y-105550771D01*
X157389161Y-105550771D02*
X157484399Y-105503152D01*
X157484399Y-105503152D02*
X157579637Y-105503152D01*
X158055828Y-106169819D02*
X157960590Y-106122200D01*
X157960590Y-106122200D02*
X157912971Y-106074580D01*
X157912971Y-106074580D02*
X157865352Y-105979342D01*
X157865352Y-105979342D02*
X157865352Y-105693628D01*
X157865352Y-105693628D02*
X157912971Y-105598390D01*
X157912971Y-105598390D02*
X157960590Y-105550771D01*
X157960590Y-105550771D02*
X158055828Y-105503152D01*
X158055828Y-105503152D02*
X158198685Y-105503152D01*
X158198685Y-105503152D02*
X158293923Y-105550771D01*
X158293923Y-105550771D02*
X158341542Y-105598390D01*
X158341542Y-105598390D02*
X158389161Y-105693628D01*
X158389161Y-105693628D02*
X158389161Y-105979342D01*
X158389161Y-105979342D02*
X158341542Y-106074580D01*
X158341542Y-106074580D02*
X158293923Y-106122200D01*
X158293923Y-106122200D02*
X158198685Y-106169819D01*
X158198685Y-106169819D02*
X158055828Y-106169819D01*
X158960590Y-106169819D02*
X158865352Y-106122200D01*
X158865352Y-106122200D02*
X158817733Y-106026961D01*
X158817733Y-106026961D02*
X158817733Y-105169819D01*
X159484400Y-106169819D02*
X159389162Y-106122200D01*
X159389162Y-106122200D02*
X159341543Y-106026961D01*
X159341543Y-106026961D02*
X159341543Y-105169819D01*
X160246305Y-106122200D02*
X160151067Y-106169819D01*
X160151067Y-106169819D02*
X159960591Y-106169819D01*
X159960591Y-106169819D02*
X159865353Y-106122200D01*
X159865353Y-106122200D02*
X159817734Y-106026961D01*
X159817734Y-106026961D02*
X159817734Y-105646009D01*
X159817734Y-105646009D02*
X159865353Y-105550771D01*
X159865353Y-105550771D02*
X159960591Y-105503152D01*
X159960591Y-105503152D02*
X160151067Y-105503152D01*
X160151067Y-105503152D02*
X160246305Y-105550771D01*
X160246305Y-105550771D02*
X160293924Y-105646009D01*
X160293924Y-105646009D02*
X160293924Y-105741247D01*
X160293924Y-105741247D02*
X159817734Y-105836485D01*
X160722496Y-106169819D02*
X160722496Y-105503152D01*
X160722496Y-105693628D02*
X160770115Y-105598390D01*
X160770115Y-105598390D02*
X160817734Y-105550771D01*
X160817734Y-105550771D02*
X160912972Y-105503152D01*
X160912972Y-105503152D02*
X161008210Y-105503152D01*
X161960592Y-105169819D02*
X162293925Y-106169819D01*
X162293925Y-106169819D02*
X162627258Y-105169819D01*
X163484401Y-106169819D02*
X162912973Y-106169819D01*
X163198687Y-106169819D02*
X163198687Y-105169819D01*
X163198687Y-105169819D02*
X163103449Y-105312676D01*
X163103449Y-105312676D02*
X163008211Y-105407914D01*
X163008211Y-105407914D02*
X162912973Y-105455533D01*
X163912973Y-106074580D02*
X163960592Y-106122200D01*
X163960592Y-106122200D02*
X163912973Y-106169819D01*
X163912973Y-106169819D02*
X163865354Y-106122200D01*
X163865354Y-106122200D02*
X163912973Y-106074580D01*
X163912973Y-106074580D02*
X163912973Y-106169819D01*
X164579639Y-105169819D02*
X164674877Y-105169819D01*
X164674877Y-105169819D02*
X164770115Y-105217438D01*
X164770115Y-105217438D02*
X164817734Y-105265057D01*
X164817734Y-105265057D02*
X164865353Y-105360295D01*
X164865353Y-105360295D02*
X164912972Y-105550771D01*
X164912972Y-105550771D02*
X164912972Y-105788866D01*
X164912972Y-105788866D02*
X164865353Y-105979342D01*
X164865353Y-105979342D02*
X164817734Y-106074580D01*
X164817734Y-106074580D02*
X164770115Y-106122200D01*
X164770115Y-106122200D02*
X164674877Y-106169819D01*
X164674877Y-106169819D02*
X164579639Y-106169819D01*
X164579639Y-106169819D02*
X164484401Y-106122200D01*
X164484401Y-106122200D02*
X164436782Y-106074580D01*
X164436782Y-106074580D02*
X164389163Y-105979342D01*
X164389163Y-105979342D02*
X164341544Y-105788866D01*
X164341544Y-105788866D02*
X164341544Y-105550771D01*
X164341544Y-105550771D02*
X164389163Y-105360295D01*
X164389163Y-105360295D02*
X164436782Y-105265057D01*
X164436782Y-105265057D02*
X164484401Y-105217438D01*
X164484401Y-105217438D02*
X164579639Y-105169819D01*
X150722493Y-106969819D02*
X150722493Y-107684104D01*
X150722493Y-107684104D02*
X150674874Y-107826961D01*
X150674874Y-107826961D02*
X150579636Y-107922200D01*
X150579636Y-107922200D02*
X150436779Y-107969819D01*
X150436779Y-107969819D02*
X150341541Y-107969819D01*
X151627255Y-107303152D02*
X151627255Y-107969819D01*
X151198684Y-107303152D02*
X151198684Y-107826961D01*
X151198684Y-107826961D02*
X151246303Y-107922200D01*
X151246303Y-107922200D02*
X151341541Y-107969819D01*
X151341541Y-107969819D02*
X151484398Y-107969819D01*
X151484398Y-107969819D02*
X151579636Y-107922200D01*
X151579636Y-107922200D02*
X151627255Y-107874580D01*
X152246303Y-107969819D02*
X152151065Y-107922200D01*
X152151065Y-107922200D02*
X152103446Y-107826961D01*
X152103446Y-107826961D02*
X152103446Y-106969819D01*
X152532018Y-107303152D02*
X152770113Y-107969819D01*
X153008208Y-107303152D02*
X152770113Y-107969819D01*
X152770113Y-107969819D02*
X152674875Y-108207914D01*
X152674875Y-108207914D02*
X152627256Y-108255533D01*
X152627256Y-108255533D02*
X152532018Y-108303152D01*
X154103447Y-107065057D02*
X154151066Y-107017438D01*
X154151066Y-107017438D02*
X154246304Y-106969819D01*
X154246304Y-106969819D02*
X154484399Y-106969819D01*
X154484399Y-106969819D02*
X154579637Y-107017438D01*
X154579637Y-107017438D02*
X154627256Y-107065057D01*
X154627256Y-107065057D02*
X154674875Y-107160295D01*
X154674875Y-107160295D02*
X154674875Y-107255533D01*
X154674875Y-107255533D02*
X154627256Y-107398390D01*
X154627256Y-107398390D02*
X154055828Y-107969819D01*
X154055828Y-107969819D02*
X154674875Y-107969819D01*
X155293923Y-106969819D02*
X155389161Y-106969819D01*
X155389161Y-106969819D02*
X155484399Y-107017438D01*
X155484399Y-107017438D02*
X155532018Y-107065057D01*
X155532018Y-107065057D02*
X155579637Y-107160295D01*
X155579637Y-107160295D02*
X155627256Y-107350771D01*
X155627256Y-107350771D02*
X155627256Y-107588866D01*
X155627256Y-107588866D02*
X155579637Y-107779342D01*
X155579637Y-107779342D02*
X155532018Y-107874580D01*
X155532018Y-107874580D02*
X155484399Y-107922200D01*
X155484399Y-107922200D02*
X155389161Y-107969819D01*
X155389161Y-107969819D02*
X155293923Y-107969819D01*
X155293923Y-107969819D02*
X155198685Y-107922200D01*
X155198685Y-107922200D02*
X155151066Y-107874580D01*
X155151066Y-107874580D02*
X155103447Y-107779342D01*
X155103447Y-107779342D02*
X155055828Y-107588866D01*
X155055828Y-107588866D02*
X155055828Y-107350771D01*
X155055828Y-107350771D02*
X155103447Y-107160295D01*
X155103447Y-107160295D02*
X155151066Y-107065057D01*
X155151066Y-107065057D02*
X155198685Y-107017438D01*
X155198685Y-107017438D02*
X155293923Y-106969819D01*
X156008209Y-107065057D02*
X156055828Y-107017438D01*
X156055828Y-107017438D02*
X156151066Y-106969819D01*
X156151066Y-106969819D02*
X156389161Y-106969819D01*
X156389161Y-106969819D02*
X156484399Y-107017438D01*
X156484399Y-107017438D02*
X156532018Y-107065057D01*
X156532018Y-107065057D02*
X156579637Y-107160295D01*
X156579637Y-107160295D02*
X156579637Y-107255533D01*
X156579637Y-107255533D02*
X156532018Y-107398390D01*
X156532018Y-107398390D02*
X155960590Y-107969819D01*
X155960590Y-107969819D02*
X156579637Y-107969819D01*
X157436780Y-106969819D02*
X157246304Y-106969819D01*
X157246304Y-106969819D02*
X157151066Y-107017438D01*
X157151066Y-107017438D02*
X157103447Y-107065057D01*
X157103447Y-107065057D02*
X157008209Y-107207914D01*
X157008209Y-107207914D02*
X156960590Y-107398390D01*
X156960590Y-107398390D02*
X156960590Y-107779342D01*
X156960590Y-107779342D02*
X157008209Y-107874580D01*
X157008209Y-107874580D02*
X157055828Y-107922200D01*
X157055828Y-107922200D02*
X157151066Y-107969819D01*
X157151066Y-107969819D02*
X157341542Y-107969819D01*
X157341542Y-107969819D02*
X157436780Y-107922200D01*
X157436780Y-107922200D02*
X157484399Y-107874580D01*
X157484399Y-107874580D02*
X157532018Y-107779342D01*
X157532018Y-107779342D02*
X157532018Y-107541247D01*
X157532018Y-107541247D02*
X157484399Y-107446009D01*
X157484399Y-107446009D02*
X157436780Y-107398390D01*
X157436780Y-107398390D02*
X157341542Y-107350771D01*
X157341542Y-107350771D02*
X157151066Y-107350771D01*
X157151066Y-107350771D02*
X157055828Y-107398390D01*
X157055828Y-107398390D02*
X157008209Y-107446009D01*
X157008209Y-107446009D02*
X156960590Y-107541247D01*
X130739524Y-79700000D02*
X130406191Y-79223809D01*
X130168096Y-79700000D02*
X130168096Y-78700000D01*
X130168096Y-78700000D02*
X130549048Y-78700000D01*
X130549048Y-78700000D02*
X130644286Y-78747619D01*
X130644286Y-78747619D02*
X130691905Y-78795238D01*
X130691905Y-78795238D02*
X130739524Y-78890476D01*
X130739524Y-78890476D02*
X130739524Y-79033333D01*
X130739524Y-79033333D02*
X130691905Y-79128571D01*
X130691905Y-79128571D02*
X130644286Y-79176190D01*
X130644286Y-79176190D02*
X130549048Y-79223809D01*
X130549048Y-79223809D02*
X130168096Y-79223809D01*
X131120477Y-78795238D02*
X131168096Y-78747619D01*
X131168096Y-78747619D02*
X131263334Y-78700000D01*
X131263334Y-78700000D02*
X131501429Y-78700000D01*
X131501429Y-78700000D02*
X131596667Y-78747619D01*
X131596667Y-78747619D02*
X131644286Y-78795238D01*
X131644286Y-78795238D02*
X131691905Y-78890476D01*
X131691905Y-78890476D02*
X131691905Y-78985714D01*
X131691905Y-78985714D02*
X131644286Y-79128571D01*
X131644286Y-79128571D02*
X131072858Y-79700000D01*
X131072858Y-79700000D02*
X131691905Y-79700000D01*
X163157976Y-96715000D02*
X163157976Y-97429285D01*
X163157976Y-97429285D02*
X163110357Y-97572142D01*
X163110357Y-97572142D02*
X163015119Y-97667381D01*
X163015119Y-97667381D02*
X162872262Y-97715000D01*
X162872262Y-97715000D02*
X162777024Y-97715000D01*
X164062738Y-96715000D02*
X163872262Y-96715000D01*
X163872262Y-96715000D02*
X163777024Y-96762619D01*
X163777024Y-96762619D02*
X163729405Y-96810238D01*
X163729405Y-96810238D02*
X163634167Y-96953095D01*
X163634167Y-96953095D02*
X163586548Y-97143571D01*
X163586548Y-97143571D02*
X163586548Y-97524523D01*
X163586548Y-97524523D02*
X163634167Y-97619761D01*
X163634167Y-97619761D02*
X163681786Y-97667381D01*
X163681786Y-97667381D02*
X163777024Y-97715000D01*
X163777024Y-97715000D02*
X163967500Y-97715000D01*
X163967500Y-97715000D02*
X164062738Y-97667381D01*
X164062738Y-97667381D02*
X164110357Y-97619761D01*
X164110357Y-97619761D02*
X164157976Y-97524523D01*
X164157976Y-97524523D02*
X164157976Y-97286428D01*
X164157976Y-97286428D02*
X164110357Y-97191190D01*
X164110357Y-97191190D02*
X164062738Y-97143571D01*
X164062738Y-97143571D02*
X163967500Y-97095952D01*
X163967500Y-97095952D02*
X163777024Y-97095952D01*
X163777024Y-97095952D02*
X163681786Y-97143571D01*
X163681786Y-97143571D02*
X163634167Y-97191190D01*
X163634167Y-97191190D02*
X163586548Y-97286428D01*
X130739524Y-92400000D02*
X130406191Y-91923809D01*
X130168096Y-92400000D02*
X130168096Y-91400000D01*
X130168096Y-91400000D02*
X130549048Y-91400000D01*
X130549048Y-91400000D02*
X130644286Y-91447619D01*
X130644286Y-91447619D02*
X130691905Y-91495238D01*
X130691905Y-91495238D02*
X130739524Y-91590476D01*
X130739524Y-91590476D02*
X130739524Y-91733333D01*
X130739524Y-91733333D02*
X130691905Y-91828571D01*
X130691905Y-91828571D02*
X130644286Y-91876190D01*
X130644286Y-91876190D02*
X130549048Y-91923809D01*
X130549048Y-91923809D02*
X130168096Y-91923809D01*
X131072858Y-91400000D02*
X131691905Y-91400000D01*
X131691905Y-91400000D02*
X131358572Y-91780952D01*
X131358572Y-91780952D02*
X131501429Y-91780952D01*
X131501429Y-91780952D02*
X131596667Y-91828571D01*
X131596667Y-91828571D02*
X131644286Y-91876190D01*
X131644286Y-91876190D02*
X131691905Y-91971428D01*
X131691905Y-91971428D02*
X131691905Y-92209523D01*
X131691905Y-92209523D02*
X131644286Y-92304761D01*
X131644286Y-92304761D02*
X131596667Y-92352381D01*
X131596667Y-92352381D02*
X131501429Y-92400000D01*
X131501429Y-92400000D02*
X131215715Y-92400000D01*
X131215715Y-92400000D02*
X131120477Y-92352381D01*
X131120477Y-92352381D02*
X131072858Y-92304761D01*
X149632142Y-85054580D02*
X149584523Y-85102200D01*
X149584523Y-85102200D02*
X149441666Y-85149819D01*
X149441666Y-85149819D02*
X149346428Y-85149819D01*
X149346428Y-85149819D02*
X149203571Y-85102200D01*
X149203571Y-85102200D02*
X149108333Y-85006961D01*
X149108333Y-85006961D02*
X149060714Y-84911723D01*
X149060714Y-84911723D02*
X149013095Y-84721247D01*
X149013095Y-84721247D02*
X149013095Y-84578390D01*
X149013095Y-84578390D02*
X149060714Y-84387914D01*
X149060714Y-84387914D02*
X149108333Y-84292676D01*
X149108333Y-84292676D02*
X149203571Y-84197438D01*
X149203571Y-84197438D02*
X149346428Y-84149819D01*
X149346428Y-84149819D02*
X149441666Y-84149819D01*
X149441666Y-84149819D02*
X149584523Y-84197438D01*
X149584523Y-84197438D02*
X149632142Y-84245057D01*
X150584523Y-85149819D02*
X150013095Y-85149819D01*
X150298809Y-85149819D02*
X150298809Y-84149819D01*
X150298809Y-84149819D02*
X150203571Y-84292676D01*
X150203571Y-84292676D02*
X150108333Y-84387914D01*
X150108333Y-84387914D02*
X150013095Y-84435533D01*
X151203571Y-84149819D02*
X151298809Y-84149819D01*
X151298809Y-84149819D02*
X151394047Y-84197438D01*
X151394047Y-84197438D02*
X151441666Y-84245057D01*
X151441666Y-84245057D02*
X151489285Y-84340295D01*
X151489285Y-84340295D02*
X151536904Y-84530771D01*
X151536904Y-84530771D02*
X151536904Y-84768866D01*
X151536904Y-84768866D02*
X151489285Y-84959342D01*
X151489285Y-84959342D02*
X151441666Y-85054580D01*
X151441666Y-85054580D02*
X151394047Y-85102200D01*
X151394047Y-85102200D02*
X151298809Y-85149819D01*
X151298809Y-85149819D02*
X151203571Y-85149819D01*
X151203571Y-85149819D02*
X151108333Y-85102200D01*
X151108333Y-85102200D02*
X151060714Y-85054580D01*
X151060714Y-85054580D02*
X151013095Y-84959342D01*
X151013095Y-84959342D02*
X150965476Y-84768866D01*
X150965476Y-84768866D02*
X150965476Y-84530771D01*
X150965476Y-84530771D02*
X151013095Y-84340295D01*
X151013095Y-84340295D02*
X151060714Y-84245057D01*
X151060714Y-84245057D02*
X151108333Y-84197438D01*
X151108333Y-84197438D02*
X151203571Y-84149819D01*
X153947024Y-80000000D02*
X153613691Y-79523809D01*
X153375596Y-80000000D02*
X153375596Y-79000000D01*
X153375596Y-79000000D02*
X153756548Y-79000000D01*
X153756548Y-79000000D02*
X153851786Y-79047619D01*
X153851786Y-79047619D02*
X153899405Y-79095238D01*
X153899405Y-79095238D02*
X153947024Y-79190476D01*
X153947024Y-79190476D02*
X153947024Y-79333333D01*
X153947024Y-79333333D02*
X153899405Y-79428571D01*
X153899405Y-79428571D02*
X153851786Y-79476190D01*
X153851786Y-79476190D02*
X153756548Y-79523809D01*
X153756548Y-79523809D02*
X153375596Y-79523809D01*
X154851786Y-79000000D02*
X154375596Y-79000000D01*
X154375596Y-79000000D02*
X154327977Y-79476190D01*
X154327977Y-79476190D02*
X154375596Y-79428571D01*
X154375596Y-79428571D02*
X154470834Y-79380952D01*
X154470834Y-79380952D02*
X154708929Y-79380952D01*
X154708929Y-79380952D02*
X154804167Y-79428571D01*
X154804167Y-79428571D02*
X154851786Y-79476190D01*
X154851786Y-79476190D02*
X154899405Y-79571428D01*
X154899405Y-79571428D02*
X154899405Y-79809523D01*
X154899405Y-79809523D02*
X154851786Y-79904761D01*
X154851786Y-79904761D02*
X154804167Y-79952381D01*
X154804167Y-79952381D02*
X154708929Y-80000000D01*
X154708929Y-80000000D02*
X154470834Y-80000000D01*
X154470834Y-80000000D02*
X154375596Y-79952381D01*
X154375596Y-79952381D02*
X154327977Y-79904761D01*
X139189286Y-77360000D02*
X139189286Y-78169523D01*
X139189286Y-78169523D02*
X139236905Y-78264761D01*
X139236905Y-78264761D02*
X139284524Y-78312381D01*
X139284524Y-78312381D02*
X139379762Y-78360000D01*
X139379762Y-78360000D02*
X139570238Y-78360000D01*
X139570238Y-78360000D02*
X139665476Y-78312381D01*
X139665476Y-78312381D02*
X139713095Y-78264761D01*
X139713095Y-78264761D02*
X139760714Y-78169523D01*
X139760714Y-78169523D02*
X139760714Y-77360000D01*
X140760714Y-78360000D02*
X140189286Y-78360000D01*
X140475000Y-78360000D02*
X140475000Y-77360000D01*
X140475000Y-77360000D02*
X140379762Y-77502857D01*
X140379762Y-77502857D02*
X140284524Y-77598095D01*
X140284524Y-77598095D02*
X140189286Y-77645714D01*
X130989524Y-98734762D02*
X130941905Y-98782382D01*
X130941905Y-98782382D02*
X130799048Y-98830001D01*
X130799048Y-98830001D02*
X130703810Y-98830001D01*
X130703810Y-98830001D02*
X130560953Y-98782382D01*
X130560953Y-98782382D02*
X130465715Y-98687143D01*
X130465715Y-98687143D02*
X130418096Y-98591905D01*
X130418096Y-98591905D02*
X130370477Y-98401429D01*
X130370477Y-98401429D02*
X130370477Y-98258572D01*
X130370477Y-98258572D02*
X130418096Y-98068096D01*
X130418096Y-98068096D02*
X130465715Y-97972858D01*
X130465715Y-97972858D02*
X130560953Y-97877620D01*
X130560953Y-97877620D02*
X130703810Y-97830001D01*
X130703810Y-97830001D02*
X130799048Y-97830001D01*
X130799048Y-97830001D02*
X130941905Y-97877620D01*
X130941905Y-97877620D02*
X130989524Y-97925239D01*
X131846667Y-98163334D02*
X131846667Y-98830001D01*
X131608572Y-97782382D02*
X131370477Y-98496667D01*
X131370477Y-98496667D02*
X131989524Y-98496667D01*
X130715714Y-105197619D02*
X130382381Y-104721428D01*
X130144286Y-105197619D02*
X130144286Y-104197619D01*
X130144286Y-104197619D02*
X130525238Y-104197619D01*
X130525238Y-104197619D02*
X130620476Y-104245238D01*
X130620476Y-104245238D02*
X130668095Y-104292857D01*
X130668095Y-104292857D02*
X130715714Y-104388095D01*
X130715714Y-104388095D02*
X130715714Y-104530952D01*
X130715714Y-104530952D02*
X130668095Y-104626190D01*
X130668095Y-104626190D02*
X130620476Y-104673809D01*
X130620476Y-104673809D02*
X130525238Y-104721428D01*
X130525238Y-104721428D02*
X130144286Y-104721428D01*
X131572857Y-104530952D02*
X131572857Y-105197619D01*
X131334762Y-104150000D02*
X131096667Y-104864285D01*
X131096667Y-104864285D02*
X131715714Y-104864285D01*
X156133333Y-88824761D02*
X156085714Y-88872381D01*
X156085714Y-88872381D02*
X155942857Y-88920000D01*
X155942857Y-88920000D02*
X155847619Y-88920000D01*
X155847619Y-88920000D02*
X155704762Y-88872381D01*
X155704762Y-88872381D02*
X155609524Y-88777142D01*
X155609524Y-88777142D02*
X155561905Y-88681904D01*
X155561905Y-88681904D02*
X155514286Y-88491428D01*
X155514286Y-88491428D02*
X155514286Y-88348571D01*
X155514286Y-88348571D02*
X155561905Y-88158095D01*
X155561905Y-88158095D02*
X155609524Y-88062857D01*
X155609524Y-88062857D02*
X155704762Y-87967619D01*
X155704762Y-87967619D02*
X155847619Y-87920000D01*
X155847619Y-87920000D02*
X155942857Y-87920000D01*
X155942857Y-87920000D02*
X156085714Y-87967619D01*
X156085714Y-87967619D02*
X156133333Y-88015238D01*
X157038095Y-87920000D02*
X156561905Y-87920000D01*
X156561905Y-87920000D02*
X156514286Y-88396190D01*
X156514286Y-88396190D02*
X156561905Y-88348571D01*
X156561905Y-88348571D02*
X156657143Y-88300952D01*
X156657143Y-88300952D02*
X156895238Y-88300952D01*
X156895238Y-88300952D02*
X156990476Y-88348571D01*
X156990476Y-88348571D02*
X157038095Y-88396190D01*
X157038095Y-88396190D02*
X157085714Y-88491428D01*
X157085714Y-88491428D02*
X157085714Y-88729523D01*
X157085714Y-88729523D02*
X157038095Y-88824761D01*
X157038095Y-88824761D02*
X156990476Y-88872381D01*
X156990476Y-88872381D02*
X156895238Y-88920000D01*
X156895238Y-88920000D02*
X156657143Y-88920000D01*
X156657143Y-88920000D02*
X156561905Y-88872381D01*
X156561905Y-88872381D02*
X156514286Y-88824761D01*
X151338096Y-92520000D02*
X151338096Y-91520000D01*
X151338096Y-91520000D02*
X151576191Y-91520000D01*
X151576191Y-91520000D02*
X151719048Y-91567619D01*
X151719048Y-91567619D02*
X151814286Y-91662857D01*
X151814286Y-91662857D02*
X151861905Y-91758095D01*
X151861905Y-91758095D02*
X151909524Y-91948571D01*
X151909524Y-91948571D02*
X151909524Y-92091428D01*
X151909524Y-92091428D02*
X151861905Y-92281904D01*
X151861905Y-92281904D02*
X151814286Y-92377142D01*
X151814286Y-92377142D02*
X151719048Y-92472381D01*
X151719048Y-92472381D02*
X151576191Y-92520000D01*
X151576191Y-92520000D02*
X151338096Y-92520000D01*
X152861905Y-92520000D02*
X152290477Y-92520000D01*
X152576191Y-92520000D02*
X152576191Y-91520000D01*
X152576191Y-91520000D02*
X152480953Y-91662857D01*
X152480953Y-91662857D02*
X152385715Y-91758095D01*
X152385715Y-91758095D02*
X152290477Y-91805714D01*
X125440476Y-59130000D02*
X125440476Y-59844285D01*
X125440476Y-59844285D02*
X125392857Y-59987142D01*
X125392857Y-59987142D02*
X125297619Y-60082381D01*
X125297619Y-60082381D02*
X125154762Y-60130000D01*
X125154762Y-60130000D02*
X125059524Y-60130000D01*
X126440476Y-60130000D02*
X125869048Y-60130000D01*
X126154762Y-60130000D02*
X126154762Y-59130000D01*
X126154762Y-59130000D02*
X126059524Y-59272857D01*
X126059524Y-59272857D02*
X125964286Y-59368095D01*
X125964286Y-59368095D02*
X125869048Y-59415714D01*
X131013333Y-60534761D02*
X130965714Y-60582381D01*
X130965714Y-60582381D02*
X130822857Y-60630000D01*
X130822857Y-60630000D02*
X130727619Y-60630000D01*
X130727619Y-60630000D02*
X130584762Y-60582381D01*
X130584762Y-60582381D02*
X130489524Y-60487142D01*
X130489524Y-60487142D02*
X130441905Y-60391904D01*
X130441905Y-60391904D02*
X130394286Y-60201428D01*
X130394286Y-60201428D02*
X130394286Y-60058571D01*
X130394286Y-60058571D02*
X130441905Y-59868095D01*
X130441905Y-59868095D02*
X130489524Y-59772857D01*
X130489524Y-59772857D02*
X130584762Y-59677619D01*
X130584762Y-59677619D02*
X130727619Y-59630000D01*
X130727619Y-59630000D02*
X130822857Y-59630000D01*
X130822857Y-59630000D02*
X130965714Y-59677619D01*
X130965714Y-59677619D02*
X131013333Y-59725238D01*
X131965714Y-60630000D02*
X131394286Y-60630000D01*
X131680000Y-60630000D02*
X131680000Y-59630000D01*
X131680000Y-59630000D02*
X131584762Y-59772857D01*
X131584762Y-59772857D02*
X131489524Y-59868095D01*
X131489524Y-59868095D02*
X131394286Y-59915714D01*
X125440476Y-71830000D02*
X125440476Y-72544285D01*
X125440476Y-72544285D02*
X125392857Y-72687142D01*
X125392857Y-72687142D02*
X125297619Y-72782381D01*
X125297619Y-72782381D02*
X125154762Y-72830000D01*
X125154762Y-72830000D02*
X125059524Y-72830000D01*
X125869048Y-71925238D02*
X125916667Y-71877619D01*
X125916667Y-71877619D02*
X126011905Y-71830000D01*
X126011905Y-71830000D02*
X126250000Y-71830000D01*
X126250000Y-71830000D02*
X126345238Y-71877619D01*
X126345238Y-71877619D02*
X126392857Y-71925238D01*
X126392857Y-71925238D02*
X126440476Y-72020476D01*
X126440476Y-72020476D02*
X126440476Y-72115714D01*
X126440476Y-72115714D02*
X126392857Y-72258571D01*
X126392857Y-72258571D02*
X125821429Y-72830000D01*
X125821429Y-72830000D02*
X126440476Y-72830000D01*
X141280476Y-101844236D02*
X141280476Y-102558521D01*
X141280476Y-102558521D02*
X141232857Y-102701378D01*
X141232857Y-102701378D02*
X141137619Y-102796617D01*
X141137619Y-102796617D02*
X140994762Y-102844236D01*
X140994762Y-102844236D02*
X140899524Y-102844236D01*
X142232857Y-101844236D02*
X141756667Y-101844236D01*
X141756667Y-101844236D02*
X141709048Y-102320426D01*
X141709048Y-102320426D02*
X141756667Y-102272807D01*
X141756667Y-102272807D02*
X141851905Y-102225188D01*
X141851905Y-102225188D02*
X142090000Y-102225188D01*
X142090000Y-102225188D02*
X142185238Y-102272807D01*
X142185238Y-102272807D02*
X142232857Y-102320426D01*
X142232857Y-102320426D02*
X142280476Y-102415664D01*
X142280476Y-102415664D02*
X142280476Y-102653759D01*
X142280476Y-102653759D02*
X142232857Y-102748997D01*
X142232857Y-102748997D02*
X142185238Y-102796617D01*
X142185238Y-102796617D02*
X142090000Y-102844236D01*
X142090000Y-102844236D02*
X141851905Y-102844236D01*
X141851905Y-102844236D02*
X141756667Y-102796617D01*
X141756667Y-102796617D02*
X141709048Y-102748997D01*
X145333333Y-78059580D02*
X145285714Y-78107200D01*
X145285714Y-78107200D02*
X145142857Y-78154819D01*
X145142857Y-78154819D02*
X145047619Y-78154819D01*
X145047619Y-78154819D02*
X144904762Y-78107200D01*
X144904762Y-78107200D02*
X144809524Y-78011961D01*
X144809524Y-78011961D02*
X144761905Y-77916723D01*
X144761905Y-77916723D02*
X144714286Y-77726247D01*
X144714286Y-77726247D02*
X144714286Y-77583390D01*
X144714286Y-77583390D02*
X144761905Y-77392914D01*
X144761905Y-77392914D02*
X144809524Y-77297676D01*
X144809524Y-77297676D02*
X144904762Y-77202438D01*
X144904762Y-77202438D02*
X145047619Y-77154819D01*
X145047619Y-77154819D02*
X145142857Y-77154819D01*
X145142857Y-77154819D02*
X145285714Y-77202438D01*
X145285714Y-77202438D02*
X145333333Y-77250057D01*
X146190476Y-77154819D02*
X146000000Y-77154819D01*
X146000000Y-77154819D02*
X145904762Y-77202438D01*
X145904762Y-77202438D02*
X145857143Y-77250057D01*
X145857143Y-77250057D02*
X145761905Y-77392914D01*
X145761905Y-77392914D02*
X145714286Y-77583390D01*
X145714286Y-77583390D02*
X145714286Y-77964342D01*
X145714286Y-77964342D02*
X145761905Y-78059580D01*
X145761905Y-78059580D02*
X145809524Y-78107200D01*
X145809524Y-78107200D02*
X145904762Y-78154819D01*
X145904762Y-78154819D02*
X146095238Y-78154819D01*
X146095238Y-78154819D02*
X146190476Y-78107200D01*
X146190476Y-78107200D02*
X146238095Y-78059580D01*
X146238095Y-78059580D02*
X146285714Y-77964342D01*
X146285714Y-77964342D02*
X146285714Y-77726247D01*
X146285714Y-77726247D02*
X146238095Y-77631009D01*
X146238095Y-77631009D02*
X146190476Y-77583390D01*
X146190476Y-77583390D02*
X146095238Y-77535771D01*
X146095238Y-77535771D02*
X145904762Y-77535771D01*
X145904762Y-77535771D02*
X145809524Y-77583390D01*
X145809524Y-77583390D02*
X145761905Y-77631009D01*
X145761905Y-77631009D02*
X145714286Y-77726247D01*
X163537192Y-80593788D02*
X163537192Y-79593788D01*
X163537192Y-79593788D02*
X163775287Y-79593788D01*
X163775287Y-79593788D02*
X163918144Y-79641407D01*
X163918144Y-79641407D02*
X164013382Y-79736645D01*
X164013382Y-79736645D02*
X164061001Y-79831883D01*
X164061001Y-79831883D02*
X164108620Y-80022359D01*
X164108620Y-80022359D02*
X164108620Y-80165216D01*
X164108620Y-80165216D02*
X164061001Y-80355692D01*
X164061001Y-80355692D02*
X164013382Y-80450930D01*
X164013382Y-80450930D02*
X163918144Y-80546169D01*
X163918144Y-80546169D02*
X163775287Y-80593788D01*
X163775287Y-80593788D02*
X163537192Y-80593788D01*
X164489573Y-79689026D02*
X164537192Y-79641407D01*
X164537192Y-79641407D02*
X164632430Y-79593788D01*
X164632430Y-79593788D02*
X164870525Y-79593788D01*
X164870525Y-79593788D02*
X164965763Y-79641407D01*
X164965763Y-79641407D02*
X165013382Y-79689026D01*
X165013382Y-79689026D02*
X165061001Y-79784264D01*
X165061001Y-79784264D02*
X165061001Y-79879502D01*
X165061001Y-79879502D02*
X165013382Y-80022359D01*
X165013382Y-80022359D02*
X164441954Y-80593788D01*
X164441954Y-80593788D02*
X165061001Y-80593788D01*
X135183333Y-52204761D02*
X135135714Y-52252381D01*
X135135714Y-52252381D02*
X134992857Y-52300000D01*
X134992857Y-52300000D02*
X134897619Y-52300000D01*
X134897619Y-52300000D02*
X134754762Y-52252381D01*
X134754762Y-52252381D02*
X134659524Y-52157142D01*
X134659524Y-52157142D02*
X134611905Y-52061904D01*
X134611905Y-52061904D02*
X134564286Y-51871428D01*
X134564286Y-51871428D02*
X134564286Y-51728571D01*
X134564286Y-51728571D02*
X134611905Y-51538095D01*
X134611905Y-51538095D02*
X134659524Y-51442857D01*
X134659524Y-51442857D02*
X134754762Y-51347619D01*
X134754762Y-51347619D02*
X134897619Y-51300000D01*
X134897619Y-51300000D02*
X134992857Y-51300000D01*
X134992857Y-51300000D02*
X135135714Y-51347619D01*
X135135714Y-51347619D02*
X135183333Y-51395238D01*
X135754762Y-51728571D02*
X135659524Y-51680952D01*
X135659524Y-51680952D02*
X135611905Y-51633333D01*
X135611905Y-51633333D02*
X135564286Y-51538095D01*
X135564286Y-51538095D02*
X135564286Y-51490476D01*
X135564286Y-51490476D02*
X135611905Y-51395238D01*
X135611905Y-51395238D02*
X135659524Y-51347619D01*
X135659524Y-51347619D02*
X135754762Y-51300000D01*
X135754762Y-51300000D02*
X135945238Y-51300000D01*
X135945238Y-51300000D02*
X136040476Y-51347619D01*
X136040476Y-51347619D02*
X136088095Y-51395238D01*
X136088095Y-51395238D02*
X136135714Y-51490476D01*
X136135714Y-51490476D02*
X136135714Y-51538095D01*
X136135714Y-51538095D02*
X136088095Y-51633333D01*
X136088095Y-51633333D02*
X136040476Y-51680952D01*
X136040476Y-51680952D02*
X135945238Y-51728571D01*
X135945238Y-51728571D02*
X135754762Y-51728571D01*
X135754762Y-51728571D02*
X135659524Y-51776190D01*
X135659524Y-51776190D02*
X135611905Y-51823809D01*
X135611905Y-51823809D02*
X135564286Y-51919047D01*
X135564286Y-51919047D02*
X135564286Y-52109523D01*
X135564286Y-52109523D02*
X135611905Y-52204761D01*
X135611905Y-52204761D02*
X135659524Y-52252381D01*
X135659524Y-52252381D02*
X135754762Y-52300000D01*
X135754762Y-52300000D02*
X135945238Y-52300000D01*
X135945238Y-52300000D02*
X136040476Y-52252381D01*
X136040476Y-52252381D02*
X136088095Y-52204761D01*
X136088095Y-52204761D02*
X136135714Y-52109523D01*
X136135714Y-52109523D02*
X136135714Y-51919047D01*
X136135714Y-51919047D02*
X136088095Y-51823809D01*
X136088095Y-51823809D02*
X136040476Y-51776190D01*
X136040476Y-51776190D02*
X135945238Y-51728571D01*
X125416667Y-97230001D02*
X125416667Y-97944286D01*
X125416667Y-97944286D02*
X125369048Y-98087143D01*
X125369048Y-98087143D02*
X125273810Y-98182382D01*
X125273810Y-98182382D02*
X125130953Y-98230001D01*
X125130953Y-98230001D02*
X125035715Y-98230001D01*
X126321429Y-97563334D02*
X126321429Y-98230001D01*
X126083334Y-97182382D02*
X125845239Y-97896667D01*
X125845239Y-97896667D02*
X126464286Y-97896667D01*
X160533333Y-79459580D02*
X160485714Y-79507200D01*
X160485714Y-79507200D02*
X160342857Y-79554819D01*
X160342857Y-79554819D02*
X160247619Y-79554819D01*
X160247619Y-79554819D02*
X160104762Y-79507200D01*
X160104762Y-79507200D02*
X160009524Y-79411961D01*
X160009524Y-79411961D02*
X159961905Y-79316723D01*
X159961905Y-79316723D02*
X159914286Y-79126247D01*
X159914286Y-79126247D02*
X159914286Y-78983390D01*
X159914286Y-78983390D02*
X159961905Y-78792914D01*
X159961905Y-78792914D02*
X160009524Y-78697676D01*
X160009524Y-78697676D02*
X160104762Y-78602438D01*
X160104762Y-78602438D02*
X160247619Y-78554819D01*
X160247619Y-78554819D02*
X160342857Y-78554819D01*
X160342857Y-78554819D02*
X160485714Y-78602438D01*
X160485714Y-78602438D02*
X160533333Y-78650057D01*
X161009524Y-79554819D02*
X161200000Y-79554819D01*
X161200000Y-79554819D02*
X161295238Y-79507200D01*
X161295238Y-79507200D02*
X161342857Y-79459580D01*
X161342857Y-79459580D02*
X161438095Y-79316723D01*
X161438095Y-79316723D02*
X161485714Y-79126247D01*
X161485714Y-79126247D02*
X161485714Y-78745295D01*
X161485714Y-78745295D02*
X161438095Y-78650057D01*
X161438095Y-78650057D02*
X161390476Y-78602438D01*
X161390476Y-78602438D02*
X161295238Y-78554819D01*
X161295238Y-78554819D02*
X161104762Y-78554819D01*
X161104762Y-78554819D02*
X161009524Y-78602438D01*
X161009524Y-78602438D02*
X160961905Y-78650057D01*
X160961905Y-78650057D02*
X160914286Y-78745295D01*
X160914286Y-78745295D02*
X160914286Y-78983390D01*
X160914286Y-78983390D02*
X160961905Y-79078628D01*
X160961905Y-79078628D02*
X161009524Y-79126247D01*
X161009524Y-79126247D02*
X161104762Y-79173866D01*
X161104762Y-79173866D02*
X161295238Y-79173866D01*
X161295238Y-79173866D02*
X161390476Y-79126247D01*
X161390476Y-79126247D02*
X161438095Y-79078628D01*
X161438095Y-79078628D02*
X161485714Y-78983390D01*
X130739524Y-66975000D02*
X130406191Y-66498809D01*
X130168096Y-66975000D02*
X130168096Y-65975000D01*
X130168096Y-65975000D02*
X130549048Y-65975000D01*
X130549048Y-65975000D02*
X130644286Y-66022619D01*
X130644286Y-66022619D02*
X130691905Y-66070238D01*
X130691905Y-66070238D02*
X130739524Y-66165476D01*
X130739524Y-66165476D02*
X130739524Y-66308333D01*
X130739524Y-66308333D02*
X130691905Y-66403571D01*
X130691905Y-66403571D02*
X130644286Y-66451190D01*
X130644286Y-66451190D02*
X130549048Y-66498809D01*
X130549048Y-66498809D02*
X130168096Y-66498809D01*
X131691905Y-66975000D02*
X131120477Y-66975000D01*
X131406191Y-66975000D02*
X131406191Y-65975000D01*
X131406191Y-65975000D02*
X131310953Y-66117857D01*
X131310953Y-66117857D02*
X131215715Y-66213095D01*
X131215715Y-66213095D02*
X131120477Y-66260714D01*
X163716666Y-75749819D02*
X163716666Y-76464104D01*
X163716666Y-76464104D02*
X163669047Y-76606961D01*
X163669047Y-76606961D02*
X163573809Y-76702200D01*
X163573809Y-76702200D02*
X163430952Y-76749819D01*
X163430952Y-76749819D02*
X163335714Y-76749819D01*
X164097619Y-75749819D02*
X164764285Y-75749819D01*
X164764285Y-75749819D02*
X164335714Y-76749819D01*
X149344286Y-75950000D02*
X149344286Y-76759523D01*
X149344286Y-76759523D02*
X149391905Y-76854761D01*
X149391905Y-76854761D02*
X149439524Y-76902381D01*
X149439524Y-76902381D02*
X149534762Y-76950000D01*
X149534762Y-76950000D02*
X149725238Y-76950000D01*
X149725238Y-76950000D02*
X149820476Y-76902381D01*
X149820476Y-76902381D02*
X149868095Y-76854761D01*
X149868095Y-76854761D02*
X149915714Y-76759523D01*
X149915714Y-76759523D02*
X149915714Y-75950000D01*
X150296667Y-75950000D02*
X150915714Y-75950000D01*
X150915714Y-75950000D02*
X150582381Y-76330952D01*
X150582381Y-76330952D02*
X150725238Y-76330952D01*
X150725238Y-76330952D02*
X150820476Y-76378571D01*
X150820476Y-76378571D02*
X150868095Y-76426190D01*
X150868095Y-76426190D02*
X150915714Y-76521428D01*
X150915714Y-76521428D02*
X150915714Y-76759523D01*
X150915714Y-76759523D02*
X150868095Y-76854761D01*
X150868095Y-76854761D02*
X150820476Y-76902381D01*
X150820476Y-76902381D02*
X150725238Y-76950000D01*
X150725238Y-76950000D02*
X150439524Y-76950000D01*
X150439524Y-76950000D02*
X150344286Y-76902381D01*
X150344286Y-76902381D02*
X150296667Y-76854761D01*
X125440476Y-84530001D02*
X125440476Y-85244286D01*
X125440476Y-85244286D02*
X125392857Y-85387143D01*
X125392857Y-85387143D02*
X125297619Y-85482382D01*
X125297619Y-85482382D02*
X125154762Y-85530001D01*
X125154762Y-85530001D02*
X125059524Y-85530001D01*
X125821429Y-84530001D02*
X126440476Y-84530001D01*
X126440476Y-84530001D02*
X126107143Y-84910953D01*
X126107143Y-84910953D02*
X126250000Y-84910953D01*
X126250000Y-84910953D02*
X126345238Y-84958572D01*
X126345238Y-84958572D02*
X126392857Y-85006191D01*
X126392857Y-85006191D02*
X126440476Y-85101429D01*
X126440476Y-85101429D02*
X126440476Y-85339524D01*
X126440476Y-85339524D02*
X126392857Y-85434762D01*
X126392857Y-85434762D02*
X126345238Y-85482382D01*
X126345238Y-85482382D02*
X126250000Y-85530001D01*
X126250000Y-85530001D02*
X125964286Y-85530001D01*
X125964286Y-85530001D02*
X125869048Y-85482382D01*
X125869048Y-85482382D02*
X125821429Y-85434762D01*
X131013333Y-73334761D02*
X130965714Y-73382381D01*
X130965714Y-73382381D02*
X130822857Y-73430000D01*
X130822857Y-73430000D02*
X130727619Y-73430000D01*
X130727619Y-73430000D02*
X130584762Y-73382381D01*
X130584762Y-73382381D02*
X130489524Y-73287142D01*
X130489524Y-73287142D02*
X130441905Y-73191904D01*
X130441905Y-73191904D02*
X130394286Y-73001428D01*
X130394286Y-73001428D02*
X130394286Y-72858571D01*
X130394286Y-72858571D02*
X130441905Y-72668095D01*
X130441905Y-72668095D02*
X130489524Y-72572857D01*
X130489524Y-72572857D02*
X130584762Y-72477619D01*
X130584762Y-72477619D02*
X130727619Y-72430000D01*
X130727619Y-72430000D02*
X130822857Y-72430000D01*
X130822857Y-72430000D02*
X130965714Y-72477619D01*
X130965714Y-72477619D02*
X131013333Y-72525238D01*
X131394286Y-72525238D02*
X131441905Y-72477619D01*
X131441905Y-72477619D02*
X131537143Y-72430000D01*
X131537143Y-72430000D02*
X131775238Y-72430000D01*
X131775238Y-72430000D02*
X131870476Y-72477619D01*
X131870476Y-72477619D02*
X131918095Y-72525238D01*
X131918095Y-72525238D02*
X131965714Y-72620476D01*
X131965714Y-72620476D02*
X131965714Y-72715714D01*
X131965714Y-72715714D02*
X131918095Y-72858571D01*
X131918095Y-72858571D02*
X131346667Y-73430000D01*
X131346667Y-73430000D02*
X131965714Y-73430000D01*
X131013333Y-86034761D02*
X130965714Y-86082381D01*
X130965714Y-86082381D02*
X130822857Y-86130000D01*
X130822857Y-86130000D02*
X130727619Y-86130000D01*
X130727619Y-86130000D02*
X130584762Y-86082381D01*
X130584762Y-86082381D02*
X130489524Y-85987142D01*
X130489524Y-85987142D02*
X130441905Y-85891904D01*
X130441905Y-85891904D02*
X130394286Y-85701428D01*
X130394286Y-85701428D02*
X130394286Y-85558571D01*
X130394286Y-85558571D02*
X130441905Y-85368095D01*
X130441905Y-85368095D02*
X130489524Y-85272857D01*
X130489524Y-85272857D02*
X130584762Y-85177619D01*
X130584762Y-85177619D02*
X130727619Y-85130000D01*
X130727619Y-85130000D02*
X130822857Y-85130000D01*
X130822857Y-85130000D02*
X130965714Y-85177619D01*
X130965714Y-85177619D02*
X131013333Y-85225238D01*
X131346667Y-85130000D02*
X131965714Y-85130000D01*
X131965714Y-85130000D02*
X131632381Y-85510952D01*
X131632381Y-85510952D02*
X131775238Y-85510952D01*
X131775238Y-85510952D02*
X131870476Y-85558571D01*
X131870476Y-85558571D02*
X131918095Y-85606190D01*
X131918095Y-85606190D02*
X131965714Y-85701428D01*
X131965714Y-85701428D02*
X131965714Y-85939523D01*
X131965714Y-85939523D02*
X131918095Y-86034761D01*
X131918095Y-86034761D02*
X131870476Y-86082381D01*
X131870476Y-86082381D02*
X131775238Y-86130000D01*
X131775238Y-86130000D02*
X131489524Y-86130000D01*
X131489524Y-86130000D02*
X131394286Y-86082381D01*
X131394286Y-86082381D02*
X131346667Y-86034761D01*
X137959524Y-52204761D02*
X137911905Y-52252381D01*
X137911905Y-52252381D02*
X137769048Y-52300000D01*
X137769048Y-52300000D02*
X137673810Y-52300000D01*
X137673810Y-52300000D02*
X137530953Y-52252381D01*
X137530953Y-52252381D02*
X137435715Y-52157142D01*
X137435715Y-52157142D02*
X137388096Y-52061904D01*
X137388096Y-52061904D02*
X137340477Y-51871428D01*
X137340477Y-51871428D02*
X137340477Y-51728571D01*
X137340477Y-51728571D02*
X137388096Y-51538095D01*
X137388096Y-51538095D02*
X137435715Y-51442857D01*
X137435715Y-51442857D02*
X137530953Y-51347619D01*
X137530953Y-51347619D02*
X137673810Y-51300000D01*
X137673810Y-51300000D02*
X137769048Y-51300000D01*
X137769048Y-51300000D02*
X137911905Y-51347619D01*
X137911905Y-51347619D02*
X137959524Y-51395238D01*
X138292858Y-51300000D02*
X138959524Y-51300000D01*
X138959524Y-51300000D02*
X138530953Y-52300000D01*
%TO.C,R2*%
D14*
X131657064Y-76440000D02*
X130202936Y-76440000D01*
X131657064Y-78260000D02*
X130202936Y-78260000D01*
%TO.C,J6*%
X160097500Y-90295000D02*
X166837500Y-90295000D01*
X160097500Y-96115000D02*
X160097500Y-90295000D01*
X161817500Y-96115000D02*
X161817500Y-90295000D01*
X164917500Y-96115000D02*
X164917500Y-90295000D01*
X165917500Y-96115000D02*
X165917500Y-90295000D01*
X166837500Y-90295000D02*
X166837500Y-94175000D01*
X166837500Y-94775000D02*
X166837500Y-96115000D01*
X166837500Y-96115000D02*
X160097500Y-96115000D01*
X166837500Y-94475000D02*
X167447500Y-94035000D01*
X167447500Y-94915000D01*
X166837500Y-94475000D01*
G36*
X167447500Y-94915000D02*
G01*
X166837500Y-94475000D01*
X167447500Y-94035000D01*
X167447500Y-94915000D01*
G37*
%TO.C,R3*%
X131657064Y-89140000D02*
X130202936Y-89140000D01*
X131657064Y-90960000D02*
X130202936Y-90960000D01*
%TO.C,C10*%
X149290000Y-80388748D02*
X149290000Y-81811252D01*
X151110000Y-80388748D02*
X151110000Y-81811252D01*
%TO.C,R5*%
X154864564Y-76740000D02*
X153410436Y-76740000D01*
X154864564Y-78560000D02*
X153410436Y-78560000D01*
%TO.C,U1*%
X137915000Y-78725000D02*
X142035000Y-78725000D01*
X137915000Y-78790000D02*
X137915000Y-78725000D01*
X137915000Y-87595000D02*
X137915000Y-87530000D01*
X142035000Y-78725000D02*
X142035000Y-78790000D01*
X142035000Y-87530000D02*
X142035000Y-87595000D01*
X142035000Y-87595000D02*
X137915000Y-87595000D01*
X137375000Y-78790000D02*
X137135000Y-78460000D01*
X137615000Y-78460000D01*
X137375000Y-78790000D01*
G36*
X137375000Y-78790000D02*
G01*
X137135000Y-78460000D01*
X137615000Y-78460000D01*
X137375000Y-78790000D01*
G37*
%TO.C,C4*%
X131891252Y-99290000D02*
X130468748Y-99290000D01*
X131891252Y-101110000D02*
X130468748Y-101110000D01*
%TO.C,R4*%
X131657064Y-101890000D02*
X130202936Y-101890000D01*
X131657064Y-103710000D02*
X130202936Y-103710000D01*
%TO.C,C5*%
X152675000Y-83115000D02*
X153300000Y-83115000D01*
X152987500Y-82802500D02*
X152987500Y-83427500D01*
X153540000Y-83104437D02*
X153540000Y-83740000D01*
X153540000Y-83104437D02*
X154604437Y-82040000D01*
X153540000Y-86495563D02*
X153540000Y-85860000D01*
X153540000Y-86495563D02*
X154604437Y-87560000D01*
X154604437Y-82040000D02*
X159060000Y-82040000D01*
X154604437Y-87560000D02*
X159060000Y-87560000D01*
X159060000Y-82040000D02*
X159060000Y-83740000D01*
X159060000Y-87560000D02*
X159060000Y-85860000D01*
%TO.C,D1*%
X154360000Y-89250000D02*
X150700000Y-89250000D01*
X154360000Y-91150000D02*
X150700000Y-91150000D01*
X154360000Y-91150000D02*
X154360000Y-89250000D01*
%TO.C,J1*%
X124370000Y-60740000D02*
X125750000Y-60740000D01*
X124370000Y-62120000D02*
X124370000Y-60740000D01*
X124370000Y-63390000D02*
X124370000Y-71120000D01*
X124370000Y-63390000D02*
X127130000Y-63390000D01*
X124370000Y-71120000D02*
X127130000Y-71120000D01*
X127130000Y-63390000D02*
X127130000Y-71120000D01*
%TO.C,C1*%
X131891252Y-61090000D02*
X130468748Y-61090000D01*
X131891252Y-62910000D02*
X130468748Y-62910000D01*
%TO.C,J2*%
X124370000Y-73440000D02*
X125750000Y-73440000D01*
X124370000Y-74820000D02*
X124370000Y-73440000D01*
X124370000Y-76090000D02*
X124370000Y-83820000D01*
X124370000Y-76090000D02*
X127130000Y-76090000D01*
X124370000Y-83820000D02*
X127130000Y-83820000D01*
X127130000Y-76090000D02*
X127130000Y-83820000D01*
%TO.C,J5*%
X136385000Y-103454236D02*
X146785000Y-103454236D01*
X136385000Y-106474236D02*
X146785000Y-106474236D01*
X136385000Y-111374236D02*
X146785000Y-111374236D01*
X136385000Y-112874236D02*
X146785000Y-112874236D01*
X136385000Y-113494236D02*
X136385000Y-103454236D01*
X138745000Y-113494236D02*
X136385000Y-113494236D01*
X146785000Y-103454236D02*
X146785000Y-113494236D01*
X146785000Y-113494236D02*
X139345000Y-113494236D01*
X139045000Y-113494236D02*
X139485000Y-114104236D01*
X138605000Y-114104236D01*
X139045000Y-113494236D01*
G36*
X139485000Y-114104236D02*
G01*
X138605000Y-114104236D01*
X139045000Y-113494236D01*
X139485000Y-114104236D01*
G37*
%TO.C,C6*%
X144690000Y-80388748D02*
X144690000Y-81811252D01*
X146510000Y-80388748D02*
X146510000Y-81811252D01*
%TO.C,D2*%
X163349096Y-85323788D02*
X163349096Y-81663788D01*
X163349096Y-85323788D02*
X165249096Y-85323788D01*
X165249096Y-85323788D02*
X165249096Y-81663788D01*
%TO.C,C8*%
X134440000Y-54288748D02*
X134440000Y-55711252D01*
X136260000Y-54288748D02*
X136260000Y-55711252D01*
%TO.C,J4*%
X124370000Y-98840000D02*
X125750000Y-98840000D01*
X124370000Y-100220000D02*
X124370000Y-98840000D01*
X124370000Y-101490000D02*
X124370000Y-109220000D01*
X124370000Y-101490000D02*
X127130000Y-101490000D01*
X124370000Y-109220000D02*
X127130000Y-109220000D01*
X127130000Y-101490000D02*
X127130000Y-109220000D01*
%TO.C,C9*%
X157540000Y-78338748D02*
X157540000Y-79761252D01*
X159360000Y-78338748D02*
X159360000Y-79761252D01*
%TO.C,R1*%
X131657064Y-63715000D02*
X130202936Y-63715000D01*
X131657064Y-65535000D02*
X130202936Y-65535000D01*
%TO.C,J7*%
X162670000Y-72645000D02*
X162670000Y-59835000D01*
X165430000Y-59835000D02*
X162670000Y-59835000D01*
X165430000Y-72645000D02*
X162670000Y-72645000D01*
X165430000Y-72645000D02*
X165430000Y-59835000D01*
X165430000Y-73915000D02*
X165430000Y-75295000D01*
X165430000Y-75295000D02*
X164050000Y-75295000D01*
%TO.C,U3*%
X142130000Y-75480000D02*
X158130000Y-75480000D01*
X145800000Y-51980000D02*
X145800000Y-51430000D01*
X146300000Y-50930000D02*
X153960000Y-50930000D01*
X154460000Y-51430000D02*
X154460000Y-51980000D01*
X158130000Y-51980000D02*
X142130000Y-51980000D01*
X141301507Y-52420000D02*
G75*
G02*
X142130000Y-51980000I828493J-560000D01*
G01*
X142130000Y-75480000D02*
G75*
G02*
X141301507Y-75040000I0J1000000D01*
G01*
X145800000Y-51430000D02*
G75*
G02*
X146300000Y-50930000I500000J0D01*
G01*
X153960000Y-50930000D02*
G75*
G02*
X154460000Y-51430000I0J-500000D01*
G01*
X158130000Y-51980000D02*
G75*
G02*
X158958493Y-52420000I0J-1000000D01*
G01*
X158958493Y-75040000D02*
G75*
G02*
X158130000Y-75480000I-828493J560000D01*
G01*
%TO.C,J3*%
X124370000Y-86140001D02*
X125750000Y-86140001D01*
X124370000Y-87520001D02*
X124370000Y-86140001D01*
X124370000Y-88790001D02*
X124370000Y-96520001D01*
X124370000Y-88790001D02*
X127130000Y-88790001D01*
X124370000Y-96520001D02*
X127130000Y-96520001D01*
X127130000Y-88790001D02*
X127130000Y-96520001D01*
%TO.C,C2*%
X131891252Y-73890000D02*
X130468748Y-73890000D01*
X131891252Y-75710000D02*
X130468748Y-75710000D01*
%TO.C,C3*%
X131891252Y-86590000D02*
X130468748Y-86590000D01*
X131891252Y-88410000D02*
X130468748Y-88410000D01*
%TO.C,C7*%
X137240000Y-54288748D02*
X137240000Y-55711252D01*
X139060000Y-54288748D02*
X139060000Y-55711252D01*
%TD*%
M02*
