%TF.GenerationSoftware,KiCad,Pcbnew,10.0.4*%
%TF.CreationDate,2026-07-21T15:04:48+10:00*%
%TF.ProjectId,led_controller,6c65645f-636f-46e7-9472-6f6c6c65722e,rev?*%
%TF.SameCoordinates,Original*%
%TF.FileFunction,Soldermask,Bot*%
%TF.FilePolarity,Negative*%
%FSLAX46Y46*%
G04 Gerber Fmt 4.6, Leading zero omitted, Abs format (unit mm)*
G04 Created by KiCad (PCBNEW 10.0.4) date 2026-07-21 15:04:48*
%MOMM*%
%LPD*%
G01*
G04 APERTURE LIST*
G04 Aperture macros list*
%AMRoundRect*
0 Rectangle with rounded corners*
0 $1 Rounding radius*
0 $2 $3 $4 $5 $6 $7 $8 $9 X,Y pos of 4 corners*
0 Add a 4 corners polygon primitive as box body*
4,1,4,$2,$3,$4,$5,$6,$7,$8,$9,$2,$3,0*
0 Add four circle primitives for the rounded corners*
1,1,$1+$1,$2,$3*
1,1,$1+$1,$4,$5*
1,1,$1+$1,$6,$7*
1,1,$1+$1,$8,$9*
0 Add four rect primitives between the rounded corners*
20,1,$1+$1,$2,$3,$4,$5,0*
20,1,$1+$1,$4,$5,$6,$7,0*
20,1,$1+$1,$6,$7,$8,$9,0*
20,1,$1+$1,$8,$9,$2,$3,0*%
G04 Aperture macros list end*
%ADD10RoundRect,0.250000X0.750000X-0.750000X0.750000X0.750000X-0.750000X0.750000X-0.750000X-0.750000X0*%
%ADD11C,2.000000*%
%ADD12C,5.400000*%
%ADD13R,1.700000X1.700000*%
%ADD14C,1.700000*%
%ADD15RoundRect,0.250000X-1.050000X-1.050000X1.050000X-1.050000X1.050000X1.050000X-1.050000X1.050000X0*%
%ADD16C,2.600000*%
%ADD17RoundRect,0.160000X-0.640000X-0.640000X0.640000X-0.640000X0.640000X0.640000X-0.640000X0.640000X0*%
%ADD18O,1.600000X1.600000*%
G04 APERTURE END LIST*
D10*
%TO.C,J6*%
X163317500Y-94475000D03*
D11*
X163317500Y-91935000D03*
%TD*%
D12*
%TO.C,H4*%
X166500000Y-116500000D03*
%TD*%
D13*
%TO.C,J1*%
X125750000Y-62120000D03*
D14*
X125750000Y-64660000D03*
X125750000Y-67200000D03*
X125750000Y-69740000D03*
%TD*%
D13*
%TO.C,J2*%
X125750000Y-74820000D03*
D14*
X125750000Y-77360000D03*
X125750000Y-79900000D03*
X125750000Y-82440000D03*
%TD*%
D12*
%TO.C,H2*%
X166500000Y-53500000D03*
%TD*%
D15*
%TO.C,J5*%
X139045000Y-108774236D03*
D16*
X144125000Y-108774236D03*
%TD*%
D13*
%TO.C,J4*%
X125750000Y-100220000D03*
D14*
X125750000Y-102760000D03*
X125750000Y-105300000D03*
X125750000Y-107840000D03*
%TD*%
D13*
%TO.C,J7*%
X164050000Y-73915000D03*
D14*
X164050000Y-71375000D03*
X164050000Y-68835000D03*
X164050000Y-66295000D03*
X164050000Y-63755000D03*
X164050000Y-61215000D03*
%TD*%
D17*
%TO.C,U3*%
X142510000Y-53570000D03*
D18*
X142510000Y-56110000D03*
X142510000Y-58650000D03*
X142510000Y-61190000D03*
X142510000Y-63730000D03*
X142510000Y-66270000D03*
X142510000Y-68810000D03*
X142510000Y-71350000D03*
X142510000Y-73890000D03*
X157750000Y-73890000D03*
X157750000Y-71350000D03*
X157750000Y-68810000D03*
X157750000Y-66270000D03*
X157750000Y-63730000D03*
X157750000Y-61190000D03*
X157750000Y-58650000D03*
X157750000Y-56110000D03*
X157750000Y-53570000D03*
%TD*%
D13*
%TO.C,J3*%
X125750000Y-87520001D03*
D14*
X125750000Y-90060001D03*
X125750000Y-92600001D03*
X125750000Y-95140001D03*
%TD*%
D12*
%TO.C,H1*%
X123500000Y-53500000D03*
%TD*%
%TO.C,H3*%
X123500000Y-116500000D03*
%TD*%
M02*
