%TF.GenerationSoftware,KiCad,Pcbnew,10.0.4*%
%TF.CreationDate,2026-07-21T15:04:48+10:00*%
%TF.ProjectId,led_controller,6c65645f-636f-46e7-9472-6f6c6c65722e,rev?*%
%TF.SameCoordinates,Original*%
%TF.FileFunction,Copper,L1,Top*%
%TF.FilePolarity,Positive*%
%FSLAX46Y46*%
G04 Gerber Fmt 4.6, Leading zero omitted, Abs format (unit mm)*
G04 Created by KiCad (PCBNEW 10.0.4) date 2026-07-21 15:04:48*
%MOMM*%
%LPD*%
G01*
G04 APERTURE LIST*
G04 Aperture macros list*
%AMRoundRect*
0 Rectangle with rounded corners*
0 $1 Rounding radius*
0 $2 $3 $4 $5 $6 $7 $8 $9 X,Y pos of 4 corners*
0 Add a 4 corners polygon primitive as box body*
4,1,4,$2,$3,$4,$5,$6,$7,$8,$9,$2,$3,0*
0 Add four circle primitives for the rounded corners*
1,1,$1+$1,$2,$3*
1,1,$1+$1,$4,$5*
1,1,$1+$1,$6,$7*
1,1,$1+$1,$8,$9*
0 Add four rect primitives between the rounded corners*
20,1,$1+$1,$2,$3,$4,$5,0*
20,1,$1+$1,$4,$5,$6,$7,0*
20,1,$1+$1,$6,$7,$8,$9,0*
20,1,$1+$1,$8,$9,$2,$3,0*%
G04 Aperture macros list end*
%TA.AperFunction,SMDPad,CuDef*%
%ADD10C,1.000000*%
%TD*%
%TA.AperFunction,SMDPad,CuDef*%
%ADD11RoundRect,0.250000X0.312500X0.625000X-0.312500X0.625000X-0.312500X-0.625000X0.312500X-0.625000X0*%
%TD*%
%TA.AperFunction,ComponentPad*%
%ADD12RoundRect,0.250000X0.750000X-0.750000X0.750000X0.750000X-0.750000X0.750000X-0.750000X-0.750000X0*%
%TD*%
%TA.AperFunction,ComponentPad*%
%ADD13C,2.000000*%
%TD*%
%TA.AperFunction,SMDPad,CuDef*%
%ADD14RoundRect,0.250000X-0.650000X0.412500X-0.650000X-0.412500X0.650000X-0.412500X0.650000X0.412500X0*%
%TD*%
%TA.AperFunction,SMDPad,CuDef*%
%ADD15RoundRect,0.150000X-0.825000X-0.150000X0.825000X-0.150000X0.825000X0.150000X-0.825000X0.150000X0*%
%TD*%
%TA.AperFunction,SMDPad,CuDef*%
%ADD16RoundRect,0.250000X0.412500X0.650000X-0.412500X0.650000X-0.412500X-0.650000X0.412500X-0.650000X0*%
%TD*%
%TA.AperFunction,SMDPad,CuDef*%
%ADD17RoundRect,0.250000X-1.250000X-0.550000X1.250000X-0.550000X1.250000X0.550000X-1.250000X0.550000X0*%
%TD*%
%TA.AperFunction,ComponentPad*%
%ADD18C,5.400000*%
%TD*%
%TA.AperFunction,SMDPad,CuDef*%
%ADD19R,1.200000X1.200000*%
%TD*%
%TA.AperFunction,ComponentPad*%
%ADD20R,1.700000X1.700000*%
%TD*%
%TA.AperFunction,ComponentPad*%
%ADD21C,1.700000*%
%TD*%
%TA.AperFunction,ComponentPad*%
%ADD22RoundRect,0.250000X-1.050000X-1.050000X1.050000X-1.050000X1.050000X1.050000X-1.050000X1.050000X0*%
%TD*%
%TA.AperFunction,ComponentPad*%
%ADD23C,2.600000*%
%TD*%
%TA.AperFunction,SMDPad,CuDef*%
%ADD24RoundRect,0.192000X-1.158000X-0.608000X1.158000X-0.608000X1.158000X0.608000X-1.158000X0.608000X0*%
%TD*%
%TA.AperFunction,ComponentPad*%
%ADD25RoundRect,0.160000X-0.640000X-0.640000X0.640000X-0.640000X0.640000X0.640000X-0.640000X0.640000X0*%
%TD*%
%TA.AperFunction,SMDPad,CuDef*%
%ADD26R,2.700000X1.600000*%
%TD*%
%TA.AperFunction,ComponentPad*%
%ADD27O,1.600000X1.600000*%
%TD*%
%TA.AperFunction,ViaPad*%
%ADD28C,0.600000*%
%TD*%
%TA.AperFunction,Conductor*%
%ADD29C,0.500000*%
%TD*%
%TA.AperFunction,Conductor*%
%ADD30C,1.000000*%
%TD*%
%TA.AperFunction,Conductor*%
%ADD31C,0.800000*%
%TD*%
%TA.AperFunction,Conductor*%
%ADD32C,0.200000*%
%TD*%
%TA.AperFunction,Conductor*%
%ADD33C,3.000000*%
%TD*%
G04 APERTURE END LIST*
D10*
%TO.P,FID1,*%
%TO.N,*%
X129500000Y-54500000D03*
%TD*%
%TO.P,FID2,*%
%TO.N,*%
X167000000Y-86000000D03*
%TD*%
D11*
%TO.P,R2,1*%
%TO.N,/OP2*%
X132392500Y-77350000D03*
%TO.P,R2,2*%
%TO.N,Net-(J2-Pin_2)*%
X129467500Y-77350000D03*
%TD*%
D12*
%TO.P,J6,1,Pin_1_1*%
%TO.N,GND*%
X163317500Y-94475000D03*
D13*
%TO.P,J6,2,Pin_2_2*%
%TO.N,Net-(D2-K)*%
X163317500Y-91935000D03*
%TD*%
D11*
%TO.P,R3,1*%
%TO.N,/OP3*%
X132392500Y-90050000D03*
%TO.P,R3,2*%
%TO.N,Net-(J3-Pin_2)*%
X129467500Y-90050000D03*
%TD*%
D10*
%TO.P,FID3,*%
%TO.N,*%
X132500000Y-114500000D03*
%TD*%
D14*
%TO.P,C10,1*%
%TO.N,+3.3V*%
X150200000Y-79537500D03*
%TO.P,C10,2*%
%TO.N,GND*%
X150200000Y-82662500D03*
%TD*%
D11*
%TO.P,R5,1*%
%TO.N,Net-(C9-Pad1)*%
X155600000Y-77650000D03*
%TO.P,R5,2*%
%TO.N,+3.3V*%
X152675000Y-77650000D03*
%TD*%
D15*
%TO.P,U1,1*%
%TO.N,GND*%
X137500000Y-79350000D03*
%TO.P,U1,2*%
%TO.N,DATA1*%
X137500000Y-80620000D03*
%TO.P,U1,3*%
%TO.N,/OP1*%
X137500000Y-81890000D03*
%TO.P,U1,4*%
%TO.N,GND*%
X137500000Y-83160000D03*
%TO.P,U1,5*%
%TO.N,DATA2*%
X137500000Y-84430000D03*
%TO.P,U1,6*%
%TO.N,/OP2*%
X137500000Y-85700000D03*
%TO.P,U1,7,GND_7*%
%TO.N,GND*%
X137500000Y-86970000D03*
%TO.P,U1,8*%
%TO.N,/OP3*%
X142450000Y-86970000D03*
%TO.P,U1,9*%
%TO.N,DATA3*%
X142450000Y-85700000D03*
%TO.P,U1,10*%
%TO.N,GND*%
X142450000Y-84430000D03*
%TO.P,U1,11*%
%TO.N,/OP4*%
X142450000Y-83160000D03*
%TO.P,U1,12*%
%TO.N,DATA4*%
X142450000Y-81890000D03*
%TO.P,U1,13*%
%TO.N,GND*%
X142450000Y-80620000D03*
%TO.P,U1,14,VCC_14*%
%TO.N,+5V*%
X142450000Y-79350000D03*
%TD*%
D16*
%TO.P,C4,1*%
%TO.N,GND*%
X132742500Y-100200000D03*
%TO.P,C4,2*%
%TO.N,+5V*%
X129617500Y-100200000D03*
%TD*%
D11*
%TO.P,R4,1*%
%TO.N,/OP4*%
X132392500Y-102800000D03*
%TO.P,R4,2*%
%TO.N,Net-(J4-Pin_2)*%
X129467500Y-102800000D03*
%TD*%
D17*
%TO.P,C5,1*%
%TO.N,+4.6V*%
X154100000Y-84800000D03*
%TO.P,C5,2*%
%TO.N,GND*%
X158500000Y-84800000D03*
%TD*%
D18*
%TO.P,H4,1,1_1*%
%TO.N,GND*%
X166500000Y-116500000D03*
%TD*%
D19*
%TO.P,D1,1,K_1*%
%TO.N,+4.6V*%
X153500000Y-90200000D03*
%TO.P,D1,2,A_2*%
%TO.N,+5V*%
X150700000Y-90200000D03*
%TD*%
D20*
%TO.P,J1,1,Pin_1_1*%
%TO.N,+5V*%
X125750000Y-62120000D03*
D21*
%TO.P,J1,2,Pin_2_2*%
%TO.N,Net-(J1-Pin_2)*%
X125750000Y-64660000D03*
%TO.P,J1,3,Pin_3_3*%
%TO.N,unconnected-(J1-Pin_3-Pad3)*%
X125750000Y-67200000D03*
%TO.P,J1,4,Pin_4_4*%
%TO.N,GND*%
X125750000Y-69740000D03*
%TD*%
D16*
%TO.P,C1,1*%
%TO.N,GND*%
X132742500Y-62000000D03*
%TO.P,C1,2*%
%TO.N,+5V*%
X129617500Y-62000000D03*
%TD*%
D20*
%TO.P,J2,1,Pin_1_1*%
%TO.N,+5V*%
X125750000Y-74820000D03*
D21*
%TO.P,J2,2,Pin_2_2*%
%TO.N,Net-(J2-Pin_2)*%
X125750000Y-77360000D03*
%TO.P,J2,3,Pin_3_3*%
%TO.N,unconnected-(J2-Pin_3-Pad3)*%
X125750000Y-79900000D03*
%TO.P,J2,4,Pin_4_4*%
%TO.N,GND*%
X125750000Y-82440000D03*
%TD*%
D18*
%TO.P,H2,1,1_1*%
%TO.N,GND*%
X166500000Y-53500000D03*
%TD*%
D22*
%TO.P,J5,1,Pin_1_1*%
%TO.N,+5V*%
X139045000Y-108774236D03*
D23*
%TO.P,J5,2,Pin_2_2*%
%TO.N,GND*%
X144125000Y-108774236D03*
%TD*%
D14*
%TO.P,C6,1*%
%TO.N,+5V*%
X145600000Y-79537500D03*
%TO.P,C6,2*%
%TO.N,GND*%
X145600000Y-82662500D03*
%TD*%
D19*
%TO.P,D2,1,K_1*%
%TO.N,Net-(D2-K)*%
X164299096Y-84463788D03*
%TO.P,D2,2,A_2*%
%TO.N,Net-(D2-A)*%
X164299096Y-81663788D03*
%TD*%
D14*
%TO.P,C8,1*%
%TO.N,+4.6V*%
X135350000Y-53437500D03*
%TO.P,C8,2*%
%TO.N,GND*%
X135350000Y-56562500D03*
%TD*%
D20*
%TO.P,J4,1,Pin_1_1*%
%TO.N,+5V*%
X125750000Y-100220000D03*
D21*
%TO.P,J4,2,Pin_2_2*%
%TO.N,Net-(J4-Pin_2)*%
X125750000Y-102760000D03*
%TO.P,J4,3,Pin_3_3*%
%TO.N,unconnected-(J4-Pin_3-Pad3)*%
X125750000Y-105300000D03*
%TO.P,J4,4,Pin_4_4*%
%TO.N,GND*%
X125750000Y-107840000D03*
%TD*%
D14*
%TO.P,C9,1*%
%TO.N,Net-(C9-Pad1)*%
X158450000Y-77487500D03*
%TO.P,C9,2*%
%TO.N,GND*%
X158450000Y-80612500D03*
%TD*%
D11*
%TO.P,R1,1*%
%TO.N,/OP1*%
X132392500Y-64625000D03*
%TO.P,R1,2*%
%TO.N,Net-(J1-Pin_2)*%
X129467500Y-64625000D03*
%TD*%
D20*
%TO.P,J7,1,Pin_1_1*%
%TO.N,+5V*%
X164050000Y-73915000D03*
D21*
%TO.P,J7,2,Pin_2_2*%
%TO.N,IO1*%
X164050000Y-71375000D03*
%TO.P,J7,3,Pin_3_3*%
%TO.N,IO2*%
X164050000Y-68835000D03*
%TO.P,J7,4,Pin_4_4*%
%TO.N,IO3{slash}RX*%
X164050000Y-66295000D03*
%TO.P,J7,5,Pin_5_5*%
%TO.N,IO4{slash}TX*%
X164050000Y-63755000D03*
%TO.P,J7,6,Pin_6_6*%
%TO.N,GND*%
X164050000Y-61215000D03*
%TD*%
D24*
%TO.P,U3,1,5V/VIN_1*%
%TO.N,+4.6V*%
X141960000Y-53570000D03*
D25*
X142510000Y-53570000D03*
D26*
%TO.P,U3,2,GND_2*%
%TO.N,GND*%
X141960000Y-56110000D03*
D27*
X142510000Y-56110000D03*
D26*
%TO.P,U3,3,3V3_3*%
%TO.N,+3.3V*%
X141960000Y-58650000D03*
D27*
X142510000Y-58650000D03*
D26*
%TO.P,U3,4,S3_GPIO1/C6_GPIO0_4*%
%TO.N,unconnected-(U3-S3_GPIO1{slash}C6_GPIO0-Pad4)_1*%
X141960000Y-61190000D03*
D27*
%TO.N,unconnected-(U3-S3_GPIO1{slash}C6_GPIO0-Pad4)*%
X142510000Y-61190000D03*
D26*
%TO.P,U3,5,S3_GPIO2/C6_GPIO1_5*%
%TO.N,unconnected-(U3-S3_GPIO2{slash}C6_GPIO1-Pad5)_1*%
X141960000Y-63730000D03*
D27*
%TO.N,unconnected-(U3-S3_GPIO2{slash}C6_GPIO1-Pad5)*%
X142510000Y-63730000D03*
D26*
%TO.P,U3,6,S3_GPIO3/C6_GPIO2_6*%
%TO.N,DATA1*%
X141960000Y-66270000D03*
D27*
X142510000Y-66270000D03*
D26*
%TO.P,U3,7,S3_GPIO4/C6_GPIO3_7*%
%TO.N,DATA2*%
X141960000Y-68810000D03*
D27*
X142510000Y-68810000D03*
D26*
%TO.P,U3,8,S3_GPIO5/C6_GPIO4_8*%
%TO.N,DATA3*%
X141960000Y-71350000D03*
D27*
X142510000Y-71350000D03*
D26*
%TO.P,U3,9,S3_GPIO6/C6_GPIO5_9*%
%TO.N,DATA4*%
X141960000Y-73890000D03*
D27*
X142510000Y-73890000D03*
%TO.P,U3,10,S3_GPIO7/C6_GPIO22_10*%
%TO.N,Net-(D2-A)*%
X157750000Y-73890000D03*
D26*
X158300000Y-73890000D03*
D27*
%TO.P,U3,11,S3_GPIO8/C6_GPIO21_11*%
%TO.N,IO1*%
X157750000Y-71350000D03*
D26*
X158300000Y-71350000D03*
D27*
%TO.P,U3,12,S3_GPIO9/C6_GPIO20_12*%
%TO.N,IO2*%
X157750000Y-68810000D03*
D26*
X158300000Y-68810000D03*
D27*
%TO.P,U3,13,S3_GPIO10/C6_GPIO19_13*%
%TO.N,unconnected-(U3-S3_GPIO10{slash}C6_GPIO19-Pad13)*%
X157750000Y-66270000D03*
D26*
%TO.N,unconnected-(U3-S3_GPIO10{slash}C6_GPIO19-Pad13)_1*%
X158300000Y-66270000D03*
D27*
%TO.P,U3,14,S3_GPIO11/C6_GPIO18_14*%
%TO.N,unconnected-(U3-S3_GPIO11{slash}C6_GPIO18-Pad14)_1*%
X157750000Y-63730000D03*
D26*
%TO.N,unconnected-(U3-S3_GPIO11{slash}C6_GPIO18-Pad14)*%
X158300000Y-63730000D03*
D27*
%TO.P,U3,15,S3_GPIO12/C6_GPIO15_15*%
%TO.N,unconnected-(U3-S3_GPIO12{slash}C6_GPIO15-Pad15)_1*%
X157750000Y-61190000D03*
D26*
%TO.N,unconnected-(U3-S3_GPIO12{slash}C6_GPIO15-Pad15)*%
X158300000Y-61190000D03*
D27*
%TO.P,U3,16,S3_GPIO13/C6_GPIO14_16*%
%TO.N,unconnected-(U3-S3_GPIO13{slash}C6_GPIO14-Pad16)*%
X157750000Y-58650000D03*
D26*
%TO.N,unconnected-(U3-S3_GPIO13{slash}C6_GPIO14-Pad16)_1*%
X158300000Y-58650000D03*
D27*
%TO.P,U3,17,S3_GPIO44_RX/C6_RX_17*%
%TO.N,IO3{slash}RX*%
X157750000Y-56110000D03*
D26*
X158300000Y-56110000D03*
D27*
%TO.P,U3,18,S3_GPIO43_TX/C6_TX_18*%
%TO.N,IO4{slash}TX*%
X157750000Y-53570000D03*
D26*
X158300000Y-53570000D03*
%TD*%
D20*
%TO.P,J3,1,Pin_1_1*%
%TO.N,+5V*%
X125750000Y-87520001D03*
D21*
%TO.P,J3,2,Pin_2_2*%
%TO.N,Net-(J3-Pin_2)*%
X125750000Y-90060001D03*
%TO.P,J3,3,Pin_3_3*%
%TO.N,unconnected-(J3-Pin_3-Pad3)*%
X125750000Y-92600001D03*
%TO.P,J3,4,Pin_4_4*%
%TO.N,GND*%
X125750000Y-95140001D03*
%TD*%
D16*
%TO.P,C2,1*%
%TO.N,GND*%
X132742500Y-74800000D03*
%TO.P,C2,2*%
%TO.N,+5V*%
X129617500Y-74800000D03*
%TD*%
%TO.P,C3,1*%
%TO.N,GND*%
X132742500Y-87500000D03*
%TO.P,C3,2*%
%TO.N,+5V*%
X129617500Y-87500000D03*
%TD*%
D18*
%TO.P,H1,1,1_1*%
%TO.N,GND*%
X123500000Y-53500000D03*
%TD*%
%TO.P,H3,1,1_1*%
%TO.N,GND*%
X123500000Y-116500000D03*
%TD*%
D14*
%TO.P,C7,1*%
%TO.N,+4.6V*%
X138150000Y-53437500D03*
%TO.P,C7,2*%
%TO.N,GND*%
X138150000Y-56562500D03*
%TD*%
D28*
%TO.N,GND*%
X141500000Y-77800000D03*
X141500000Y-77000000D03*
X156250000Y-83550000D03*
X164400000Y-79200000D03*
X162350000Y-76950000D03*
X139800000Y-86100000D03*
X138300000Y-67300000D03*
X134500000Y-88900000D03*
X137500000Y-67300000D03*
X140900000Y-84100000D03*
X137900000Y-77000000D03*
X139100000Y-67300000D03*
X155250000Y-92600000D03*
X145100000Y-84400000D03*
X141500000Y-76200000D03*
X156600000Y-81150000D03*
X155600000Y-81150000D03*
X137900000Y-76200000D03*
X152100000Y-90050000D03*
X155200000Y-90200000D03*
X142800000Y-88200000D03*
X140900000Y-79900000D03*
X137900000Y-77800000D03*
X152800000Y-79550000D03*
%TO.N,+3.3V*%
X151000000Y-77650000D03*
X151000000Y-78387500D03*
%TO.N,+4.6V*%
X154100000Y-80900000D03*
X154100000Y-81500000D03*
%TD*%
%TO.N,/OP2*%
D29*
X134700000Y-85700000D02*
X132392500Y-83392500D01*
X137500000Y-85700000D02*
X134700000Y-85700000D01*
X132392500Y-83392500D02*
X132392500Y-77350000D01*
%TO.N,Net-(J2-Pin_2)*%
D30*
X129464167Y-77346667D02*
X129467500Y-77350000D01*
X125750000Y-77346667D02*
X129464167Y-77346667D01*
%TO.N,GND*%
D29*
X133405000Y-81605000D02*
X134960000Y-83160000D01*
X135350000Y-56450000D02*
X138100000Y-56450000D01*
X134960000Y-83160000D02*
X137500000Y-83160000D01*
X132842500Y-74800000D02*
X133405000Y-75362500D01*
X138150000Y-56400000D02*
X141670000Y-56400000D01*
X138100000Y-56350000D02*
X138150000Y-56400000D01*
X141670000Y-56400000D02*
X141960000Y-56110000D01*
X133405000Y-75362500D02*
X133405000Y-81605000D01*
%TO.N,Net-(D2-K)*%
X164299096Y-90951596D02*
X164299096Y-84463788D01*
X164300000Y-90952500D02*
X163317500Y-91935000D01*
X164300000Y-90952500D02*
X164299096Y-90951596D01*
%TO.N,/OP3*%
X132392500Y-90050000D02*
X139370000Y-90050000D01*
X139370000Y-90050000D02*
X142450000Y-86970000D01*
%TO.N,Net-(J3-Pin_2)*%
D30*
X129464167Y-90053333D02*
X129467500Y-90050000D01*
X125750000Y-90053333D02*
X129464167Y-90053333D01*
%TO.N,+3.3V*%
D31*
X151000000Y-78737500D02*
X150200000Y-79537500D01*
X152675000Y-77650000D02*
X151000000Y-77650000D01*
X151000000Y-77650000D02*
X151000000Y-78737500D01*
%TO.N,Net-(C9-Pad1)*%
D29*
X158287500Y-77650000D02*
X158450000Y-77487500D01*
X155600000Y-77650000D02*
X158287500Y-77650000D01*
%TO.N,DATA1*%
D32*
X141750000Y-66270000D02*
X141960000Y-66270000D01*
X139000000Y-80094999D02*
X139000000Y-70994314D01*
X140310000Y-69684314D02*
X140310000Y-67710000D01*
X140310000Y-67710000D02*
X141750000Y-66270000D01*
X139000000Y-70994314D02*
X140310000Y-69684314D01*
X138474999Y-80620000D02*
X139000000Y-80094999D01*
X137500000Y-80620000D02*
X138474999Y-80620000D01*
%TO.N,/OP1*%
D29*
X136525001Y-81890000D02*
X134150000Y-79514999D01*
X134150000Y-79514999D02*
X134150000Y-66382500D01*
X137500000Y-81890000D02*
X136525001Y-81890000D01*
X134150000Y-66382500D02*
X132392500Y-64625000D01*
%TO.N,DATA2*%
D32*
X141960000Y-68810000D02*
X142510000Y-68810000D01*
X138902500Y-84002500D02*
X139400000Y-83505000D01*
X141750000Y-68810000D02*
X141960000Y-68810000D01*
X139400000Y-71160000D02*
X141750000Y-68810000D01*
X137500000Y-84430000D02*
X138474999Y-84430000D01*
X138474999Y-84430000D02*
X138902500Y-84002500D01*
X139400000Y-83505000D02*
X139400000Y-71160000D01*
%TO.N,DATA3*%
X142450000Y-85700000D02*
X141051471Y-85700000D01*
X141410000Y-71350000D02*
X141960000Y-71350000D01*
X139800000Y-84448529D02*
X139800000Y-72960000D01*
X139800000Y-72960000D02*
X141410000Y-71350000D01*
X141051471Y-85700000D02*
X139800000Y-84448529D01*
%TO.N,/OP4*%
D29*
X142450000Y-83160000D02*
X143424999Y-83160000D01*
X143875000Y-91317500D02*
X132392500Y-102800000D01*
X143424999Y-83160000D02*
X143875000Y-83610001D01*
X143875000Y-83610001D02*
X143875000Y-91317500D01*
%TO.N,DATA4*%
D32*
X142450000Y-81890000D02*
X141241471Y-81890000D01*
X140200000Y-80848529D02*
X140200000Y-75650000D01*
X140200000Y-75650000D02*
X141960000Y-73890000D01*
X141241471Y-81890000D02*
X140200000Y-80848529D01*
%TO.N,+5V*%
D30*
X147600000Y-81537500D02*
X145600000Y-79537500D01*
D29*
X145412500Y-79350000D02*
X145600000Y-79537500D01*
D31*
X165499096Y-75399096D02*
X164055000Y-73955000D01*
D30*
X125750000Y-100220000D02*
X129417500Y-100220000D01*
X125750000Y-62100000D02*
X125000000Y-62100000D01*
D31*
X163312884Y-83050000D02*
X165499096Y-83050000D01*
X150700000Y-90200000D02*
X147500000Y-90200000D01*
X150700000Y-90200000D02*
X151900000Y-91400000D01*
D30*
X125850000Y-62000000D02*
X125750000Y-62100000D01*
D31*
X156450000Y-89912884D02*
X163312884Y-83050000D01*
D33*
X122300000Y-109850000D02*
X123600000Y-111150000D01*
D30*
X125000000Y-62100000D02*
X122000000Y-65100000D01*
X122480000Y-100220000D02*
X125750000Y-100220000D01*
D31*
X156450000Y-91400000D02*
X156450000Y-89912884D01*
D30*
X125750000Y-87513333D02*
X122013333Y-87513333D01*
X147600000Y-93814214D02*
X147600000Y-81537500D01*
X125750000Y-87513333D02*
X129424167Y-87513333D01*
D33*
X136669236Y-111150000D02*
X139045000Y-108774236D01*
D30*
X125750000Y-74800000D02*
X129475000Y-74800000D01*
D31*
X151900000Y-91400000D02*
X156450000Y-91400000D01*
D30*
X129417500Y-100220000D02*
X129437500Y-100200000D01*
X125750000Y-74800000D02*
X122000000Y-74800000D01*
D29*
X142450000Y-79350000D02*
X145412500Y-79350000D01*
D33*
X123600000Y-111150000D02*
X136669236Y-111150000D01*
D30*
X129424167Y-87513333D02*
X129437500Y-87500000D01*
D33*
X122300000Y-65050000D02*
X122300000Y-109850000D01*
D30*
X129537500Y-62000000D02*
X125850000Y-62000000D01*
X139045000Y-108774236D02*
X139045000Y-102369214D01*
X139045000Y-102369214D02*
X147600000Y-93814214D01*
D31*
X165499096Y-83050000D02*
X165499096Y-75399096D01*
%TO.N,Net-(J4-Pin_2)*%
D30*
X129427500Y-102760000D02*
X129467500Y-102800000D01*
X125750000Y-102760000D02*
X129427500Y-102760000D01*
%TO.N,+4.6V*%
D29*
X142377500Y-53437500D02*
X142510000Y-53570000D01*
D31*
X153500000Y-90200000D02*
X154100000Y-89600000D01*
X154100000Y-89600000D02*
X154100000Y-84800000D01*
D29*
X138150000Y-53437500D02*
X142377500Y-53437500D01*
D31*
X154100000Y-84800000D02*
X154100000Y-81500000D01*
D29*
X135350000Y-53437500D02*
X138150000Y-53437500D01*
D31*
X154100000Y-81500000D02*
X154100000Y-80900000D01*
%TO.N,Net-(J1-Pin_2)*%
D30*
X125750000Y-64640000D02*
X129452500Y-64640000D01*
X129452500Y-64640000D02*
X129467500Y-64625000D01*
%TO.N,Net-(D2-A)*%
D29*
X163350000Y-79450000D02*
X163350000Y-76650000D01*
X159860000Y-76000000D02*
X157750000Y-73890000D01*
X162700000Y-76000000D02*
X159860000Y-76000000D01*
X164299096Y-80399096D02*
X163350000Y-79450000D01*
X163350000Y-76650000D02*
X162700000Y-76000000D01*
X164299096Y-81663788D02*
X164299096Y-80399096D01*
%TO.N,IO1*%
X164025000Y-71350000D02*
X164050000Y-71375000D01*
X157750000Y-71350000D02*
X164025000Y-71350000D01*
%TO.N,IO2*%
X163990000Y-68810000D02*
X164055000Y-68875000D01*
X157750000Y-68810000D02*
X163990000Y-68810000D01*
%TO.N,IO3{slash}RX*%
X158810000Y-56110000D02*
X158300000Y-56110000D01*
X160100000Y-57400000D02*
X158810000Y-56110000D01*
X164055000Y-66335000D02*
X160100000Y-62380000D01*
X160100000Y-62380000D02*
X160100000Y-57400000D01*
%TO.N,IO4{slash}TX*%
X160800000Y-60540000D02*
X160800000Y-55520000D01*
X160800000Y-55520000D02*
X158850000Y-53570000D01*
X164055000Y-63795000D02*
X160800000Y-60540000D01*
X158850000Y-53570000D02*
X158300000Y-53570000D01*
%TD*%
%TA.AperFunction,Conductor*%
%TO.N,+5V*%
G36*
X124912710Y-61740345D02*
G01*
X124957890Y-61793642D01*
X124967586Y-61859308D01*
X124827600Y-62979194D01*
X124815705Y-63018790D01*
X123731538Y-65210694D01*
X123684172Y-65262057D01*
X123616555Y-65279659D01*
X123562323Y-65265281D01*
X122829766Y-64877026D01*
X121364653Y-64100516D01*
X121314638Y-64051730D01*
X121298937Y-63983647D01*
X121322538Y-63917884D01*
X121356814Y-63885920D01*
X124778642Y-61738891D01*
X124845888Y-61719935D01*
X124912710Y-61740345D01*
G37*
%TD.AperFunction*%
%TD*%
%TA.AperFunction,Conductor*%
%TO.N,GND*%
G36*
X167997782Y-50500579D02*
G01*
X168001100Y-50500697D01*
X168002207Y-50500737D01*
X168006624Y-50500973D01*
X168200146Y-50514814D01*
X168208948Y-50515761D01*
X168217682Y-50517017D01*
X168226387Y-50518587D01*
X168409468Y-50558413D01*
X168418027Y-50560597D01*
X168426509Y-50563087D01*
X168434904Y-50565882D01*
X168610459Y-50631362D01*
X168618636Y-50634748D01*
X168626689Y-50638426D01*
X168634578Y-50642376D01*
X168799020Y-50732167D01*
X168806614Y-50736672D01*
X168814049Y-50741449D01*
X168821332Y-50746505D01*
X168971323Y-50858788D01*
X168978216Y-50864344D01*
X168984892Y-50870129D01*
X168991369Y-50876159D01*
X169123839Y-51008629D01*
X169129869Y-51015106D01*
X169135654Y-51021782D01*
X169141210Y-51028675D01*
X169253499Y-51178675D01*
X169258547Y-51185946D01*
X169263325Y-51193382D01*
X169267836Y-51200987D01*
X169357614Y-51365405D01*
X169361575Y-51373316D01*
X169365248Y-51381358D01*
X169368637Y-51389539D01*
X169434117Y-51565095D01*
X169436912Y-51573496D01*
X169439396Y-51581956D01*
X169439398Y-51581961D01*
X169441586Y-51590536D01*
X169481407Y-51773596D01*
X169482978Y-51782297D01*
X169484238Y-51791056D01*
X169485185Y-51799865D01*
X169499026Y-51993371D01*
X169499263Y-51997791D01*
X169499421Y-52002214D01*
X169499500Y-52006641D01*
X169499500Y-117993357D01*
X169499421Y-117997780D01*
X169499421Y-117997784D01*
X169499263Y-118002207D01*
X169499026Y-118006627D01*
X169485185Y-118200132D01*
X169484238Y-118208941D01*
X169482978Y-118217700D01*
X169481407Y-118226402D01*
X169441586Y-118409454D01*
X169439398Y-118418027D01*
X169436906Y-118426515D01*
X169434110Y-118434917D01*
X169368639Y-118610455D01*
X169365249Y-118618640D01*
X169361579Y-118626675D01*
X169357619Y-118634584D01*
X169267834Y-118799012D01*
X169263315Y-118806629D01*
X169258528Y-118814077D01*
X169253482Y-118821343D01*
X169141218Y-118971311D01*
X169135664Y-118978203D01*
X169129868Y-118984892D01*
X169123836Y-118991371D01*
X168991371Y-119123836D01*
X168984892Y-119129868D01*
X168978203Y-119135664D01*
X168971311Y-119141218D01*
X168821343Y-119253482D01*
X168814077Y-119258528D01*
X168806629Y-119263315D01*
X168799012Y-119267834D01*
X168634584Y-119357619D01*
X168626675Y-119361579D01*
X168618640Y-119365249D01*
X168610455Y-119368639D01*
X168434917Y-119434110D01*
X168426515Y-119436906D01*
X168418027Y-119439398D01*
X168409454Y-119441586D01*
X168226402Y-119481407D01*
X168217698Y-119482978D01*
X168208938Y-119484238D01*
X168200130Y-119485185D01*
X168021728Y-119497944D01*
X168021729Y-119497945D01*
X168006616Y-119499026D01*
X168002206Y-119499262D01*
X167997773Y-119499421D01*
X167993356Y-119499500D01*
X122006643Y-119499500D01*
X122002218Y-119499421D01*
X121997792Y-119499262D01*
X121993374Y-119499026D01*
X121986118Y-119498507D01*
X121973622Y-119497613D01*
X121973621Y-119497612D01*
X121799866Y-119485185D01*
X121791059Y-119484238D01*
X121782299Y-119482978D01*
X121773596Y-119481407D01*
X121590537Y-119441586D01*
X121581965Y-119439399D01*
X121573497Y-119436913D01*
X121565092Y-119434116D01*
X121389539Y-119368637D01*
X121381358Y-119365248D01*
X121373316Y-119361575D01*
X121365405Y-119357614D01*
X121200987Y-119267836D01*
X121193375Y-119263320D01*
X121185937Y-119258540D01*
X121178664Y-119253491D01*
X121028675Y-119141210D01*
X121021782Y-119135654D01*
X121015106Y-119129869D01*
X121008629Y-119123839D01*
X120876159Y-118991369D01*
X120870129Y-118984892D01*
X120864344Y-118978216D01*
X120858788Y-118971323D01*
X120856702Y-118968537D01*
X120746489Y-118821311D01*
X120741459Y-118814065D01*
X120736663Y-118806600D01*
X120732163Y-118799013D01*
X120642376Y-118634578D01*
X120638424Y-118626683D01*
X120634750Y-118618639D01*
X120631360Y-118610457D01*
X120565880Y-118434900D01*
X120563087Y-118426509D01*
X120560594Y-118418013D01*
X120558414Y-118409468D01*
X120558411Y-118409454D01*
X120518584Y-118226373D01*
X120517017Y-118217688D01*
X120515759Y-118208931D01*
X120514814Y-118200140D01*
X120514813Y-118200132D01*
X120500973Y-118006624D01*
X120500737Y-118002206D01*
X120500579Y-117997780D01*
X120500500Y-117993356D01*
X120500500Y-114413383D01*
X131399500Y-114413383D01*
X131399500Y-114413389D01*
X131399500Y-114586611D01*
X131426598Y-114757701D01*
X131480127Y-114922445D01*
X131558768Y-115076788D01*
X131660586Y-115216928D01*
X131783072Y-115339414D01*
X131923212Y-115441232D01*
X132077555Y-115519873D01*
X132242299Y-115573402D01*
X132413389Y-115600500D01*
X132413390Y-115600500D01*
X132586610Y-115600500D01*
X132586611Y-115600500D01*
X132757701Y-115573402D01*
X132922445Y-115519873D01*
X133076788Y-115441232D01*
X133216928Y-115339414D01*
X133339414Y-115216928D01*
X133441232Y-115076788D01*
X133519873Y-114922445D01*
X133573402Y-114757701D01*
X133600500Y-114586611D01*
X133600500Y-114413389D01*
X133573402Y-114242299D01*
X133519873Y-114077555D01*
X133441232Y-113923212D01*
X133339414Y-113783072D01*
X133216928Y-113660586D01*
X133076788Y-113558768D01*
X132922449Y-113480128D01*
X132771215Y-113430988D01*
X132771203Y-113430985D01*
X132757701Y-113426598D01*
X132757699Y-113426597D01*
X132757698Y-113426597D01*
X132743312Y-113424318D01*
X132743306Y-113424317D01*
X132653188Y-113410044D01*
X132626271Y-113405781D01*
X132610407Y-113403268D01*
X132586614Y-113399500D01*
X132586611Y-113399500D01*
X132413389Y-113399500D01*
X132413388Y-113399500D01*
X132373726Y-113405781D01*
X132373725Y-113405780D01*
X132242304Y-113426596D01*
X132077549Y-113480129D01*
X131923210Y-113558768D01*
X131843256Y-113616859D01*
X131843255Y-113616859D01*
X131794941Y-113651961D01*
X131787564Y-113656092D01*
X131656092Y-113787564D01*
X131651961Y-113794941D01*
X131616859Y-113843255D01*
X131616859Y-113843256D01*
X131558768Y-113923210D01*
X131480129Y-114077549D01*
X131426596Y-114242305D01*
X131399500Y-114413383D01*
X120500500Y-114413383D01*
X120500500Y-110590464D01*
X120501105Y-110588401D01*
X120500569Y-110586318D01*
X120505521Y-110555537D01*
X120508055Y-110546905D01*
X120517696Y-110531900D01*
X120520185Y-110523425D01*
X120530634Y-110511764D01*
X120545825Y-110488124D01*
X120609379Y-110459095D01*
X120678538Y-110469034D01*
X120727614Y-110509308D01*
X120730610Y-110513463D01*
X120734677Y-110520756D01*
X120736529Y-110522473D01*
X120737297Y-110525455D01*
X120744591Y-110538535D01*
X120771587Y-110603711D01*
X120771618Y-110603767D01*
X120881206Y-110793579D01*
X120883048Y-110796769D01*
X120883058Y-110796782D01*
X121018751Y-110973622D01*
X121018757Y-110973629D01*
X121179472Y-111134344D01*
X121180969Y-111135841D01*
X121181027Y-111135897D01*
X122315136Y-112270006D01*
X122315247Y-112270120D01*
X122476356Y-112431229D01*
X122476370Y-112431242D01*
X122476376Y-112431247D01*
X122653226Y-112566948D01*
X122846274Y-112678405D01*
X122906592Y-112703389D01*
X122906593Y-112703390D01*
X122946415Y-112719885D01*
X123052219Y-112763711D01*
X123267537Y-112821404D01*
X123488544Y-112850501D01*
X123488551Y-112850501D01*
X123715297Y-112850501D01*
X123717203Y-112850501D01*
X123717266Y-112850500D01*
X136551971Y-112850500D01*
X136552034Y-112850501D01*
X136553940Y-112850501D01*
X136557780Y-112850501D01*
X136780685Y-112850501D01*
X136780692Y-112850501D01*
X137001699Y-112821404D01*
X137217017Y-112763710D01*
X137422962Y-112678405D01*
X137616010Y-112566948D01*
X137792860Y-112431247D01*
X137950483Y-112273624D01*
X137955847Y-112268260D01*
X137955862Y-112268242D01*
X139900446Y-110323659D01*
X139928696Y-110302511D01*
X139951788Y-110289903D01*
X140011213Y-110274736D01*
X140149271Y-110274736D01*
X140150576Y-110274613D01*
X140179699Y-110271882D01*
X140179701Y-110271882D01*
X140243790Y-110249455D01*
X140307882Y-110227029D01*
X140417150Y-110146386D01*
X140497793Y-110037118D01*
X140524268Y-109961456D01*
X140542646Y-109908937D01*
X140542646Y-109908935D01*
X140545500Y-109878505D01*
X140545500Y-109625843D01*
X140549725Y-109593751D01*
X140557886Y-109563292D01*
X140570278Y-109533377D01*
X140573400Y-109527969D01*
X140573405Y-109527961D01*
X140658711Y-109322017D01*
X140716404Y-109106699D01*
X140745501Y-108885692D01*
X140745501Y-108671912D01*
X142825000Y-108671912D01*
X142825000Y-108876558D01*
X142857008Y-109078647D01*
X142857009Y-109078653D01*
X142894669Y-109194556D01*
X142920245Y-109273271D01*
X142985110Y-109400573D01*
X143013140Y-109455585D01*
X143079936Y-109547520D01*
X143124790Y-109609256D01*
X143128924Y-109616638D01*
X143133417Y-109621131D01*
X143278104Y-109765818D01*
X143443650Y-109886095D01*
X143488476Y-109908935D01*
X143625963Y-109978989D01*
X143625965Y-109978989D01*
X143625968Y-109978991D01*
X143820582Y-110042226D01*
X144022683Y-110074236D01*
X144227316Y-110074236D01*
X144227317Y-110074236D01*
X144429417Y-110042226D01*
X144624031Y-109978991D01*
X144806349Y-109886095D01*
X144960026Y-109774440D01*
X144967403Y-109770309D01*
X144971894Y-109765818D01*
X144971895Y-109765818D01*
X145116582Y-109621131D01*
X145116582Y-109621130D01*
X145121073Y-109616639D01*
X145125204Y-109609262D01*
X145236859Y-109455585D01*
X145329755Y-109273267D01*
X145392990Y-109078653D01*
X145425000Y-108876553D01*
X145425000Y-108671918D01*
X145392990Y-108469818D01*
X145329755Y-108275204D01*
X145329753Y-108275201D01*
X145329753Y-108275199D01*
X145284101Y-108185604D01*
X145236859Y-108092886D01*
X145125206Y-107939211D01*
X145121073Y-107931831D01*
X144971897Y-107782655D01*
X144971895Y-107782653D01*
X144806349Y-107662376D01*
X144803807Y-107661081D01*
X144624035Y-107569481D01*
X144577343Y-107554310D01*
X144429417Y-107506245D01*
X144429411Y-107506244D01*
X144227322Y-107474236D01*
X144227317Y-107474236D01*
X144022683Y-107474236D01*
X144022678Y-107474236D01*
X143820587Y-107506244D01*
X143820585Y-107506244D01*
X143820582Y-107506245D01*
X143723275Y-107537862D01*
X143625963Y-107569481D01*
X143443657Y-107662372D01*
X143443644Y-107662380D01*
X143289977Y-107774026D01*
X143282598Y-107778158D01*
X143128922Y-107931834D01*
X143124790Y-107939213D01*
X143013144Y-108092880D01*
X143013140Y-108092886D01*
X143013138Y-108092888D01*
X143013136Y-108092893D01*
X142920245Y-108275199D01*
X142888626Y-108372511D01*
X142857009Y-108469818D01*
X142857008Y-108469821D01*
X142857008Y-108469823D01*
X142825000Y-108671912D01*
X140745501Y-108671912D01*
X140745501Y-108662779D01*
X140716404Y-108441773D01*
X140658711Y-108226455D01*
X140573405Y-108020510D01*
X140570277Y-108015093D01*
X140557886Y-107985179D01*
X140549724Y-107954715D01*
X140545500Y-107922627D01*
X140545500Y-107669964D01*
X140545320Y-107668053D01*
X140542646Y-107639536D01*
X140542646Y-107639534D01*
X140497793Y-107511355D01*
X140497792Y-107511353D01*
X140494022Y-107506245D01*
X140483333Y-107491762D01*
X140483333Y-107491761D01*
X140447346Y-107443001D01*
X140417150Y-107402086D01*
X140307882Y-107321443D01*
X140307880Y-107321442D01*
X140179704Y-107276590D01*
X140179702Y-107276589D01*
X140179700Y-107276589D01*
X140149270Y-107273736D01*
X140149266Y-107273736D01*
X140149264Y-107273736D01*
X139896612Y-107273736D01*
X139873395Y-107271543D01*
X139868915Y-107270689D01*
X139864795Y-107269585D01*
X139863457Y-107269648D01*
X139855998Y-107268227D01*
X139829216Y-107254489D01*
X139801401Y-107242966D01*
X139794661Y-107236765D01*
X139793829Y-107236338D01*
X139793407Y-107235610D01*
X139789477Y-107231995D01*
X139782210Y-107224373D01*
X139751449Y-107168034D01*
X139751049Y-107166386D01*
X139748994Y-107157912D01*
X139745500Y-107128684D01*
X139745500Y-102728562D01*
X139750522Y-102693629D01*
X139753608Y-102683120D01*
X139757934Y-102668384D01*
X139789228Y-102615642D01*
X148144112Y-94260759D01*
X148144114Y-94260757D01*
X148220775Y-94146025D01*
X148273580Y-94018542D01*
X148278599Y-93993307D01*
X148282389Y-93974257D01*
X148282389Y-93974254D01*
X148300500Y-93883210D01*
X148300500Y-93700369D01*
X162317500Y-93700369D01*
X162317500Y-95249629D01*
X162332003Y-95322539D01*
X162332004Y-95322543D01*
X162332005Y-95322544D01*
X162387260Y-95405239D01*
X162469955Y-95460494D01*
X162469959Y-95460496D01*
X162535231Y-95473479D01*
X162537965Y-95474203D01*
X162542873Y-95475000D01*
X164092126Y-95475000D01*
X164092307Y-95475000D01*
X164094304Y-95474566D01*
X164165040Y-95460496D01*
X164165044Y-95460494D01*
X164247739Y-95405239D01*
X164302994Y-95322544D01*
X164302996Y-95322540D01*
X164317066Y-95251804D01*
X164317500Y-95249807D01*
X164317500Y-93700189D01*
X164317064Y-93698184D01*
X164307561Y-93650410D01*
X164302996Y-93627459D01*
X164302994Y-93627455D01*
X164247739Y-93544760D01*
X164192483Y-93507839D01*
X164165043Y-93489504D01*
X164165037Y-93489502D01*
X164116209Y-93479790D01*
X164092127Y-93475000D01*
X164092126Y-93475000D01*
X162542874Y-93475000D01*
X162542873Y-93475000D01*
X162528371Y-93477884D01*
X162469960Y-93489502D01*
X162469955Y-93489504D01*
X162387260Y-93544760D01*
X162332004Y-93627455D01*
X162332003Y-93627459D01*
X162317500Y-93700369D01*
X148300500Y-93700369D01*
X148300500Y-90942329D01*
X148300984Y-90938966D01*
X148305523Y-90907393D01*
X148309927Y-90892395D01*
X148347672Y-90833644D01*
X148347700Y-90833619D01*
X148347699Y-90833619D01*
X148349041Y-90832456D01*
X148403920Y-90804977D01*
X148411479Y-90803333D01*
X148437832Y-90800500D01*
X149778252Y-90800500D01*
X149813187Y-90805523D01*
X149828185Y-90809927D01*
X149886960Y-90847699D01*
X149898356Y-90860850D01*
X149897938Y-90861212D01*
X149907748Y-90873165D01*
X149953961Y-90942329D01*
X149955447Y-90944552D01*
X150021769Y-90988867D01*
X150021770Y-90988868D01*
X150080247Y-91000499D01*
X150080250Y-91000500D01*
X150080252Y-91000500D01*
X150582073Y-91000500D01*
X150610773Y-91004626D01*
X150617005Y-91005521D01*
X150642249Y-91012934D01*
X150694995Y-91044230D01*
X151414085Y-91763320D01*
X151414106Y-91763342D01*
X151415149Y-91764385D01*
X151419479Y-91768715D01*
X151419480Y-91768716D01*
X151531284Y-91880520D01*
X151617586Y-91930346D01*
X151668215Y-91959577D01*
X151820942Y-92000500D01*
X151820943Y-92000500D01*
X151820944Y-92000500D01*
X156529055Y-92000500D01*
X156529057Y-92000500D01*
X156681784Y-91959577D01*
X156818716Y-91880520D01*
X156930520Y-91768716D01*
X157009577Y-91631784D01*
X157050500Y-91479057D01*
X157050500Y-90230810D01*
X157055522Y-90195877D01*
X157057957Y-90187584D01*
X157062934Y-90170632D01*
X157094228Y-90117890D01*
X160270888Y-86941231D01*
X163274311Y-83937807D01*
X163302560Y-83916660D01*
X163312489Y-83911238D01*
X163329909Y-83907449D01*
X163345557Y-83898905D01*
X163363339Y-83900176D01*
X163380761Y-83896387D01*
X163397464Y-83902617D01*
X163415248Y-83903889D01*
X163429521Y-83914573D01*
X163446225Y-83920804D01*
X163456908Y-83935075D01*
X163471182Y-83945760D01*
X163488097Y-83976737D01*
X163490778Y-83983925D01*
X163498596Y-84027259D01*
X163498596Y-85083540D01*
X163510227Y-85142017D01*
X163510228Y-85142018D01*
X163510228Y-85142019D01*
X163510230Y-85142021D01*
X163554543Y-85208340D01*
X163620861Y-85252652D01*
X163620863Y-85252654D01*
X163620866Y-85252656D01*
X163661826Y-85260803D01*
X163679343Y-85264287D01*
X163679346Y-85264288D01*
X163679348Y-85264288D01*
X163710846Y-85264288D01*
X163714915Y-85264556D01*
X163718970Y-85266042D01*
X163741702Y-85269311D01*
X163756700Y-85273715D01*
X163779023Y-85288056D01*
X163780516Y-85288604D01*
X163781123Y-85289406D01*
X163815451Y-85311460D01*
X163816638Y-85312829D01*
X163844114Y-85367690D01*
X163845759Y-85375248D01*
X163848596Y-85401619D01*
X163848596Y-90656781D01*
X163848595Y-90656785D01*
X163848596Y-90656788D01*
X163843571Y-90691722D01*
X163839660Y-90705039D01*
X163801883Y-90763815D01*
X163738325Y-90792837D01*
X163738323Y-90792837D01*
X163731406Y-90793831D01*
X163675451Y-90789023D01*
X163598621Y-90764060D01*
X163598617Y-90764059D01*
X163451870Y-90740817D01*
X163411986Y-90734500D01*
X163411985Y-90734500D01*
X163223009Y-90734500D01*
X163036386Y-90764058D01*
X163036384Y-90764058D01*
X163036381Y-90764059D01*
X162856663Y-90822454D01*
X162834751Y-90833619D01*
X162688300Y-90908239D01*
X162638322Y-90944552D01*
X162547298Y-91010685D01*
X162539917Y-91014818D01*
X162397316Y-91157419D01*
X162393186Y-91164794D01*
X162354110Y-91218578D01*
X162354110Y-91218579D01*
X162290740Y-91305799D01*
X162254559Y-91376808D01*
X162204954Y-91474163D01*
X162147607Y-91650658D01*
X162146559Y-91653882D01*
X162117000Y-91840507D01*
X162117000Y-92029491D01*
X162146558Y-92216112D01*
X162146559Y-92216118D01*
X162204954Y-92395836D01*
X162204955Y-92395837D01*
X162204956Y-92395842D01*
X162256263Y-92496534D01*
X162256263Y-92496536D01*
X162256264Y-92496536D01*
X162290740Y-92564199D01*
X162401810Y-92717073D01*
X162535427Y-92850690D01*
X162612123Y-92906413D01*
X162688296Y-92961757D01*
X162688297Y-92961757D01*
X162688301Y-92961760D01*
X162767847Y-93002290D01*
X162850222Y-93044263D01*
X162851820Y-93045199D01*
X162855537Y-93046999D01*
X162857521Y-93047985D01*
X162861275Y-93049043D01*
X162952997Y-93078846D01*
X163036381Y-93105940D01*
X163223014Y-93135500D01*
X163223019Y-93135500D01*
X163411985Y-93135500D01*
X163411986Y-93135500D01*
X163598618Y-93105940D01*
X163778332Y-93047547D01*
X163946699Y-92961760D01*
X164099573Y-92850690D01*
X164233190Y-92717073D01*
X164344260Y-92564199D01*
X164430047Y-92395832D01*
X164488440Y-92216118D01*
X164518000Y-92029486D01*
X164518000Y-91840513D01*
X164488440Y-91653881D01*
X164455452Y-91552356D01*
X164454854Y-91548904D01*
X164449436Y-91517592D01*
X164448948Y-91500513D01*
X164465361Y-91435240D01*
X164471986Y-91423701D01*
X164491842Y-91397760D01*
X164660487Y-91229117D01*
X164660487Y-91229116D01*
X164660490Y-91229114D01*
X164701883Y-91157419D01*
X164704476Y-91152928D01*
X164708145Y-91146573D01*
X164719798Y-91126389D01*
X164719800Y-91126385D01*
X164732819Y-91077793D01*
X164750499Y-91011809D01*
X164750499Y-90893191D01*
X164750499Y-90891979D01*
X164749596Y-90878206D01*
X164749596Y-85913389D01*
X165899500Y-85913389D01*
X165899500Y-86086611D01*
X165905784Y-86126284D01*
X165906988Y-86133890D01*
X165906989Y-86133902D01*
X165925853Y-86253007D01*
X165925854Y-86253007D01*
X165926598Y-86257702D01*
X165973598Y-86402353D01*
X165976908Y-86412539D01*
X165980128Y-86422447D01*
X166004103Y-86469501D01*
X166058766Y-86576786D01*
X166085449Y-86613511D01*
X166160586Y-86716928D01*
X166283072Y-86839414D01*
X166423212Y-86941232D01*
X166577555Y-87019873D01*
X166742299Y-87073402D01*
X166913389Y-87100500D01*
X166913390Y-87100500D01*
X167086610Y-87100500D01*
X167086611Y-87100500D01*
X167257701Y-87073402D01*
X167422445Y-87019873D01*
X167576788Y-86941232D01*
X167716928Y-86839414D01*
X167839414Y-86716928D01*
X167941232Y-86576788D01*
X168019873Y-86422445D01*
X168073402Y-86257701D01*
X168100500Y-86086611D01*
X168100500Y-85913389D01*
X168073402Y-85742299D01*
X168019873Y-85577555D01*
X167941232Y-85423212D01*
X167839414Y-85283072D01*
X167716928Y-85160586D01*
X167576788Y-85058768D01*
X167574633Y-85057670D01*
X167422449Y-84980128D01*
X167271215Y-84930988D01*
X167271203Y-84930985D01*
X167257701Y-84926598D01*
X167257699Y-84926597D01*
X167257698Y-84926597D01*
X167243312Y-84924318D01*
X167243306Y-84924317D01*
X167153188Y-84910044D01*
X167126271Y-84905781D01*
X167110407Y-84903268D01*
X167086614Y-84899500D01*
X167086611Y-84899500D01*
X166913389Y-84899500D01*
X166913388Y-84899500D01*
X166873726Y-84905781D01*
X166873725Y-84905780D01*
X166742304Y-84926596D01*
X166577549Y-84980129D01*
X166423211Y-85058767D01*
X166389119Y-85083538D01*
X166389118Y-85083538D01*
X166294942Y-85151961D01*
X166287563Y-85156093D01*
X166156093Y-85287563D01*
X166151961Y-85294942D01*
X166058772Y-85423205D01*
X166058768Y-85423211D01*
X166058766Y-85423213D01*
X166058764Y-85423218D01*
X165980129Y-85577547D01*
X165926596Y-85742302D01*
X165917831Y-85797647D01*
X165899688Y-85912197D01*
X165899688Y-85912201D01*
X165899500Y-85913389D01*
X164749596Y-85913389D01*
X164749596Y-85406117D01*
X164754619Y-85371181D01*
X164759023Y-85356183D01*
X164768653Y-85341192D01*
X164773663Y-85324112D01*
X164796768Y-85297432D01*
X164798137Y-85296245D01*
X164853016Y-85268765D01*
X164860575Y-85267121D01*
X164886928Y-85264288D01*
X164922969Y-85264288D01*
X164930828Y-85261904D01*
X164950477Y-85257996D01*
X164965354Y-85255037D01*
X164971450Y-85254436D01*
X164971482Y-85254427D01*
X164982407Y-85251690D01*
X164992611Y-85242442D01*
X165043648Y-85208340D01*
X165087963Y-85142019D01*
X165087963Y-85142017D01*
X165087964Y-85142017D01*
X165090126Y-85131143D01*
X165090262Y-85130878D01*
X165090345Y-85130044D01*
X165099164Y-85085705D01*
X165099596Y-85083719D01*
X165099596Y-83844038D01*
X165095134Y-83821608D01*
X165094053Y-83816174D01*
X165092164Y-83780941D01*
X165093402Y-83767108D01*
X165118982Y-83702093D01*
X165175651Y-83661227D01*
X165186046Y-83657560D01*
X165227290Y-83650500D01*
X165578151Y-83650500D01*
X165578153Y-83650500D01*
X165730880Y-83609577D01*
X165867812Y-83530520D01*
X165979616Y-83418716D01*
X166058673Y-83281784D01*
X166099596Y-83129057D01*
X166099596Y-75320039D01*
X166058673Y-75167312D01*
X166058673Y-75167311D01*
X165984542Y-75038913D01*
X165979616Y-75030380D01*
X165867812Y-74918576D01*
X165867811Y-74918575D01*
X165863481Y-74914245D01*
X165862459Y-74913223D01*
X165862416Y-74913181D01*
X165149426Y-74200191D01*
X165149421Y-74200186D01*
X165128274Y-74171935D01*
X165115667Y-74148846D01*
X165100500Y-74089421D01*
X165100500Y-73045063D01*
X165100069Y-73043081D01*
X165088868Y-72986770D01*
X165085975Y-72981358D01*
X165082081Y-72976613D01*
X165061256Y-72945447D01*
X165044552Y-72920447D01*
X164998237Y-72889500D01*
X164988385Y-72882917D01*
X164983641Y-72879024D01*
X164978230Y-72876132D01*
X164978229Y-72876131D01*
X164919752Y-72864500D01*
X164919750Y-72864500D01*
X163180249Y-72864500D01*
X163180247Y-72864500D01*
X163121770Y-72876131D01*
X163121769Y-72876131D01*
X163121768Y-72876132D01*
X163121765Y-72876133D01*
X163121759Y-72876138D01*
X163055447Y-72920447D01*
X163011138Y-72986759D01*
X163011133Y-72986765D01*
X163011132Y-72986768D01*
X163011132Y-72986769D01*
X163011131Y-72986770D01*
X162999500Y-73045247D01*
X162999500Y-74784752D01*
X163011131Y-74843229D01*
X163011132Y-74843230D01*
X163011132Y-74843231D01*
X163011134Y-74843233D01*
X163055447Y-74909552D01*
X163121765Y-74953864D01*
X163121767Y-74953866D01*
X163121770Y-74953868D01*
X163172612Y-74963981D01*
X163175337Y-74964703D01*
X163180249Y-74965500D01*
X163180250Y-74965500D01*
X163180252Y-74965500D01*
X164147073Y-74965500D01*
X164182005Y-74970521D01*
X164207249Y-74977934D01*
X164259995Y-75009230D01*
X164849669Y-75598904D01*
X164870819Y-75627156D01*
X164883427Y-75650245D01*
X164898596Y-75709674D01*
X164898596Y-80055857D01*
X164894346Y-80071554D01*
X164894947Y-80085716D01*
X164893572Y-80090795D01*
X164890385Y-80101648D01*
X164883152Y-80112901D01*
X164881660Y-80118414D01*
X164876482Y-80127276D01*
X164869957Y-80133432D01*
X164852610Y-80160425D01*
X164830796Y-80170386D01*
X164825665Y-80175228D01*
X164816385Y-80176966D01*
X164789053Y-80189448D01*
X164766827Y-80186251D01*
X164756990Y-80188095D01*
X164744583Y-80183053D01*
X164719895Y-80179503D01*
X164719884Y-80179498D01*
X164719328Y-80179244D01*
X164701439Y-80165520D01*
X164692261Y-80161790D01*
X164687186Y-80154585D01*
X164675256Y-80145432D01*
X164673821Y-80143695D01*
X164662031Y-80126718D01*
X164659587Y-80122485D01*
X164659582Y-80122479D01*
X164659578Y-80122475D01*
X164659569Y-80122465D01*
X163849426Y-79312323D01*
X163849421Y-79312318D01*
X163828274Y-79284067D01*
X163815667Y-79260978D01*
X163800500Y-79201553D01*
X163800500Y-76590692D01*
X163776286Y-76500325D01*
X163776286Y-76500324D01*
X163774024Y-76491882D01*
X163774024Y-76491879D01*
X163769799Y-76476112D01*
X163710493Y-76373390D01*
X163710490Y-76373387D01*
X163710488Y-76373384D01*
X162976616Y-75639513D01*
X162976614Y-75639511D01*
X162925250Y-75609856D01*
X162922774Y-75608426D01*
X162922764Y-75608420D01*
X162873889Y-75580201D01*
X162861777Y-75576956D01*
X162861777Y-75576955D01*
X162851380Y-75574170D01*
X162849675Y-75573713D01*
X162849674Y-75573712D01*
X162849670Y-75573712D01*
X162821706Y-75566218D01*
X162811475Y-75563477D01*
X162811475Y-75563476D01*
X162759314Y-75549500D01*
X162759309Y-75549500D01*
X162759308Y-75549500D01*
X160115796Y-75549500D01*
X160115795Y-75549499D01*
X160115795Y-75549500D01*
X160080860Y-75544477D01*
X160055618Y-75537065D01*
X160002873Y-75505769D01*
X159610894Y-75113790D01*
X159589745Y-75085539D01*
X159584069Y-75075145D01*
X159569215Y-75006873D01*
X159593629Y-74941408D01*
X159648028Y-74900118D01*
X159664202Y-74893841D01*
X159664201Y-74893840D01*
X159665947Y-74893163D01*
X159686620Y-74887144D01*
X159728229Y-74878868D01*
X159728229Y-74878867D01*
X159733376Y-74877844D01*
X159743518Y-74868651D01*
X159794552Y-74834552D01*
X159838867Y-74768231D01*
X159838867Y-74768229D01*
X159838868Y-74768229D01*
X159841030Y-74757355D01*
X159841166Y-74757090D01*
X159841249Y-74756256D01*
X159850068Y-74711917D01*
X159850500Y-74709931D01*
X159850500Y-73072295D01*
X159850500Y-73070249D01*
X159850499Y-73070247D01*
X159838868Y-73011770D01*
X159838867Y-73011769D01*
X159822418Y-72987152D01*
X159813089Y-72973189D01*
X159794552Y-72945447D01*
X159757137Y-72920447D01*
X159738385Y-72907917D01*
X159733641Y-72904024D01*
X159728230Y-72901132D01*
X159728229Y-72901131D01*
X159669752Y-72889500D01*
X159669750Y-72889500D01*
X156930249Y-72889500D01*
X156930247Y-72889500D01*
X156871770Y-72901131D01*
X156871769Y-72901131D01*
X156871768Y-72901132D01*
X156871765Y-72901133D01*
X156871759Y-72901138D01*
X156805447Y-72945447D01*
X156761138Y-73011759D01*
X156761133Y-73011765D01*
X156761132Y-73011768D01*
X156761132Y-73011769D01*
X156761131Y-73011770D01*
X156749500Y-73070247D01*
X156749500Y-74709752D01*
X156761131Y-74768229D01*
X156761132Y-74768230D01*
X156761132Y-74768231D01*
X156761134Y-74768233D01*
X156805447Y-74834552D01*
X156871765Y-74878864D01*
X156871767Y-74878866D01*
X156871770Y-74878868D01*
X156922612Y-74888981D01*
X156925337Y-74889703D01*
X156930249Y-74890500D01*
X156930250Y-74890500D01*
X156930252Y-74890500D01*
X157651459Y-74890500D01*
X157848541Y-74890500D01*
X158044205Y-74890500D01*
X158076724Y-74895175D01*
X158079137Y-74895521D01*
X158104381Y-74902934D01*
X158157126Y-74934229D01*
X159583386Y-76360490D01*
X159686114Y-76419799D01*
X159800691Y-76450500D01*
X162444205Y-76450500D01*
X162479137Y-76455521D01*
X162504381Y-76462934D01*
X162557127Y-76494230D01*
X162850573Y-76787676D01*
X162871723Y-76815928D01*
X162884331Y-76839017D01*
X162899500Y-76898446D01*
X162899500Y-79509309D01*
X162905918Y-79533260D01*
X162922936Y-79596775D01*
X162922943Y-79596798D01*
X162922946Y-79596809D01*
X162930201Y-79623887D01*
X162989511Y-79726614D01*
X162989513Y-79726616D01*
X163799668Y-80536771D01*
X163819447Y-80562579D01*
X163820164Y-80563825D01*
X163826980Y-80576307D01*
X163830547Y-80581858D01*
X163832056Y-80584478D01*
X163839571Y-80615615D01*
X163848596Y-80646348D01*
X163848596Y-80721458D01*
X163843571Y-80756402D01*
X163839166Y-80771400D01*
X163801423Y-80830143D01*
X163800054Y-80831330D01*
X163745193Y-80858806D01*
X163737635Y-80860451D01*
X163711264Y-80863288D01*
X163679343Y-80863288D01*
X163620866Y-80874919D01*
X163620865Y-80874919D01*
X163620864Y-80874920D01*
X163615451Y-80877812D01*
X163610710Y-80881704D01*
X163554543Y-80919234D01*
X163554542Y-80919235D01*
X163517012Y-80975402D01*
X163513120Y-80980143D01*
X163510228Y-80985556D01*
X163510228Y-80985557D01*
X163510227Y-80985558D01*
X163498596Y-81044035D01*
X163498596Y-81044037D01*
X163498596Y-82283535D01*
X163498655Y-82283832D01*
X163498690Y-82284492D01*
X163499193Y-82289596D01*
X163498964Y-82289618D01*
X163500517Y-82318609D01*
X163500541Y-82319064D01*
X163499304Y-82332887D01*
X163473723Y-82397906D01*
X163417055Y-82438770D01*
X163417052Y-82438770D01*
X163417051Y-82438772D01*
X163417049Y-82438772D01*
X163406670Y-82442434D01*
X163365413Y-82449499D01*
X163233827Y-82449499D01*
X163157462Y-82469960D01*
X163157463Y-82469961D01*
X163081101Y-82490422D01*
X163081099Y-82490422D01*
X163081098Y-82490423D01*
X163081096Y-82490423D01*
X163081027Y-82490453D01*
X163080218Y-82490930D01*
X162944182Y-82569470D01*
X162944178Y-82569472D01*
X162944174Y-82569475D01*
X162944166Y-82569481D01*
X162944162Y-82569484D01*
X162944160Y-82569485D01*
X160224288Y-85289359D01*
X160201567Y-85306369D01*
X160196038Y-85310508D01*
X160186111Y-85315929D01*
X160117838Y-85330783D01*
X160052373Y-85306369D01*
X160010500Y-85250437D01*
X160008883Y-85246103D01*
X160007813Y-85243231D01*
X160000000Y-85199911D01*
X160000000Y-84225189D01*
X159999564Y-84223184D01*
X159992369Y-84187011D01*
X159985496Y-84152459D01*
X159985494Y-84152455D01*
X159930239Y-84069760D01*
X159847544Y-84014505D01*
X159847545Y-84014505D01*
X159847543Y-84014504D01*
X159847537Y-84014502D01*
X159794933Y-84004039D01*
X159774627Y-84000000D01*
X159774626Y-84000000D01*
X157225374Y-84000000D01*
X157225373Y-84000000D01*
X157210871Y-84002884D01*
X157152460Y-84014502D01*
X157152455Y-84014504D01*
X157069760Y-84069760D01*
X157014504Y-84152455D01*
X157014503Y-84152459D01*
X157000000Y-84225369D01*
X157000000Y-85374629D01*
X157014503Y-85447539D01*
X157014504Y-85447543D01*
X157014505Y-85447544D01*
X157069760Y-85530239D01*
X157152455Y-85585494D01*
X157152459Y-85585496D01*
X157217731Y-85598479D01*
X157220465Y-85599203D01*
X157225373Y-85600000D01*
X157225374Y-85600000D01*
X159596456Y-85600000D01*
X159631383Y-85605021D01*
X159642236Y-85608207D01*
X159701017Y-85645977D01*
X159730046Y-85709531D01*
X159720107Y-85778690D01*
X159720106Y-85778692D01*
X159716921Y-85785667D01*
X159691805Y-85821842D01*
X155969481Y-89544166D01*
X155969477Y-89544169D01*
X155948651Y-89580245D01*
X155948649Y-89580247D01*
X155935250Y-89603455D01*
X155935250Y-89603456D01*
X155899896Y-89664691D01*
X155891600Y-89679060D01*
X155891593Y-89679073D01*
X155890423Y-89681097D01*
X155890422Y-89681100D01*
X155871001Y-89753580D01*
X155849499Y-89833827D01*
X155849499Y-89833829D01*
X155849499Y-90004284D01*
X155849500Y-90004335D01*
X155849500Y-90657670D01*
X155849499Y-90657676D01*
X155849500Y-90657679D01*
X155844475Y-90692614D01*
X155840070Y-90707612D01*
X155802327Y-90766355D01*
X155802292Y-90766385D01*
X155802291Y-90766387D01*
X155802289Y-90766387D01*
X155800958Y-90767542D01*
X155746097Y-90795018D01*
X155738539Y-90796663D01*
X155712168Y-90799500D01*
X154442330Y-90799500D01*
X154442325Y-90799499D01*
X154442323Y-90799500D01*
X154407389Y-90794475D01*
X154392390Y-90790070D01*
X154333644Y-90752327D01*
X154333615Y-90752293D01*
X154333614Y-90752293D01*
X154333613Y-90752291D01*
X154332457Y-90750958D01*
X154304977Y-90696083D01*
X154303332Y-90688521D01*
X154300500Y-90662168D01*
X154300500Y-90317924D01*
X154304763Y-90285688D01*
X154305120Y-90284359D01*
X154309145Y-90270653D01*
X154310552Y-90264183D01*
X154311331Y-90261292D01*
X154328033Y-90233963D01*
X154343375Y-90205858D01*
X154451273Y-90097959D01*
X154451279Y-90097956D01*
X154468715Y-90080520D01*
X154468716Y-90080520D01*
X154580520Y-89968716D01*
X154649635Y-89849005D01*
X154659577Y-89831785D01*
X154700500Y-89679057D01*
X154700500Y-89520943D01*
X154700500Y-85942329D01*
X154700520Y-85942193D01*
X154705523Y-85907393D01*
X154709927Y-85892395D01*
X154747672Y-85833644D01*
X154747700Y-85833619D01*
X154747699Y-85833619D01*
X154749041Y-85832456D01*
X154803920Y-85804977D01*
X154811479Y-85803333D01*
X154837832Y-85800500D01*
X155404271Y-85800500D01*
X155405576Y-85800377D01*
X155434699Y-85797646D01*
X155434701Y-85797646D01*
X155498790Y-85775219D01*
X155562882Y-85752793D01*
X155672150Y-85672150D01*
X155752793Y-85562882D01*
X155775219Y-85498790D01*
X155797646Y-85434701D01*
X155797646Y-85434699D01*
X155800500Y-85404269D01*
X155800500Y-84195730D01*
X155798187Y-84171078D01*
X155798020Y-84167502D01*
X155797646Y-84165300D01*
X155797646Y-84165298D01*
X155752793Y-84037119D01*
X155752792Y-84037117D01*
X155736102Y-84014503D01*
X155735473Y-84013651D01*
X155672151Y-83927851D01*
X155672150Y-83927850D01*
X155562882Y-83847207D01*
X155562880Y-83847206D01*
X155489727Y-83821608D01*
X155434704Y-83802354D01*
X155434702Y-83802353D01*
X155434700Y-83802353D01*
X155404270Y-83799500D01*
X155404266Y-83799500D01*
X155404264Y-83799500D01*
X154842330Y-83799500D01*
X154842325Y-83799499D01*
X154842323Y-83799500D01*
X154807389Y-83794475D01*
X154792390Y-83790070D01*
X154733644Y-83752327D01*
X154733615Y-83752293D01*
X154733614Y-83752293D01*
X154733613Y-83752291D01*
X154732457Y-83750958D01*
X154704977Y-83696083D01*
X154703332Y-83688521D01*
X154700500Y-83662168D01*
X154700500Y-80820945D01*
X154700500Y-80820943D01*
X154659577Y-80668216D01*
X154622300Y-80603650D01*
X154619423Y-80598666D01*
X154580528Y-80531296D01*
X154580520Y-80531284D01*
X154580513Y-80531276D01*
X154468722Y-80419485D01*
X154468720Y-80419484D01*
X154468717Y-80419481D01*
X154468709Y-80419475D01*
X154435839Y-80400498D01*
X154331807Y-80340435D01*
X154331783Y-80340422D01*
X154219979Y-80310464D01*
X154179057Y-80299500D01*
X154179056Y-80299500D01*
X154020943Y-80299500D01*
X153868218Y-80340422D01*
X153868211Y-80340424D01*
X153868210Y-80340425D01*
X153868200Y-80340430D01*
X153731298Y-80419470D01*
X153731294Y-80419472D01*
X153731290Y-80419475D01*
X153731282Y-80419481D01*
X153731278Y-80419484D01*
X153731276Y-80419485D01*
X153619485Y-80531276D01*
X153619484Y-80531278D01*
X153619481Y-80531281D01*
X153619481Y-80531282D01*
X153619475Y-80531290D01*
X153619472Y-80531294D01*
X153619470Y-80531298D01*
X153540430Y-80668200D01*
X153540425Y-80668210D01*
X153540424Y-80668211D01*
X153540422Y-80668218D01*
X153499500Y-80820943D01*
X153499500Y-83657670D01*
X153499499Y-83657676D01*
X153499500Y-83657679D01*
X153494475Y-83692614D01*
X153490070Y-83707612D01*
X153452327Y-83766355D01*
X153452292Y-83766385D01*
X153452291Y-83766387D01*
X153452289Y-83766387D01*
X153450958Y-83767542D01*
X153396097Y-83795018D01*
X153388539Y-83796663D01*
X153362168Y-83799500D01*
X152795730Y-83799500D01*
X152777074Y-83801249D01*
X152771069Y-83801812D01*
X152767499Y-83801978D01*
X152765297Y-83802353D01*
X152637118Y-83847206D01*
X152527849Y-83927849D01*
X152447206Y-84037118D01*
X152402353Y-84165297D01*
X152401978Y-84167499D01*
X152401812Y-84171069D01*
X152399500Y-84195730D01*
X152399500Y-85404269D01*
X152400683Y-85416883D01*
X152401812Y-85428929D01*
X152401978Y-85432499D01*
X152402353Y-85434699D01*
X152402353Y-85434701D01*
X152447206Y-85562880D01*
X152447207Y-85562882D01*
X152527850Y-85672150D01*
X152578500Y-85709531D01*
X152637118Y-85752793D01*
X152765299Y-85797646D01*
X152765303Y-85797647D01*
X152783742Y-85799375D01*
X152795730Y-85800500D01*
X152795734Y-85800500D01*
X153357671Y-85800500D01*
X153392606Y-85805523D01*
X153407604Y-85809927D01*
X153466355Y-85847672D01*
X153466379Y-85847700D01*
X153466382Y-85847702D01*
X153466383Y-85847704D01*
X153467542Y-85849041D01*
X153495018Y-85903902D01*
X153496663Y-85911460D01*
X153499500Y-85937831D01*
X153499500Y-89257670D01*
X153499499Y-89257676D01*
X153499500Y-89257679D01*
X153494475Y-89292614D01*
X153490070Y-89307612D01*
X153452327Y-89366355D01*
X153452292Y-89366385D01*
X153452291Y-89366387D01*
X153452289Y-89366387D01*
X153450958Y-89367542D01*
X153396097Y-89395018D01*
X153388539Y-89396663D01*
X153362168Y-89399500D01*
X152880247Y-89399500D01*
X152821770Y-89411131D01*
X152821769Y-89411131D01*
X152821768Y-89411132D01*
X152821765Y-89411133D01*
X152821759Y-89411138D01*
X152755447Y-89455447D01*
X152711138Y-89521759D01*
X152711133Y-89521765D01*
X152711132Y-89521768D01*
X152711132Y-89521769D01*
X152711131Y-89521770D01*
X152702371Y-89565811D01*
X152699500Y-89580247D01*
X152699500Y-90657670D01*
X152699499Y-90657676D01*
X152699500Y-90657679D01*
X152694475Y-90692614D01*
X152690070Y-90707612D01*
X152652327Y-90766355D01*
X152652292Y-90766385D01*
X152652291Y-90766387D01*
X152652289Y-90766387D01*
X152650958Y-90767542D01*
X152596097Y-90795018D01*
X152588539Y-90796663D01*
X152562168Y-90799500D01*
X152217927Y-90799500D01*
X152217926Y-90799499D01*
X152217926Y-90799500D01*
X152182991Y-90794477D01*
X152157749Y-90787065D01*
X152105004Y-90755769D01*
X151549426Y-90200191D01*
X151528274Y-90171935D01*
X151515667Y-90148846D01*
X151500500Y-90089421D01*
X151500500Y-89582295D01*
X151500500Y-89580249D01*
X151500499Y-89580247D01*
X151488868Y-89521770D01*
X151488867Y-89521769D01*
X151471703Y-89496082D01*
X151457951Y-89475500D01*
X151444552Y-89455447D01*
X151408146Y-89431121D01*
X151388385Y-89417917D01*
X151383641Y-89414024D01*
X151378230Y-89411132D01*
X151378229Y-89411131D01*
X151319752Y-89399500D01*
X151319750Y-89399500D01*
X150080249Y-89399500D01*
X150080247Y-89399500D01*
X150021770Y-89411131D01*
X150021769Y-89411132D01*
X149955447Y-89455447D01*
X149911131Y-89521771D01*
X149910640Y-89522957D01*
X149908878Y-89525142D01*
X149905553Y-89530118D01*
X149904009Y-89531696D01*
X149903741Y-89531517D01*
X149901665Y-89534092D01*
X149901661Y-89534097D01*
X149889643Y-89549010D01*
X149832251Y-89588855D01*
X149819329Y-89593155D01*
X149780174Y-89599500D01*
X148442330Y-89599500D01*
X148442325Y-89599499D01*
X148442323Y-89599500D01*
X148407389Y-89594475D01*
X148392390Y-89590070D01*
X148333644Y-89552327D01*
X148333615Y-89552293D01*
X148333614Y-89552293D01*
X148333613Y-89552291D01*
X148332457Y-89550958D01*
X148304977Y-89496083D01*
X148303332Y-89488521D01*
X148300500Y-89462168D01*
X148300500Y-82225369D01*
X149300000Y-82225369D01*
X149300000Y-83099629D01*
X149300121Y-83100235D01*
X149310921Y-83154534D01*
X149314503Y-83172539D01*
X149314504Y-83172543D01*
X149325814Y-83189469D01*
X149369760Y-83255239D01*
X149452455Y-83310494D01*
X149452459Y-83310496D01*
X149517731Y-83323479D01*
X149520465Y-83324203D01*
X149525373Y-83325000D01*
X150874626Y-83325000D01*
X150874807Y-83325000D01*
X150876804Y-83324566D01*
X150947540Y-83310496D01*
X150947544Y-83310494D01*
X151030239Y-83255239D01*
X151085494Y-83172544D01*
X151085496Y-83172540D01*
X151099566Y-83101804D01*
X151100000Y-83099807D01*
X151100000Y-82225189D01*
X151099564Y-82223184D01*
X151088989Y-82170019D01*
X151085496Y-82152459D01*
X151085494Y-82152455D01*
X151030239Y-82069760D01*
X150947544Y-82014505D01*
X150947545Y-82014505D01*
X150947543Y-82014504D01*
X150947537Y-82014502D01*
X150898709Y-82004790D01*
X150874627Y-82000000D01*
X150874626Y-82000000D01*
X149525374Y-82000000D01*
X149525373Y-82000000D01*
X149510871Y-82002884D01*
X149452460Y-82014502D01*
X149452455Y-82014504D01*
X149369760Y-82069760D01*
X149314504Y-82152455D01*
X149314503Y-82152459D01*
X149300000Y-82225369D01*
X148300500Y-82225369D01*
X148300500Y-81468501D01*
X148273425Y-81332391D01*
X148272739Y-81330996D01*
X148271981Y-81329313D01*
X148220775Y-81205689D01*
X148212087Y-81192686D01*
X148212084Y-81192681D01*
X148144114Y-81090956D01*
X148144112Y-81090953D01*
X148144111Y-81090952D01*
X146749426Y-79696268D01*
X146749421Y-79696263D01*
X146728274Y-79668012D01*
X146715667Y-79644923D01*
X146700500Y-79585498D01*
X146700500Y-79073130D01*
X146700500Y-79070730D01*
X149099500Y-79070730D01*
X149099500Y-80004269D01*
X149102353Y-80034699D01*
X149102353Y-80034701D01*
X149138433Y-80137808D01*
X149139143Y-80139837D01*
X149147206Y-80162881D01*
X149149154Y-80165520D01*
X149227850Y-80272150D01*
X149337118Y-80352793D01*
X149465299Y-80397646D01*
X149465303Y-80397647D01*
X149483607Y-80399363D01*
X149495730Y-80400500D01*
X149495734Y-80400500D01*
X149495739Y-80400500D01*
X150904270Y-80400500D01*
X150904271Y-80400500D01*
X150909013Y-80400055D01*
X150934699Y-80397646D01*
X150934701Y-80397646D01*
X151017685Y-80368608D01*
X151062882Y-80352793D01*
X151172150Y-80272150D01*
X151243577Y-80175369D01*
X157550000Y-80175369D01*
X157550000Y-81049629D01*
X157557251Y-81086084D01*
X157562122Y-81110572D01*
X157564503Y-81122539D01*
X157564504Y-81122543D01*
X157564505Y-81122544D01*
X157619760Y-81205239D01*
X157702455Y-81260494D01*
X157702459Y-81260496D01*
X157767731Y-81273479D01*
X157770465Y-81274203D01*
X157775373Y-81275000D01*
X159124626Y-81275000D01*
X159124807Y-81275000D01*
X159126804Y-81274566D01*
X159197540Y-81260496D01*
X159197544Y-81260494D01*
X159280239Y-81205239D01*
X159335494Y-81122544D01*
X159335496Y-81122540D01*
X159349566Y-81051804D01*
X159350000Y-81049807D01*
X159350000Y-80175189D01*
X159349564Y-80173184D01*
X159342105Y-80135687D01*
X159335496Y-80102459D01*
X159335494Y-80102455D01*
X159280239Y-80019760D01*
X159197544Y-79964505D01*
X159197545Y-79964505D01*
X159197543Y-79964504D01*
X159197537Y-79964502D01*
X159148709Y-79954790D01*
X159124627Y-79950000D01*
X159124626Y-79950000D01*
X157775374Y-79950000D01*
X157775373Y-79950000D01*
X157760871Y-79952884D01*
X157702460Y-79964502D01*
X157702455Y-79964504D01*
X157619760Y-80019760D01*
X157564504Y-80102455D01*
X157564503Y-80102459D01*
X157550000Y-80175369D01*
X151243577Y-80175369D01*
X151252793Y-80162882D01*
X151297646Y-80034699D01*
X151300500Y-80004266D01*
X151300500Y-79355425D01*
X151304763Y-79323190D01*
X151305123Y-79321851D01*
X151309143Y-79308162D01*
X151310549Y-79301696D01*
X151311331Y-79298793D01*
X151328037Y-79271457D01*
X151343375Y-79243359D01*
X151358502Y-79228232D01*
X151358507Y-79228228D01*
X151368714Y-79218020D01*
X151368716Y-79218020D01*
X151480520Y-79106216D01*
X151530639Y-79019404D01*
X151559577Y-78969285D01*
X151600501Y-78816557D01*
X151600501Y-78658443D01*
X151600501Y-78650848D01*
X151600501Y-78649127D01*
X151600509Y-78649127D01*
X151600500Y-78649090D01*
X151600500Y-78392324D01*
X151602396Y-78379131D01*
X151602099Y-78379110D01*
X151602453Y-78374159D01*
X151603120Y-78371330D01*
X151602843Y-78369793D01*
X151604727Y-78362921D01*
X151605522Y-78357393D01*
X151606805Y-78353023D01*
X151607393Y-78353195D01*
X151607456Y-78352969D01*
X151611228Y-78336992D01*
X151611187Y-78336977D01*
X151611309Y-78336647D01*
X151611559Y-78335592D01*
X151612413Y-78333527D01*
X151612740Y-78332812D01*
X151612814Y-78332556D01*
X151613858Y-78330036D01*
X151614204Y-78329606D01*
X151614587Y-78328768D01*
X151614800Y-78328865D01*
X151634436Y-78304481D01*
X151650520Y-78282987D01*
X151649623Y-78281952D01*
X151650679Y-78281036D01*
X151652658Y-78280130D01*
X151654110Y-78278191D01*
X151654147Y-78278164D01*
X151656586Y-78276339D01*
X151656832Y-78276668D01*
X151657679Y-78275617D01*
X151675550Y-78269661D01*
X151714216Y-78251978D01*
X151715800Y-78251750D01*
X151733370Y-78250500D01*
X151773869Y-78250500D01*
X151808804Y-78255523D01*
X151823802Y-78259927D01*
X151882575Y-78297696D01*
X151885771Y-78301384D01*
X151911864Y-78350601D01*
X151918964Y-78377191D01*
X151920104Y-78378385D01*
X151920406Y-78379946D01*
X151921476Y-78381124D01*
X151926968Y-78394324D01*
X151957137Y-78480539D01*
X151959706Y-78487880D01*
X151959707Y-78487882D01*
X152040350Y-78597150D01*
X152141316Y-78671666D01*
X152149618Y-78677793D01*
X152277799Y-78722646D01*
X152277803Y-78722647D01*
X152296242Y-78724375D01*
X152308230Y-78725500D01*
X152308234Y-78725500D01*
X152308239Y-78725500D01*
X153041770Y-78725500D01*
X153041771Y-78725500D01*
X153043076Y-78725377D01*
X153072199Y-78722646D01*
X153072201Y-78722646D01*
X153136290Y-78700219D01*
X153200382Y-78677793D01*
X153309650Y-78597150D01*
X153390293Y-78487882D01*
X153417370Y-78410500D01*
X153435146Y-78359701D01*
X153435146Y-78359699D01*
X153438000Y-78329269D01*
X153438000Y-76970730D01*
X154837000Y-76970730D01*
X154837000Y-78329269D01*
X154838723Y-78347646D01*
X154839312Y-78353929D01*
X154839478Y-78357499D01*
X154839853Y-78359699D01*
X154839853Y-78359701D01*
X154884706Y-78487880D01*
X154884707Y-78487882D01*
X154965350Y-78597150D01*
X155066316Y-78671666D01*
X155074618Y-78677793D01*
X155202799Y-78722646D01*
X155202803Y-78722647D01*
X155221242Y-78724375D01*
X155233230Y-78725500D01*
X155233234Y-78725500D01*
X155233239Y-78725500D01*
X155966770Y-78725500D01*
X155966771Y-78725500D01*
X155968076Y-78725377D01*
X155997199Y-78722646D01*
X155997201Y-78722646D01*
X156061290Y-78700219D01*
X156125382Y-78677793D01*
X156234650Y-78597150D01*
X156315293Y-78487882D01*
X156342370Y-78410500D01*
X156360146Y-78359701D01*
X156360146Y-78359699D01*
X156363000Y-78329269D01*
X156363000Y-78242329D01*
X156364957Y-78228721D01*
X156368023Y-78207393D01*
X156372427Y-78192395D01*
X156410172Y-78133644D01*
X156410200Y-78133619D01*
X156410199Y-78133619D01*
X156411541Y-78132456D01*
X156466420Y-78104977D01*
X156473979Y-78103333D01*
X156500332Y-78100500D01*
X157307642Y-78100500D01*
X157342577Y-78105523D01*
X157364182Y-78111867D01*
X157414033Y-78140361D01*
X157416975Y-78143118D01*
X157422531Y-78149366D01*
X157422960Y-78149642D01*
X157423154Y-78150066D01*
X157431953Y-78159961D01*
X157471497Y-78213542D01*
X157473876Y-78217426D01*
X157475310Y-78219130D01*
X157479118Y-78223962D01*
X157486261Y-78228358D01*
X157529036Y-78259927D01*
X157587118Y-78302793D01*
X157629845Y-78317744D01*
X157715299Y-78347646D01*
X157715303Y-78347647D01*
X157733297Y-78349334D01*
X157745730Y-78350500D01*
X157745734Y-78350500D01*
X157745739Y-78350500D01*
X159154270Y-78350500D01*
X159154271Y-78350500D01*
X159157585Y-78350189D01*
X159184699Y-78347646D01*
X159184701Y-78347646D01*
X159255165Y-78322989D01*
X159257853Y-78322048D01*
X159257861Y-78322046D01*
X159270154Y-78317744D01*
X159312882Y-78302793D01*
X159422150Y-78222150D01*
X159502793Y-78112882D01*
X159531915Y-78029655D01*
X159547646Y-77984701D01*
X159547646Y-77984699D01*
X159550500Y-77954269D01*
X159550500Y-77020730D01*
X159547646Y-76990300D01*
X159547646Y-76990298D01*
X159511837Y-76887965D01*
X159502793Y-76862119D01*
X159502793Y-76862118D01*
X159465892Y-76812119D01*
X159422150Y-76752850D01*
X159312882Y-76672207D01*
X159312880Y-76672206D01*
X159184704Y-76627354D01*
X159184702Y-76627353D01*
X159184700Y-76627353D01*
X159154270Y-76624500D01*
X159154266Y-76624500D01*
X159154264Y-76624500D01*
X157745734Y-76624500D01*
X157745730Y-76624500D01*
X157727074Y-76626249D01*
X157721069Y-76626812D01*
X157717499Y-76626978D01*
X157715297Y-76627353D01*
X157587118Y-76672206D01*
X157477849Y-76752849D01*
X157397206Y-76862118D01*
X157352353Y-76990297D01*
X157352181Y-76991304D01*
X157352125Y-76992725D01*
X157349500Y-77020730D01*
X157349500Y-77060089D01*
X157349406Y-77062501D01*
X157348356Y-77065618D01*
X157344475Y-77092614D01*
X157340070Y-77107612D01*
X157327803Y-77126703D01*
X157327124Y-77128723D01*
X157325851Y-77129741D01*
X157302327Y-77166355D01*
X157300958Y-77167542D01*
X157246097Y-77195018D01*
X157238539Y-77196663D01*
X157212168Y-77199500D01*
X156504830Y-77199500D01*
X156504825Y-77199499D01*
X156504823Y-77199500D01*
X156469889Y-77194475D01*
X156454890Y-77190070D01*
X156396144Y-77152327D01*
X156396115Y-77152293D01*
X156396114Y-77152293D01*
X156396113Y-77152291D01*
X156394957Y-77150958D01*
X156367477Y-77096083D01*
X156365832Y-77088521D01*
X156363000Y-77062168D01*
X156363000Y-76970728D01*
X156360688Y-76946079D01*
X156360520Y-76942502D01*
X156360146Y-76940300D01*
X156360146Y-76940298D01*
X156315293Y-76812119D01*
X156315292Y-76812117D01*
X156315292Y-76812116D01*
X156271551Y-76752849D01*
X156271550Y-76752848D01*
X156234654Y-76702855D01*
X156234652Y-76702853D01*
X156234650Y-76702850D01*
X156125382Y-76622207D01*
X156125380Y-76622206D01*
X156068882Y-76602436D01*
X155997204Y-76577354D01*
X155997202Y-76577353D01*
X155997200Y-76577353D01*
X155966770Y-76574500D01*
X155966766Y-76574500D01*
X155966764Y-76574500D01*
X155233234Y-76574500D01*
X155233230Y-76574500D01*
X155214574Y-76576249D01*
X155208569Y-76576812D01*
X155204999Y-76576978D01*
X155202797Y-76577353D01*
X155074618Y-76622206D01*
X154965349Y-76702849D01*
X154884706Y-76812118D01*
X154839853Y-76940297D01*
X154839478Y-76942499D01*
X154839312Y-76946069D01*
X154839162Y-76947670D01*
X154837000Y-76970730D01*
X153438000Y-76970730D01*
X153435639Y-76945563D01*
X153435598Y-76945077D01*
X153435633Y-76944904D01*
X153435520Y-76942502D01*
X153435146Y-76940300D01*
X153435146Y-76940298D01*
X153390293Y-76812119D01*
X153390292Y-76812117D01*
X153390292Y-76812116D01*
X153346551Y-76752849D01*
X153346550Y-76752848D01*
X153309654Y-76702855D01*
X153309652Y-76702853D01*
X153309650Y-76702850D01*
X153200382Y-76622207D01*
X153200380Y-76622206D01*
X153143882Y-76602436D01*
X153072204Y-76577354D01*
X153072202Y-76577353D01*
X153072200Y-76577353D01*
X153041770Y-76574500D01*
X153041766Y-76574500D01*
X153041764Y-76574500D01*
X152308234Y-76574500D01*
X152308230Y-76574500D01*
X152289574Y-76576249D01*
X152283569Y-76576812D01*
X152279999Y-76576978D01*
X152277797Y-76577353D01*
X152149618Y-76622206D01*
X152040349Y-76702849D01*
X151959706Y-76812118D01*
X151922818Y-76917534D01*
X151920975Y-76922463D01*
X151902775Y-76968156D01*
X151859684Y-77023150D01*
X151855715Y-77025987D01*
X151804294Y-77047370D01*
X151801969Y-77047763D01*
X151781291Y-77049500D01*
X150920943Y-77049500D01*
X150768218Y-77090422D01*
X150768211Y-77090424D01*
X150768210Y-77090425D01*
X150768200Y-77090430D01*
X150631298Y-77169470D01*
X150631294Y-77169472D01*
X150631290Y-77169475D01*
X150631282Y-77169481D01*
X150631278Y-77169484D01*
X150631276Y-77169485D01*
X150519485Y-77281276D01*
X150519484Y-77281278D01*
X150519481Y-77281281D01*
X150519481Y-77281282D01*
X150519475Y-77281290D01*
X150519472Y-77281294D01*
X150519470Y-77281298D01*
X150440430Y-77418200D01*
X150440425Y-77418210D01*
X150440424Y-77418211D01*
X150440422Y-77418218D01*
X150399500Y-77570943D01*
X150399500Y-78419574D01*
X150395234Y-78451820D01*
X150394874Y-78453154D01*
X150390855Y-78466843D01*
X150389455Y-78473274D01*
X150388663Y-78476219D01*
X150371975Y-78503517D01*
X150356610Y-78531654D01*
X150262691Y-78625573D01*
X150234440Y-78646722D01*
X150211352Y-78659330D01*
X150151922Y-78674500D01*
X149495730Y-78674500D01*
X149477074Y-78676249D01*
X149471069Y-78676812D01*
X149467499Y-78676978D01*
X149465297Y-78677353D01*
X149337118Y-78722206D01*
X149227849Y-78802849D01*
X149147206Y-78912118D01*
X149102353Y-79040297D01*
X149101978Y-79042499D01*
X149101812Y-79046069D01*
X149099500Y-79070730D01*
X146700500Y-79070730D01*
X146698139Y-79045563D01*
X146698098Y-79045077D01*
X146698133Y-79044904D01*
X146698020Y-79042502D01*
X146697646Y-79040300D01*
X146697646Y-79040298D01*
X146652793Y-78912119D01*
X146652792Y-78912117D01*
X146651822Y-78910803D01*
X146572150Y-78802850D01*
X146462882Y-78722207D01*
X146462880Y-78722206D01*
X146462877Y-78722205D01*
X146334704Y-78677354D01*
X146334702Y-78677353D01*
X146334700Y-78677353D01*
X146304270Y-78674500D01*
X146304266Y-78674500D01*
X146304264Y-78674500D01*
X144895734Y-78674500D01*
X144895730Y-78674500D01*
X144877074Y-78676249D01*
X144871069Y-78676812D01*
X144867499Y-78676978D01*
X144865297Y-78677353D01*
X144737119Y-78722205D01*
X144646433Y-78789133D01*
X144646427Y-78789139D01*
X144627850Y-78802850D01*
X144627848Y-78802851D01*
X144600605Y-78839764D01*
X144596442Y-78844365D01*
X144592369Y-78846859D01*
X144579493Y-78859913D01*
X144561557Y-78873531D01*
X144509017Y-78896723D01*
X144505053Y-78897452D01*
X144482612Y-78899500D01*
X143501208Y-78899500D01*
X143473259Y-78896309D01*
X143462353Y-78893786D01*
X143446382Y-78890091D01*
X143419871Y-78880682D01*
X143376393Y-78859426D01*
X143359358Y-78856944D01*
X143308261Y-78849500D01*
X143308260Y-78849500D01*
X143308255Y-78849500D01*
X141591745Y-78849500D01*
X141591740Y-78849500D01*
X141591739Y-78849500D01*
X141533341Y-78858008D01*
X141523607Y-78859426D01*
X141418511Y-78910804D01*
X141335804Y-78993511D01*
X141291554Y-79084028D01*
X141284426Y-79098608D01*
X141274500Y-79166739D01*
X141274500Y-79533260D01*
X141284426Y-79601391D01*
X141335803Y-79706485D01*
X141418514Y-79789196D01*
X141418515Y-79789196D01*
X141418517Y-79789198D01*
X141523607Y-79840573D01*
X141557673Y-79845536D01*
X141591739Y-79850500D01*
X141591740Y-79850500D01*
X141591741Y-79850500D01*
X143308261Y-79850500D01*
X143308262Y-79850500D01*
X143318274Y-79849041D01*
X143330971Y-79847191D01*
X143376393Y-79840573D01*
X143428362Y-79815165D01*
X143437378Y-79812351D01*
X143439605Y-79812313D01*
X143446380Y-79809908D01*
X143473267Y-79803688D01*
X143501208Y-79800500D01*
X144357670Y-79800500D01*
X144392606Y-79805523D01*
X144407604Y-79809927D01*
X144422594Y-79819557D01*
X144439675Y-79824567D01*
X144466355Y-79847672D01*
X144467542Y-79849041D01*
X144495018Y-79903902D01*
X144496663Y-79911460D01*
X144499500Y-79937831D01*
X144499500Y-80004265D01*
X144501812Y-80028929D01*
X144501978Y-80032499D01*
X144502352Y-80034701D01*
X144538433Y-80137808D01*
X144547206Y-80162881D01*
X144549154Y-80165520D01*
X144627850Y-80272150D01*
X144737118Y-80352793D01*
X144865299Y-80397646D01*
X144865303Y-80397647D01*
X144883607Y-80399363D01*
X144895730Y-80400500D01*
X144895734Y-80400500D01*
X145403151Y-80400500D01*
X145438083Y-80405521D01*
X145463327Y-80412934D01*
X145516073Y-80444230D01*
X146850573Y-81778730D01*
X146871723Y-81806982D01*
X146884331Y-81830071D01*
X146899500Y-81889500D01*
X146899500Y-93454865D01*
X146899499Y-93454867D01*
X146899500Y-93454868D01*
X146894476Y-93489802D01*
X146887064Y-93515043D01*
X146855769Y-93567787D01*
X138500888Y-101922667D01*
X138500885Y-101922670D01*
X138477963Y-101956975D01*
X138477913Y-101957053D01*
X138424229Y-102037393D01*
X138424229Y-102037394D01*
X138424224Y-102037402D01*
X138424215Y-102037420D01*
X138371429Y-102164858D01*
X138371416Y-102164897D01*
X138344500Y-102300214D01*
X138344500Y-107125676D01*
X138342174Y-107149579D01*
X138339949Y-107160905D01*
X138338666Y-107163371D01*
X138337781Y-107166386D01*
X138337467Y-107166293D01*
X138333393Y-107183087D01*
X138330674Y-107189879D01*
X138313567Y-107211631D01*
X138307711Y-107222893D01*
X138302254Y-107226017D01*
X138287484Y-107244800D01*
X138247659Y-107263566D01*
X138225490Y-107269508D01*
X138193387Y-107273736D01*
X137940730Y-107273736D01*
X137922074Y-107275485D01*
X137916069Y-107276048D01*
X137912499Y-107276214D01*
X137910297Y-107276589D01*
X137782118Y-107321442D01*
X137672849Y-107402085D01*
X137592206Y-107511354D01*
X137547353Y-107639533D01*
X137547263Y-107640063D01*
X137547253Y-107640592D01*
X137544500Y-107669966D01*
X137544500Y-107801739D01*
X137544482Y-107802793D01*
X137543950Y-107804494D01*
X137539476Y-107835611D01*
X137532064Y-107860852D01*
X137500769Y-107913596D01*
X136013792Y-109400573D01*
X135985541Y-109421722D01*
X135962453Y-109434330D01*
X135903023Y-109449500D01*
X124373562Y-109449500D01*
X124373561Y-109449499D01*
X124373561Y-109449500D01*
X124338626Y-109444477D01*
X124313384Y-109437065D01*
X124260639Y-109405769D01*
X124049426Y-109194556D01*
X124028274Y-109166300D01*
X124015667Y-109143211D01*
X124000500Y-109083786D01*
X124000500Y-107923724D01*
X124899999Y-107923724D01*
X124932659Y-108087910D01*
X124932665Y-108087937D01*
X124994408Y-108236998D01*
X124996056Y-108241604D01*
X125089764Y-108381848D01*
X125208150Y-108500234D01*
X125208156Y-108500238D01*
X125208160Y-108500241D01*
X125347371Y-108593259D01*
X125347373Y-108593260D01*
X125347377Y-108593262D01*
X125463390Y-108641315D01*
X125502063Y-108657334D01*
X125502071Y-108657336D01*
X125666277Y-108689999D01*
X125666280Y-108690000D01*
X125833720Y-108690000D01*
X125833722Y-108689999D01*
X125997928Y-108657336D01*
X125997936Y-108657334D01*
X126147015Y-108595583D01*
X126151607Y-108593940D01*
X126152624Y-108593259D01*
X126152627Y-108593259D01*
X126152628Y-108593259D01*
X126291839Y-108500241D01*
X126291847Y-108500235D01*
X126410235Y-108381847D01*
X126410241Y-108381839D01*
X126503259Y-108242628D01*
X126503259Y-108242627D01*
X126503259Y-108242624D01*
X126503940Y-108241607D01*
X126505583Y-108237015D01*
X126567334Y-108087936D01*
X126567336Y-108087928D01*
X126599999Y-107923722D01*
X126600000Y-107923720D01*
X126600000Y-107756279D01*
X126599999Y-107756277D01*
X126582830Y-107669966D01*
X126567341Y-107592096D01*
X126567339Y-107592088D01*
X126567336Y-107592071D01*
X126567334Y-107592063D01*
X126505586Y-107442990D01*
X126503941Y-107438392D01*
X126479682Y-107402086D01*
X126410241Y-107298160D01*
X126410235Y-107298152D01*
X126410234Y-107298150D01*
X126291848Y-107179764D01*
X126152633Y-107086743D01*
X126152621Y-107086736D01*
X125997937Y-107022665D01*
X125997910Y-107022659D01*
X125833723Y-106990000D01*
X125833721Y-106990000D01*
X125666279Y-106990000D01*
X125666277Y-106990000D01*
X125502088Y-107022659D01*
X125502061Y-107022665D01*
X125353000Y-107084408D01*
X125348395Y-107086055D01*
X125208150Y-107179764D01*
X125089764Y-107298150D01*
X124996055Y-107438395D01*
X124994408Y-107443000D01*
X124932665Y-107592061D01*
X124932659Y-107592088D01*
X124900000Y-107756274D01*
X124900000Y-107756277D01*
X124900000Y-107923722D01*
X124900000Y-107923724D01*
X124899999Y-107923724D01*
X124000500Y-107923724D01*
X124000500Y-105403471D01*
X124699499Y-105403471D01*
X124739864Y-105606394D01*
X124739868Y-105606412D01*
X124739870Y-105606420D01*
X124819058Y-105797596D01*
X124934023Y-105969655D01*
X124934027Y-105969661D01*
X125080336Y-106115970D01*
X125080340Y-106115973D01*
X125080342Y-106115975D01*
X125080345Y-106115977D01*
X125080349Y-106115980D01*
X125080348Y-106115980D01*
X125080411Y-106116032D01*
X125080448Y-106116046D01*
X125252402Y-106230941D01*
X125443580Y-106310130D01*
X125634540Y-106348114D01*
X125643559Y-106349908D01*
X125645794Y-106350409D01*
X125646532Y-106350500D01*
X125853466Y-106350500D01*
X125857586Y-106350500D01*
X125865435Y-106348118D01*
X126056420Y-106310130D01*
X126247598Y-106230941D01*
X126419655Y-106115977D01*
X126565977Y-105969655D01*
X126680941Y-105797598D01*
X126760130Y-105606420D01*
X126800500Y-105403465D01*
X126800500Y-105196535D01*
X126760130Y-104993580D01*
X126680941Y-104802402D01*
X126566046Y-104630449D01*
X126566036Y-104630417D01*
X126565980Y-104630348D01*
X126565980Y-104630349D01*
X126565977Y-104630345D01*
X126565975Y-104630342D01*
X126565973Y-104630340D01*
X126565970Y-104630336D01*
X126419662Y-104484028D01*
X126419655Y-104484022D01*
X126333626Y-104426540D01*
X126333625Y-104426540D01*
X126247604Y-104369062D01*
X126247595Y-104369057D01*
X126124010Y-104317867D01*
X126056420Y-104289870D01*
X126056412Y-104289868D01*
X126056404Y-104289866D01*
X126056394Y-104289864D01*
X125853471Y-104249500D01*
X125853469Y-104249500D01*
X125853465Y-104249500D01*
X125646535Y-104249500D01*
X125646530Y-104249500D01*
X125646528Y-104249500D01*
X125443604Y-104289864D01*
X125443579Y-104289870D01*
X125252404Y-104369057D01*
X125080337Y-104484027D01*
X124934027Y-104630337D01*
X124819057Y-104802404D01*
X124739870Y-104993579D01*
X124739864Y-104993604D01*
X124699500Y-105196527D01*
X124699500Y-105196530D01*
X124699500Y-105403469D01*
X124699500Y-105403471D01*
X124699499Y-105403471D01*
X124000500Y-105403471D01*
X124000500Y-102863471D01*
X124699499Y-102863471D01*
X124739864Y-103066394D01*
X124739870Y-103066419D01*
X124819057Y-103257594D01*
X124934027Y-103429661D01*
X125080336Y-103575970D01*
X125080342Y-103575975D01*
X125080349Y-103575980D01*
X125080348Y-103575980D01*
X125080411Y-103576032D01*
X125080448Y-103576046D01*
X125252402Y-103690941D01*
X125443580Y-103770130D01*
X125634540Y-103808114D01*
X125643559Y-103809908D01*
X125645794Y-103810409D01*
X125646532Y-103810500D01*
X125853466Y-103810500D01*
X125857586Y-103810500D01*
X125865435Y-103808118D01*
X126056420Y-103770130D01*
X126247598Y-103690941D01*
X126419655Y-103575977D01*
X126486213Y-103509417D01*
X126514460Y-103488273D01*
X126537550Y-103475665D01*
X126596974Y-103460500D01*
X128584326Y-103460500D01*
X128619262Y-103465523D01*
X128634260Y-103469927D01*
X128693033Y-103507697D01*
X128700366Y-103516159D01*
X128723699Y-103556412D01*
X128730544Y-103575975D01*
X128752206Y-103637881D01*
X128752207Y-103637882D01*
X128832850Y-103747150D01*
X128918687Y-103810500D01*
X128942118Y-103827793D01*
X129070299Y-103872646D01*
X129070303Y-103872647D01*
X129088742Y-103874375D01*
X129100730Y-103875500D01*
X129100734Y-103875500D01*
X129100739Y-103875500D01*
X129834270Y-103875500D01*
X129834271Y-103875500D01*
X129835576Y-103875377D01*
X129864699Y-103872646D01*
X129864701Y-103872646D01*
X129928790Y-103850219D01*
X129992882Y-103827793D01*
X130102150Y-103747150D01*
X130182793Y-103637882D01*
X130219497Y-103532989D01*
X130227646Y-103509701D01*
X130227646Y-103509699D01*
X130230500Y-103479269D01*
X130230500Y-102120730D01*
X130227646Y-102090300D01*
X130227646Y-102090298D01*
X130199946Y-102011138D01*
X130199080Y-102008664D01*
X130199077Y-102008653D01*
X130182793Y-101962119D01*
X130182793Y-101962118D01*
X130102150Y-101852850D01*
X129992882Y-101772207D01*
X129992880Y-101772206D01*
X129929043Y-101749868D01*
X129864704Y-101727354D01*
X129864702Y-101727353D01*
X129864700Y-101727353D01*
X129834270Y-101724500D01*
X129834266Y-101724500D01*
X129834264Y-101724500D01*
X129100734Y-101724500D01*
X129100730Y-101724500D01*
X129082074Y-101726249D01*
X129076069Y-101726812D01*
X129074862Y-101726577D01*
X129070297Y-101727353D01*
X128942118Y-101772206D01*
X128832852Y-101852847D01*
X128832850Y-101852850D01*
X128761732Y-101949211D01*
X128761728Y-101949217D01*
X128752208Y-101962117D01*
X128752204Y-101962121D01*
X128749167Y-101970801D01*
X128743204Y-101981049D01*
X128740714Y-101983406D01*
X128736794Y-101990947D01*
X128735337Y-101992981D01*
X128727686Y-102003648D01*
X128672634Y-102046642D01*
X128662229Y-102050768D01*
X128616521Y-102059500D01*
X126604324Y-102059500D01*
X126604323Y-102059499D01*
X126604323Y-102059500D01*
X126569388Y-102054477D01*
X126544146Y-102047065D01*
X126491402Y-102015770D01*
X126419655Y-101944023D01*
X126247598Y-101829059D01*
X126247593Y-101829057D01*
X126191602Y-101805864D01*
X126056420Y-101749870D01*
X126056412Y-101749868D01*
X126056404Y-101749866D01*
X126056394Y-101749864D01*
X125853471Y-101709500D01*
X125853469Y-101709500D01*
X125853465Y-101709500D01*
X125646535Y-101709500D01*
X125646530Y-101709500D01*
X125646528Y-101709500D01*
X125443604Y-101749864D01*
X125443579Y-101749870D01*
X125252404Y-101829057D01*
X125080337Y-101944027D01*
X124934027Y-102090337D01*
X124819057Y-102262404D01*
X124739870Y-102453579D01*
X124739864Y-102453604D01*
X124699500Y-102656527D01*
X124699500Y-102656530D01*
X124699500Y-102863469D01*
X124699500Y-102863471D01*
X124699499Y-102863471D01*
X124000500Y-102863471D01*
X124000500Y-101062329D01*
X124001496Y-101055405D01*
X124005523Y-101027393D01*
X124008748Y-101016412D01*
X124009927Y-101012394D01*
X124047672Y-100953644D01*
X124047700Y-100953619D01*
X124047699Y-100953619D01*
X124049041Y-100952456D01*
X124103920Y-100924977D01*
X124111479Y-100923333D01*
X124137832Y-100920500D01*
X124557671Y-100920500D01*
X124592606Y-100925523D01*
X124607604Y-100929927D01*
X124666355Y-100967672D01*
X124666379Y-100967700D01*
X124666382Y-100967702D01*
X124666383Y-100967704D01*
X124667542Y-100969041D01*
X124695018Y-101023902D01*
X124696663Y-101031460D01*
X124699500Y-101057831D01*
X124699500Y-101089752D01*
X124711131Y-101148229D01*
X124711132Y-101148230D01*
X124714024Y-101153641D01*
X124717917Y-101158385D01*
X124755447Y-101214552D01*
X124821769Y-101258867D01*
X124821770Y-101258868D01*
X124880247Y-101270499D01*
X124880250Y-101270500D01*
X124880252Y-101270500D01*
X124880288Y-101270500D01*
X126619750Y-101270500D01*
X126623873Y-101270500D01*
X126631732Y-101268116D01*
X126633603Y-101267744D01*
X126634568Y-101267552D01*
X126666258Y-101261249D01*
X126672354Y-101260648D01*
X126672386Y-101260639D01*
X126683311Y-101257902D01*
X126693515Y-101248654D01*
X126744552Y-101214552D01*
X126788867Y-101148231D01*
X126788867Y-101148229D01*
X126788868Y-101148229D01*
X126791030Y-101137355D01*
X126791166Y-101137090D01*
X126791249Y-101136256D01*
X126798461Y-101100000D01*
X126800072Y-101091896D01*
X126800500Y-101089931D01*
X126800500Y-101062329D01*
X126801496Y-101055405D01*
X126805523Y-101027393D01*
X126808748Y-101016412D01*
X126809927Y-101012394D01*
X126847672Y-100953644D01*
X126847700Y-100953619D01*
X126847699Y-100953619D01*
X126849041Y-100952456D01*
X126903920Y-100924977D01*
X126911479Y-100923333D01*
X126937832Y-100920500D01*
X128646574Y-100920500D01*
X128681509Y-100925523D01*
X128696507Y-100929927D01*
X128755280Y-100967696D01*
X128762614Y-100976159D01*
X128785946Y-101016412D01*
X128802013Y-101062329D01*
X128802207Y-101062882D01*
X128882850Y-101172150D01*
X128986503Y-101248649D01*
X128992118Y-101252793D01*
X129120299Y-101297646D01*
X129120303Y-101297647D01*
X129138479Y-101299351D01*
X129150730Y-101300500D01*
X129150734Y-101300500D01*
X129150739Y-101300500D01*
X130084270Y-101300500D01*
X130084271Y-101300500D01*
X130086993Y-101300244D01*
X130114699Y-101297646D01*
X130114701Y-101297646D01*
X130192281Y-101270499D01*
X130242882Y-101252793D01*
X130352150Y-101172150D01*
X130432793Y-101062882D01*
X130466268Y-100967216D01*
X130477646Y-100934701D01*
X130477646Y-100934699D01*
X130480500Y-100904269D01*
X130480500Y-99495730D01*
X130478187Y-99471078D01*
X130478020Y-99467502D01*
X130477646Y-99465300D01*
X130477646Y-99465298D01*
X130432793Y-99337119D01*
X130432792Y-99337117D01*
X130416102Y-99314503D01*
X130405398Y-99300000D01*
X130352151Y-99227851D01*
X130352150Y-99227850D01*
X130242882Y-99147207D01*
X130242880Y-99147206D01*
X130114704Y-99102354D01*
X130114702Y-99102353D01*
X130114700Y-99102353D01*
X130084270Y-99099500D01*
X130084266Y-99099500D01*
X130084264Y-99099500D01*
X129150734Y-99099500D01*
X129150730Y-99099500D01*
X129132074Y-99101249D01*
X129126069Y-99101812D01*
X129122499Y-99101978D01*
X129120297Y-99102353D01*
X128992118Y-99147206D01*
X128882849Y-99227849D01*
X128802206Y-99337117D01*
X128773334Y-99419629D01*
X128761408Y-99442571D01*
X128757055Y-99450944D01*
X128747946Y-99463644D01*
X128692887Y-99506643D01*
X128692879Y-99506646D01*
X128692878Y-99506647D01*
X128692876Y-99506647D01*
X128682478Y-99510770D01*
X128636775Y-99519500D01*
X126942330Y-99519500D01*
X126907389Y-99514475D01*
X126892390Y-99510070D01*
X126877402Y-99500440D01*
X126860324Y-99495432D01*
X126833644Y-99472327D01*
X126832457Y-99470958D01*
X126804977Y-99416083D01*
X126803332Y-99408521D01*
X126800500Y-99382168D01*
X126800500Y-99350063D01*
X126800069Y-99348081D01*
X126788868Y-99291770D01*
X126785975Y-99286358D01*
X126782081Y-99281613D01*
X126780956Y-99279930D01*
X126744552Y-99225447D01*
X126708146Y-99201121D01*
X126688385Y-99187917D01*
X126683641Y-99184024D01*
X126678230Y-99181132D01*
X126678229Y-99181131D01*
X126619752Y-99169500D01*
X126619750Y-99169500D01*
X124880249Y-99169500D01*
X124880247Y-99169500D01*
X124821770Y-99181131D01*
X124821769Y-99181131D01*
X124821768Y-99181132D01*
X124821765Y-99181133D01*
X124821759Y-99181138D01*
X124755447Y-99225447D01*
X124711138Y-99291759D01*
X124711133Y-99291765D01*
X124711132Y-99291768D01*
X124711132Y-99291769D01*
X124711131Y-99291770D01*
X124699931Y-99348081D01*
X124699500Y-99350249D01*
X124699500Y-99377670D01*
X124699499Y-99377676D01*
X124699500Y-99377679D01*
X124694475Y-99412614D01*
X124690070Y-99427612D01*
X124652327Y-99486355D01*
X124652292Y-99486385D01*
X124652291Y-99486387D01*
X124652289Y-99486387D01*
X124650958Y-99487542D01*
X124596097Y-99515018D01*
X124588539Y-99516663D01*
X124562168Y-99519500D01*
X124142330Y-99519500D01*
X124142325Y-99519499D01*
X124142323Y-99519500D01*
X124107389Y-99514475D01*
X124092390Y-99510070D01*
X124033644Y-99472327D01*
X124033615Y-99472293D01*
X124033614Y-99472293D01*
X124033613Y-99472291D01*
X124032457Y-99470958D01*
X124004977Y-99416083D01*
X124003332Y-99408521D01*
X124000500Y-99382168D01*
X124000500Y-95223725D01*
X124899999Y-95223725D01*
X124932659Y-95387911D01*
X124932665Y-95387938D01*
X124994408Y-95536999D01*
X124996056Y-95541605D01*
X125089764Y-95681849D01*
X125208150Y-95800235D01*
X125208156Y-95800239D01*
X125208160Y-95800242D01*
X125347371Y-95893260D01*
X125347373Y-95893261D01*
X125347377Y-95893263D01*
X125463390Y-95941316D01*
X125502063Y-95957335D01*
X125502071Y-95957337D01*
X125666277Y-95990000D01*
X125666280Y-95990001D01*
X125833720Y-95990001D01*
X125833722Y-95990000D01*
X125997928Y-95957337D01*
X125997936Y-95957335D01*
X126147015Y-95895584D01*
X126151607Y-95893941D01*
X126152624Y-95893260D01*
X126152627Y-95893260D01*
X126152628Y-95893260D01*
X126291839Y-95800242D01*
X126291847Y-95800236D01*
X126410235Y-95681848D01*
X126410241Y-95681840D01*
X126503259Y-95542629D01*
X126503259Y-95542628D01*
X126503259Y-95542625D01*
X126503940Y-95541608D01*
X126505583Y-95537016D01*
X126567334Y-95387937D01*
X126567336Y-95387929D01*
X126599999Y-95223723D01*
X126600000Y-95223721D01*
X126600000Y-95056280D01*
X126599999Y-95056278D01*
X126567336Y-94892072D01*
X126567334Y-94892064D01*
X126505586Y-94742991D01*
X126503941Y-94738393D01*
X126410234Y-94598151D01*
X126291848Y-94479765D01*
X126152633Y-94386744D01*
X126152621Y-94386737D01*
X125997937Y-94322666D01*
X125997910Y-94322660D01*
X125833723Y-94290001D01*
X125833721Y-94290001D01*
X125666279Y-94290001D01*
X125666277Y-94290001D01*
X125502088Y-94322660D01*
X125502061Y-94322666D01*
X125353000Y-94384409D01*
X125348395Y-94386056D01*
X125208150Y-94479765D01*
X125089764Y-94598151D01*
X124996055Y-94738396D01*
X124994408Y-94743001D01*
X124932665Y-94892062D01*
X124932659Y-94892089D01*
X124900000Y-95056275D01*
X124900000Y-95056278D01*
X124900000Y-95223723D01*
X124900000Y-95223725D01*
X124899999Y-95223725D01*
X124000500Y-95223725D01*
X124000500Y-92703472D01*
X124699499Y-92703472D01*
X124728784Y-92850690D01*
X124728784Y-92850691D01*
X124739867Y-92906414D01*
X124739869Y-92906419D01*
X124819057Y-93097596D01*
X124819062Y-93097604D01*
X124876540Y-93183625D01*
X124876541Y-93183628D01*
X124934022Y-93269656D01*
X124934028Y-93269663D01*
X125080336Y-93415971D01*
X125080340Y-93415974D01*
X125080342Y-93415976D01*
X125080345Y-93415978D01*
X125080349Y-93415981D01*
X125080348Y-93415981D01*
X125080411Y-93416033D01*
X125080448Y-93416047D01*
X125252402Y-93530942D01*
X125443580Y-93610131D01*
X125634540Y-93648115D01*
X125643559Y-93649909D01*
X125645794Y-93650410D01*
X125646532Y-93650501D01*
X125853466Y-93650501D01*
X125857586Y-93650501D01*
X125865435Y-93648119D01*
X126056420Y-93610131D01*
X126247598Y-93530942D01*
X126419655Y-93415978D01*
X126565977Y-93269656D01*
X126680941Y-93097599D01*
X126760130Y-92906421D01*
X126800500Y-92703466D01*
X126800500Y-92496536D01*
X126760130Y-92293581D01*
X126680941Y-92102403D01*
X126566046Y-91930450D01*
X126566036Y-91930418D01*
X126565980Y-91930349D01*
X126565980Y-91930350D01*
X126565976Y-91930344D01*
X126565970Y-91930337D01*
X126419662Y-91784029D01*
X126419655Y-91784023D01*
X126336762Y-91728636D01*
X126336745Y-91728626D01*
X126333626Y-91726542D01*
X126247598Y-91669060D01*
X126210955Y-91653882D01*
X126203176Y-91650659D01*
X126203173Y-91650658D01*
X126118527Y-91615597D01*
X126056420Y-91589871D01*
X126056412Y-91589869D01*
X126056404Y-91589867D01*
X126056394Y-91589865D01*
X125853471Y-91549501D01*
X125853469Y-91549501D01*
X125853465Y-91549501D01*
X125646535Y-91549501D01*
X125646530Y-91549501D01*
X125646528Y-91549501D01*
X125443604Y-91589865D01*
X125443579Y-91589871D01*
X125252404Y-91669058D01*
X125080337Y-91784028D01*
X124934027Y-91930338D01*
X124819057Y-92102405D01*
X124739870Y-92293580D01*
X124739864Y-92293605D01*
X124699500Y-92496528D01*
X124699500Y-92496531D01*
X124699500Y-92703470D01*
X124699500Y-92703472D01*
X124699499Y-92703472D01*
X124000500Y-92703472D01*
X124000500Y-90163472D01*
X124699499Y-90163472D01*
X124739864Y-90366395D01*
X124739868Y-90366413D01*
X124739870Y-90366421D01*
X124758124Y-90410489D01*
X124819001Y-90557461D01*
X124819058Y-90557597D01*
X124933764Y-90729269D01*
X124934027Y-90729662D01*
X125080336Y-90875971D01*
X125080340Y-90875974D01*
X125080342Y-90875976D01*
X125080345Y-90875978D01*
X125080346Y-90875979D01*
X125080349Y-90875981D01*
X125080348Y-90875981D01*
X125080411Y-90876033D01*
X125080448Y-90876047D01*
X125252402Y-90990942D01*
X125443580Y-91070131D01*
X125594844Y-91100219D01*
X125643559Y-91109909D01*
X125645794Y-91110410D01*
X125646532Y-91110501D01*
X125853466Y-91110501D01*
X125857586Y-91110501D01*
X125865435Y-91108119D01*
X126056420Y-91070131D01*
X126247598Y-90990942D01*
X126419655Y-90875978D01*
X126492881Y-90802750D01*
X126521128Y-90781606D01*
X126544218Y-90768998D01*
X126603642Y-90753833D01*
X128599489Y-90753833D01*
X128634425Y-90758856D01*
X128649423Y-90763260D01*
X128708196Y-90801030D01*
X128715529Y-90809492D01*
X128738861Y-90849743D01*
X128748041Y-90875978D01*
X128748041Y-90875979D01*
X128752207Y-90887882D01*
X128832848Y-90997148D01*
X128832849Y-90997148D01*
X128832850Y-90997150D01*
X128886600Y-91036819D01*
X128942116Y-91077792D01*
X128942117Y-91077792D01*
X128942118Y-91077793D01*
X128942121Y-91077794D01*
X128947090Y-91079533D01*
X128947094Y-91079534D01*
X129035591Y-91110501D01*
X129070299Y-91122646D01*
X129070303Y-91122647D01*
X129088742Y-91124375D01*
X129100730Y-91125500D01*
X129100734Y-91125500D01*
X129100739Y-91125500D01*
X129834270Y-91125500D01*
X129834271Y-91125500D01*
X129835576Y-91125377D01*
X129864699Y-91122646D01*
X129864701Y-91122646D01*
X129928790Y-91100219D01*
X129992882Y-91077793D01*
X130102150Y-90997150D01*
X130182793Y-90887882D01*
X130216990Y-90790152D01*
X130227646Y-90759701D01*
X130227646Y-90759699D01*
X130230500Y-90729269D01*
X130230500Y-89370730D01*
X130230092Y-89366385D01*
X130228188Y-89346079D01*
X130228020Y-89342502D01*
X130227646Y-89340300D01*
X130227646Y-89340298D01*
X130182793Y-89212119D01*
X130182792Y-89212117D01*
X130182792Y-89212116D01*
X130102151Y-89102851D01*
X130102150Y-89102850D01*
X129992882Y-89022207D01*
X129992880Y-89022206D01*
X129956572Y-89009501D01*
X129864704Y-88977354D01*
X129864702Y-88977353D01*
X129864700Y-88977353D01*
X129834270Y-88974500D01*
X129834266Y-88974500D01*
X129834264Y-88974500D01*
X129100734Y-88974500D01*
X129100730Y-88974500D01*
X129082074Y-88976249D01*
X129076069Y-88976812D01*
X129074862Y-88976577D01*
X129070297Y-88977353D01*
X128942118Y-89022206D01*
X128832849Y-89102849D01*
X128752206Y-89212117D01*
X128752205Y-89212120D01*
X128737913Y-89252964D01*
X128726198Y-89275500D01*
X128721635Y-89284276D01*
X128712527Y-89296974D01*
X128657464Y-89339978D01*
X128657462Y-89339978D01*
X128657462Y-89339979D01*
X128657461Y-89339979D01*
X128647054Y-89344105D01*
X128601355Y-89352833D01*
X126597656Y-89352833D01*
X126562720Y-89347810D01*
X126537478Y-89340398D01*
X126484734Y-89309103D01*
X126419655Y-89244024D01*
X126371905Y-89212119D01*
X126334207Y-89186930D01*
X126247598Y-89129060D01*
X126247593Y-89129058D01*
X126184319Y-89102849D01*
X126056420Y-89049871D01*
X126056412Y-89049869D01*
X126056404Y-89049867D01*
X126056394Y-89049865D01*
X125853471Y-89009501D01*
X125853469Y-89009501D01*
X125853465Y-89009501D01*
X125646535Y-89009501D01*
X125646530Y-89009501D01*
X125646528Y-89009501D01*
X125443604Y-89049865D01*
X125443579Y-89049871D01*
X125252404Y-89129058D01*
X125080337Y-89244028D01*
X124934027Y-89390338D01*
X124819057Y-89562405D01*
X124739870Y-89753580D01*
X124739864Y-89753605D01*
X124699500Y-89956528D01*
X124699500Y-89956531D01*
X124699500Y-90163470D01*
X124699500Y-90163472D01*
X124699499Y-90163472D01*
X124000500Y-90163472D01*
X124000500Y-88355662D01*
X124004156Y-88330237D01*
X124005523Y-88320726D01*
X124008749Y-88309742D01*
X124009927Y-88305727D01*
X124047672Y-88246977D01*
X124047700Y-88246952D01*
X124047699Y-88246952D01*
X124049041Y-88245789D01*
X124103920Y-88218310D01*
X124111479Y-88216666D01*
X124137832Y-88213833D01*
X124557671Y-88213833D01*
X124592606Y-88218856D01*
X124607604Y-88223260D01*
X124666355Y-88261005D01*
X124666379Y-88261033D01*
X124666382Y-88261035D01*
X124666383Y-88261037D01*
X124667542Y-88262374D01*
X124695018Y-88317235D01*
X124696663Y-88324793D01*
X124699500Y-88351164D01*
X124699500Y-88389753D01*
X124711131Y-88448230D01*
X124711132Y-88448231D01*
X124714024Y-88453642D01*
X124717917Y-88458386D01*
X124727114Y-88472150D01*
X124755447Y-88514553D01*
X124821769Y-88558868D01*
X124821770Y-88558869D01*
X124880247Y-88570500D01*
X124880250Y-88570501D01*
X124880252Y-88570501D01*
X124880288Y-88570501D01*
X126619750Y-88570501D01*
X126623873Y-88570501D01*
X126631732Y-88568117D01*
X126633608Y-88567744D01*
X126634568Y-88567553D01*
X126666258Y-88561250D01*
X126672354Y-88560649D01*
X126672386Y-88560640D01*
X126683311Y-88557903D01*
X126693515Y-88548655D01*
X126744552Y-88514553D01*
X126788867Y-88448232D01*
X126788867Y-88448230D01*
X126788868Y-88448230D01*
X126791030Y-88437356D01*
X126791166Y-88437091D01*
X126791249Y-88436257D01*
X126798461Y-88400000D01*
X126800072Y-88391897D01*
X126800500Y-88389932D01*
X126800500Y-88355662D01*
X126804156Y-88330237D01*
X126805523Y-88320726D01*
X126808749Y-88309742D01*
X126809927Y-88305727D01*
X126847672Y-88246977D01*
X126847700Y-88246952D01*
X126847699Y-88246952D01*
X126849041Y-88245789D01*
X126903920Y-88218310D01*
X126911479Y-88216666D01*
X126937832Y-88213833D01*
X128644241Y-88213833D01*
X128679176Y-88218856D01*
X128694174Y-88223260D01*
X128752947Y-88261030D01*
X128752950Y-88261034D01*
X128752952Y-88261035D01*
X128752952Y-88261036D01*
X128760280Y-88269492D01*
X128783612Y-88309742D01*
X128790784Y-88330238D01*
X128790784Y-88330239D01*
X128802205Y-88362878D01*
X128802206Y-88362881D01*
X128802207Y-88362882D01*
X128882850Y-88472150D01*
X128978677Y-88542873D01*
X128992118Y-88552793D01*
X129120299Y-88597646D01*
X129120303Y-88597647D01*
X129138479Y-88599351D01*
X129150730Y-88600500D01*
X129150734Y-88600500D01*
X129150739Y-88600500D01*
X130084270Y-88600500D01*
X130084271Y-88600500D01*
X130086993Y-88600244D01*
X130114699Y-88597646D01*
X130114701Y-88597646D01*
X130192278Y-88570500D01*
X130242882Y-88552793D01*
X130352150Y-88472150D01*
X130432793Y-88362882D01*
X130455889Y-88296878D01*
X130477646Y-88234701D01*
X130477646Y-88234699D01*
X130480500Y-88204269D01*
X130480500Y-86825369D01*
X132080000Y-86825369D01*
X132080000Y-88174629D01*
X132080435Y-88176814D01*
X132089673Y-88223260D01*
X132094503Y-88247539D01*
X132094504Y-88247543D01*
X132094505Y-88247544D01*
X132149760Y-88330239D01*
X132232455Y-88385494D01*
X132232459Y-88385496D01*
X132297731Y-88398479D01*
X132300465Y-88399203D01*
X132305373Y-88400000D01*
X133179626Y-88400000D01*
X133179807Y-88400000D01*
X133181804Y-88399566D01*
X133252540Y-88385496D01*
X133252544Y-88385494D01*
X133335239Y-88330239D01*
X133390494Y-88247544D01*
X133390496Y-88247540D01*
X133404566Y-88176804D01*
X133405000Y-88174807D01*
X133405000Y-86825369D01*
X133404591Y-86823313D01*
X133404591Y-86823312D01*
X133400991Y-86805218D01*
X136525000Y-86805218D01*
X136525000Y-86805220D01*
X136525000Y-87134771D01*
X136533702Y-87178521D01*
X136533703Y-87178527D01*
X136562345Y-87221393D01*
X136566856Y-87228143D01*
X136616473Y-87261296D01*
X136616477Y-87261298D01*
X136660221Y-87269999D01*
X138339770Y-87269999D01*
X138339771Y-87269999D01*
X138383526Y-87261296D01*
X138383529Y-87261295D01*
X138433143Y-87228143D01*
X138466296Y-87178526D01*
X138466298Y-87178522D01*
X138474999Y-87134779D01*
X138474999Y-86805228D01*
X138466296Y-86761472D01*
X138466295Y-86761470D01*
X138433143Y-86711856D01*
X138383526Y-86678703D01*
X138383522Y-86678701D01*
X138383520Y-86678700D01*
X138350638Y-86672160D01*
X138339778Y-86670000D01*
X138339777Y-86670000D01*
X136660229Y-86670000D01*
X136660228Y-86670000D01*
X136645643Y-86672901D01*
X136616471Y-86678703D01*
X136616470Y-86678704D01*
X136566855Y-86711856D01*
X136533702Y-86761473D01*
X136533700Y-86761477D01*
X136525000Y-86805218D01*
X133400991Y-86805218D01*
X133395918Y-86779718D01*
X133390496Y-86752459D01*
X133390495Y-86752457D01*
X133390495Y-86752456D01*
X133367878Y-86718608D01*
X133335239Y-86669760D01*
X133252544Y-86614505D01*
X133252545Y-86614505D01*
X133252543Y-86614504D01*
X133252537Y-86614502D01*
X133203709Y-86604790D01*
X133179627Y-86600000D01*
X133179626Y-86600000D01*
X132305374Y-86600000D01*
X132305373Y-86600000D01*
X132290871Y-86602884D01*
X132232460Y-86614502D01*
X132232455Y-86614504D01*
X132149760Y-86669760D01*
X132094504Y-86752455D01*
X132094503Y-86752459D01*
X132080000Y-86825369D01*
X130480500Y-86825369D01*
X130480500Y-86795730D01*
X130477921Y-86768236D01*
X130477834Y-86766406D01*
X130477646Y-86765300D01*
X130477646Y-86765298D01*
X130432793Y-86637119D01*
X130432792Y-86637117D01*
X130416102Y-86614503D01*
X130415372Y-86613514D01*
X130352151Y-86527851D01*
X130352150Y-86527850D01*
X130242882Y-86447207D01*
X130242880Y-86447206D01*
X130114704Y-86402354D01*
X130114702Y-86402353D01*
X130114700Y-86402353D01*
X130084270Y-86399500D01*
X130084266Y-86399500D01*
X130084264Y-86399500D01*
X129150734Y-86399500D01*
X129150730Y-86399500D01*
X129132074Y-86401249D01*
X129126069Y-86401812D01*
X129122499Y-86401978D01*
X129120297Y-86402353D01*
X128992118Y-86447206D01*
X128882849Y-86527849D01*
X128802206Y-86637117D01*
X128775667Y-86712962D01*
X128771517Y-86720945D01*
X128759388Y-86744276D01*
X128751072Y-86755872D01*
X128750279Y-86756977D01*
X128695216Y-86799978D01*
X128684806Y-86804105D01*
X128639107Y-86812833D01*
X126942330Y-86812833D01*
X126907389Y-86807808D01*
X126892390Y-86803403D01*
X126877402Y-86793773D01*
X126860324Y-86788765D01*
X126833644Y-86765660D01*
X126832457Y-86764291D01*
X126804977Y-86709416D01*
X126803332Y-86701854D01*
X126800500Y-86675501D01*
X126800500Y-86650064D01*
X126800069Y-86648082D01*
X126788868Y-86591771D01*
X126785975Y-86586359D01*
X126782081Y-86581614D01*
X126778855Y-86576786D01*
X126744552Y-86525448D01*
X126708146Y-86501122D01*
X126688385Y-86487918D01*
X126683641Y-86484025D01*
X126678230Y-86481133D01*
X126678229Y-86481132D01*
X126619752Y-86469501D01*
X126619750Y-86469501D01*
X124880249Y-86469501D01*
X124880247Y-86469501D01*
X124821770Y-86481132D01*
X124821769Y-86481132D01*
X124821768Y-86481133D01*
X124821765Y-86481134D01*
X124821759Y-86481139D01*
X124755447Y-86525448D01*
X124711138Y-86591760D01*
X124711133Y-86591766D01*
X124711132Y-86591769D01*
X124711132Y-86591770D01*
X124711131Y-86591771D01*
X124699931Y-86648082D01*
X124699500Y-86650250D01*
X124699500Y-86671003D01*
X124699499Y-86671009D01*
X124699500Y-86671012D01*
X124694475Y-86705947D01*
X124690070Y-86720945D01*
X124652327Y-86779688D01*
X124652292Y-86779718D01*
X124652291Y-86779720D01*
X124652289Y-86779720D01*
X124650958Y-86780875D01*
X124596097Y-86808351D01*
X124588539Y-86809996D01*
X124562168Y-86812833D01*
X124142330Y-86812833D01*
X124142325Y-86812832D01*
X124142323Y-86812833D01*
X124107389Y-86807808D01*
X124092390Y-86803403D01*
X124033644Y-86765660D01*
X124033615Y-86765626D01*
X124033614Y-86765626D01*
X124033613Y-86765624D01*
X124032457Y-86764291D01*
X124004977Y-86709416D01*
X124003332Y-86701854D01*
X124000500Y-86675501D01*
X124000500Y-82523724D01*
X124899999Y-82523724D01*
X124932659Y-82687910D01*
X124932665Y-82687937D01*
X124994408Y-82836998D01*
X124996056Y-82841604D01*
X124996740Y-82842627D01*
X124996740Y-82842628D01*
X125036315Y-82901856D01*
X125089764Y-82981848D01*
X125208150Y-83100234D01*
X125208156Y-83100238D01*
X125208160Y-83100241D01*
X125347371Y-83193259D01*
X125347373Y-83193260D01*
X125347377Y-83193262D01*
X125433680Y-83229009D01*
X125502063Y-83257334D01*
X125502071Y-83257336D01*
X125666277Y-83289999D01*
X125666280Y-83290000D01*
X125833720Y-83290000D01*
X125833722Y-83289999D01*
X125997928Y-83257336D01*
X125997936Y-83257334D01*
X126147015Y-83195583D01*
X126151607Y-83193940D01*
X126152624Y-83193259D01*
X126152627Y-83193259D01*
X126152628Y-83193259D01*
X126291839Y-83100241D01*
X126291847Y-83100235D01*
X126410235Y-82981847D01*
X126410241Y-82981839D01*
X126503259Y-82842628D01*
X126503259Y-82842627D01*
X126503259Y-82842624D01*
X126503940Y-82841607D01*
X126505583Y-82837015D01*
X126567334Y-82687936D01*
X126567336Y-82687928D01*
X126599999Y-82523722D01*
X126600000Y-82523720D01*
X126600000Y-82356279D01*
X126599999Y-82356277D01*
X126595346Y-82332887D01*
X126567341Y-82192096D01*
X126567339Y-82192088D01*
X126567336Y-82192071D01*
X126567334Y-82192063D01*
X126505586Y-82042990D01*
X126503941Y-82038392D01*
X126487980Y-82014505D01*
X126410241Y-81898160D01*
X126410235Y-81898152D01*
X126410234Y-81898150D01*
X126291848Y-81779764D01*
X126152633Y-81686743D01*
X126152621Y-81686736D01*
X125997937Y-81622665D01*
X125997910Y-81622659D01*
X125833723Y-81590000D01*
X125833721Y-81590000D01*
X125666279Y-81590000D01*
X125666277Y-81590000D01*
X125502088Y-81622659D01*
X125502061Y-81622665D01*
X125353000Y-81684408D01*
X125348395Y-81686055D01*
X125208150Y-81779764D01*
X125089764Y-81898150D01*
X124996055Y-82038395D01*
X124994408Y-82043000D01*
X124932665Y-82192061D01*
X124932659Y-82192088D01*
X124900000Y-82356274D01*
X124900000Y-82356277D01*
X124900000Y-82523722D01*
X124900000Y-82523724D01*
X124899999Y-82523724D01*
X124000500Y-82523724D01*
X124000500Y-80003471D01*
X124699499Y-80003471D01*
X124739864Y-80206394D01*
X124739870Y-80206419D01*
X124819057Y-80397595D01*
X124819062Y-80397603D01*
X124876540Y-80483624D01*
X124876541Y-80483627D01*
X124934022Y-80569655D01*
X124934028Y-80569662D01*
X125080336Y-80715970D01*
X125080340Y-80715973D01*
X125080342Y-80715975D01*
X125080345Y-80715977D01*
X125080349Y-80715980D01*
X125080348Y-80715980D01*
X125080411Y-80716032D01*
X125080448Y-80716046D01*
X125252402Y-80830941D01*
X125443580Y-80910130D01*
X125634540Y-80948114D01*
X125643559Y-80949908D01*
X125645794Y-80950409D01*
X125646532Y-80950500D01*
X125853466Y-80950500D01*
X125857586Y-80950500D01*
X125865435Y-80948118D01*
X126056420Y-80910130D01*
X126247598Y-80830941D01*
X126419655Y-80715977D01*
X126565977Y-80569655D01*
X126680941Y-80397598D01*
X126760130Y-80206420D01*
X126800500Y-80003465D01*
X126800500Y-79796535D01*
X126760130Y-79593580D01*
X126680941Y-79402402D01*
X126566046Y-79230449D01*
X126566036Y-79230417D01*
X126565980Y-79230348D01*
X126565980Y-79230349D01*
X126565977Y-79230345D01*
X126565975Y-79230342D01*
X126565973Y-79230340D01*
X126565970Y-79230336D01*
X126419662Y-79084028D01*
X126419655Y-79084022D01*
X126291769Y-78998572D01*
X126291763Y-78998569D01*
X126284202Y-78993517D01*
X126247598Y-78969059D01*
X126106956Y-78910803D01*
X126104096Y-78909618D01*
X126104089Y-78909615D01*
X126056428Y-78889873D01*
X126056425Y-78889872D01*
X126056420Y-78889870D01*
X126056412Y-78889868D01*
X126056404Y-78889866D01*
X126056394Y-78889864D01*
X125853471Y-78849500D01*
X125853469Y-78849500D01*
X125853465Y-78849500D01*
X125646535Y-78849500D01*
X125646530Y-78849500D01*
X125646528Y-78849500D01*
X125443604Y-78889864D01*
X125443579Y-78889870D01*
X125252404Y-78969057D01*
X125080337Y-79084027D01*
X124934027Y-79230337D01*
X124819057Y-79402404D01*
X124739870Y-79593579D01*
X124739864Y-79593604D01*
X124699500Y-79796527D01*
X124699500Y-79796530D01*
X124699500Y-80003469D01*
X124699500Y-80003471D01*
X124699499Y-80003471D01*
X124000500Y-80003471D01*
X124000500Y-77463471D01*
X124699499Y-77463471D01*
X124739864Y-77666394D01*
X124739868Y-77666412D01*
X124739870Y-77666420D01*
X124819058Y-77857596D01*
X124934023Y-78029655D01*
X124934025Y-78029658D01*
X124934028Y-78029662D01*
X125080336Y-78175970D01*
X125080340Y-78175973D01*
X125080342Y-78175975D01*
X125080345Y-78175977D01*
X125080346Y-78175978D01*
X125080349Y-78175980D01*
X125080348Y-78175980D01*
X125080411Y-78176032D01*
X125080448Y-78176046D01*
X125252402Y-78290941D01*
X125443580Y-78370130D01*
X125594849Y-78400219D01*
X125613832Y-78403995D01*
X125643559Y-78409908D01*
X125645794Y-78410409D01*
X125646532Y-78410500D01*
X125853466Y-78410500D01*
X125857586Y-78410500D01*
X125865435Y-78408118D01*
X126056420Y-78370130D01*
X126247598Y-78290941D01*
X126419655Y-78175977D01*
X126499546Y-78096084D01*
X126527793Y-78074940D01*
X126550883Y-78062332D01*
X126610307Y-78047167D01*
X128597156Y-78047167D01*
X128632092Y-78052190D01*
X128647090Y-78056594D01*
X128705863Y-78094364D01*
X128713196Y-78102826D01*
X128736528Y-78143076D01*
X128752206Y-78187878D01*
X128752207Y-78187882D01*
X128832850Y-78297150D01*
X128917604Y-78359701D01*
X128942118Y-78377793D01*
X129070299Y-78422646D01*
X129070303Y-78422647D01*
X129088742Y-78424375D01*
X129100730Y-78425500D01*
X129100734Y-78425500D01*
X129100739Y-78425500D01*
X129834270Y-78425500D01*
X129834271Y-78425500D01*
X129835576Y-78425377D01*
X129864699Y-78422646D01*
X129864701Y-78422646D01*
X129928790Y-78400219D01*
X129992882Y-78377793D01*
X130102150Y-78297150D01*
X130182793Y-78187882D01*
X130219323Y-78083486D01*
X130227646Y-78059701D01*
X130227646Y-78059699D01*
X130230500Y-78029269D01*
X130230500Y-76670730D01*
X131629500Y-76670730D01*
X131629500Y-78029269D01*
X131632353Y-78059699D01*
X131632353Y-78059701D01*
X131673041Y-78175977D01*
X131673691Y-78177834D01*
X131673694Y-78177844D01*
X131677205Y-78187878D01*
X131677206Y-78187881D01*
X131691607Y-78207393D01*
X131757849Y-78297149D01*
X131757851Y-78297151D01*
X131836145Y-78354934D01*
X131839287Y-78357330D01*
X131873987Y-78384689D01*
X131873588Y-78385445D01*
X131888428Y-78396075D01*
X131890651Y-78397828D01*
X131909296Y-78424082D01*
X131929122Y-78449438D01*
X131929123Y-78449441D01*
X131933247Y-78459827D01*
X131942000Y-78505588D01*
X131942000Y-83451809D01*
X131960403Y-83520489D01*
X131972701Y-83566387D01*
X132032011Y-83669114D01*
X134423386Y-86060490D01*
X134423387Y-86060491D01*
X134423389Y-86060492D01*
X134468629Y-86086611D01*
X134526113Y-86119799D01*
X134550321Y-86126284D01*
X134550324Y-86126286D01*
X134550325Y-86126286D01*
X134580447Y-86134357D01*
X134640691Y-86150500D01*
X136448791Y-86150500D01*
X136476737Y-86153690D01*
X136503613Y-86159907D01*
X136530125Y-86169315D01*
X136573607Y-86190573D01*
X136592277Y-86193293D01*
X136607438Y-86195502D01*
X136607440Y-86195502D01*
X136607673Y-86195536D01*
X136641739Y-86200500D01*
X136641740Y-86200500D01*
X136641741Y-86200500D01*
X138358261Y-86200500D01*
X138358262Y-86200500D01*
X138362803Y-86199838D01*
X138380971Y-86197191D01*
X138426393Y-86190573D01*
X138531483Y-86139198D01*
X138614198Y-86056483D01*
X138665573Y-85951393D01*
X138675500Y-85883260D01*
X138675500Y-85516740D01*
X138665573Y-85448607D01*
X138615871Y-85346940D01*
X138614433Y-85343752D01*
X138614196Y-85343514D01*
X138531485Y-85260803D01*
X138426391Y-85209426D01*
X138358261Y-85199500D01*
X138358260Y-85199500D01*
X138358255Y-85199500D01*
X136641744Y-85199500D01*
X136641740Y-85199500D01*
X136641739Y-85199500D01*
X136599157Y-85205703D01*
X136573605Y-85209426D01*
X136530124Y-85230683D01*
X136503618Y-85240090D01*
X136476745Y-85246308D01*
X136448792Y-85249500D01*
X134955796Y-85249500D01*
X134920860Y-85244477D01*
X134895618Y-85237065D01*
X134842873Y-85205769D01*
X132891925Y-83254821D01*
X132872143Y-83229009D01*
X132871461Y-83227825D01*
X132864615Y-83215287D01*
X132861042Y-83209728D01*
X132859537Y-83207113D01*
X132852025Y-83175984D01*
X132843000Y-83145244D01*
X132843000Y-82995218D01*
X136525000Y-82995218D01*
X136525000Y-82995220D01*
X136525000Y-83324771D01*
X136533703Y-83368527D01*
X136533704Y-83368529D01*
X136547390Y-83389011D01*
X136565990Y-83416848D01*
X136566856Y-83418143D01*
X136616473Y-83451296D01*
X136616477Y-83451298D01*
X136660221Y-83459999D01*
X138339770Y-83459999D01*
X138339771Y-83459999D01*
X138383526Y-83451296D01*
X138383529Y-83451295D01*
X138433143Y-83418143D01*
X138466296Y-83368526D01*
X138466298Y-83368522D01*
X138474999Y-83324779D01*
X138474999Y-82995228D01*
X138466296Y-82951472D01*
X138466295Y-82951470D01*
X138433143Y-82901856D01*
X138383526Y-82868703D01*
X138383522Y-82868701D01*
X138383520Y-82868700D01*
X138350638Y-82862160D01*
X138339778Y-82860000D01*
X138339777Y-82860000D01*
X136660229Y-82860000D01*
X136660228Y-82860000D01*
X136645643Y-82862901D01*
X136616471Y-82868703D01*
X136616470Y-82868704D01*
X136566855Y-82901856D01*
X136533702Y-82951473D01*
X136533700Y-82951477D01*
X136525000Y-82995218D01*
X132843000Y-82995218D01*
X132843000Y-78509807D01*
X132848022Y-78474875D01*
X132852427Y-78459873D01*
X132890196Y-78401099D01*
X132908918Y-78384876D01*
X132916470Y-78378835D01*
X132928266Y-78370129D01*
X133027150Y-78297150D01*
X133107793Y-78187882D01*
X133144323Y-78083486D01*
X133152646Y-78059701D01*
X133152646Y-78059699D01*
X133155500Y-78029269D01*
X133155500Y-76670730D01*
X133153187Y-76646078D01*
X133153020Y-76642502D01*
X133152646Y-76640300D01*
X133152646Y-76640298D01*
X133107793Y-76512119D01*
X133107792Y-76512117D01*
X133107792Y-76512116D01*
X133027151Y-76402851D01*
X133027150Y-76402850D01*
X132917882Y-76322207D01*
X132917880Y-76322206D01*
X132881569Y-76309500D01*
X132789704Y-76277354D01*
X132789702Y-76277353D01*
X132789700Y-76277353D01*
X132759270Y-76274500D01*
X132759266Y-76274500D01*
X132759264Y-76274500D01*
X132025734Y-76274500D01*
X132025730Y-76274500D01*
X132007074Y-76276249D01*
X132001069Y-76276812D01*
X131997499Y-76276978D01*
X131995297Y-76277353D01*
X131867118Y-76322206D01*
X131757849Y-76402849D01*
X131677206Y-76512118D01*
X131632353Y-76640297D01*
X131631978Y-76642499D01*
X131631812Y-76646069D01*
X131629500Y-76670730D01*
X130230500Y-76670730D01*
X130228139Y-76645563D01*
X130228098Y-76645077D01*
X130228133Y-76644904D01*
X130228020Y-76642502D01*
X130227646Y-76640300D01*
X130227646Y-76640298D01*
X130182793Y-76512119D01*
X130182792Y-76512117D01*
X130182792Y-76512116D01*
X130102151Y-76402851D01*
X130102150Y-76402850D01*
X129992882Y-76322207D01*
X129992880Y-76322206D01*
X129956569Y-76309500D01*
X129864704Y-76277354D01*
X129864702Y-76277353D01*
X129864700Y-76277353D01*
X129834270Y-76274500D01*
X129834266Y-76274500D01*
X129834264Y-76274500D01*
X129100734Y-76274500D01*
X129100730Y-76274500D01*
X129082074Y-76276249D01*
X129076069Y-76276812D01*
X129074862Y-76276577D01*
X129070297Y-76277353D01*
X128942118Y-76322206D01*
X128832849Y-76402849D01*
X128752207Y-76512117D01*
X128752205Y-76512119D01*
X128740248Y-76546294D01*
X128725656Y-76574364D01*
X128723970Y-76577607D01*
X128714861Y-76590308D01*
X128659795Y-76633313D01*
X128659794Y-76633313D01*
X128649384Y-76637440D01*
X128603689Y-76646167D01*
X126590991Y-76646167D01*
X126556055Y-76641144D01*
X126530813Y-76633732D01*
X126478069Y-76602437D01*
X126419655Y-76544023D01*
X126371905Y-76512118D01*
X126279687Y-76450500D01*
X126247598Y-76429059D01*
X126184324Y-76402850D01*
X126179987Y-76401053D01*
X126179982Y-76401051D01*
X126113178Y-76373380D01*
X126056420Y-76349870D01*
X126056412Y-76349868D01*
X126056404Y-76349866D01*
X126056394Y-76349864D01*
X125853471Y-76309500D01*
X125853469Y-76309500D01*
X125853465Y-76309500D01*
X125646535Y-76309500D01*
X125646530Y-76309500D01*
X125646528Y-76309500D01*
X125443604Y-76349864D01*
X125443579Y-76349870D01*
X125252404Y-76429057D01*
X125080337Y-76544027D01*
X124934027Y-76690337D01*
X124819057Y-76862404D01*
X124739870Y-77053579D01*
X124739864Y-77053604D01*
X124699500Y-77256527D01*
X124699500Y-77256530D01*
X124699500Y-77463469D01*
X124699500Y-77463471D01*
X124699499Y-77463471D01*
X124000500Y-77463471D01*
X124000500Y-75642329D01*
X124000997Y-75638875D01*
X124005523Y-75607393D01*
X124008749Y-75596409D01*
X124009927Y-75592394D01*
X124047672Y-75533644D01*
X124047700Y-75533619D01*
X124047699Y-75533619D01*
X124049041Y-75532456D01*
X124103920Y-75504977D01*
X124111479Y-75503333D01*
X124137832Y-75500500D01*
X124557671Y-75500500D01*
X124592606Y-75505523D01*
X124607604Y-75509927D01*
X124666355Y-75547672D01*
X124666379Y-75547700D01*
X124666382Y-75547702D01*
X124666383Y-75547704D01*
X124667542Y-75549041D01*
X124695018Y-75603902D01*
X124696663Y-75611460D01*
X124699500Y-75637831D01*
X124699500Y-75689752D01*
X124711131Y-75748229D01*
X124711132Y-75748230D01*
X124711132Y-75748231D01*
X124711134Y-75748233D01*
X124755447Y-75814552D01*
X124821765Y-75858864D01*
X124821767Y-75858866D01*
X124821770Y-75858868D01*
X124872612Y-75868981D01*
X124875337Y-75869703D01*
X124880249Y-75870500D01*
X126619750Y-75870500D01*
X126623873Y-75870500D01*
X126631732Y-75868116D01*
X126633603Y-75867744D01*
X126634568Y-75867552D01*
X126666258Y-75861249D01*
X126672354Y-75860648D01*
X126672386Y-75860639D01*
X126683311Y-75857902D01*
X126693515Y-75848654D01*
X126744552Y-75814552D01*
X126788867Y-75748231D01*
X126788867Y-75748229D01*
X126788868Y-75748229D01*
X126791030Y-75737355D01*
X126791166Y-75737090D01*
X126791249Y-75736256D01*
X126792347Y-75730740D01*
X126800072Y-75691896D01*
X126800500Y-75689931D01*
X126800500Y-75642329D01*
X126800997Y-75638875D01*
X126805523Y-75607393D01*
X126808749Y-75596409D01*
X126809927Y-75592394D01*
X126847672Y-75533644D01*
X126847700Y-75533619D01*
X126847699Y-75533619D01*
X126849041Y-75532456D01*
X126903920Y-75504977D01*
X126911479Y-75503333D01*
X126937832Y-75500500D01*
X128639575Y-75500500D01*
X128672924Y-75505295D01*
X128674510Y-75505523D01*
X128689508Y-75509927D01*
X128748286Y-75547702D01*
X128748287Y-75547704D01*
X128755619Y-75556166D01*
X128778946Y-75596409D01*
X128790783Y-75630233D01*
X128790784Y-75630239D01*
X128790785Y-75630239D01*
X128802206Y-75662881D01*
X128818895Y-75685494D01*
X128882850Y-75772150D01*
X128979746Y-75843662D01*
X128992118Y-75852793D01*
X129120299Y-75897646D01*
X129120303Y-75897647D01*
X129138479Y-75899351D01*
X129150730Y-75900500D01*
X129150734Y-75900500D01*
X129150739Y-75900500D01*
X130084270Y-75900500D01*
X130084271Y-75900500D01*
X130086993Y-75900244D01*
X130114699Y-75897646D01*
X130114701Y-75897646D01*
X130192281Y-75870499D01*
X130242882Y-75852793D01*
X130352150Y-75772150D01*
X130432793Y-75662882D01*
X130455219Y-75598790D01*
X130477646Y-75534701D01*
X130477646Y-75534699D01*
X130480500Y-75504269D01*
X130480500Y-74125369D01*
X132080000Y-74125369D01*
X132080000Y-75474629D01*
X132080435Y-75476814D01*
X132092419Y-75537065D01*
X132094503Y-75547539D01*
X132094504Y-75547543D01*
X132094612Y-75547704D01*
X132149760Y-75630239D01*
X132232455Y-75685494D01*
X132232459Y-75685496D01*
X132297731Y-75698479D01*
X132300465Y-75699203D01*
X132305373Y-75700000D01*
X133179626Y-75700000D01*
X133179807Y-75700000D01*
X133181804Y-75699566D01*
X133252540Y-75685496D01*
X133252544Y-75685494D01*
X133335239Y-75630239D01*
X133390494Y-75547544D01*
X133390496Y-75547540D01*
X133404566Y-75476804D01*
X133405000Y-75474807D01*
X133405000Y-74125189D01*
X133404564Y-74123184D01*
X133395937Y-74079815D01*
X133390496Y-74052459D01*
X133390494Y-74052455D01*
X133335239Y-73969760D01*
X133252544Y-73914505D01*
X133252545Y-73914505D01*
X133252543Y-73914504D01*
X133252537Y-73914502D01*
X133203709Y-73904790D01*
X133179627Y-73900000D01*
X133179626Y-73900000D01*
X132305374Y-73900000D01*
X132305373Y-73900000D01*
X132290871Y-73902884D01*
X132232460Y-73914502D01*
X132232455Y-73914504D01*
X132149760Y-73969760D01*
X132094504Y-74052455D01*
X132094503Y-74052459D01*
X132080000Y-74125369D01*
X130480500Y-74125369D01*
X130480500Y-74095730D01*
X130477921Y-74068236D01*
X130477834Y-74066406D01*
X130477646Y-74065300D01*
X130477646Y-74065298D01*
X130432793Y-73937119D01*
X130432792Y-73937117D01*
X130416102Y-73914503D01*
X130405398Y-73900000D01*
X130352151Y-73827851D01*
X130352150Y-73827850D01*
X130242882Y-73747207D01*
X130242880Y-73747206D01*
X130114704Y-73702354D01*
X130114702Y-73702353D01*
X130114700Y-73702353D01*
X130084270Y-73699500D01*
X130084266Y-73699500D01*
X130084264Y-73699500D01*
X129150734Y-73699500D01*
X129150730Y-73699500D01*
X129132074Y-73701249D01*
X129126069Y-73701812D01*
X129122499Y-73701978D01*
X129120297Y-73702353D01*
X128992118Y-73747206D01*
X128882849Y-73827849D01*
X128802206Y-73937118D01*
X128780333Y-73999628D01*
X128764055Y-74030941D01*
X128754943Y-74043645D01*
X128699882Y-74086645D01*
X128689472Y-74090772D01*
X128643773Y-74099500D01*
X126942330Y-74099500D01*
X126907389Y-74094475D01*
X126892390Y-74090070D01*
X126877402Y-74080440D01*
X126860324Y-74075432D01*
X126833644Y-74052327D01*
X126832457Y-74050958D01*
X126804977Y-73996083D01*
X126803332Y-73988521D01*
X126800500Y-73962168D01*
X126800500Y-73950063D01*
X126800069Y-73948081D01*
X126788868Y-73891770D01*
X126785975Y-73886358D01*
X126782081Y-73881613D01*
X126780956Y-73879930D01*
X126744552Y-73825447D01*
X126708146Y-73801121D01*
X126688385Y-73787917D01*
X126683641Y-73784024D01*
X126678230Y-73781132D01*
X126678229Y-73781131D01*
X126619752Y-73769500D01*
X126619750Y-73769500D01*
X124880249Y-73769500D01*
X124880247Y-73769500D01*
X124821770Y-73781131D01*
X124821769Y-73781131D01*
X124821768Y-73781132D01*
X124821765Y-73781133D01*
X124821759Y-73781138D01*
X124755447Y-73825447D01*
X124711138Y-73891759D01*
X124711133Y-73891765D01*
X124711132Y-73891768D01*
X124711132Y-73891769D01*
X124711131Y-73891770D01*
X124699931Y-73948081D01*
X124699500Y-73950249D01*
X124699500Y-73957670D01*
X124699499Y-73957676D01*
X124699500Y-73957679D01*
X124694475Y-73992614D01*
X124690070Y-74007612D01*
X124652327Y-74066355D01*
X124652292Y-74066385D01*
X124652291Y-74066387D01*
X124652289Y-74066387D01*
X124650958Y-74067542D01*
X124596097Y-74095018D01*
X124588539Y-74096663D01*
X124562168Y-74099500D01*
X124142330Y-74099500D01*
X124142325Y-74099499D01*
X124142323Y-74099500D01*
X124107389Y-74094475D01*
X124092390Y-74090070D01*
X124033644Y-74052327D01*
X124033615Y-74052293D01*
X124033614Y-74052293D01*
X124033613Y-74052291D01*
X124032457Y-74050958D01*
X124004977Y-73996083D01*
X124003332Y-73988521D01*
X124000500Y-73962168D01*
X124000500Y-69823724D01*
X124899999Y-69823724D01*
X124932659Y-69987910D01*
X124932665Y-69987937D01*
X124994408Y-70136998D01*
X124996056Y-70141604D01*
X125089764Y-70281848D01*
X125208150Y-70400234D01*
X125208156Y-70400238D01*
X125208160Y-70400241D01*
X125347371Y-70493259D01*
X125347373Y-70493260D01*
X125347377Y-70493262D01*
X125463390Y-70541315D01*
X125502063Y-70557334D01*
X125502071Y-70557336D01*
X125666277Y-70589999D01*
X125666280Y-70590000D01*
X125833720Y-70590000D01*
X125833722Y-70589999D01*
X125997928Y-70557336D01*
X125997936Y-70557334D01*
X126147015Y-70495583D01*
X126151607Y-70493940D01*
X126152624Y-70493259D01*
X126152627Y-70493259D01*
X126152628Y-70493259D01*
X126291839Y-70400241D01*
X126291847Y-70400235D01*
X126410235Y-70281847D01*
X126410241Y-70281839D01*
X126503259Y-70142628D01*
X126503259Y-70142627D01*
X126503259Y-70142624D01*
X126503940Y-70141607D01*
X126505583Y-70137015D01*
X126567334Y-69987936D01*
X126567336Y-69987928D01*
X126599999Y-69823722D01*
X126600000Y-69823720D01*
X126600000Y-69656279D01*
X126599999Y-69656277D01*
X126595153Y-69631917D01*
X126567341Y-69492096D01*
X126567339Y-69492088D01*
X126567336Y-69492071D01*
X126567334Y-69492063D01*
X126505586Y-69342990D01*
X126503941Y-69338392D01*
X126496479Y-69327224D01*
X126410241Y-69198160D01*
X126410235Y-69198152D01*
X126410234Y-69198150D01*
X126291848Y-69079764D01*
X126152633Y-68986743D01*
X126152621Y-68986736D01*
X125997937Y-68922665D01*
X125997910Y-68922659D01*
X125833723Y-68890000D01*
X125833721Y-68890000D01*
X125666279Y-68890000D01*
X125666277Y-68890000D01*
X125502088Y-68922659D01*
X125502061Y-68922665D01*
X125353000Y-68984408D01*
X125348395Y-68986055D01*
X125208150Y-69079764D01*
X125089764Y-69198150D01*
X124996055Y-69338395D01*
X124994408Y-69343000D01*
X124932665Y-69492061D01*
X124932659Y-69492088D01*
X124900000Y-69656274D01*
X124900000Y-69656277D01*
X124900000Y-69823722D01*
X124900000Y-69823724D01*
X124899999Y-69823724D01*
X124000500Y-69823724D01*
X124000500Y-67303471D01*
X124699499Y-67303471D01*
X124739864Y-67506394D01*
X124739868Y-67506412D01*
X124739870Y-67506420D01*
X124819058Y-67697596D01*
X124931211Y-67865447D01*
X124934027Y-67869661D01*
X125080336Y-68015970D01*
X125080340Y-68015973D01*
X125080342Y-68015975D01*
X125080345Y-68015977D01*
X125080349Y-68015980D01*
X125080348Y-68015980D01*
X125080411Y-68016032D01*
X125080448Y-68016046D01*
X125252402Y-68130941D01*
X125443580Y-68210130D01*
X125634540Y-68248114D01*
X125643559Y-68249908D01*
X125645794Y-68250409D01*
X125646532Y-68250500D01*
X125853466Y-68250500D01*
X125857586Y-68250500D01*
X125865435Y-68248118D01*
X126056420Y-68210130D01*
X126247598Y-68130941D01*
X126419655Y-68015977D01*
X126565977Y-67869655D01*
X126680941Y-67697598D01*
X126760130Y-67506420D01*
X126800500Y-67303465D01*
X126800500Y-67096535D01*
X126800500Y-67096532D01*
X126774268Y-66964655D01*
X126760130Y-66893580D01*
X126680941Y-66702402D01*
X126566046Y-66530449D01*
X126566036Y-66530417D01*
X126565980Y-66530348D01*
X126565980Y-66530349D01*
X126565977Y-66530345D01*
X126565975Y-66530342D01*
X126565973Y-66530340D01*
X126565970Y-66530336D01*
X126419659Y-66384025D01*
X126328613Y-66323191D01*
X126247598Y-66269059D01*
X126247593Y-66269057D01*
X126191602Y-66245864D01*
X126056420Y-66189870D01*
X126056412Y-66189868D01*
X126056404Y-66189866D01*
X126056394Y-66189864D01*
X125853471Y-66149500D01*
X125853469Y-66149500D01*
X125853465Y-66149500D01*
X125646535Y-66149500D01*
X125646530Y-66149500D01*
X125646528Y-66149500D01*
X125443604Y-66189864D01*
X125443579Y-66189870D01*
X125252404Y-66269057D01*
X125080337Y-66384027D01*
X124934027Y-66530337D01*
X124819057Y-66702404D01*
X124739870Y-66893579D01*
X124739864Y-66893604D01*
X124699500Y-67096527D01*
X124699500Y-67096529D01*
X124699500Y-67096530D01*
X124699500Y-67303469D01*
X124699500Y-67303471D01*
X124699499Y-67303471D01*
X124000500Y-67303471D01*
X124000500Y-65159424D01*
X124013353Y-65104448D01*
X124081626Y-64966419D01*
X124182009Y-64763471D01*
X124699499Y-64763471D01*
X124739864Y-64966394D01*
X124739868Y-64966412D01*
X124739870Y-64966420D01*
X124819058Y-65157596D01*
X124931211Y-65325447D01*
X124934027Y-65329661D01*
X125080336Y-65475970D01*
X125080340Y-65475973D01*
X125080342Y-65475975D01*
X125080345Y-65475977D01*
X125080349Y-65475980D01*
X125080348Y-65475980D01*
X125080411Y-65476032D01*
X125080448Y-65476046D01*
X125252402Y-65590941D01*
X125443580Y-65670130D01*
X125607724Y-65702780D01*
X125643559Y-65709908D01*
X125645794Y-65710409D01*
X125646532Y-65710500D01*
X125853466Y-65710500D01*
X125857586Y-65710500D01*
X125865435Y-65708118D01*
X126056420Y-65670130D01*
X126247598Y-65590941D01*
X126419655Y-65475977D01*
X126506213Y-65389417D01*
X126534460Y-65368273D01*
X126557550Y-65355665D01*
X126616974Y-65340500D01*
X128603571Y-65340500D01*
X128638507Y-65345523D01*
X128653505Y-65349927D01*
X128712277Y-65387696D01*
X128719612Y-65396160D01*
X128742944Y-65436412D01*
X128752206Y-65462881D01*
X128752207Y-65462882D01*
X128752208Y-65462884D01*
X128764119Y-65479024D01*
X128764120Y-65479024D01*
X128832850Y-65572150D01*
X128942117Y-65652792D01*
X128942118Y-65652793D01*
X129070299Y-65697646D01*
X129070303Y-65697647D01*
X129088742Y-65699375D01*
X129100730Y-65700500D01*
X129100734Y-65700500D01*
X129100739Y-65700500D01*
X129834270Y-65700500D01*
X129834271Y-65700500D01*
X129835576Y-65700377D01*
X129864699Y-65697646D01*
X129864701Y-65697646D01*
X129928790Y-65675219D01*
X129992882Y-65652793D01*
X130102150Y-65572150D01*
X130182793Y-65462882D01*
X130217373Y-65364058D01*
X130227646Y-65334701D01*
X130227646Y-65334699D01*
X130230500Y-65304269D01*
X130230500Y-63945730D01*
X131629500Y-63945730D01*
X131629500Y-65304269D01*
X131631486Y-65325447D01*
X131631812Y-65328926D01*
X131631979Y-65332500D01*
X131632353Y-65334699D01*
X131632353Y-65334701D01*
X131677206Y-65462880D01*
X131677207Y-65462882D01*
X131757850Y-65572150D01*
X131867117Y-65652792D01*
X131867118Y-65652793D01*
X131995299Y-65697646D01*
X131995303Y-65697647D01*
X132013742Y-65699375D01*
X132025730Y-65700500D01*
X132025734Y-65700500D01*
X132025739Y-65700500D01*
X132758363Y-65700500D01*
X132782032Y-65702780D01*
X132808110Y-65707851D01*
X132857633Y-65729477D01*
X132858255Y-65729931D01*
X132869682Y-65739723D01*
X132870160Y-65739970D01*
X132870343Y-65740289D01*
X132872736Y-65742339D01*
X133650573Y-66520176D01*
X133671723Y-66548428D01*
X133684331Y-66571517D01*
X133699500Y-66630946D01*
X133699500Y-79574308D01*
X133704664Y-79593580D01*
X133723712Y-79664671D01*
X133730200Y-79688884D01*
X133730200Y-79688885D01*
X133740362Y-79706485D01*
X133789511Y-79791613D01*
X136248387Y-82250490D01*
X136351115Y-82309799D01*
X136465692Y-82340500D01*
X136465695Y-82340500D01*
X136468808Y-82340909D01*
X136473672Y-82342161D01*
X136473568Y-82342956D01*
X136505133Y-82350258D01*
X136506569Y-82350628D01*
X136507926Y-82351437D01*
X136530122Y-82359314D01*
X136573607Y-82380573D01*
X136607438Y-82385502D01*
X136607440Y-82385502D01*
X136607673Y-82385536D01*
X136641739Y-82390500D01*
X136641740Y-82390500D01*
X136641741Y-82390500D01*
X138358261Y-82390500D01*
X138358262Y-82390500D01*
X138362803Y-82389838D01*
X138380971Y-82387191D01*
X138426393Y-82380573D01*
X138531483Y-82329198D01*
X138614198Y-82246483D01*
X138665573Y-82141393D01*
X138675500Y-82073260D01*
X138675500Y-81706740D01*
X138672586Y-81686743D01*
X138665573Y-81638607D01*
X138657779Y-81622665D01*
X138615871Y-81536940D01*
X138614433Y-81533752D01*
X138614196Y-81533514D01*
X138531485Y-81450803D01*
X138426391Y-81399426D01*
X138358261Y-81389500D01*
X138358260Y-81389500D01*
X138358255Y-81389500D01*
X136730797Y-81389500D01*
X136698557Y-81385235D01*
X136697175Y-81384863D01*
X136683526Y-81380855D01*
X136677093Y-81379455D01*
X136674157Y-81378665D01*
X136646833Y-81361964D01*
X136618717Y-81346612D01*
X136616893Y-81344788D01*
X136615342Y-81342716D01*
X136614541Y-81342227D01*
X136613744Y-81340582D01*
X136595744Y-81316538D01*
X136590322Y-81306608D01*
X136584636Y-81280473D01*
X136584089Y-81279343D01*
X136584196Y-81278452D01*
X136575469Y-81238338D01*
X136599883Y-81172873D01*
X136655813Y-81131001D01*
X136659692Y-81129554D01*
X136663028Y-81128311D01*
X136706342Y-81120500D01*
X138358262Y-81120500D01*
X138362803Y-81119838D01*
X138380971Y-81117191D01*
X138426393Y-81110573D01*
X138531483Y-81059198D01*
X138614198Y-80976483D01*
X138614199Y-80976482D01*
X138658495Y-80885873D01*
X138659943Y-80883244D01*
X138660234Y-80882954D01*
X138662365Y-80879041D01*
X138671647Y-80863641D01*
X138671648Y-80863642D01*
X138687086Y-80838029D01*
X138705605Y-80814363D01*
X138715459Y-80804511D01*
X138875217Y-80644752D01*
X138903457Y-80623611D01*
X138913391Y-80618187D01*
X138981661Y-80603334D01*
X139047126Y-80627748D01*
X139088999Y-80683679D01*
X139091680Y-80690866D01*
X139099500Y-80734205D01*
X139099500Y-83311337D01*
X139094476Y-83346274D01*
X139087064Y-83371515D01*
X139055769Y-83424259D01*
X138677675Y-83802353D01*
X138578308Y-83901718D01*
X138550055Y-83922868D01*
X138536338Y-83930358D01*
X138518914Y-83934148D01*
X138516985Y-83935202D01*
X138514791Y-83935045D01*
X138468065Y-83945210D01*
X138468064Y-83945210D01*
X138452378Y-83944088D01*
X138431173Y-83940104D01*
X138431087Y-83940488D01*
X138426389Y-83939425D01*
X138390164Y-83934148D01*
X138358261Y-83929500D01*
X138358260Y-83929500D01*
X138358256Y-83929500D01*
X136641745Y-83929500D01*
X136641740Y-83929500D01*
X136641739Y-83929500D01*
X136584700Y-83937810D01*
X136573607Y-83939426D01*
X136468511Y-83990804D01*
X136385804Y-84073511D01*
X136338107Y-84171079D01*
X136334426Y-84178608D01*
X136324500Y-84246739D01*
X136324500Y-84613260D01*
X136334426Y-84681391D01*
X136385803Y-84786485D01*
X136468514Y-84869196D01*
X136468515Y-84869196D01*
X136468753Y-84869434D01*
X136471952Y-84870877D01*
X136573607Y-84920573D01*
X136592277Y-84923293D01*
X136607438Y-84925502D01*
X136607440Y-84925502D01*
X136607673Y-84925536D01*
X136641739Y-84930500D01*
X136641740Y-84930500D01*
X136641741Y-84930500D01*
X138358261Y-84930500D01*
X138358262Y-84930500D01*
X138363618Y-84929719D01*
X138385048Y-84926597D01*
X138426393Y-84920573D01*
X138531483Y-84869198D01*
X138614198Y-84786483D01*
X138614199Y-84786482D01*
X138651430Y-84710324D01*
X138653100Y-84707339D01*
X138667165Y-84693554D01*
X138667978Y-84689822D01*
X138701462Y-84628506D01*
X138715459Y-84614511D01*
X138715458Y-84614511D01*
X138774024Y-84555947D01*
X138774032Y-84555936D01*
X139142960Y-84187011D01*
X139275217Y-84054753D01*
X139303457Y-84033612D01*
X139313391Y-84028188D01*
X139381661Y-84013335D01*
X139447126Y-84037749D01*
X139488999Y-84093681D01*
X139489001Y-84093685D01*
X139491682Y-84100873D01*
X139499500Y-84144207D01*
X139499500Y-84488092D01*
X139513151Y-84539040D01*
X139519978Y-84564518D01*
X139527912Y-84578259D01*
X139548120Y-84613260D01*
X139559540Y-84633040D01*
X139559542Y-84633042D01*
X140866963Y-85940463D01*
X140867643Y-85940953D01*
X140870138Y-85942295D01*
X140935475Y-85980017D01*
X140935482Y-85980021D01*
X141011909Y-86000500D01*
X141091033Y-86000500D01*
X141214174Y-86000500D01*
X141249109Y-86005523D01*
X141270217Y-86011721D01*
X141320790Y-86040897D01*
X141325331Y-86045221D01*
X141334440Y-86054876D01*
X141335802Y-86056484D01*
X141418751Y-86139433D01*
X141421952Y-86140877D01*
X141523607Y-86190573D01*
X141542277Y-86193293D01*
X141557438Y-86195502D01*
X141557440Y-86195502D01*
X141557673Y-86195536D01*
X141591739Y-86200500D01*
X143282671Y-86200500D01*
X143304109Y-86202367D01*
X143313435Y-86204004D01*
X143316269Y-86205405D01*
X143317602Y-86205522D01*
X143321972Y-86206805D01*
X143321687Y-86207774D01*
X143337799Y-86211887D01*
X143338056Y-86211199D01*
X143340902Y-86212261D01*
X143341749Y-86212895D01*
X143343519Y-86213347D01*
X143346227Y-86214584D01*
X143345660Y-86215823D01*
X143361889Y-86227972D01*
X143376062Y-86234983D01*
X143379979Y-86241514D01*
X143392179Y-86250647D01*
X143393183Y-86249780D01*
X143393317Y-86249935D01*
X143394397Y-86252307D01*
X143396810Y-86254114D01*
X143398637Y-86256554D01*
X143396917Y-86257841D01*
X143422270Y-86313524D01*
X143418489Y-86365966D01*
X143415072Y-86377603D01*
X143405441Y-86392592D01*
X143400432Y-86409675D01*
X143377327Y-86436355D01*
X143375958Y-86437542D01*
X143321097Y-86465018D01*
X143313539Y-86466663D01*
X143287168Y-86469500D01*
X141591739Y-86469500D01*
X141533341Y-86478008D01*
X141523607Y-86479426D01*
X141418511Y-86530804D01*
X141335804Y-86613511D01*
X141284426Y-86718607D01*
X141282797Y-86729788D01*
X141274500Y-86786739D01*
X141274500Y-87153260D01*
X141284426Y-87221392D01*
X141284426Y-87221393D01*
X141330284Y-87315199D01*
X141331693Y-87318568D01*
X141332146Y-87322657D01*
X141339520Y-87345527D01*
X141342151Y-87360938D01*
X141339191Y-87386227D01*
X141339389Y-87388012D01*
X141338856Y-87389083D01*
X141334029Y-87430334D01*
X141334027Y-87430338D01*
X141329730Y-87440441D01*
X141303303Y-87479590D01*
X139232323Y-89550573D01*
X139211968Y-89565811D01*
X139204072Y-89571722D01*
X139180984Y-89584330D01*
X139121554Y-89599500D01*
X133297330Y-89599500D01*
X133262389Y-89594475D01*
X133247390Y-89590070D01*
X133188644Y-89552327D01*
X133187457Y-89550958D01*
X133159977Y-89496083D01*
X133158332Y-89488521D01*
X133155500Y-89462168D01*
X133155500Y-89370728D01*
X133153188Y-89346079D01*
X133153020Y-89342502D01*
X133152646Y-89340300D01*
X133152646Y-89340298D01*
X133107793Y-89212119D01*
X133107792Y-89212117D01*
X133107792Y-89212116D01*
X133027151Y-89102851D01*
X133027150Y-89102850D01*
X132917882Y-89022207D01*
X132917880Y-89022206D01*
X132881572Y-89009501D01*
X132789704Y-88977354D01*
X132789702Y-88977353D01*
X132789700Y-88977353D01*
X132759270Y-88974500D01*
X132759266Y-88974500D01*
X132759264Y-88974500D01*
X132025734Y-88974500D01*
X132025730Y-88974500D01*
X132007074Y-88976249D01*
X132001069Y-88976812D01*
X131997499Y-88976978D01*
X131995297Y-88977353D01*
X131867118Y-89022206D01*
X131757849Y-89102849D01*
X131677206Y-89212118D01*
X131632353Y-89340297D01*
X131631978Y-89342499D01*
X131631812Y-89346069D01*
X131629500Y-89370730D01*
X131629500Y-90729269D01*
X131629537Y-90729662D01*
X131630582Y-90740817D01*
X131630582Y-90740820D01*
X131632353Y-90759699D01*
X131632353Y-90759701D01*
X131673414Y-90877043D01*
X131674060Y-90878891D01*
X131674067Y-90878911D01*
X131677205Y-90887878D01*
X131677206Y-90887881D01*
X131680538Y-90892395D01*
X131757850Y-90997150D01*
X131831875Y-91051783D01*
X131867116Y-91077792D01*
X131867117Y-91077792D01*
X131867118Y-91077793D01*
X131867121Y-91077794D01*
X131872090Y-91079533D01*
X131872094Y-91079534D01*
X131960591Y-91110501D01*
X131995299Y-91122646D01*
X131995303Y-91122647D01*
X132013742Y-91124375D01*
X132025730Y-91125500D01*
X132025734Y-91125500D01*
X132025739Y-91125500D01*
X132759270Y-91125500D01*
X132759271Y-91125500D01*
X132760576Y-91125377D01*
X132789699Y-91122646D01*
X132789701Y-91122646D01*
X132853790Y-91100219D01*
X132917882Y-91077793D01*
X133027150Y-90997150D01*
X133107793Y-90887882D01*
X133141990Y-90790152D01*
X133152646Y-90759701D01*
X133152646Y-90759699D01*
X133155500Y-90729269D01*
X133155500Y-90642329D01*
X133160523Y-90607393D01*
X133164927Y-90592395D01*
X133166056Y-90590638D01*
X133202672Y-90533644D01*
X133202700Y-90533619D01*
X133202699Y-90533619D01*
X133204041Y-90532456D01*
X133258920Y-90504977D01*
X133266479Y-90503333D01*
X133292832Y-90500500D01*
X139429308Y-90500500D01*
X139429309Y-90500500D01*
X139519673Y-90476286D01*
X139543887Y-90469799D01*
X139646614Y-90410489D01*
X142537685Y-87519418D01*
X142565930Y-87498275D01*
X142589022Y-87485667D01*
X142648447Y-87470500D01*
X143282670Y-87470500D01*
X143317606Y-87475523D01*
X143332604Y-87479927D01*
X143391355Y-87517672D01*
X143392542Y-87519041D01*
X143420018Y-87573902D01*
X143421663Y-87581460D01*
X143424500Y-87607831D01*
X143424500Y-91061704D01*
X143424499Y-91061706D01*
X143424500Y-91061707D01*
X143419476Y-91096641D01*
X143412064Y-91121882D01*
X143380769Y-91174626D01*
X133629288Y-100926107D01*
X133601038Y-100947256D01*
X133591111Y-100952677D01*
X133522838Y-100967531D01*
X133457373Y-100943117D01*
X133415500Y-100887185D01*
X133412813Y-100879979D01*
X133405000Y-100836659D01*
X133405000Y-99525189D01*
X133404564Y-99523184D01*
X133393050Y-99465298D01*
X133390496Y-99452459D01*
X133390494Y-99452455D01*
X133335239Y-99369760D01*
X133252544Y-99314505D01*
X133252545Y-99314505D01*
X133252543Y-99314504D01*
X133252537Y-99314502D01*
X133203709Y-99304790D01*
X133179627Y-99300000D01*
X133179626Y-99300000D01*
X132305374Y-99300000D01*
X132305373Y-99300000D01*
X132290871Y-99302884D01*
X132232460Y-99314502D01*
X132232455Y-99314504D01*
X132149760Y-99369760D01*
X132094504Y-99452455D01*
X132094503Y-99452459D01*
X132081168Y-99519500D01*
X132080000Y-99525371D01*
X132080000Y-100874628D01*
X132091353Y-100931706D01*
X132094503Y-100947539D01*
X132094504Y-100947543D01*
X132098564Y-100953619D01*
X132149760Y-101030239D01*
X132232455Y-101085494D01*
X132232459Y-101085496D01*
X132297731Y-101098479D01*
X132300465Y-101099203D01*
X132305373Y-101100000D01*
X132305374Y-101100000D01*
X133138204Y-101100000D01*
X133173131Y-101105021D01*
X133183984Y-101108207D01*
X133242765Y-101145977D01*
X133271794Y-101209531D01*
X133261855Y-101278690D01*
X133261854Y-101278692D01*
X133258669Y-101285667D01*
X133233553Y-101321842D01*
X132878581Y-101676813D01*
X132850329Y-101697963D01*
X132828958Y-101709633D01*
X132817894Y-101712811D01*
X132811499Y-101717483D01*
X132776926Y-101724581D01*
X132776173Y-101724626D01*
X132762176Y-101724396D01*
X132762165Y-101724635D01*
X132759273Y-101724500D01*
X132759266Y-101724500D01*
X132025734Y-101724500D01*
X132025730Y-101724500D01*
X132007074Y-101726249D01*
X132001069Y-101726812D01*
X131997499Y-101726978D01*
X131995297Y-101727353D01*
X131867118Y-101772206D01*
X131790087Y-101829058D01*
X131790086Y-101829058D01*
X131757855Y-101852844D01*
X131757850Y-101852850D01*
X131677206Y-101962118D01*
X131677206Y-101962119D01*
X131667153Y-101990848D01*
X131666407Y-101992981D01*
X131632353Y-102090298D01*
X131632353Y-102090300D01*
X131630611Y-102108875D01*
X131630611Y-102108877D01*
X131629500Y-102120733D01*
X131629500Y-103479265D01*
X131631812Y-103503929D01*
X131631978Y-103507499D01*
X131632353Y-103509699D01*
X131632353Y-103509701D01*
X131677206Y-103637880D01*
X131677207Y-103637882D01*
X131757850Y-103747150D01*
X131843687Y-103810500D01*
X131867118Y-103827793D01*
X131995299Y-103872646D01*
X131995303Y-103872647D01*
X132013742Y-103874375D01*
X132025730Y-103875500D01*
X132025734Y-103875500D01*
X132025739Y-103875500D01*
X132759270Y-103875500D01*
X132759271Y-103875500D01*
X132760576Y-103875377D01*
X132789699Y-103872646D01*
X132789701Y-103872646D01*
X132853790Y-103850219D01*
X132917882Y-103827793D01*
X133027150Y-103747150D01*
X133107793Y-103637882D01*
X133144497Y-103532989D01*
X133152646Y-103509701D01*
X133152646Y-103509699D01*
X133155500Y-103479269D01*
X133155500Y-102743294D01*
X133160522Y-102708361D01*
X133167934Y-102683116D01*
X133199228Y-102630374D01*
X136730103Y-99099500D01*
X144235489Y-91594114D01*
X144294799Y-91491387D01*
X144318724Y-91402096D01*
X144325500Y-91376809D01*
X144325500Y-83550692D01*
X144294799Y-83436115D01*
X144267604Y-83389012D01*
X144235490Y-83333388D01*
X143701613Y-82799511D01*
X143650249Y-82769856D01*
X143648966Y-82769115D01*
X143629108Y-82748285D01*
X143576382Y-82734171D01*
X143576383Y-82734171D01*
X143574700Y-82733720D01*
X143574675Y-82733705D01*
X143574673Y-82733713D01*
X143484302Y-82709498D01*
X143479801Y-82708906D01*
X143459417Y-82704451D01*
X143450738Y-82701771D01*
X143448756Y-82700640D01*
X143442036Y-82699085D01*
X143437755Y-82697764D01*
X143435364Y-82696180D01*
X143419876Y-82690684D01*
X143414237Y-82687928D01*
X143376884Y-82669667D01*
X143376406Y-82669431D01*
X143376391Y-82669426D01*
X143308261Y-82659500D01*
X143308260Y-82659500D01*
X143308256Y-82659500D01*
X141591745Y-82659500D01*
X141591740Y-82659500D01*
X141591739Y-82659500D01*
X141533341Y-82668008D01*
X141523607Y-82669426D01*
X141418511Y-82720804D01*
X141335804Y-82803511D01*
X141287727Y-82901856D01*
X141284426Y-82908608D01*
X141274500Y-82976739D01*
X141274500Y-83343260D01*
X141284426Y-83411391D01*
X141335803Y-83516485D01*
X141418514Y-83599196D01*
X141418515Y-83599196D01*
X141418517Y-83599198D01*
X141523607Y-83650573D01*
X141557673Y-83655536D01*
X141591739Y-83660500D01*
X141591740Y-83660500D01*
X143219205Y-83660500D01*
X143251440Y-83664763D01*
X143252800Y-83665129D01*
X143266474Y-83669144D01*
X143272933Y-83670549D01*
X143275837Y-83671331D01*
X143303163Y-83688031D01*
X143331276Y-83703380D01*
X143331283Y-83703387D01*
X143375573Y-83747677D01*
X143396723Y-83775929D01*
X143409331Y-83799018D01*
X143424500Y-83858447D01*
X143424500Y-85057670D01*
X143424499Y-85057676D01*
X143424500Y-85057679D01*
X143419475Y-85092614D01*
X143415070Y-85107612D01*
X143377327Y-85166355D01*
X143377292Y-85166385D01*
X143377291Y-85166387D01*
X143377289Y-85166387D01*
X143375958Y-85167542D01*
X143321097Y-85195018D01*
X143313539Y-85196663D01*
X143287168Y-85199500D01*
X141591739Y-85199500D01*
X141533341Y-85208008D01*
X141523607Y-85209426D01*
X141418513Y-85260803D01*
X141332847Y-85346469D01*
X141330145Y-85349090D01*
X141322496Y-85356288D01*
X141320469Y-85357316D01*
X141316516Y-85360417D01*
X141316066Y-85359844D01*
X141304557Y-85370300D01*
X141298585Y-85374138D01*
X141298075Y-85373344D01*
X141269308Y-85383267D01*
X141260184Y-85387896D01*
X141256871Y-85387557D01*
X141235638Y-85394882D01*
X141194938Y-85389995D01*
X141184964Y-85387067D01*
X141132211Y-85355769D01*
X140149426Y-84372984D01*
X140149421Y-84372979D01*
X140128274Y-84344728D01*
X140115667Y-84321639D01*
X140100500Y-84262214D01*
X140100500Y-81491191D01*
X140105521Y-81456264D01*
X140108707Y-81445411D01*
X140146477Y-81386630D01*
X140210031Y-81357601D01*
X140279186Y-81367539D01*
X140286172Y-81370729D01*
X140322342Y-81395842D01*
X141056959Y-82130459D01*
X141057652Y-82130959D01*
X141060163Y-82132310D01*
X141116477Y-82164822D01*
X141125482Y-82170021D01*
X141201909Y-82190500D01*
X141214174Y-82190500D01*
X141249109Y-82195523D01*
X141270217Y-82201721D01*
X141320790Y-82230897D01*
X141325331Y-82235221D01*
X141334440Y-82244876D01*
X141335802Y-82246484D01*
X141418751Y-82329433D01*
X141421952Y-82330877D01*
X141523607Y-82380573D01*
X141542277Y-82383293D01*
X141557438Y-82385502D01*
X141557440Y-82385502D01*
X141557673Y-82385536D01*
X141591739Y-82390500D01*
X141591740Y-82390500D01*
X141591741Y-82390500D01*
X143308261Y-82390500D01*
X143308262Y-82390500D01*
X143312803Y-82389838D01*
X143330971Y-82387191D01*
X143376393Y-82380573D01*
X143481483Y-82329198D01*
X143564198Y-82246483D01*
X143574520Y-82225369D01*
X144700000Y-82225369D01*
X144700000Y-83099629D01*
X144700121Y-83100235D01*
X144710921Y-83154534D01*
X144714503Y-83172539D01*
X144714504Y-83172543D01*
X144725814Y-83189469D01*
X144769760Y-83255239D01*
X144852455Y-83310494D01*
X144852459Y-83310496D01*
X144917731Y-83323479D01*
X144920465Y-83324203D01*
X144925373Y-83325000D01*
X146274626Y-83325000D01*
X146274807Y-83325000D01*
X146276804Y-83324566D01*
X146347540Y-83310496D01*
X146347544Y-83310494D01*
X146430239Y-83255239D01*
X146485494Y-83172544D01*
X146485496Y-83172540D01*
X146499566Y-83101804D01*
X146500000Y-83099807D01*
X146500000Y-82225189D01*
X146499564Y-82223184D01*
X146488989Y-82170019D01*
X146485496Y-82152459D01*
X146485494Y-82152455D01*
X146430239Y-82069760D01*
X146347544Y-82014505D01*
X146347545Y-82014505D01*
X146347543Y-82014504D01*
X146347537Y-82014502D01*
X146298709Y-82004790D01*
X146274627Y-82000000D01*
X146274626Y-82000000D01*
X144925374Y-82000000D01*
X144925373Y-82000000D01*
X144910871Y-82002884D01*
X144852460Y-82014502D01*
X144852455Y-82014504D01*
X144769760Y-82069760D01*
X144714504Y-82152455D01*
X144714503Y-82152459D01*
X144700000Y-82225369D01*
X143574520Y-82225369D01*
X143590790Y-82192088D01*
X143604122Y-82164818D01*
X143615573Y-82141393D01*
X143615573Y-82141392D01*
X143625500Y-82073260D01*
X143625500Y-81706739D01*
X143615573Y-81638607D01*
X143607779Y-81622665D01*
X143565871Y-81536940D01*
X143564433Y-81533752D01*
X143564196Y-81533514D01*
X143481485Y-81450803D01*
X143376391Y-81399426D01*
X143308261Y-81389500D01*
X143308260Y-81389500D01*
X143308255Y-81389500D01*
X141591745Y-81389500D01*
X141591740Y-81389500D01*
X141591739Y-81389500D01*
X141533341Y-81398008D01*
X141523607Y-81399426D01*
X141418512Y-81450803D01*
X141410152Y-81456774D01*
X141409741Y-81456199D01*
X141394903Y-81467307D01*
X141381186Y-81474796D01*
X141312931Y-81489645D01*
X141312913Y-81489643D01*
X141312913Y-81489644D01*
X141312912Y-81489643D01*
X141311125Y-81489516D01*
X141252924Y-81470148D01*
X141246409Y-81465961D01*
X141225773Y-81449331D01*
X140549426Y-80772984D01*
X140549421Y-80772979D01*
X140528274Y-80744728D01*
X140515667Y-80721639D01*
X140500500Y-80662214D01*
X140500500Y-75843662D01*
X140505522Y-75808729D01*
X140512934Y-75783484D01*
X140544228Y-75730742D01*
X141335552Y-74939418D01*
X141363797Y-74918275D01*
X141386889Y-74905667D01*
X141446314Y-74890500D01*
X143333876Y-74890500D01*
X143341742Y-74888114D01*
X143344568Y-74887552D01*
X143376258Y-74881249D01*
X143376462Y-74881208D01*
X143388229Y-74878868D01*
X143388229Y-74878867D01*
X143388230Y-74878867D01*
X143388231Y-74878867D01*
X143388231Y-74878866D01*
X143393376Y-74877843D01*
X143403515Y-74868654D01*
X143454552Y-74834552D01*
X143498867Y-74768231D01*
X143498867Y-74768229D01*
X143498868Y-74768229D01*
X143501030Y-74757355D01*
X143501166Y-74757090D01*
X143501249Y-74756256D01*
X143510068Y-74711917D01*
X143510500Y-74709931D01*
X143510500Y-73072295D01*
X143510500Y-73070249D01*
X143510499Y-73070247D01*
X143498868Y-73011770D01*
X143498867Y-73011769D01*
X143482418Y-72987152D01*
X143473089Y-72973189D01*
X143454552Y-72945447D01*
X143417137Y-72920447D01*
X143398385Y-72907917D01*
X143393641Y-72904024D01*
X143388230Y-72901132D01*
X143388229Y-72901131D01*
X143329752Y-72889500D01*
X143329750Y-72889500D01*
X140612663Y-72889500D01*
X140577728Y-72884477D01*
X140566874Y-72881290D01*
X140508096Y-72843516D01*
X140479071Y-72779960D01*
X140481150Y-72765500D01*
X140489011Y-72710811D01*
X140492201Y-72703824D01*
X140517310Y-72667660D01*
X140785547Y-72399423D01*
X140813797Y-72378275D01*
X140836889Y-72365667D01*
X140896314Y-72350500D01*
X143333873Y-72350500D01*
X143341732Y-72348116D01*
X143361381Y-72344208D01*
X143376258Y-72341249D01*
X143382354Y-72340648D01*
X143382386Y-72340639D01*
X143393311Y-72337902D01*
X143403515Y-72328654D01*
X143454552Y-72294552D01*
X143498867Y-72228231D01*
X143498867Y-72228229D01*
X143498868Y-72228229D01*
X143501030Y-72217355D01*
X143501166Y-72217090D01*
X143501249Y-72216256D01*
X143506277Y-72190980D01*
X143510072Y-72171896D01*
X143510500Y-72169931D01*
X143510500Y-70532726D01*
X143510500Y-70530249D01*
X143510499Y-70530247D01*
X156749500Y-70530247D01*
X156749500Y-72169752D01*
X156761131Y-72228229D01*
X156761132Y-72228230D01*
X156761132Y-72228231D01*
X156761134Y-72228233D01*
X156805447Y-72294552D01*
X156871765Y-72338864D01*
X156871767Y-72338866D01*
X156871770Y-72338868D01*
X156922612Y-72348981D01*
X156925337Y-72349703D01*
X156930249Y-72350500D01*
X159669750Y-72350500D01*
X159673873Y-72350500D01*
X159681732Y-72348116D01*
X159701381Y-72344208D01*
X159716258Y-72341249D01*
X159722354Y-72340648D01*
X159722386Y-72340639D01*
X159733311Y-72337902D01*
X159743515Y-72328654D01*
X159794552Y-72294552D01*
X159838867Y-72228231D01*
X159838867Y-72228229D01*
X159838868Y-72228229D01*
X159841030Y-72217355D01*
X159841166Y-72217090D01*
X159841249Y-72216256D01*
X159846277Y-72190980D01*
X159850072Y-72171896D01*
X159850500Y-72169931D01*
X159850500Y-71942329D01*
X159855523Y-71907393D01*
X159859927Y-71892395D01*
X159860647Y-71891274D01*
X159897672Y-71833644D01*
X159897700Y-71833619D01*
X159897699Y-71833619D01*
X159899041Y-71832456D01*
X159953920Y-71804977D01*
X159961479Y-71803333D01*
X159987832Y-71800500D01*
X162988512Y-71800500D01*
X163023447Y-71805523D01*
X163038445Y-71809927D01*
X163097221Y-71847700D01*
X163114867Y-71868064D01*
X163124253Y-71880371D01*
X163234023Y-72044655D01*
X163234027Y-72044661D01*
X163380336Y-72190970D01*
X163380340Y-72190973D01*
X163380342Y-72190975D01*
X163380345Y-72190977D01*
X163380349Y-72190980D01*
X163380348Y-72190980D01*
X163380411Y-72191032D01*
X163380448Y-72191046D01*
X163552402Y-72305941D01*
X163743580Y-72385130D01*
X163934540Y-72423114D01*
X163943559Y-72424908D01*
X163945794Y-72425409D01*
X163946532Y-72425500D01*
X164153466Y-72425500D01*
X164157586Y-72425500D01*
X164165435Y-72423118D01*
X164356420Y-72385130D01*
X164547598Y-72305941D01*
X164719655Y-72190977D01*
X164865977Y-72044655D01*
X164980941Y-71872598D01*
X165060130Y-71681420D01*
X165100500Y-71478465D01*
X165100500Y-71271535D01*
X165060130Y-71068580D01*
X164980941Y-70877402D01*
X164866046Y-70705449D01*
X164866036Y-70705417D01*
X164865980Y-70705348D01*
X164865980Y-70705349D01*
X164865977Y-70705345D01*
X164865975Y-70705342D01*
X164865972Y-70705339D01*
X164865970Y-70705336D01*
X164719662Y-70559028D01*
X164719655Y-70559022D01*
X164638641Y-70504891D01*
X164638634Y-70504887D01*
X164633626Y-70501541D01*
X164547598Y-70444059D01*
X164454383Y-70405448D01*
X164356420Y-70364870D01*
X164356412Y-70364868D01*
X164356404Y-70364866D01*
X164356394Y-70364864D01*
X164153471Y-70324500D01*
X164153469Y-70324500D01*
X164153465Y-70324500D01*
X163946535Y-70324500D01*
X163946530Y-70324500D01*
X163946528Y-70324500D01*
X163743604Y-70364864D01*
X163743579Y-70364870D01*
X163552404Y-70444057D01*
X163380337Y-70559027D01*
X163234025Y-70705339D01*
X163151019Y-70829568D01*
X163131806Y-70850958D01*
X163127438Y-70855821D01*
X163111342Y-70869274D01*
X163057097Y-70895526D01*
X163050515Y-70896897D01*
X163025241Y-70899500D01*
X159992330Y-70899500D01*
X159957389Y-70894475D01*
X159942390Y-70890070D01*
X159927402Y-70880440D01*
X159910324Y-70875432D01*
X159883644Y-70852327D01*
X159882457Y-70850958D01*
X159854977Y-70796083D01*
X159853332Y-70788521D01*
X159850500Y-70762168D01*
X159850500Y-70532295D01*
X159850500Y-70530249D01*
X159850499Y-70530247D01*
X159838868Y-70471770D01*
X159838867Y-70471769D01*
X159820350Y-70444057D01*
X159815264Y-70436445D01*
X159794552Y-70405447D01*
X159758146Y-70381121D01*
X159738385Y-70367917D01*
X159733641Y-70364024D01*
X159728230Y-70361132D01*
X159728229Y-70361131D01*
X159669752Y-70349500D01*
X159669750Y-70349500D01*
X156930249Y-70349500D01*
X156930247Y-70349500D01*
X156871770Y-70361131D01*
X156871769Y-70361131D01*
X156871768Y-70361132D01*
X156871765Y-70361133D01*
X156871759Y-70361138D01*
X156805447Y-70405447D01*
X156761138Y-70471759D01*
X156761133Y-70471765D01*
X156761132Y-70471768D01*
X156761132Y-70471769D01*
X156761131Y-70471770D01*
X156749500Y-70530247D01*
X143510499Y-70530247D01*
X143509361Y-70524528D01*
X143509360Y-70524517D01*
X143498868Y-70471770D01*
X143495975Y-70466358D01*
X143492081Y-70461613D01*
X143490956Y-70459930D01*
X143454552Y-70405447D01*
X143418146Y-70381121D01*
X143398385Y-70367917D01*
X143393641Y-70364024D01*
X143388230Y-70361132D01*
X143388229Y-70361131D01*
X143329752Y-70349500D01*
X143329750Y-70349500D01*
X140952663Y-70349500D01*
X140917728Y-70344477D01*
X140906874Y-70341290D01*
X140848096Y-70303516D01*
X140819071Y-70239960D01*
X140822321Y-70217355D01*
X140829011Y-70170811D01*
X140832201Y-70163824D01*
X140857310Y-70127660D01*
X141125547Y-69859423D01*
X141153797Y-69838275D01*
X141176889Y-69825667D01*
X141236314Y-69810500D01*
X143333873Y-69810500D01*
X143341732Y-69808116D01*
X143361381Y-69804208D01*
X143376258Y-69801249D01*
X143382354Y-69800648D01*
X143382386Y-69800639D01*
X143393311Y-69797902D01*
X143403515Y-69788654D01*
X143454552Y-69754552D01*
X143498867Y-69688231D01*
X143498867Y-69688229D01*
X143498868Y-69688229D01*
X143501030Y-69677355D01*
X143501166Y-69677090D01*
X143501249Y-69676256D01*
X143505223Y-69656279D01*
X143510072Y-69631896D01*
X143510500Y-69629931D01*
X143510500Y-67992726D01*
X143510500Y-67990249D01*
X143510499Y-67990247D01*
X156749500Y-67990247D01*
X156749500Y-69629752D01*
X156761131Y-69688229D01*
X156761132Y-69688230D01*
X156761132Y-69688231D01*
X156761134Y-69688233D01*
X156805447Y-69754552D01*
X156871765Y-69798864D01*
X156871767Y-69798866D01*
X156871770Y-69798868D01*
X156922612Y-69808981D01*
X156925337Y-69809703D01*
X156930249Y-69810500D01*
X159669750Y-69810500D01*
X159673873Y-69810500D01*
X159681732Y-69808116D01*
X159701381Y-69804208D01*
X159716258Y-69801249D01*
X159722354Y-69800648D01*
X159722386Y-69800639D01*
X159733311Y-69797902D01*
X159743515Y-69788654D01*
X159794552Y-69754552D01*
X159838867Y-69688231D01*
X159838867Y-69688229D01*
X159838868Y-69688229D01*
X159841030Y-69677355D01*
X159841166Y-69677090D01*
X159841249Y-69676256D01*
X159845223Y-69656279D01*
X159850072Y-69631896D01*
X159850500Y-69629931D01*
X159850500Y-69402329D01*
X159855523Y-69367393D01*
X159859927Y-69352395D01*
X159897672Y-69293644D01*
X159897700Y-69293619D01*
X159897699Y-69293619D01*
X159899041Y-69292456D01*
X159953920Y-69264977D01*
X159961479Y-69263333D01*
X159987832Y-69260500D01*
X162988512Y-69260500D01*
X163023447Y-69265523D01*
X163038445Y-69269927D01*
X163097221Y-69307700D01*
X163114867Y-69328064D01*
X163124253Y-69340371D01*
X163225626Y-69492088D01*
X163234027Y-69504661D01*
X163380336Y-69650970D01*
X163380340Y-69650973D01*
X163380342Y-69650975D01*
X163380345Y-69650977D01*
X163380349Y-69650980D01*
X163380348Y-69650980D01*
X163380411Y-69651032D01*
X163380448Y-69651046D01*
X163552402Y-69765941D01*
X163743580Y-69845130D01*
X163934540Y-69883114D01*
X163943559Y-69884908D01*
X163945794Y-69885409D01*
X163946532Y-69885500D01*
X164153466Y-69885500D01*
X164157586Y-69885500D01*
X164165435Y-69883118D01*
X164356420Y-69845130D01*
X164547598Y-69765941D01*
X164719655Y-69650977D01*
X164865977Y-69504655D01*
X164980941Y-69332598D01*
X165060130Y-69141420D01*
X165100500Y-68938465D01*
X165100500Y-68731535D01*
X165060130Y-68528580D01*
X164980941Y-68337402D01*
X164866046Y-68165449D01*
X164866036Y-68165417D01*
X164865980Y-68165348D01*
X164865980Y-68165349D01*
X164865977Y-68165345D01*
X164865975Y-68165342D01*
X164865972Y-68165339D01*
X164865970Y-68165336D01*
X164719662Y-68019028D01*
X164719655Y-68019022D01*
X164638641Y-67964891D01*
X164638634Y-67964887D01*
X164633626Y-67961541D01*
X164547598Y-67904059D01*
X164454383Y-67865448D01*
X164356420Y-67824870D01*
X164356412Y-67824868D01*
X164356404Y-67824866D01*
X164356394Y-67824864D01*
X164153471Y-67784500D01*
X164153469Y-67784500D01*
X164153465Y-67784500D01*
X163946535Y-67784500D01*
X163946530Y-67784500D01*
X163946528Y-67784500D01*
X163743604Y-67824864D01*
X163743579Y-67824870D01*
X163552404Y-67904057D01*
X163380337Y-68019027D01*
X163234025Y-68165339D01*
X163151019Y-68289568D01*
X163131806Y-68310958D01*
X163127438Y-68315821D01*
X163111342Y-68329274D01*
X163057097Y-68355526D01*
X163050515Y-68356897D01*
X163025241Y-68359500D01*
X159992330Y-68359500D01*
X159957389Y-68354475D01*
X159942390Y-68350070D01*
X159927402Y-68340440D01*
X159910324Y-68335432D01*
X159883644Y-68312327D01*
X159882457Y-68310958D01*
X159854977Y-68256083D01*
X159853332Y-68248521D01*
X159850500Y-68222168D01*
X159850500Y-67992295D01*
X159850500Y-67990249D01*
X159850499Y-67990247D01*
X159838868Y-67931770D01*
X159838867Y-67931769D01*
X159820350Y-67904057D01*
X159815264Y-67896445D01*
X159794552Y-67865447D01*
X159758146Y-67841121D01*
X159738385Y-67827917D01*
X159733641Y-67824024D01*
X159728230Y-67821132D01*
X159728229Y-67821131D01*
X159669752Y-67809500D01*
X159669750Y-67809500D01*
X156930249Y-67809500D01*
X156930247Y-67809500D01*
X156871770Y-67821131D01*
X156871769Y-67821131D01*
X156871768Y-67821132D01*
X156871765Y-67821133D01*
X156871759Y-67821138D01*
X156805447Y-67865447D01*
X156761138Y-67931759D01*
X156761133Y-67931765D01*
X156761132Y-67931768D01*
X156761132Y-67931769D01*
X156761131Y-67931770D01*
X156749500Y-67990247D01*
X143510499Y-67990247D01*
X143509361Y-67984528D01*
X143509360Y-67984517D01*
X143498868Y-67931770D01*
X143495975Y-67926358D01*
X143492081Y-67921613D01*
X143490956Y-67919930D01*
X143454552Y-67865447D01*
X143418146Y-67841121D01*
X143398385Y-67827917D01*
X143393641Y-67824024D01*
X143388230Y-67821132D01*
X143388229Y-67821131D01*
X143329752Y-67809500D01*
X143329750Y-67809500D01*
X140952663Y-67809500D01*
X140917728Y-67804477D01*
X140906874Y-67801290D01*
X140848096Y-67763516D01*
X140819071Y-67699960D01*
X140820183Y-67692224D01*
X140829011Y-67630811D01*
X140832201Y-67623824D01*
X140857310Y-67587660D01*
X141125547Y-67319423D01*
X141153797Y-67298275D01*
X141176889Y-67285667D01*
X141236314Y-67270500D01*
X143333873Y-67270500D01*
X143341732Y-67268116D01*
X143361381Y-67264208D01*
X143376258Y-67261249D01*
X143382354Y-67260648D01*
X143382386Y-67260639D01*
X143393311Y-67257902D01*
X143403515Y-67248654D01*
X143454552Y-67214552D01*
X143498867Y-67148231D01*
X143498867Y-67148229D01*
X143498868Y-67148229D01*
X143501030Y-67137355D01*
X143501167Y-67137088D01*
X143501250Y-67136255D01*
X143509152Y-67096529D01*
X143509152Y-67096524D01*
X143510500Y-67089748D01*
X143510500Y-65450252D01*
X143510500Y-65450249D01*
X143510499Y-65450247D01*
X156749500Y-65450247D01*
X156749500Y-67089752D01*
X156761131Y-67148229D01*
X156761132Y-67148230D01*
X156761132Y-67148231D01*
X156761134Y-67148233D01*
X156805447Y-67214552D01*
X156871765Y-67258864D01*
X156871767Y-67258866D01*
X156871770Y-67258868D01*
X156922612Y-67268981D01*
X156925337Y-67269703D01*
X156930249Y-67270500D01*
X159669750Y-67270500D01*
X159673873Y-67270500D01*
X159681732Y-67268116D01*
X159701381Y-67264208D01*
X159716258Y-67261249D01*
X159722354Y-67260648D01*
X159722386Y-67260639D01*
X159733311Y-67257902D01*
X159743515Y-67248654D01*
X159794552Y-67214552D01*
X159838867Y-67148231D01*
X159838867Y-67148229D01*
X159838868Y-67148229D01*
X159841030Y-67137355D01*
X159841167Y-67137088D01*
X159841250Y-67136255D01*
X159849152Y-67096529D01*
X159849152Y-67096524D01*
X159850500Y-67089748D01*
X159850500Y-65450252D01*
X159850500Y-65450249D01*
X159850499Y-65450247D01*
X159838868Y-65391770D01*
X159838867Y-65391769D01*
X159820348Y-65364054D01*
X159807966Y-65345523D01*
X159794552Y-65325447D01*
X159742062Y-65290374D01*
X159738385Y-65287917D01*
X159733641Y-65284024D01*
X159728230Y-65281132D01*
X159728229Y-65281131D01*
X159669752Y-65269500D01*
X159669750Y-65269500D01*
X156930249Y-65269500D01*
X156930247Y-65269500D01*
X156871770Y-65281131D01*
X156871769Y-65281131D01*
X156871768Y-65281132D01*
X156871765Y-65281133D01*
X156871759Y-65281138D01*
X156805447Y-65325447D01*
X156761138Y-65391759D01*
X156761133Y-65391765D01*
X156761132Y-65391768D01*
X156761132Y-65391769D01*
X156761131Y-65391770D01*
X156749500Y-65450247D01*
X143510499Y-65450247D01*
X143509361Y-65444528D01*
X143509360Y-65444517D01*
X143498868Y-65391770D01*
X143495975Y-65386358D01*
X143492081Y-65381613D01*
X143483166Y-65368271D01*
X143454552Y-65325447D01*
X143402062Y-65290374D01*
X143398385Y-65287917D01*
X143393641Y-65284024D01*
X143388230Y-65281132D01*
X143388229Y-65281131D01*
X143329752Y-65269500D01*
X143329750Y-65269500D01*
X140590249Y-65269500D01*
X140590247Y-65269500D01*
X140531770Y-65281131D01*
X140531769Y-65281131D01*
X140531768Y-65281132D01*
X140531765Y-65281133D01*
X140531759Y-65281138D01*
X140465447Y-65325447D01*
X140421138Y-65391759D01*
X140421133Y-65391765D01*
X140421132Y-65391768D01*
X140421132Y-65391769D01*
X140421131Y-65391770D01*
X140420258Y-65396160D01*
X140409500Y-65450249D01*
X140409500Y-67089755D01*
X140410097Y-67095817D01*
X140409450Y-67095880D01*
X140410870Y-67122398D01*
X140408999Y-67143293D01*
X140389207Y-67200201D01*
X140385526Y-67205818D01*
X140369494Y-67225532D01*
X140125489Y-67469540D01*
X140125488Y-67469540D01*
X140069546Y-67525481D01*
X140069540Y-67525487D01*
X140069526Y-67525508D01*
X140030485Y-67593130D01*
X140030010Y-67593936D01*
X140029977Y-67594014D01*
X140009500Y-67670437D01*
X140009500Y-69490651D01*
X140009499Y-69490653D01*
X140009500Y-69490654D01*
X140004476Y-69525588D01*
X139997064Y-69550829D01*
X139965769Y-69603573D01*
X138759545Y-70809795D01*
X138759544Y-70809797D01*
X138759526Y-70809822D01*
X138720485Y-70877444D01*
X138720010Y-70878250D01*
X138719977Y-70878328D01*
X138699500Y-70954751D01*
X138699500Y-79901335D01*
X138695234Y-79933580D01*
X138694869Y-79934931D01*
X138690855Y-79948604D01*
X138689456Y-79955034D01*
X138688663Y-79957980D01*
X138671974Y-79985281D01*
X138656610Y-80013417D01*
X138578308Y-80091718D01*
X138550050Y-80112870D01*
X138536332Y-80120360D01*
X138468067Y-80135210D01*
X138452387Y-80134089D01*
X138431169Y-80130106D01*
X138431084Y-80130486D01*
X138426393Y-80129426D01*
X138426389Y-80129425D01*
X138426388Y-80129425D01*
X138358261Y-80119500D01*
X136641745Y-80119500D01*
X136641740Y-80119500D01*
X136641739Y-80119500D01*
X136583341Y-80128008D01*
X136573607Y-80129426D01*
X136468511Y-80180804D01*
X136385804Y-80263511D01*
X136348199Y-80340435D01*
X136334426Y-80368608D01*
X136324500Y-80436739D01*
X136324500Y-80436744D01*
X136324500Y-80735203D01*
X136324499Y-80735205D01*
X136324500Y-80735206D01*
X136320990Y-80759615D01*
X136319476Y-80770141D01*
X136316289Y-80780994D01*
X136278514Y-80839771D01*
X136214957Y-80868794D01*
X136145807Y-80858853D01*
X136138829Y-80855666D01*
X136102657Y-80830552D01*
X134649426Y-79377321D01*
X134628274Y-79349065D01*
X134615667Y-79325976D01*
X134600500Y-79266551D01*
X134600500Y-66323193D01*
X134600500Y-66323191D01*
X134569799Y-66208614D01*
X134543831Y-66163638D01*
X134543831Y-66163635D01*
X134535669Y-66149498D01*
X134510493Y-66105892D01*
X134510487Y-66105884D01*
X134510485Y-66105882D01*
X134510482Y-66105878D01*
X133204426Y-64799823D01*
X133204421Y-64799818D01*
X133183274Y-64771567D01*
X133170667Y-64748478D01*
X133155500Y-64689053D01*
X133155500Y-63945728D01*
X133153188Y-63921079D01*
X133153020Y-63917502D01*
X133152646Y-63915300D01*
X133152646Y-63915298D01*
X133107793Y-63787119D01*
X133107792Y-63787117D01*
X133107792Y-63787116D01*
X133107791Y-63787115D01*
X133094240Y-63768754D01*
X133079003Y-63748109D01*
X133027150Y-63677850D01*
X132917882Y-63597207D01*
X132917880Y-63597206D01*
X132789704Y-63552354D01*
X132789702Y-63552353D01*
X132789700Y-63552353D01*
X132759270Y-63549500D01*
X132759266Y-63549500D01*
X132759264Y-63549500D01*
X132025734Y-63549500D01*
X132025730Y-63549500D01*
X132007074Y-63551249D01*
X132001069Y-63551812D01*
X131997499Y-63551978D01*
X131995297Y-63552353D01*
X131867118Y-63597206D01*
X131757849Y-63677849D01*
X131677206Y-63787118D01*
X131632353Y-63915297D01*
X131631978Y-63917499D01*
X131631812Y-63921069D01*
X131629500Y-63945730D01*
X130230500Y-63945730D01*
X130228139Y-63920563D01*
X130228098Y-63920077D01*
X130228133Y-63919904D01*
X130228020Y-63917502D01*
X130227646Y-63915300D01*
X130227646Y-63915298D01*
X130182793Y-63787119D01*
X130182792Y-63787117D01*
X130182792Y-63787116D01*
X130182791Y-63787115D01*
X130169240Y-63768754D01*
X130154003Y-63748109D01*
X130102150Y-63677850D01*
X129992882Y-63597207D01*
X129992880Y-63597206D01*
X129864704Y-63552354D01*
X129864702Y-63552353D01*
X129864700Y-63552353D01*
X129834270Y-63549500D01*
X129834266Y-63549500D01*
X129834264Y-63549500D01*
X129100734Y-63549500D01*
X129100730Y-63549500D01*
X129082074Y-63551249D01*
X129076069Y-63551812D01*
X129072499Y-63551978D01*
X129070297Y-63552353D01*
X128942118Y-63597206D01*
X128832849Y-63677849D01*
X128752207Y-63787117D01*
X128752205Y-63787120D01*
X128733832Y-63839629D01*
X128717555Y-63870940D01*
X128708446Y-63883641D01*
X128653382Y-63926645D01*
X128642969Y-63930773D01*
X128597274Y-63939500D01*
X126584324Y-63939500D01*
X126549388Y-63934477D01*
X126524146Y-63927065D01*
X126471400Y-63895768D01*
X126419658Y-63844025D01*
X126419657Y-63844024D01*
X126333626Y-63786541D01*
X126247598Y-63729059D01*
X126247593Y-63729057D01*
X126123969Y-63677850D01*
X126056420Y-63649870D01*
X126056412Y-63649868D01*
X126056404Y-63649866D01*
X126056394Y-63649864D01*
X125853471Y-63609500D01*
X125853469Y-63609500D01*
X125853465Y-63609500D01*
X125646535Y-63609500D01*
X125646530Y-63609500D01*
X125646528Y-63609500D01*
X125443604Y-63649864D01*
X125443579Y-63649870D01*
X125252404Y-63729057D01*
X125080337Y-63844027D01*
X124934027Y-63990337D01*
X124819057Y-64162404D01*
X124739870Y-64353579D01*
X124739864Y-64353604D01*
X124699500Y-64556527D01*
X124699500Y-64556530D01*
X124699500Y-64763469D01*
X124699500Y-64763471D01*
X124699499Y-64763471D01*
X124182009Y-64763471D01*
X124413094Y-64296277D01*
X124623475Y-63870940D01*
X124935788Y-63239523D01*
X124983154Y-63188161D01*
X125046935Y-63170500D01*
X126623873Y-63170500D01*
X126631732Y-63168116D01*
X126651381Y-63164208D01*
X126666258Y-63161249D01*
X126672354Y-63160648D01*
X126672386Y-63160639D01*
X126683311Y-63157902D01*
X126693515Y-63148654D01*
X126744552Y-63114552D01*
X126788867Y-63048231D01*
X126788867Y-63048229D01*
X126788868Y-63048229D01*
X126791030Y-63037355D01*
X126791166Y-63037090D01*
X126791249Y-63036256D01*
X126800068Y-62991917D01*
X126800500Y-62989931D01*
X126800500Y-62842329D01*
X126800997Y-62838875D01*
X126805523Y-62807393D01*
X126808749Y-62796409D01*
X126809927Y-62792394D01*
X126847672Y-62733644D01*
X126847700Y-62733619D01*
X126847699Y-62733619D01*
X126849041Y-62732456D01*
X126903920Y-62704977D01*
X126904808Y-62704784D01*
X126906113Y-62704500D01*
X126911479Y-62703333D01*
X126937832Y-62700500D01*
X128639575Y-62700500D01*
X128671547Y-62705097D01*
X128674510Y-62705523D01*
X128689508Y-62709927D01*
X128748286Y-62747702D01*
X128748287Y-62747704D01*
X128755619Y-62756166D01*
X128778946Y-62796409D01*
X128790783Y-62830233D01*
X128790784Y-62830239D01*
X128790785Y-62830239D01*
X128798318Y-62851769D01*
X128802206Y-62862879D01*
X128802206Y-62862881D01*
X128802207Y-62862882D01*
X128882850Y-62972150D01*
X128992118Y-63052793D01*
X129032619Y-63066965D01*
X129120299Y-63097646D01*
X129120303Y-63097647D01*
X129138742Y-63099375D01*
X129150730Y-63100500D01*
X129150734Y-63100500D01*
X129150739Y-63100500D01*
X130084270Y-63100500D01*
X130084271Y-63100500D01*
X130085576Y-63100377D01*
X130114699Y-63097646D01*
X130114701Y-63097646D01*
X130178790Y-63075219D01*
X130242882Y-63052793D01*
X130352150Y-62972150D01*
X130397836Y-62910247D01*
X140409500Y-62910247D01*
X140409500Y-64549752D01*
X140421131Y-64608229D01*
X140421132Y-64608230D01*
X140421132Y-64608231D01*
X140421134Y-64608233D01*
X140465447Y-64674552D01*
X140531765Y-64718864D01*
X140531767Y-64718866D01*
X140531770Y-64718868D01*
X140582612Y-64728981D01*
X140585337Y-64729703D01*
X140590249Y-64730500D01*
X143329750Y-64730500D01*
X143333873Y-64730500D01*
X143341732Y-64728116D01*
X143361381Y-64724208D01*
X143376258Y-64721249D01*
X143382354Y-64720648D01*
X143382386Y-64720639D01*
X143393311Y-64717902D01*
X143403515Y-64708654D01*
X143454552Y-64674552D01*
X143498867Y-64608231D01*
X143498867Y-64608229D01*
X143498868Y-64608229D01*
X143501030Y-64597355D01*
X143501166Y-64597090D01*
X143501249Y-64596256D01*
X143506277Y-64570980D01*
X143510072Y-64551896D01*
X143510500Y-64549931D01*
X143510500Y-62912295D01*
X143510500Y-62910249D01*
X143510499Y-62910247D01*
X143498868Y-62851770D01*
X143498867Y-62851769D01*
X143480646Y-62824500D01*
X143469216Y-62807393D01*
X143454552Y-62785447D01*
X143402077Y-62750384D01*
X143398385Y-62747917D01*
X143393641Y-62744024D01*
X143388230Y-62741132D01*
X143388229Y-62741131D01*
X143329752Y-62729500D01*
X143329750Y-62729500D01*
X140590249Y-62729500D01*
X140590247Y-62729500D01*
X140531770Y-62741131D01*
X140531769Y-62741131D01*
X140531768Y-62741132D01*
X140531765Y-62741133D01*
X140531759Y-62741138D01*
X140465447Y-62785447D01*
X140421138Y-62851759D01*
X140421133Y-62851765D01*
X140421132Y-62851768D01*
X140421132Y-62851769D01*
X140421131Y-62851770D01*
X140409500Y-62910247D01*
X130397836Y-62910247D01*
X130432793Y-62862882D01*
X130459889Y-62785447D01*
X130477646Y-62734701D01*
X130477646Y-62734699D01*
X130480500Y-62704269D01*
X130480500Y-61325371D01*
X132080000Y-61325371D01*
X132080000Y-62674628D01*
X132093827Y-62744144D01*
X132094503Y-62747539D01*
X132094504Y-62747543D01*
X132100266Y-62756166D01*
X132149760Y-62830239D01*
X132232455Y-62885494D01*
X132232459Y-62885496D01*
X132297731Y-62898479D01*
X132300465Y-62899203D01*
X132305373Y-62900000D01*
X133179626Y-62900000D01*
X133179807Y-62900000D01*
X133181804Y-62899566D01*
X133252540Y-62885496D01*
X133252544Y-62885494D01*
X133335239Y-62830240D01*
X133390494Y-62747544D01*
X133390496Y-62747540D01*
X133404999Y-62674628D01*
X133405000Y-62674626D01*
X133405000Y-61325373D01*
X133405000Y-61325189D01*
X133404564Y-61323184D01*
X133390496Y-61252460D01*
X133390494Y-61252455D01*
X133366440Y-61216456D01*
X133335239Y-61169760D01*
X133262480Y-61121144D01*
X133252543Y-61114504D01*
X133252537Y-61114502D01*
X133200878Y-61104227D01*
X133179627Y-61100000D01*
X133179626Y-61100000D01*
X132305374Y-61100000D01*
X132305373Y-61100000D01*
X132290871Y-61102884D01*
X132232460Y-61114502D01*
X132232455Y-61114504D01*
X132149760Y-61169760D01*
X132094504Y-61252455D01*
X132094503Y-61252459D01*
X132086146Y-61294475D01*
X132080000Y-61325371D01*
X130480500Y-61325371D01*
X130480500Y-61295730D01*
X130477921Y-61268236D01*
X130477834Y-61266406D01*
X130477646Y-61265298D01*
X130465625Y-61230944D01*
X130440774Y-61159926D01*
X130432793Y-61137118D01*
X130352150Y-61027850D01*
X130242882Y-60947207D01*
X130242880Y-60947206D01*
X130114704Y-60902354D01*
X130114702Y-60902353D01*
X130114700Y-60902353D01*
X130084270Y-60899500D01*
X130084266Y-60899500D01*
X130084264Y-60899500D01*
X129150734Y-60899500D01*
X129150730Y-60899500D01*
X129132074Y-60901249D01*
X129126069Y-60901812D01*
X129122499Y-60901978D01*
X129120297Y-60902353D01*
X128992118Y-60947206D01*
X128882849Y-61027849D01*
X128802206Y-61137118D01*
X128780333Y-61199628D01*
X128764055Y-61230941D01*
X128754943Y-61243645D01*
X128699882Y-61286645D01*
X128689472Y-61290772D01*
X128643773Y-61299500D01*
X126929891Y-61299500D01*
X126894950Y-61294475D01*
X126879951Y-61290070D01*
X126864955Y-61280432D01*
X126847857Y-61275413D01*
X126821183Y-61252302D01*
X126816370Y-61246748D01*
X126794733Y-61202553D01*
X126793539Y-61203048D01*
X126788867Y-61191770D01*
X126788867Y-61191769D01*
X126744552Y-61125447D01*
X126706468Y-61100000D01*
X126688385Y-61087917D01*
X126683641Y-61084024D01*
X126678230Y-61081132D01*
X126678229Y-61081131D01*
X126619752Y-61069500D01*
X126619750Y-61069500D01*
X124880249Y-61069500D01*
X124880247Y-61069500D01*
X124821770Y-61081131D01*
X124821769Y-61081131D01*
X124821768Y-61081132D01*
X124821765Y-61081133D01*
X124821759Y-61081138D01*
X124755447Y-61125447D01*
X124711138Y-61191759D01*
X124711133Y-61191765D01*
X124711132Y-61191768D01*
X124711132Y-61191769D01*
X124711131Y-61191770D01*
X124700585Y-61244794D01*
X124699500Y-61250249D01*
X124699500Y-61374194D01*
X124699499Y-61374196D01*
X124699500Y-61374198D01*
X124694476Y-61409133D01*
X124688564Y-61429265D01*
X124658050Y-61481219D01*
X124653344Y-61486010D01*
X124633773Y-61502219D01*
X124553471Y-61555874D01*
X124553459Y-61555882D01*
X124553458Y-61555884D01*
X124553456Y-61555885D01*
X124344074Y-61765266D01*
X124322298Y-61782620D01*
X121568445Y-63510528D01*
X121550000Y-63520050D01*
X121546280Y-63521590D01*
X121546274Y-63521594D01*
X121353237Y-63633044D01*
X121353220Y-63633055D01*
X121294843Y-63677849D01*
X121263732Y-63701721D01*
X121247593Y-63711848D01*
X121216661Y-63735629D01*
X121203283Y-63748103D01*
X121198550Y-63751735D01*
X121198550Y-63751736D01*
X121176376Y-63768751D01*
X121176361Y-63768765D01*
X121018765Y-63926361D01*
X121018758Y-63926369D01*
X121018749Y-63926379D01*
X121018736Y-63926395D01*
X120883062Y-64103210D01*
X120883061Y-64103212D01*
X120883044Y-64103237D01*
X120771596Y-64296270D01*
X120771593Y-64296275D01*
X120771593Y-64296277D01*
X120758537Y-64327797D01*
X120745883Y-64358347D01*
X120744533Y-64360021D01*
X120744233Y-64362148D01*
X120727873Y-64388699D01*
X120722228Y-64395704D01*
X120707584Y-64405871D01*
X120702041Y-64412750D01*
X120687914Y-64419528D01*
X120664836Y-64435552D01*
X120595011Y-64438046D01*
X120534922Y-64402394D01*
X120504997Y-64346396D01*
X120503817Y-64341403D01*
X120502853Y-64333126D01*
X120501803Y-64330839D01*
X120502233Y-64327797D01*
X120500500Y-64312913D01*
X120500500Y-60370247D01*
X140409500Y-60370247D01*
X140409500Y-62009752D01*
X140421131Y-62068229D01*
X140421132Y-62068230D01*
X140421132Y-62068231D01*
X140421134Y-62068233D01*
X140465447Y-62134552D01*
X140531765Y-62178864D01*
X140531767Y-62178866D01*
X140531770Y-62178868D01*
X140582612Y-62188981D01*
X140585337Y-62189703D01*
X140590249Y-62190500D01*
X143329750Y-62190500D01*
X143333873Y-62190500D01*
X143341732Y-62188116D01*
X143361381Y-62184208D01*
X143376258Y-62181249D01*
X143382354Y-62180648D01*
X143382386Y-62180639D01*
X143393311Y-62177902D01*
X143403515Y-62168654D01*
X143454552Y-62134552D01*
X143498867Y-62068231D01*
X143498867Y-62068229D01*
X143498868Y-62068229D01*
X143501030Y-62057355D01*
X143501166Y-62057090D01*
X143501249Y-62056256D01*
X143506008Y-62032333D01*
X143510072Y-62011896D01*
X143510500Y-62009931D01*
X143510500Y-60372295D01*
X143510500Y-60370249D01*
X143510499Y-60370247D01*
X143498868Y-60311770D01*
X143498867Y-60311769D01*
X143454552Y-60245447D01*
X143418146Y-60221121D01*
X143398385Y-60207917D01*
X143393641Y-60204024D01*
X143388230Y-60201132D01*
X143388229Y-60201131D01*
X143329752Y-60189500D01*
X143329750Y-60189500D01*
X140590249Y-60189500D01*
X140590247Y-60189500D01*
X140531770Y-60201131D01*
X140531769Y-60201131D01*
X140531768Y-60201132D01*
X140531765Y-60201133D01*
X140531759Y-60201138D01*
X140465447Y-60245447D01*
X140421138Y-60311759D01*
X140421133Y-60311765D01*
X140421132Y-60311768D01*
X140421132Y-60311769D01*
X140421131Y-60311770D01*
X140409500Y-60370247D01*
X120500500Y-60370247D01*
X120500500Y-57830247D01*
X140409500Y-57830247D01*
X140409500Y-59469752D01*
X140421131Y-59528229D01*
X140421132Y-59528230D01*
X140421132Y-59528231D01*
X140421134Y-59528233D01*
X140465447Y-59594552D01*
X140531765Y-59638864D01*
X140531767Y-59638866D01*
X140531770Y-59638868D01*
X140582612Y-59648981D01*
X140585337Y-59649703D01*
X140590249Y-59650500D01*
X143329750Y-59650500D01*
X143333873Y-59650500D01*
X143341732Y-59648116D01*
X143361381Y-59644208D01*
X143376258Y-59641249D01*
X143382354Y-59640648D01*
X143382386Y-59640639D01*
X143393311Y-59637902D01*
X143403515Y-59628654D01*
X143454552Y-59594552D01*
X143498867Y-59528231D01*
X143498867Y-59528229D01*
X143498868Y-59528229D01*
X143501030Y-59517355D01*
X143501166Y-59517090D01*
X143501249Y-59516256D01*
X143510068Y-59471917D01*
X143510500Y-59469931D01*
X143510500Y-57832295D01*
X143510500Y-57830249D01*
X143510499Y-57830247D01*
X143498868Y-57771770D01*
X143498867Y-57771769D01*
X143454552Y-57705447D01*
X143418146Y-57681121D01*
X143398385Y-57667917D01*
X143393641Y-57664024D01*
X143388230Y-57661132D01*
X143388229Y-57661131D01*
X143329752Y-57649500D01*
X143329750Y-57649500D01*
X140590249Y-57649500D01*
X140590247Y-57649500D01*
X140531770Y-57661131D01*
X140531769Y-57661131D01*
X140531768Y-57661132D01*
X140526355Y-57664024D01*
X140521614Y-57667916D01*
X140465447Y-57705446D01*
X140465446Y-57705447D01*
X140438272Y-57746114D01*
X140438270Y-57746119D01*
X140421132Y-57771769D01*
X140421131Y-57771770D01*
X140409500Y-57830247D01*
X120500500Y-57830247D01*
X120500500Y-56125369D01*
X134450000Y-56125369D01*
X134450000Y-56999629D01*
X134464503Y-57072539D01*
X134464504Y-57072543D01*
X134464505Y-57072544D01*
X134519760Y-57155239D01*
X134602455Y-57210494D01*
X134602459Y-57210496D01*
X134667731Y-57223479D01*
X134670465Y-57224203D01*
X134675373Y-57225000D01*
X136024626Y-57225000D01*
X136024807Y-57225000D01*
X136026804Y-57224566D01*
X136097540Y-57210496D01*
X136097544Y-57210494D01*
X136180239Y-57155239D01*
X136235494Y-57072544D01*
X136235496Y-57072540D01*
X136249566Y-57001804D01*
X136250000Y-56999807D01*
X136250000Y-56127854D01*
X136250000Y-56125373D01*
X136249999Y-56125371D01*
X136249999Y-56125369D01*
X137250000Y-56125369D01*
X137250000Y-56999629D01*
X137264503Y-57072539D01*
X137264504Y-57072543D01*
X137264505Y-57072544D01*
X137319760Y-57155239D01*
X137402455Y-57210494D01*
X137402459Y-57210496D01*
X137467731Y-57223479D01*
X137470465Y-57224203D01*
X137475373Y-57225000D01*
X138824626Y-57225000D01*
X138824807Y-57225000D01*
X138826804Y-57224566D01*
X138897540Y-57210496D01*
X138897544Y-57210494D01*
X138980239Y-57155239D01*
X139035494Y-57072544D01*
X139035496Y-57072540D01*
X139049566Y-57001804D01*
X139050000Y-56999807D01*
X139050000Y-56910000D01*
X140610000Y-56910000D01*
X143310000Y-56910000D01*
X143310000Y-55310000D01*
X140610000Y-55310000D01*
X140610000Y-56910000D01*
X139050000Y-56910000D01*
X139050000Y-56125189D01*
X139049564Y-56123184D01*
X139035496Y-56052460D01*
X139035494Y-56052455D01*
X138980239Y-55969760D01*
X138897544Y-55914505D01*
X138897545Y-55914505D01*
X138897543Y-55914504D01*
X138897537Y-55914502D01*
X138848709Y-55904790D01*
X138824627Y-55900000D01*
X138824626Y-55900000D01*
X137475374Y-55900000D01*
X137475373Y-55900000D01*
X137460871Y-55902884D01*
X137402460Y-55914502D01*
X137402455Y-55914504D01*
X137319760Y-55969760D01*
X137264504Y-56052455D01*
X137264503Y-56052459D01*
X137250000Y-56125369D01*
X136249999Y-56125369D01*
X136235496Y-56052459D01*
X136235494Y-56052455D01*
X136180239Y-55969760D01*
X136097544Y-55914505D01*
X136097545Y-55914505D01*
X136097543Y-55914504D01*
X136097537Y-55914502D01*
X136048709Y-55904790D01*
X136024627Y-55900000D01*
X136024626Y-55900000D01*
X134675374Y-55900000D01*
X134675373Y-55900000D01*
X134660871Y-55902884D01*
X134602460Y-55914502D01*
X134602455Y-55914504D01*
X134519760Y-55969760D01*
X134464504Y-56052455D01*
X134464503Y-56052459D01*
X134450000Y-56125369D01*
X120500500Y-56125369D01*
X120500500Y-54413389D01*
X128399500Y-54413389D01*
X128399500Y-54586611D01*
X128426598Y-54757701D01*
X128480127Y-54922445D01*
X128558768Y-55076788D01*
X128660586Y-55216928D01*
X128783072Y-55339414D01*
X128923212Y-55441232D01*
X129077555Y-55519873D01*
X129242299Y-55573402D01*
X129413389Y-55600500D01*
X129413390Y-55600500D01*
X129586610Y-55600500D01*
X129586611Y-55600500D01*
X129757701Y-55573402D01*
X129922445Y-55519873D01*
X130076788Y-55441232D01*
X130216928Y-55339414D01*
X130339414Y-55216928D01*
X130441232Y-55076788D01*
X130519873Y-54922445D01*
X130573402Y-54757701D01*
X130600500Y-54586611D01*
X130600500Y-54413389D01*
X130573402Y-54242299D01*
X130519873Y-54077555D01*
X130441232Y-53923212D01*
X130339414Y-53783072D01*
X130216928Y-53660586D01*
X130076788Y-53558768D01*
X129922449Y-53480128D01*
X129771215Y-53430988D01*
X129771203Y-53430985D01*
X129757701Y-53426598D01*
X129757699Y-53426597D01*
X129757698Y-53426597D01*
X129743312Y-53424318D01*
X129743306Y-53424317D01*
X129653188Y-53410044D01*
X129626271Y-53405781D01*
X129610407Y-53403268D01*
X129586614Y-53399500D01*
X129586611Y-53399500D01*
X129413389Y-53399500D01*
X129413388Y-53399500D01*
X129373726Y-53405781D01*
X129373725Y-53405780D01*
X129242304Y-53426596D01*
X129077549Y-53480129D01*
X128923210Y-53558768D01*
X128843256Y-53616859D01*
X128843255Y-53616859D01*
X128794941Y-53651961D01*
X128787564Y-53656092D01*
X128656092Y-53787564D01*
X128651961Y-53794941D01*
X128616859Y-53843255D01*
X128616859Y-53843256D01*
X128558768Y-53923210D01*
X128480129Y-54077547D01*
X128426598Y-54242297D01*
X128426596Y-54242304D01*
X128417413Y-54300285D01*
X128417394Y-54300403D01*
X128417332Y-54300801D01*
X128399500Y-54413389D01*
X120500500Y-54413389D01*
X120500500Y-52970730D01*
X134249500Y-52970730D01*
X134249500Y-53904269D01*
X134249887Y-53908393D01*
X134251812Y-53928929D01*
X134251978Y-53932499D01*
X134252353Y-53934699D01*
X134252353Y-53934701D01*
X134297206Y-54062880D01*
X134297207Y-54062882D01*
X134377850Y-54172150D01*
X134472899Y-54242299D01*
X134487118Y-54252793D01*
X134615299Y-54297646D01*
X134615303Y-54297647D01*
X134633742Y-54299375D01*
X134645730Y-54300500D01*
X134645734Y-54300500D01*
X134645739Y-54300500D01*
X136054270Y-54300500D01*
X136054271Y-54300500D01*
X136056562Y-54300285D01*
X136084699Y-54297646D01*
X136084701Y-54297646D01*
X136148790Y-54275219D01*
X136212882Y-54252793D01*
X136322150Y-54172150D01*
X136402793Y-54062882D01*
X136422667Y-54006082D01*
X136429043Y-53987862D01*
X136429046Y-53987858D01*
X136445313Y-53956566D01*
X136454433Y-53943850D01*
X136468485Y-53932877D01*
X136469767Y-53931091D01*
X136471809Y-53930281D01*
X136509493Y-53900854D01*
X136519915Y-53896722D01*
X136565601Y-53888000D01*
X136930201Y-53888000D01*
X136965136Y-53893023D01*
X136980134Y-53897427D01*
X137038906Y-53935196D01*
X137038912Y-53935202D01*
X137038912Y-53935203D01*
X137046241Y-53943660D01*
X137069573Y-53983911D01*
X137079402Y-54012000D01*
X137097206Y-54062881D01*
X137108030Y-54077547D01*
X137177850Y-54172150D01*
X137272899Y-54242299D01*
X137287118Y-54252793D01*
X137415299Y-54297646D01*
X137415303Y-54297647D01*
X137433742Y-54299375D01*
X137445730Y-54300500D01*
X137445734Y-54300500D01*
X137445739Y-54300500D01*
X138854270Y-54300500D01*
X138854271Y-54300500D01*
X138856562Y-54300285D01*
X138884699Y-54297646D01*
X138884701Y-54297646D01*
X138948790Y-54275219D01*
X139012882Y-54252793D01*
X139122150Y-54172150D01*
X139202793Y-54062882D01*
X139222667Y-54006082D01*
X139229043Y-53987862D01*
X139229046Y-53987858D01*
X139245313Y-53956566D01*
X139254433Y-53943850D01*
X139268485Y-53932877D01*
X139269767Y-53931091D01*
X139271809Y-53930281D01*
X139309493Y-53900854D01*
X139319915Y-53896722D01*
X139365601Y-53888000D01*
X140267672Y-53888000D01*
X140302607Y-53893023D01*
X140317605Y-53897427D01*
X140376356Y-53935172D01*
X140376380Y-53935200D01*
X140376383Y-53935202D01*
X140376384Y-53935204D01*
X140377543Y-53936541D01*
X140405019Y-53991402D01*
X140406664Y-53998960D01*
X140409501Y-54025331D01*
X140409501Y-54208902D01*
X140424051Y-54300771D01*
X140424056Y-54300800D01*
X140424058Y-54300806D01*
X140480498Y-54411578D01*
X140480500Y-54411580D01*
X140568419Y-54499499D01*
X140621740Y-54526667D01*
X140679199Y-54555943D01*
X140679200Y-54555943D01*
X140679202Y-54555944D01*
X140679201Y-54555944D01*
X140720380Y-54562465D01*
X140771107Y-54570500D01*
X141835781Y-54570499D01*
X141835785Y-54570500D01*
X143184214Y-54570499D01*
X143184215Y-54570499D01*
X143202731Y-54567801D01*
X143254286Y-54560291D01*
X143254290Y-54560289D01*
X143254291Y-54560289D01*
X143362372Y-54507451D01*
X143362375Y-54507449D01*
X143447449Y-54422375D01*
X143447451Y-54422372D01*
X143473870Y-54368330D01*
X143500291Y-54314286D01*
X143510500Y-54244215D01*
X143510499Y-52895786D01*
X143500291Y-52825714D01*
X143463397Y-52750247D01*
X156749500Y-52750247D01*
X156749500Y-54389752D01*
X156761131Y-54448229D01*
X156761132Y-54448230D01*
X156761132Y-54448231D01*
X156761134Y-54448233D01*
X156805447Y-54514552D01*
X156871765Y-54558864D01*
X156871767Y-54558866D01*
X156871770Y-54558868D01*
X156922612Y-54568981D01*
X156925337Y-54569703D01*
X156930249Y-54570500D01*
X156930250Y-54570500D01*
X156930252Y-54570500D01*
X157651459Y-54570500D01*
X157848541Y-54570500D01*
X159144205Y-54570500D01*
X159179137Y-54575521D01*
X159204381Y-54582934D01*
X159257127Y-54614230D01*
X159528108Y-54885211D01*
X159549257Y-54913461D01*
X159554678Y-54923388D01*
X159569532Y-54991661D01*
X159545118Y-55057126D01*
X159489186Y-55098999D01*
X159489182Y-55099001D01*
X159481994Y-55101682D01*
X159438660Y-55109500D01*
X156930247Y-55109500D01*
X156871770Y-55121131D01*
X156871769Y-55121131D01*
X156871768Y-55121132D01*
X156871765Y-55121133D01*
X156871759Y-55121138D01*
X156805447Y-55165447D01*
X156761138Y-55231759D01*
X156761133Y-55231765D01*
X156761132Y-55231768D01*
X156761132Y-55231769D01*
X156761131Y-55231770D01*
X156749500Y-55290247D01*
X156749500Y-56929752D01*
X156761131Y-56988229D01*
X156761132Y-56988230D01*
X156761132Y-56988231D01*
X156761134Y-56988233D01*
X156805447Y-57054552D01*
X156871765Y-57098864D01*
X156871767Y-57098866D01*
X156871770Y-57098868D01*
X156922612Y-57108981D01*
X156925337Y-57109703D01*
X156930249Y-57110500D01*
X156930250Y-57110500D01*
X156930252Y-57110500D01*
X157651459Y-57110500D01*
X157848541Y-57110500D01*
X159104205Y-57110500D01*
X159139137Y-57115521D01*
X159164381Y-57122934D01*
X159217127Y-57154230D01*
X159488108Y-57425211D01*
X159509257Y-57453461D01*
X159514678Y-57463388D01*
X159529532Y-57531661D01*
X159505118Y-57597126D01*
X159449186Y-57638999D01*
X159449182Y-57639001D01*
X159441994Y-57641682D01*
X159398660Y-57649500D01*
X156930247Y-57649500D01*
X156871770Y-57661131D01*
X156871769Y-57661131D01*
X156871768Y-57661132D01*
X156871765Y-57661133D01*
X156871759Y-57661138D01*
X156805447Y-57705447D01*
X156761138Y-57771759D01*
X156761133Y-57771765D01*
X156761132Y-57771768D01*
X156761132Y-57771769D01*
X156761131Y-57771770D01*
X156749500Y-57830247D01*
X156749500Y-59469752D01*
X156761131Y-59528229D01*
X156761132Y-59528230D01*
X156761132Y-59528231D01*
X156761134Y-59528233D01*
X156805447Y-59594552D01*
X156871765Y-59638864D01*
X156871767Y-59638866D01*
X156871770Y-59638868D01*
X156922612Y-59648981D01*
X156925337Y-59649703D01*
X156930249Y-59650500D01*
X156930250Y-59650500D01*
X156930252Y-59650500D01*
X157651459Y-59650500D01*
X157848541Y-59650500D01*
X159507671Y-59650500D01*
X159542606Y-59655523D01*
X159557604Y-59659927D01*
X159616355Y-59697672D01*
X159616379Y-59697700D01*
X159616382Y-59697702D01*
X159616383Y-59697704D01*
X159617542Y-59699041D01*
X159645018Y-59753902D01*
X159646663Y-59761460D01*
X159649500Y-59787831D01*
X159649500Y-60047670D01*
X159649499Y-60047676D01*
X159649500Y-60047679D01*
X159644475Y-60082614D01*
X159640070Y-60097612D01*
X159602327Y-60156355D01*
X159602292Y-60156385D01*
X159602291Y-60156387D01*
X159602289Y-60156387D01*
X159600958Y-60157542D01*
X159546097Y-60185018D01*
X159538539Y-60186663D01*
X159512168Y-60189500D01*
X156930247Y-60189500D01*
X156871770Y-60201131D01*
X156871769Y-60201131D01*
X156871768Y-60201132D01*
X156871765Y-60201133D01*
X156871759Y-60201138D01*
X156805447Y-60245447D01*
X156761138Y-60311759D01*
X156761133Y-60311765D01*
X156761132Y-60311768D01*
X156761132Y-60311769D01*
X156761131Y-60311770D01*
X156749500Y-60370247D01*
X156749500Y-62009752D01*
X156761131Y-62068229D01*
X156761132Y-62068230D01*
X156761132Y-62068231D01*
X156761134Y-62068233D01*
X156805447Y-62134552D01*
X156871765Y-62178864D01*
X156871767Y-62178866D01*
X156871770Y-62178868D01*
X156922612Y-62188981D01*
X156925337Y-62189703D01*
X156930249Y-62190500D01*
X156930250Y-62190500D01*
X156930252Y-62190500D01*
X157651459Y-62190500D01*
X157848541Y-62190500D01*
X159507671Y-62190500D01*
X159542606Y-62195523D01*
X159557604Y-62199927D01*
X159616355Y-62237672D01*
X159616379Y-62237700D01*
X159616382Y-62237702D01*
X159616383Y-62237704D01*
X159617542Y-62239041D01*
X159645018Y-62293902D01*
X159646663Y-62301460D01*
X159649500Y-62327831D01*
X159649500Y-62439309D01*
X159673712Y-62529673D01*
X159673712Y-62529674D01*
X159679846Y-62552568D01*
X159683361Y-62571406D01*
X159685314Y-62589574D01*
X159672907Y-62658333D01*
X159625299Y-62709467D01*
X159620793Y-62712141D01*
X159557519Y-62729500D01*
X156930247Y-62729500D01*
X156871770Y-62741131D01*
X156871769Y-62741131D01*
X156871768Y-62741132D01*
X156871765Y-62741133D01*
X156871759Y-62741138D01*
X156805447Y-62785447D01*
X156761138Y-62851759D01*
X156761133Y-62851765D01*
X156761132Y-62851768D01*
X156761132Y-62851769D01*
X156761131Y-62851770D01*
X156749500Y-62910247D01*
X156749500Y-64549752D01*
X156761131Y-64608229D01*
X156761132Y-64608230D01*
X156761132Y-64608231D01*
X156761134Y-64608233D01*
X156805447Y-64674552D01*
X156871765Y-64718864D01*
X156871767Y-64718866D01*
X156871770Y-64718868D01*
X156922612Y-64728981D01*
X156925337Y-64729703D01*
X156930249Y-64730500D01*
X159669750Y-64730500D01*
X159673873Y-64730500D01*
X159681732Y-64728116D01*
X159701381Y-64724208D01*
X159716258Y-64721249D01*
X159722354Y-64720648D01*
X159722386Y-64720639D01*
X159733311Y-64717902D01*
X159743515Y-64708654D01*
X159794552Y-64674552D01*
X159838867Y-64608231D01*
X159838867Y-64608229D01*
X159838868Y-64608229D01*
X159841030Y-64597355D01*
X159841166Y-64597090D01*
X159841249Y-64596256D01*
X159846277Y-64570980D01*
X159850072Y-64551896D01*
X159850500Y-64549931D01*
X159850500Y-63084794D01*
X159855521Y-63049867D01*
X159858707Y-63039014D01*
X159896477Y-62980233D01*
X159960031Y-62951204D01*
X160029186Y-62961142D01*
X160036172Y-62964332D01*
X160072341Y-62989444D01*
X161534181Y-64451285D01*
X162985639Y-65902743D01*
X163006788Y-65930992D01*
X163016845Y-65949412D01*
X163032009Y-66007732D01*
X163032069Y-66014452D01*
X163029691Y-66039751D01*
X162999500Y-66191527D01*
X162999500Y-66191530D01*
X162999500Y-66398469D01*
X162999500Y-66398471D01*
X162999499Y-66398471D01*
X163039864Y-66601394D01*
X163039868Y-66601412D01*
X163039870Y-66601420D01*
X163119058Y-66792596D01*
X163186537Y-66893587D01*
X163234027Y-66964661D01*
X163380336Y-67110970D01*
X163380340Y-67110973D01*
X163380342Y-67110975D01*
X163380345Y-67110977D01*
X163380349Y-67110980D01*
X163380348Y-67110980D01*
X163380411Y-67111032D01*
X163380448Y-67111046D01*
X163552402Y-67225941D01*
X163743580Y-67305130D01*
X163934540Y-67343114D01*
X163943559Y-67344908D01*
X163945794Y-67345409D01*
X163946532Y-67345500D01*
X164153466Y-67345500D01*
X164157586Y-67345500D01*
X164165435Y-67343118D01*
X164356420Y-67305130D01*
X164547598Y-67225941D01*
X164719655Y-67110977D01*
X164865977Y-66964655D01*
X164980941Y-66792598D01*
X165060130Y-66601420D01*
X165100500Y-66398465D01*
X165100500Y-66191535D01*
X165060130Y-65988580D01*
X164980941Y-65797402D01*
X164866046Y-65625449D01*
X164866036Y-65625417D01*
X164865980Y-65625348D01*
X164865980Y-65625349D01*
X164865977Y-65625345D01*
X164865975Y-65625342D01*
X164865973Y-65625340D01*
X164865970Y-65625336D01*
X164719662Y-65479028D01*
X164719655Y-65479022D01*
X164620827Y-65412988D01*
X164547608Y-65364065D01*
X164547602Y-65364061D01*
X164547598Y-65364059D01*
X164547594Y-65364057D01*
X164547588Y-65364054D01*
X164538243Y-65360183D01*
X164538243Y-65360184D01*
X164538240Y-65360183D01*
X164454381Y-65325447D01*
X164356420Y-65284870D01*
X164356412Y-65284868D01*
X164356404Y-65284866D01*
X164356394Y-65284864D01*
X164153471Y-65244500D01*
X164153469Y-65244500D01*
X164153465Y-65244500D01*
X163946535Y-65244500D01*
X163946530Y-65244500D01*
X163946525Y-65244500D01*
X163764466Y-65280714D01*
X163753439Y-65282396D01*
X163714924Y-65286508D01*
X163646175Y-65274053D01*
X163633969Y-65267932D01*
X163601873Y-65244769D01*
X160599426Y-62242322D01*
X160578274Y-62214066D01*
X160565667Y-62190977D01*
X160550500Y-62131552D01*
X160550500Y-61244794D01*
X160555521Y-61209867D01*
X160557668Y-61202553D01*
X160558707Y-61199012D01*
X160596477Y-61140233D01*
X160660031Y-61111204D01*
X160729186Y-61121142D01*
X160736172Y-61124332D01*
X160772342Y-61149445D01*
X162985639Y-63362742D01*
X163006788Y-63390991D01*
X163016845Y-63409411D01*
X163020480Y-63423391D01*
X163026674Y-63432842D01*
X163032009Y-63467731D01*
X163032069Y-63474451D01*
X163029691Y-63499750D01*
X162999500Y-63651527D01*
X162999500Y-63651530D01*
X162999500Y-63858469D01*
X162999500Y-63858471D01*
X162999499Y-63858471D01*
X163025732Y-63990345D01*
X163025732Y-63990346D01*
X163039868Y-64061412D01*
X163039870Y-64061420D01*
X163119058Y-64252596D01*
X163148241Y-64296273D01*
X163234025Y-64424659D01*
X163380336Y-64570970D01*
X163380340Y-64570973D01*
X163380342Y-64570975D01*
X163380345Y-64570977D01*
X163380349Y-64570980D01*
X163380348Y-64570980D01*
X163380411Y-64571032D01*
X163380448Y-64571046D01*
X163552402Y-64685941D01*
X163743580Y-64765130D01*
X163854615Y-64787216D01*
X163943559Y-64804908D01*
X163945794Y-64805409D01*
X163946532Y-64805500D01*
X164153466Y-64805500D01*
X164157586Y-64805500D01*
X164165435Y-64803118D01*
X164356420Y-64765130D01*
X164547598Y-64685941D01*
X164719655Y-64570977D01*
X164865977Y-64424655D01*
X164980941Y-64252598D01*
X165060130Y-64061420D01*
X165100500Y-63858465D01*
X165100500Y-63651535D01*
X165060130Y-63448580D01*
X164980941Y-63257402D01*
X164866046Y-63085449D01*
X164866036Y-63085417D01*
X164865980Y-63085348D01*
X164865980Y-63085349D01*
X164865977Y-63085345D01*
X164865975Y-63085342D01*
X164865973Y-63085340D01*
X164865970Y-63085336D01*
X164719659Y-62939025D01*
X164611578Y-62866809D01*
X164611579Y-62866809D01*
X164605698Y-62862880D01*
X164547598Y-62824059D01*
X164454383Y-62785448D01*
X164449654Y-62783489D01*
X164449648Y-62783486D01*
X164386817Y-62757461D01*
X164356420Y-62744870D01*
X164356412Y-62744868D01*
X164356404Y-62744866D01*
X164356394Y-62744864D01*
X164153471Y-62704500D01*
X164153469Y-62704500D01*
X164153465Y-62704500D01*
X163946535Y-62704500D01*
X163946530Y-62704500D01*
X163946527Y-62704500D01*
X163764629Y-62740682D01*
X163753650Y-62742359D01*
X163714969Y-62746504D01*
X163646215Y-62734075D01*
X163646213Y-62734074D01*
X163646212Y-62734073D01*
X163634023Y-62727966D01*
X163601887Y-62704784D01*
X162195827Y-61298724D01*
X163199999Y-61298724D01*
X163232659Y-61462910D01*
X163232665Y-61462937D01*
X163294408Y-61611998D01*
X163296056Y-61616604D01*
X163389764Y-61756848D01*
X163508150Y-61875234D01*
X163508156Y-61875238D01*
X163508160Y-61875241D01*
X163647371Y-61968259D01*
X163647373Y-61968260D01*
X163647377Y-61968262D01*
X163763390Y-62016315D01*
X163802063Y-62032334D01*
X163802071Y-62032336D01*
X163966277Y-62064999D01*
X163966280Y-62065000D01*
X164133720Y-62065000D01*
X164133722Y-62064999D01*
X164297928Y-62032336D01*
X164297936Y-62032334D01*
X164447015Y-61970583D01*
X164451607Y-61968940D01*
X164452624Y-61968259D01*
X164452627Y-61968259D01*
X164452628Y-61968259D01*
X164591839Y-61875241D01*
X164591847Y-61875235D01*
X164710235Y-61756847D01*
X164710241Y-61756839D01*
X164803259Y-61617628D01*
X164803259Y-61617627D01*
X164803259Y-61617624D01*
X164803940Y-61616607D01*
X164805583Y-61612015D01*
X164867334Y-61462936D01*
X164867336Y-61462928D01*
X164899999Y-61298722D01*
X164900000Y-61298720D01*
X164900000Y-61131279D01*
X164899999Y-61131277D01*
X164896662Y-61114503D01*
X164867341Y-60967096D01*
X164867339Y-60967088D01*
X164867336Y-60967071D01*
X164867334Y-60967063D01*
X164805586Y-60817990D01*
X164803941Y-60813392D01*
X164710234Y-60673150D01*
X164591848Y-60554764D01*
X164452633Y-60461743D01*
X164452621Y-60461736D01*
X164297937Y-60397665D01*
X164297910Y-60397659D01*
X164133723Y-60365000D01*
X164133721Y-60365000D01*
X163966279Y-60365000D01*
X163966277Y-60365000D01*
X163802088Y-60397659D01*
X163802061Y-60397665D01*
X163653000Y-60459408D01*
X163648395Y-60461055D01*
X163508150Y-60554764D01*
X163389764Y-60673150D01*
X163296055Y-60813395D01*
X163294408Y-60818000D01*
X163232665Y-60967061D01*
X163232659Y-60967088D01*
X163200000Y-61131274D01*
X163200000Y-61131277D01*
X163200000Y-61298722D01*
X163200000Y-61298724D01*
X163199999Y-61298724D01*
X162195827Y-61298724D01*
X161299426Y-60402323D01*
X161299421Y-60402318D01*
X161278274Y-60374067D01*
X161265667Y-60350978D01*
X161250500Y-60291553D01*
X161250500Y-55460693D01*
X161250500Y-55460691D01*
X161219799Y-55346114D01*
X161187547Y-55290252D01*
X161160489Y-55243386D01*
X159899421Y-53982318D01*
X159878274Y-53954067D01*
X159865667Y-53930978D01*
X159850500Y-53871553D01*
X159850500Y-52750063D01*
X159850069Y-52748081D01*
X159838868Y-52691770D01*
X159835975Y-52686358D01*
X159832081Y-52681613D01*
X159830956Y-52679930D01*
X159794552Y-52625447D01*
X159758146Y-52601121D01*
X159738385Y-52587917D01*
X159733641Y-52584024D01*
X159728230Y-52581132D01*
X159728229Y-52581131D01*
X159669752Y-52569500D01*
X159669750Y-52569500D01*
X156930249Y-52569500D01*
X156930247Y-52569500D01*
X156871770Y-52581131D01*
X156871769Y-52581131D01*
X156871768Y-52581132D01*
X156871765Y-52581133D01*
X156871759Y-52581138D01*
X156805447Y-52625447D01*
X156761138Y-52691759D01*
X156761133Y-52691765D01*
X156761132Y-52691768D01*
X156761132Y-52691769D01*
X156761131Y-52691770D01*
X156749500Y-52750247D01*
X143463397Y-52750247D01*
X143462338Y-52748081D01*
X143449132Y-52721067D01*
X143447686Y-52717862D01*
X143447448Y-52717623D01*
X143362375Y-52632550D01*
X143362372Y-52632548D01*
X143362369Y-52632546D01*
X143264932Y-52584912D01*
X143264927Y-52584910D01*
X143254289Y-52579710D01*
X143254287Y-52579709D01*
X143254286Y-52579709D01*
X143237569Y-52577273D01*
X143237564Y-52577272D01*
X143211671Y-52573500D01*
X143184215Y-52569500D01*
X143184210Y-52569500D01*
X140747413Y-52569500D01*
X140738260Y-52574497D01*
X140731309Y-52575802D01*
X140679207Y-52584054D01*
X140679195Y-52584057D01*
X140679192Y-52584058D01*
X140568420Y-52640498D01*
X140480502Y-52728416D01*
X140480499Y-52728420D01*
X140437854Y-52812119D01*
X140430929Y-52825711D01*
X140424057Y-52839199D01*
X140418683Y-52873119D01*
X140416247Y-52881199D01*
X140413744Y-52885030D01*
X140409578Y-52898506D01*
X140402884Y-52912628D01*
X140356394Y-52964767D01*
X140353445Y-52966603D01*
X140350797Y-52968252D01*
X140285240Y-52987000D01*
X139369800Y-52987000D01*
X139369795Y-52986999D01*
X139369793Y-52987000D01*
X139334859Y-52981975D01*
X139319860Y-52977570D01*
X139261092Y-52939803D01*
X139253758Y-52931340D01*
X139230426Y-52891088D01*
X139207549Y-52825711D01*
X139203166Y-52813187D01*
X139202813Y-52812145D01*
X139192829Y-52798617D01*
X139122150Y-52702850D01*
X139012882Y-52622207D01*
X139012880Y-52622206D01*
X138914890Y-52587917D01*
X138884704Y-52577354D01*
X138884702Y-52577353D01*
X138884700Y-52577353D01*
X138854270Y-52574500D01*
X138854266Y-52574500D01*
X138854264Y-52574500D01*
X137445734Y-52574500D01*
X137445730Y-52574500D01*
X137427074Y-52576249D01*
X137421069Y-52576812D01*
X137417499Y-52576978D01*
X137415297Y-52577353D01*
X137287118Y-52622206D01*
X137177849Y-52702849D01*
X137097206Y-52812118D01*
X137070959Y-52887128D01*
X137054681Y-52918441D01*
X137045569Y-52931145D01*
X136990508Y-52974145D01*
X136980098Y-52978272D01*
X136934399Y-52987000D01*
X136569800Y-52987000D01*
X136534859Y-52981975D01*
X136519860Y-52977570D01*
X136504864Y-52967933D01*
X136487767Y-52962914D01*
X136461092Y-52939803D01*
X136453758Y-52931340D01*
X136430426Y-52891088D01*
X136407549Y-52825711D01*
X136403166Y-52813187D01*
X136402813Y-52812145D01*
X136392829Y-52798617D01*
X136322150Y-52702850D01*
X136212882Y-52622207D01*
X136212880Y-52622206D01*
X136114890Y-52587917D01*
X136084704Y-52577354D01*
X136084702Y-52577353D01*
X136084700Y-52577353D01*
X136054270Y-52574500D01*
X136054266Y-52574500D01*
X136054264Y-52574500D01*
X134645734Y-52574500D01*
X134645730Y-52574500D01*
X134627074Y-52576249D01*
X134621069Y-52576812D01*
X134617499Y-52576978D01*
X134615297Y-52577353D01*
X134487118Y-52622206D01*
X134377849Y-52702849D01*
X134297206Y-52812118D01*
X134252353Y-52940297D01*
X134252021Y-52942247D01*
X134251901Y-52945070D01*
X134251850Y-52945655D01*
X134249500Y-52970730D01*
X120500500Y-52970730D01*
X120500500Y-52006642D01*
X120500579Y-52002218D01*
X120500737Y-51997792D01*
X120500974Y-51993371D01*
X120514816Y-51799827D01*
X120515760Y-51791056D01*
X120517018Y-51782302D01*
X120518587Y-51773611D01*
X120558415Y-51590521D01*
X120560602Y-51581956D01*
X120563089Y-51573486D01*
X120565884Y-51565088D01*
X120631371Y-51389508D01*
X120634749Y-51381358D01*
X120638415Y-51373328D01*
X120642373Y-51365423D01*
X120732168Y-51200976D01*
X120736689Y-51193357D01*
X120737181Y-51192590D01*
X120741466Y-51185924D01*
X120746488Y-51178691D01*
X120858807Y-51028648D01*
X120864338Y-51021787D01*
X120870121Y-51015113D01*
X120876139Y-51008648D01*
X121008646Y-50876141D01*
X121015103Y-50870129D01*
X121021799Y-50864328D01*
X121028655Y-50858803D01*
X121178684Y-50746491D01*
X121185925Y-50741464D01*
X121193374Y-50736677D01*
X121200961Y-50732175D01*
X121365433Y-50642367D01*
X121373332Y-50638414D01*
X121381360Y-50634747D01*
X121389508Y-50631371D01*
X121565096Y-50565881D01*
X121573486Y-50563089D01*
X121581956Y-50560602D01*
X121590521Y-50558415D01*
X121773625Y-50518584D01*
X121782292Y-50517019D01*
X121791077Y-50515756D01*
X121799840Y-50514815D01*
X121993375Y-50500973D01*
X121997792Y-50500737D01*
X121998530Y-50500710D01*
X122002219Y-50500579D01*
X122006643Y-50500500D01*
X167993357Y-50500500D01*
X167997782Y-50500579D01*
G37*
%TD.AperFunction*%
%TD*%
M02*
