M48
; DRILL file KiCad 10.0.4 date 2026-07-21T15:04:48
; FORMAT={-:-/ absolute / metric / decimal}
; #@! TF.CreationDate,2026-07-21T15:04:48+10:00
; #@! TF.GenerationSoftware,Kicad,Pcbnew,10.0.4
; #@! TF.FileFunction,MixedPlating,1,2
FMAT,2
METRIC
; #@! TA.AperFunction,Plated,PTH,ViaDrill
T1C0.300
; #@! TA.AperFunction,Plated,PTH,ComponentDrill
T2C1.000
; #@! TA.AperFunction,Plated,PTH,ComponentDrill
T3C1.200
; #@! TA.AperFunction,Plated,PTH,ComponentDrill
T4C1.300
; #@! TA.AperFunction,Plated,PTH,ComponentDrill
T5C2.700
%
G90
G05
T1
X134.5Y-88.9
X137.5Y-67.3
X137.9Y-76.2
X137.9Y-77.0
X137.9Y-77.8
X138.3Y-67.3
X139.1Y-67.3
X139.8Y-86.1
X140.9Y-79.9
X140.9Y-84.1
X141.5Y-76.2
X141.5Y-77.0
X141.5Y-77.8
X142.8Y-88.2
X145.1Y-84.4
X151.0Y-77.65
X151.0Y-78.388
X152.1Y-90.05
X152.8Y-79.55
X154.1Y-80.9
X154.1Y-81.5
X155.2Y-90.2
X155.25Y-92.6
X155.6Y-81.15
X156.25Y-83.55
X156.6Y-81.15
X162.35Y-76.95
X164.4Y-79.2
T2
X125.75Y-62.12
X125.75Y-64.66
X125.75Y-67.2
X125.75Y-69.74
X125.75Y-74.82
X125.75Y-77.36
X125.75Y-79.9
X125.75Y-82.44
X125.75Y-87.52
X125.75Y-90.06
X125.75Y-92.6
X125.75Y-95.14
X125.75Y-100.22
X125.75Y-102.76
X125.75Y-105.3
X125.75Y-107.84
X142.51Y-53.57
X142.51Y-56.11
X142.51Y-58.65
X142.51Y-61.19
X142.51Y-63.73
X142.51Y-66.27
X142.51Y-68.81
X142.51Y-71.35
X142.51Y-73.89
X157.75Y-53.57
X157.75Y-56.11
X157.75Y-58.65
X157.75Y-61.19
X157.75Y-63.73
X157.75Y-66.27
X157.75Y-68.81
X157.75Y-71.35
X157.75Y-73.89
X164.05Y-61.215
X164.05Y-63.755
X164.05Y-66.295
X164.05Y-68.835
X164.05Y-71.375
X164.05Y-73.915
T3
X163.317Y-91.935
X163.317Y-94.475
T4
X139.045Y-108.774
X144.125Y-108.774
T5
X123.5Y-53.5
X123.5Y-116.5
X166.5Y-53.5
X166.5Y-116.5
M30
