%TF.GenerationSoftware,KiCad,Pcbnew,10.0.4*%
%TF.CreationDate,2026-07-21T15:04:48+10:00*%
%TF.ProjectId,led_controller,6c65645f-636f-46e7-9472-6f6c6c65722e,rev?*%
%TF.SameCoordinates,Original*%
%TF.FileFunction,Copper,L2,Bot*%
%TF.FilePolarity,Positive*%
%FSLAX46Y46*%
G04 Gerber Fmt 4.6, Leading zero omitted, Abs format (unit mm)*
G04 Created by KiCad (PCBNEW 10.0.4) date 2026-07-21 15:04:48*
%MOMM*%
%LPD*%
G01*
G04 APERTURE LIST*
G04 Aperture macros list*
%AMRoundRect*
0 Rectangle with rounded corners*
0 $1 Rounding radius*
0 $2 $3 $4 $5 $6 $7 $8 $9 X,Y pos of 4 corners*
0 Add a 4 corners polygon primitive as box body*
4,1,4,$2,$3,$4,$5,$6,$7,$8,$9,$2,$3,0*
0 Add four circle primitives for the rounded corners*
1,1,$1+$1,$2,$3*
1,1,$1+$1,$4,$5*
1,1,$1+$1,$6,$7*
1,1,$1+$1,$8,$9*
0 Add four rect primitives between the rounded corners*
20,1,$1+$1,$2,$3,$4,$5,0*
20,1,$1+$1,$4,$5,$6,$7,0*
20,1,$1+$1,$6,$7,$8,$9,0*
20,1,$1+$1,$8,$9,$2,$3,0*%
G04 Aperture macros list end*
%TA.AperFunction,ComponentPad*%
%ADD10RoundRect,0.250000X0.750000X-0.750000X0.750000X0.750000X-0.750000X0.750000X-0.750000X-0.750000X0*%
%TD*%
%TA.AperFunction,ComponentPad*%
%ADD11C,2.000000*%
%TD*%
%TA.AperFunction,ComponentPad*%
%ADD12C,5.400000*%
%TD*%
%TA.AperFunction,ComponentPad*%
%ADD13R,1.700000X1.700000*%
%TD*%
%TA.AperFunction,ComponentPad*%
%ADD14C,1.700000*%
%TD*%
%TA.AperFunction,ComponentPad*%
%ADD15RoundRect,0.250000X-1.050000X-1.050000X1.050000X-1.050000X1.050000X1.050000X-1.050000X1.050000X0*%
%TD*%
%TA.AperFunction,ComponentPad*%
%ADD16C,2.600000*%
%TD*%
%TA.AperFunction,ComponentPad*%
%ADD17RoundRect,0.160000X-0.640000X-0.640000X0.640000X-0.640000X0.640000X0.640000X-0.640000X0.640000X0*%
%TD*%
%TA.AperFunction,ComponentPad*%
%ADD18O,1.600000X1.600000*%
%TD*%
%TA.AperFunction,ViaPad*%
%ADD19C,0.600000*%
%TD*%
%TA.AperFunction,Conductor*%
%ADD20C,0.800000*%
%TD*%
G04 APERTURE END LIST*
D10*
%TO.P,J6,1,Pin_1_1*%
%TO.N,GND*%
X163317500Y-94475000D03*
D11*
%TO.P,J6,2,Pin_2_2*%
%TO.N,Net-(D2-K)*%
X163317500Y-91935000D03*
%TD*%
D12*
%TO.P,H4,1,1_1*%
%TO.N,GND*%
X166500000Y-116500000D03*
%TD*%
D13*
%TO.P,J1,1,Pin_1_1*%
%TO.N,+5V*%
X125750000Y-62120000D03*
D14*
%TO.P,J1,2,Pin_2_2*%
%TO.N,Net-(J1-Pin_2)*%
X125750000Y-64660000D03*
%TO.P,J1,3,Pin_3_3*%
%TO.N,unconnected-(J1-Pin_3-Pad3)*%
X125750000Y-67200000D03*
%TO.P,J1,4,Pin_4_4*%
%TO.N,GND*%
X125750000Y-69740000D03*
%TD*%
D13*
%TO.P,J2,1,Pin_1_1*%
%TO.N,+5V*%
X125750000Y-74820000D03*
D14*
%TO.P,J2,2,Pin_2_2*%
%TO.N,Net-(J2-Pin_2)*%
X125750000Y-77360000D03*
%TO.P,J2,3,Pin_3_3*%
%TO.N,unconnected-(J2-Pin_3-Pad3)*%
X125750000Y-79900000D03*
%TO.P,J2,4,Pin_4_4*%
%TO.N,GND*%
X125750000Y-82440000D03*
%TD*%
D12*
%TO.P,H2,1,1_1*%
%TO.N,GND*%
X166500000Y-53500000D03*
%TD*%
D15*
%TO.P,J5,1,Pin_1_1*%
%TO.N,+5V*%
X139045000Y-108774236D03*
D16*
%TO.P,J5,2,Pin_2_2*%
%TO.N,GND*%
X144125000Y-108774236D03*
%TD*%
D13*
%TO.P,J4,1,Pin_1_1*%
%TO.N,+5V*%
X125750000Y-100220000D03*
D14*
%TO.P,J4,2,Pin_2_2*%
%TO.N,Net-(J4-Pin_2)*%
X125750000Y-102760000D03*
%TO.P,J4,3,Pin_3_3*%
%TO.N,unconnected-(J4-Pin_3-Pad3)*%
X125750000Y-105300000D03*
%TO.P,J4,4,Pin_4_4*%
%TO.N,GND*%
X125750000Y-107840000D03*
%TD*%
D13*
%TO.P,J7,1,Pin_1_1*%
%TO.N,+5V*%
X164050000Y-73915000D03*
D14*
%TO.P,J7,2,Pin_2_2*%
%TO.N,IO1*%
X164050000Y-71375000D03*
%TO.P,J7,3,Pin_3_3*%
%TO.N,IO2*%
X164050000Y-68835000D03*
%TO.P,J7,4,Pin_4_4*%
%TO.N,IO3{slash}RX*%
X164050000Y-66295000D03*
%TO.P,J7,5,Pin_5_5*%
%TO.N,IO4{slash}TX*%
X164050000Y-63755000D03*
%TO.P,J7,6,Pin_6_6*%
%TO.N,GND*%
X164050000Y-61215000D03*
%TD*%
D17*
%TO.P,U3,1,5V/VIN_1*%
%TO.N,+4.6V*%
X142510000Y-53570000D03*
D18*
%TO.P,U3,2,GND_2*%
%TO.N,GND*%
X142510000Y-56110000D03*
%TO.P,U3,3,3V3_3*%
%TO.N,+3.3V*%
X142510000Y-58650000D03*
%TO.P,U3,4,S3_GPIO1/C6_GPIO0_4*%
%TO.N,unconnected-(U3-S3_GPIO1{slash}C6_GPIO0-Pad4)*%
X142510000Y-61190000D03*
%TO.P,U3,5,S3_GPIO2/C6_GPIO1_5*%
%TO.N,unconnected-(U3-S3_GPIO2{slash}C6_GPIO1-Pad5)*%
X142510000Y-63730000D03*
%TO.P,U3,6,S3_GPIO3/C6_GPIO2_6*%
%TO.N,DATA1*%
X142510000Y-66270000D03*
%TO.P,U3,7,S3_GPIO4/C6_GPIO3_7*%
%TO.N,DATA2*%
X142510000Y-68810000D03*
%TO.P,U3,8,S3_GPIO5/C6_GPIO4_8*%
%TO.N,DATA3*%
X142510000Y-71350000D03*
%TO.P,U3,9,S3_GPIO6/C6_GPIO5_9*%
%TO.N,DATA4*%
X142510000Y-73890000D03*
%TO.P,U3,10,S3_GPIO7/C6_GPIO22_10*%
%TO.N,Net-(D2-A)*%
X157750000Y-73890000D03*
%TO.P,U3,11,S3_GPIO8/C6_GPIO21_11*%
%TO.N,IO1*%
X157750000Y-71350000D03*
%TO.P,U3,12,S3_GPIO9/C6_GPIO20_12*%
%TO.N,IO2*%
X157750000Y-68810000D03*
%TO.P,U3,13,S3_GPIO10/C6_GPIO19_13*%
%TO.N,unconnected-(U3-S3_GPIO10{slash}C6_GPIO19-Pad13)*%
X157750000Y-66270000D03*
%TO.P,U3,14,S3_GPIO11/C6_GPIO18_14*%
%TO.N,unconnected-(U3-S3_GPIO11{slash}C6_GPIO18-Pad14)_1*%
X157750000Y-63730000D03*
%TO.P,U3,15,S3_GPIO12/C6_GPIO15_15*%
%TO.N,unconnected-(U3-S3_GPIO12{slash}C6_GPIO15-Pad15)_1*%
X157750000Y-61190000D03*
%TO.P,U3,16,S3_GPIO13/C6_GPIO14_16*%
%TO.N,unconnected-(U3-S3_GPIO13{slash}C6_GPIO14-Pad16)*%
X157750000Y-58650000D03*
%TO.P,U3,17,S3_GPIO44_RX/C6_RX_17*%
%TO.N,IO3{slash}RX*%
X157750000Y-56110000D03*
%TO.P,U3,18,S3_GPIO43_TX/C6_TX_18*%
%TO.N,IO4{slash}TX*%
X157750000Y-53570000D03*
%TD*%
D13*
%TO.P,J3,1,Pin_1_1*%
%TO.N,+5V*%
X125750000Y-87520001D03*
D14*
%TO.P,J3,2,Pin_2_2*%
%TO.N,Net-(J3-Pin_2)*%
X125750000Y-90060001D03*
%TO.P,J3,3,Pin_3_3*%
%TO.N,unconnected-(J3-Pin_3-Pad3)*%
X125750000Y-92600001D03*
%TO.P,J3,4,Pin_4_4*%
%TO.N,GND*%
X125750000Y-95140001D03*
%TD*%
D12*
%TO.P,H1,1,1_1*%
%TO.N,GND*%
X123500000Y-53500000D03*
%TD*%
%TO.P,H3,1,1_1*%
%TO.N,GND*%
X123500000Y-116500000D03*
%TD*%
D19*
%TO.N,GND*%
X141500000Y-77800000D03*
X141500000Y-77000000D03*
X156250000Y-83550000D03*
X164400000Y-79200000D03*
X162350000Y-76950000D03*
X139800000Y-86100000D03*
X138300000Y-67300000D03*
X134500000Y-88900000D03*
X137500000Y-67300000D03*
X140900000Y-84100000D03*
X137900000Y-77000000D03*
X139100000Y-67300000D03*
X155250000Y-92600000D03*
X145100000Y-84400000D03*
X141500000Y-76200000D03*
X156600000Y-81150000D03*
X155600000Y-81150000D03*
X137900000Y-76200000D03*
X152100000Y-90050000D03*
X155200000Y-90200000D03*
X142800000Y-88200000D03*
X140900000Y-79900000D03*
X137900000Y-77800000D03*
X152800000Y-79550000D03*
%TO.N,+3.3V*%
X151000000Y-77650000D03*
X151000000Y-78387500D03*
%TO.N,+4.6V*%
X154100000Y-80900000D03*
X154100000Y-81500000D03*
%TD*%
%TO.N,+3.3V*%
D20*
X142510000Y-58650000D02*
X151000000Y-67140000D01*
X151000000Y-67140000D02*
X151000000Y-78387500D01*
%TO.N,+4.6V*%
X154100000Y-81500000D02*
X154100000Y-65160000D01*
X154100000Y-65160000D02*
X142510000Y-53570000D01*
%TD*%
%TA.AperFunction,Conductor*%
%TO.N,GND*%
G36*
X168004418Y-50500816D02*
G01*
X168204561Y-50515130D01*
X168222063Y-50517647D01*
X168413797Y-50559355D01*
X168430755Y-50564334D01*
X168614601Y-50632906D01*
X168614609Y-50632909D01*
X168630701Y-50640259D01*
X168802904Y-50734288D01*
X168817784Y-50743849D01*
X168974863Y-50861438D01*
X168974867Y-50861441D01*
X168988237Y-50873027D01*
X169126972Y-51011762D01*
X169138558Y-51025132D01*
X169256144Y-51182208D01*
X169256146Y-51182210D01*
X169265711Y-51197095D01*
X169359740Y-51369298D01*
X169367090Y-51385390D01*
X169435662Y-51569236D01*
X169440645Y-51586209D01*
X169440646Y-51586212D01*
X169482351Y-51777931D01*
X169484869Y-51795442D01*
X169499184Y-51995580D01*
X169499500Y-52004427D01*
X169499500Y-117995572D01*
X169499184Y-118004419D01*
X169484869Y-118204556D01*
X169482351Y-118222067D01*
X169440644Y-118413789D01*
X169435660Y-118430764D01*
X169367092Y-118614604D01*
X169359742Y-118630698D01*
X169265708Y-118802907D01*
X169256143Y-118817790D01*
X169138560Y-118974863D01*
X169126974Y-118988234D01*
X168988234Y-119126974D01*
X168974863Y-119138560D01*
X168817790Y-119256143D01*
X168802907Y-119265708D01*
X168630698Y-119359742D01*
X168614604Y-119367092D01*
X168430764Y-119435660D01*
X168413789Y-119440644D01*
X168222067Y-119482351D01*
X168204556Y-119484869D01*
X168021731Y-119497945D01*
X168004417Y-119499184D01*
X167995572Y-119499500D01*
X122004428Y-119499500D01*
X121995582Y-119499184D01*
X121973622Y-119497613D01*
X121795442Y-119484869D01*
X121777931Y-119482351D01*
X121586212Y-119440646D01*
X121569236Y-119435662D01*
X121385390Y-119367090D01*
X121369298Y-119359740D01*
X121197095Y-119265711D01*
X121182210Y-119256146D01*
X121025132Y-119138558D01*
X121011762Y-119126972D01*
X120873027Y-118988237D01*
X120861441Y-118974867D01*
X120743854Y-118817790D01*
X120743849Y-118817784D01*
X120734288Y-118802904D01*
X120640259Y-118630701D01*
X120632909Y-118614609D01*
X120632907Y-118614604D01*
X120564334Y-118430755D01*
X120559354Y-118413789D01*
X120517647Y-118222064D01*
X120515130Y-118204556D01*
X120500816Y-118004418D01*
X120500500Y-117995572D01*
X120500500Y-107756277D01*
X124900000Y-107756277D01*
X124900000Y-107923722D01*
X124932663Y-108087928D01*
X124932665Y-108087936D01*
X124996740Y-108242627D01*
X124996740Y-108242628D01*
X125089758Y-108381839D01*
X125089764Y-108381847D01*
X125208152Y-108500235D01*
X125208160Y-108500241D01*
X125347371Y-108593259D01*
X125502063Y-108657334D01*
X125502071Y-108657336D01*
X125666277Y-108689999D01*
X125666280Y-108690000D01*
X125833720Y-108690000D01*
X125833722Y-108689999D01*
X125997928Y-108657336D01*
X125997936Y-108657334D01*
X126152627Y-108593259D01*
X126152628Y-108593259D01*
X126291839Y-108500241D01*
X126291847Y-108500235D01*
X126410235Y-108381847D01*
X126410241Y-108381839D01*
X126503259Y-108242628D01*
X126503259Y-108242627D01*
X126567334Y-108087936D01*
X126567336Y-108087928D01*
X126599999Y-107923722D01*
X126600000Y-107923720D01*
X126600000Y-107756279D01*
X126587067Y-107691263D01*
X126587067Y-107691262D01*
X126582831Y-107669966D01*
X137544500Y-107669966D01*
X137544500Y-109878505D01*
X137547353Y-109908935D01*
X137547353Y-109908937D01*
X137592206Y-110037116D01*
X137592207Y-110037118D01*
X137672850Y-110146386D01*
X137782118Y-110227029D01*
X137824845Y-110241980D01*
X137910299Y-110271882D01*
X137940730Y-110274736D01*
X137940734Y-110274736D01*
X140149270Y-110274736D01*
X140179699Y-110271882D01*
X140179701Y-110271882D01*
X140243790Y-110249455D01*
X140307882Y-110227029D01*
X140417150Y-110146386D01*
X140497793Y-110037118D01*
X140520219Y-109973026D01*
X140542646Y-109908937D01*
X140542646Y-109908935D01*
X140545500Y-109878505D01*
X140545500Y-108671918D01*
X142825000Y-108671918D01*
X142825000Y-108876553D01*
X142857009Y-109078653D01*
X142920244Y-109273267D01*
X143013140Y-109455585D01*
X143133417Y-109621130D01*
X143133417Y-109621131D01*
X143278104Y-109765818D01*
X143443650Y-109886095D01*
X143625968Y-109978991D01*
X143820582Y-110042226D01*
X144022683Y-110074236D01*
X144227317Y-110074236D01*
X144429417Y-110042226D01*
X144624031Y-109978991D01*
X144806349Y-109886095D01*
X144971894Y-109765818D01*
X144971895Y-109765818D01*
X145116582Y-109621131D01*
X145116582Y-109621130D01*
X145236859Y-109455585D01*
X145329755Y-109273267D01*
X145392990Y-109078653D01*
X145425000Y-108876553D01*
X145425000Y-108671918D01*
X145392990Y-108469818D01*
X145329755Y-108275204D01*
X145236859Y-108092886D01*
X145116582Y-107927341D01*
X145116582Y-107927340D01*
X144971895Y-107782653D01*
X144806349Y-107662376D01*
X144624031Y-107569480D01*
X144429417Y-107506245D01*
X144227317Y-107474236D01*
X144022683Y-107474236D01*
X143820582Y-107506245D01*
X143625968Y-107569480D01*
X143443650Y-107662376D01*
X143278105Y-107782653D01*
X143278104Y-107782653D01*
X143133417Y-107927340D01*
X143133417Y-107927341D01*
X143013140Y-108092886D01*
X142920244Y-108275204D01*
X142857009Y-108469818D01*
X142825000Y-108671918D01*
X140545500Y-108671918D01*
X140545500Y-107669966D01*
X140542646Y-107639536D01*
X140542646Y-107639534D01*
X140497793Y-107511355D01*
X140497792Y-107511353D01*
X140494022Y-107506245D01*
X140417150Y-107402086D01*
X140307882Y-107321443D01*
X140307880Y-107321442D01*
X140179700Y-107276589D01*
X140149270Y-107273736D01*
X140149266Y-107273736D01*
X137940734Y-107273736D01*
X137940730Y-107273736D01*
X137910300Y-107276589D01*
X137910298Y-107276589D01*
X137782119Y-107321442D01*
X137782117Y-107321443D01*
X137672850Y-107402086D01*
X137592207Y-107511353D01*
X137592206Y-107511355D01*
X137547353Y-107639534D01*
X137547353Y-107639536D01*
X137544500Y-107669966D01*
X126582831Y-107669966D01*
X126567336Y-107592071D01*
X126567334Y-107592063D01*
X126503259Y-107437372D01*
X126503259Y-107437371D01*
X126410241Y-107298160D01*
X126410235Y-107298152D01*
X126291847Y-107179764D01*
X126291839Y-107179758D01*
X126152628Y-107086740D01*
X125997936Y-107022665D01*
X125997928Y-107022663D01*
X125833721Y-106990000D01*
X125666279Y-106990000D01*
X125502071Y-107022663D01*
X125502063Y-107022665D01*
X125347372Y-107086740D01*
X125347371Y-107086740D01*
X125208160Y-107179758D01*
X125208152Y-107179764D01*
X125089764Y-107298152D01*
X125089758Y-107298160D01*
X124996740Y-107437371D01*
X124996740Y-107437372D01*
X124932665Y-107592063D01*
X124932663Y-107592071D01*
X124900000Y-107756277D01*
X120500500Y-107756277D01*
X120500500Y-105196530D01*
X124699500Y-105196530D01*
X124699500Y-105403469D01*
X124739868Y-105606412D01*
X124739870Y-105606420D01*
X124819058Y-105797596D01*
X124934024Y-105969657D01*
X125080342Y-106115975D01*
X125080345Y-106115977D01*
X125252402Y-106230941D01*
X125443580Y-106310130D01*
X125646530Y-106350499D01*
X125646534Y-106350500D01*
X125646535Y-106350500D01*
X125853466Y-106350500D01*
X125853467Y-106350499D01*
X126056420Y-106310130D01*
X126247598Y-106230941D01*
X126419655Y-106115977D01*
X126565977Y-105969655D01*
X126680941Y-105797598D01*
X126760130Y-105606420D01*
X126800500Y-105403465D01*
X126800500Y-105196535D01*
X126760130Y-104993580D01*
X126680941Y-104802402D01*
X126565977Y-104630345D01*
X126565975Y-104630342D01*
X126419657Y-104484024D01*
X126333626Y-104426541D01*
X126247598Y-104369059D01*
X126056420Y-104289870D01*
X126056412Y-104289868D01*
X125853469Y-104249500D01*
X125853465Y-104249500D01*
X125646535Y-104249500D01*
X125646530Y-104249500D01*
X125443587Y-104289868D01*
X125443579Y-104289870D01*
X125252403Y-104369058D01*
X125080342Y-104484024D01*
X124934024Y-104630342D01*
X124819058Y-104802403D01*
X124739870Y-104993579D01*
X124739868Y-104993587D01*
X124699500Y-105196530D01*
X120500500Y-105196530D01*
X120500500Y-102656530D01*
X124699500Y-102656530D01*
X124699500Y-102863469D01*
X124739868Y-103066412D01*
X124739870Y-103066420D01*
X124819058Y-103257596D01*
X124934024Y-103429657D01*
X125080342Y-103575975D01*
X125080345Y-103575977D01*
X125252402Y-103690941D01*
X125443580Y-103770130D01*
X125646530Y-103810499D01*
X125646534Y-103810500D01*
X125646535Y-103810500D01*
X125853466Y-103810500D01*
X125853467Y-103810499D01*
X126056420Y-103770130D01*
X126247598Y-103690941D01*
X126419655Y-103575977D01*
X126565977Y-103429655D01*
X126680941Y-103257598D01*
X126760130Y-103066420D01*
X126800500Y-102863465D01*
X126800500Y-102656535D01*
X126760130Y-102453580D01*
X126680941Y-102262402D01*
X126565977Y-102090345D01*
X126565975Y-102090342D01*
X126419657Y-101944024D01*
X126333626Y-101886541D01*
X126247598Y-101829059D01*
X126056420Y-101749870D01*
X126056412Y-101749868D01*
X125853469Y-101709500D01*
X125853465Y-101709500D01*
X125646535Y-101709500D01*
X125646530Y-101709500D01*
X125443587Y-101749868D01*
X125443579Y-101749870D01*
X125252403Y-101829058D01*
X125080342Y-101944024D01*
X124934024Y-102090342D01*
X124819058Y-102262403D01*
X124739870Y-102453579D01*
X124739868Y-102453587D01*
X124699500Y-102656530D01*
X120500500Y-102656530D01*
X120500500Y-99350247D01*
X124699500Y-99350247D01*
X124699500Y-101089752D01*
X124711131Y-101148229D01*
X124711132Y-101148230D01*
X124755447Y-101214552D01*
X124821769Y-101258867D01*
X124821770Y-101258868D01*
X124880247Y-101270499D01*
X124880250Y-101270500D01*
X124880252Y-101270500D01*
X126619750Y-101270500D01*
X126619751Y-101270499D01*
X126634568Y-101267552D01*
X126678229Y-101258868D01*
X126678229Y-101258867D01*
X126678231Y-101258867D01*
X126744552Y-101214552D01*
X126788867Y-101148231D01*
X126788867Y-101148229D01*
X126788868Y-101148229D01*
X126800499Y-101089752D01*
X126800500Y-101089750D01*
X126800500Y-99350249D01*
X126800499Y-99350247D01*
X126788868Y-99291770D01*
X126788867Y-99291769D01*
X126744552Y-99225447D01*
X126678230Y-99181132D01*
X126678229Y-99181131D01*
X126619752Y-99169500D01*
X126619748Y-99169500D01*
X124880252Y-99169500D01*
X124880247Y-99169500D01*
X124821770Y-99181131D01*
X124821769Y-99181132D01*
X124755447Y-99225447D01*
X124711132Y-99291769D01*
X124711131Y-99291770D01*
X124699500Y-99350247D01*
X120500500Y-99350247D01*
X120500500Y-95056278D01*
X124900000Y-95056278D01*
X124900000Y-95223723D01*
X124932663Y-95387929D01*
X124932665Y-95387937D01*
X124996740Y-95542628D01*
X124996740Y-95542629D01*
X125089758Y-95681840D01*
X125089764Y-95681848D01*
X125208152Y-95800236D01*
X125208160Y-95800242D01*
X125347371Y-95893260D01*
X125502063Y-95957335D01*
X125502071Y-95957337D01*
X125666277Y-95990000D01*
X125666280Y-95990001D01*
X125833720Y-95990001D01*
X125833722Y-95990000D01*
X125997928Y-95957337D01*
X125997936Y-95957335D01*
X126152627Y-95893260D01*
X126152628Y-95893260D01*
X126291839Y-95800242D01*
X126291847Y-95800236D01*
X126410235Y-95681848D01*
X126410241Y-95681840D01*
X126503259Y-95542629D01*
X126503259Y-95542628D01*
X126567334Y-95387937D01*
X126567336Y-95387929D01*
X126599999Y-95223723D01*
X126600000Y-95223721D01*
X126600000Y-95056280D01*
X126599999Y-95056278D01*
X126567336Y-94892072D01*
X126567334Y-94892064D01*
X126503259Y-94737373D01*
X126503259Y-94737372D01*
X126410241Y-94598161D01*
X126410235Y-94598153D01*
X126291847Y-94479765D01*
X126291839Y-94479759D01*
X126152628Y-94386741D01*
X125997936Y-94322666D01*
X125997928Y-94322664D01*
X125833721Y-94290001D01*
X125666279Y-94290001D01*
X125502071Y-94322664D01*
X125502063Y-94322666D01*
X125347372Y-94386741D01*
X125347371Y-94386741D01*
X125208160Y-94479759D01*
X125208152Y-94479765D01*
X125089764Y-94598153D01*
X125089758Y-94598161D01*
X124996740Y-94737372D01*
X124996740Y-94737373D01*
X124932665Y-94892064D01*
X124932663Y-94892072D01*
X124900000Y-95056278D01*
X120500500Y-95056278D01*
X120500500Y-93700371D01*
X162317500Y-93700371D01*
X162317500Y-95249628D01*
X162332003Y-95322540D01*
X162332005Y-95322544D01*
X162387260Y-95405239D01*
X162469955Y-95460494D01*
X162469959Y-95460496D01*
X162542871Y-95474999D01*
X162542874Y-95475000D01*
X164092126Y-95475000D01*
X164092128Y-95474999D01*
X164165040Y-95460496D01*
X164165044Y-95460494D01*
X164247739Y-95405239D01*
X164302994Y-95322544D01*
X164302996Y-95322540D01*
X164317499Y-95249628D01*
X164317500Y-95249626D01*
X164317500Y-93700373D01*
X164317499Y-93700371D01*
X164302996Y-93627459D01*
X164302994Y-93627455D01*
X164247739Y-93544760D01*
X164165044Y-93489505D01*
X164165040Y-93489503D01*
X164092127Y-93475000D01*
X162542873Y-93475000D01*
X162469959Y-93489503D01*
X162469955Y-93489505D01*
X162387260Y-93544760D01*
X162332005Y-93627455D01*
X162332003Y-93627459D01*
X162317500Y-93700371D01*
X120500500Y-93700371D01*
X120500500Y-92496531D01*
X124699500Y-92496531D01*
X124699500Y-92703470D01*
X124728784Y-92850690D01*
X124739870Y-92906421D01*
X124819059Y-93097599D01*
X124876541Y-93183627D01*
X124934024Y-93269658D01*
X125080342Y-93415976D01*
X125080345Y-93415978D01*
X125252402Y-93530942D01*
X125443580Y-93610131D01*
X125646530Y-93650500D01*
X125646534Y-93650501D01*
X125646535Y-93650501D01*
X125853466Y-93650501D01*
X125853467Y-93650500D01*
X126056420Y-93610131D01*
X126247598Y-93530942D01*
X126419655Y-93415978D01*
X126565977Y-93269656D01*
X126680941Y-93097599D01*
X126760130Y-92906421D01*
X126800500Y-92703466D01*
X126800500Y-92496536D01*
X126760130Y-92293581D01*
X126680941Y-92102403D01*
X126565977Y-91930346D01*
X126565975Y-91930343D01*
X126476145Y-91840513D01*
X162117000Y-91840513D01*
X162117000Y-92029486D01*
X162146559Y-92216118D01*
X162204954Y-92395836D01*
X162256264Y-92496536D01*
X162290740Y-92564199D01*
X162401810Y-92717073D01*
X162535427Y-92850690D01*
X162688301Y-92961760D01*
X162767847Y-93002290D01*
X162856663Y-93047545D01*
X162856665Y-93047545D01*
X162856668Y-93047547D01*
X162952997Y-93078846D01*
X163036381Y-93105940D01*
X163223014Y-93135500D01*
X163223019Y-93135500D01*
X163411986Y-93135500D01*
X163598618Y-93105940D01*
X163778332Y-93047547D01*
X163946699Y-92961760D01*
X164099573Y-92850690D01*
X164233190Y-92717073D01*
X164344260Y-92564199D01*
X164430047Y-92395832D01*
X164488440Y-92216118D01*
X164518000Y-92029486D01*
X164518000Y-91840513D01*
X164488440Y-91653881D01*
X164430045Y-91474163D01*
X164344259Y-91305800D01*
X164233190Y-91152927D01*
X164099573Y-91019310D01*
X163946699Y-90908240D01*
X163778336Y-90822454D01*
X163598618Y-90764059D01*
X163411986Y-90734500D01*
X163411981Y-90734500D01*
X163223019Y-90734500D01*
X163223014Y-90734500D01*
X163036381Y-90764059D01*
X162856663Y-90822454D01*
X162688300Y-90908240D01*
X162601079Y-90971610D01*
X162535427Y-91019310D01*
X162535425Y-91019312D01*
X162535424Y-91019312D01*
X162401812Y-91152924D01*
X162401812Y-91152925D01*
X162401810Y-91152927D01*
X162354110Y-91218579D01*
X162290740Y-91305800D01*
X162204954Y-91474163D01*
X162146559Y-91653881D01*
X162117000Y-91840513D01*
X126476145Y-91840513D01*
X126419657Y-91784025D01*
X126333626Y-91726542D01*
X126247598Y-91669060D01*
X126210955Y-91653882D01*
X126056420Y-91589871D01*
X126056412Y-91589869D01*
X125853469Y-91549501D01*
X125853465Y-91549501D01*
X125646535Y-91549501D01*
X125646530Y-91549501D01*
X125443587Y-91589869D01*
X125443579Y-91589871D01*
X125252403Y-91669059D01*
X125080342Y-91784025D01*
X124934024Y-91930343D01*
X124819058Y-92102404D01*
X124739870Y-92293580D01*
X124739868Y-92293588D01*
X124699500Y-92496531D01*
X120500500Y-92496531D01*
X120500500Y-89956531D01*
X124699500Y-89956531D01*
X124699500Y-90163470D01*
X124739868Y-90366413D01*
X124739870Y-90366421D01*
X124819058Y-90557597D01*
X124934024Y-90729658D01*
X125080342Y-90875976D01*
X125080345Y-90875978D01*
X125252402Y-90990942D01*
X125443580Y-91070131D01*
X125646530Y-91110500D01*
X125646534Y-91110501D01*
X125646535Y-91110501D01*
X125853466Y-91110501D01*
X125853467Y-91110500D01*
X126056420Y-91070131D01*
X126247598Y-90990942D01*
X126419655Y-90875978D01*
X126565977Y-90729656D01*
X126680941Y-90557599D01*
X126760130Y-90366421D01*
X126800500Y-90163466D01*
X126800500Y-89956536D01*
X126760130Y-89753581D01*
X126680941Y-89562403D01*
X126565977Y-89390346D01*
X126565975Y-89390343D01*
X126419657Y-89244025D01*
X126333626Y-89186542D01*
X126247598Y-89129060D01*
X126056420Y-89049871D01*
X126056412Y-89049869D01*
X125853469Y-89009501D01*
X125853465Y-89009501D01*
X125646535Y-89009501D01*
X125646530Y-89009501D01*
X125443587Y-89049869D01*
X125443579Y-89049871D01*
X125252403Y-89129059D01*
X125080342Y-89244025D01*
X124934024Y-89390343D01*
X124819058Y-89562404D01*
X124739870Y-89753580D01*
X124739868Y-89753588D01*
X124699500Y-89956531D01*
X120500500Y-89956531D01*
X120500500Y-86650248D01*
X124699500Y-86650248D01*
X124699500Y-88389753D01*
X124711131Y-88448230D01*
X124711132Y-88448231D01*
X124755447Y-88514553D01*
X124821769Y-88558868D01*
X124821770Y-88558869D01*
X124880247Y-88570500D01*
X124880250Y-88570501D01*
X124880252Y-88570501D01*
X126619750Y-88570501D01*
X126619751Y-88570500D01*
X126634568Y-88567553D01*
X126678229Y-88558869D01*
X126678229Y-88558868D01*
X126678231Y-88558868D01*
X126744552Y-88514553D01*
X126788867Y-88448232D01*
X126788867Y-88448230D01*
X126788868Y-88448230D01*
X126800499Y-88389753D01*
X126800500Y-88389751D01*
X126800500Y-86650250D01*
X126800499Y-86650248D01*
X126788868Y-86591771D01*
X126788867Y-86591770D01*
X126744552Y-86525448D01*
X126678230Y-86481133D01*
X126678229Y-86481132D01*
X126619752Y-86469501D01*
X126619748Y-86469501D01*
X124880252Y-86469501D01*
X124880247Y-86469501D01*
X124821770Y-86481132D01*
X124821769Y-86481133D01*
X124755447Y-86525448D01*
X124711132Y-86591770D01*
X124711131Y-86591771D01*
X124699500Y-86650248D01*
X120500500Y-86650248D01*
X120500500Y-82356277D01*
X124900000Y-82356277D01*
X124900000Y-82523722D01*
X124932663Y-82687928D01*
X124932665Y-82687936D01*
X124996740Y-82842627D01*
X124996740Y-82842628D01*
X125089758Y-82981839D01*
X125089764Y-82981847D01*
X125208152Y-83100235D01*
X125208160Y-83100241D01*
X125347371Y-83193259D01*
X125502063Y-83257334D01*
X125502071Y-83257336D01*
X125666277Y-83289999D01*
X125666280Y-83290000D01*
X125833720Y-83290000D01*
X125833722Y-83289999D01*
X125997928Y-83257336D01*
X125997936Y-83257334D01*
X126152627Y-83193259D01*
X126152628Y-83193259D01*
X126291839Y-83100241D01*
X126291847Y-83100235D01*
X126410235Y-82981847D01*
X126410241Y-82981839D01*
X126503259Y-82842628D01*
X126503259Y-82842627D01*
X126567334Y-82687936D01*
X126567336Y-82687928D01*
X126599999Y-82523722D01*
X126600000Y-82523720D01*
X126600000Y-82356279D01*
X126599999Y-82356277D01*
X126567336Y-82192071D01*
X126567334Y-82192063D01*
X126503259Y-82037372D01*
X126503259Y-82037371D01*
X126410241Y-81898160D01*
X126410235Y-81898152D01*
X126291847Y-81779764D01*
X126291839Y-81779758D01*
X126152628Y-81686740D01*
X125997936Y-81622665D01*
X125997928Y-81622663D01*
X125833721Y-81590000D01*
X125666279Y-81590000D01*
X125502071Y-81622663D01*
X125502063Y-81622665D01*
X125347372Y-81686740D01*
X125347371Y-81686740D01*
X125208160Y-81779758D01*
X125208152Y-81779764D01*
X125089764Y-81898152D01*
X125089758Y-81898160D01*
X124996740Y-82037371D01*
X124996740Y-82037372D01*
X124932665Y-82192063D01*
X124932663Y-82192071D01*
X124900000Y-82356277D01*
X120500500Y-82356277D01*
X120500500Y-79796530D01*
X124699500Y-79796530D01*
X124699500Y-80003469D01*
X124739868Y-80206412D01*
X124739870Y-80206420D01*
X124819058Y-80397596D01*
X124934024Y-80569657D01*
X125080342Y-80715975D01*
X125080345Y-80715977D01*
X125252402Y-80830941D01*
X125443580Y-80910130D01*
X125646530Y-80950499D01*
X125646534Y-80950500D01*
X125646535Y-80950500D01*
X125853466Y-80950500D01*
X125853467Y-80950499D01*
X126056420Y-80910130D01*
X126247598Y-80830941D01*
X126419655Y-80715977D01*
X126565977Y-80569655D01*
X126680941Y-80397598D01*
X126760130Y-80206420D01*
X126800500Y-80003465D01*
X126800500Y-79796535D01*
X126760130Y-79593580D01*
X126680941Y-79402402D01*
X126565977Y-79230345D01*
X126565975Y-79230342D01*
X126419657Y-79084024D01*
X126275944Y-78987999D01*
X126247598Y-78969059D01*
X126194519Y-78947073D01*
X126056420Y-78889870D01*
X126056412Y-78889868D01*
X125853469Y-78849500D01*
X125853465Y-78849500D01*
X125646535Y-78849500D01*
X125646530Y-78849500D01*
X125443587Y-78889868D01*
X125443579Y-78889870D01*
X125252403Y-78969058D01*
X125080342Y-79084024D01*
X124934024Y-79230342D01*
X124819058Y-79402403D01*
X124739870Y-79593579D01*
X124739868Y-79593587D01*
X124699500Y-79796530D01*
X120500500Y-79796530D01*
X120500500Y-77256530D01*
X124699500Y-77256530D01*
X124699500Y-77463469D01*
X124739868Y-77666412D01*
X124739870Y-77666420D01*
X124819058Y-77857596D01*
X124934024Y-78029657D01*
X125080342Y-78175975D01*
X125080345Y-78175977D01*
X125252402Y-78290941D01*
X125443580Y-78370130D01*
X125646530Y-78410499D01*
X125646534Y-78410500D01*
X125646535Y-78410500D01*
X125853466Y-78410500D01*
X125853467Y-78410499D01*
X126056420Y-78370130D01*
X126247598Y-78290941D01*
X126419655Y-78175977D01*
X126565977Y-78029655D01*
X126680941Y-77857598D01*
X126760130Y-77666420D01*
X126800500Y-77463465D01*
X126800500Y-77256535D01*
X126760130Y-77053580D01*
X126680941Y-76862402D01*
X126565977Y-76690345D01*
X126565975Y-76690342D01*
X126419657Y-76544024D01*
X126333626Y-76486541D01*
X126247598Y-76429059D01*
X126056420Y-76349870D01*
X126056412Y-76349868D01*
X125853469Y-76309500D01*
X125853465Y-76309500D01*
X125646535Y-76309500D01*
X125646530Y-76309500D01*
X125443587Y-76349868D01*
X125443579Y-76349870D01*
X125252403Y-76429058D01*
X125080342Y-76544024D01*
X124934024Y-76690342D01*
X124819058Y-76862403D01*
X124739870Y-77053579D01*
X124739868Y-77053587D01*
X124699500Y-77256530D01*
X120500500Y-77256530D01*
X120500500Y-73950247D01*
X124699500Y-73950247D01*
X124699500Y-75689752D01*
X124711131Y-75748229D01*
X124711132Y-75748230D01*
X124755447Y-75814552D01*
X124821769Y-75858867D01*
X124821770Y-75858868D01*
X124880247Y-75870499D01*
X124880250Y-75870500D01*
X124880252Y-75870500D01*
X126619750Y-75870500D01*
X126619751Y-75870499D01*
X126634568Y-75867552D01*
X126678229Y-75858868D01*
X126678229Y-75858867D01*
X126678231Y-75858867D01*
X126744552Y-75814552D01*
X126788867Y-75748231D01*
X126788867Y-75748229D01*
X126788868Y-75748229D01*
X126800499Y-75689752D01*
X126800500Y-75689750D01*
X126800500Y-73988543D01*
X141509499Y-73988543D01*
X141547947Y-74181829D01*
X141547950Y-74181839D01*
X141623364Y-74363907D01*
X141623371Y-74363920D01*
X141732860Y-74527781D01*
X141732863Y-74527785D01*
X141872214Y-74667136D01*
X141872218Y-74667139D01*
X142036079Y-74776628D01*
X142036092Y-74776635D01*
X142196869Y-74843230D01*
X142218165Y-74852051D01*
X142218169Y-74852051D01*
X142218170Y-74852052D01*
X142411456Y-74890500D01*
X142411459Y-74890500D01*
X142608543Y-74890500D01*
X142738582Y-74864632D01*
X142801835Y-74852051D01*
X142942655Y-74793721D01*
X142983907Y-74776635D01*
X142983907Y-74776634D01*
X142983914Y-74776632D01*
X143147782Y-74667139D01*
X143287139Y-74527782D01*
X143396632Y-74363914D01*
X143472051Y-74181835D01*
X143510500Y-73988541D01*
X143510500Y-73791459D01*
X143510500Y-73791456D01*
X143472052Y-73598170D01*
X143472051Y-73598169D01*
X143472051Y-73598165D01*
X143472049Y-73598160D01*
X143396635Y-73416092D01*
X143396628Y-73416079D01*
X143287139Y-73252218D01*
X143287136Y-73252214D01*
X143147785Y-73112863D01*
X143147781Y-73112860D01*
X142983920Y-73003371D01*
X142983907Y-73003364D01*
X142801839Y-72927950D01*
X142801829Y-72927947D01*
X142608543Y-72889500D01*
X142608541Y-72889500D01*
X142411459Y-72889500D01*
X142411457Y-72889500D01*
X142218170Y-72927947D01*
X142218160Y-72927950D01*
X142036092Y-73003364D01*
X142036079Y-73003371D01*
X141872218Y-73112860D01*
X141872214Y-73112863D01*
X141732863Y-73252214D01*
X141732860Y-73252218D01*
X141623371Y-73416079D01*
X141623364Y-73416092D01*
X141547950Y-73598160D01*
X141547947Y-73598170D01*
X141509500Y-73791456D01*
X141509500Y-73791459D01*
X141509500Y-73988541D01*
X141509500Y-73988543D01*
X141509499Y-73988543D01*
X126800500Y-73988543D01*
X126800500Y-73950249D01*
X126800499Y-73950247D01*
X126788868Y-73891770D01*
X126788867Y-73891769D01*
X126763803Y-73854258D01*
X126744552Y-73825447D01*
X126678230Y-73781132D01*
X126678229Y-73781131D01*
X126619752Y-73769500D01*
X126619748Y-73769500D01*
X124880252Y-73769500D01*
X124880247Y-73769500D01*
X124821770Y-73781131D01*
X124821769Y-73781132D01*
X124755447Y-73825447D01*
X124711132Y-73891769D01*
X124711131Y-73891770D01*
X124699500Y-73950247D01*
X120500500Y-73950247D01*
X120500500Y-71448543D01*
X141509499Y-71448543D01*
X141547947Y-71641829D01*
X141547950Y-71641839D01*
X141623364Y-71823907D01*
X141623371Y-71823920D01*
X141732860Y-71987781D01*
X141732863Y-71987785D01*
X141872214Y-72127136D01*
X141872218Y-72127139D01*
X142036079Y-72236628D01*
X142036092Y-72236635D01*
X142203414Y-72305941D01*
X142218165Y-72312051D01*
X142218169Y-72312051D01*
X142218170Y-72312052D01*
X142411456Y-72350500D01*
X142411459Y-72350500D01*
X142608543Y-72350500D01*
X142738582Y-72324632D01*
X142801835Y-72312051D01*
X142983914Y-72236632D01*
X143147782Y-72127139D01*
X143287139Y-71987782D01*
X143396632Y-71823914D01*
X143472051Y-71641835D01*
X143504547Y-71478469D01*
X143510500Y-71448543D01*
X143510500Y-71251456D01*
X143472052Y-71058170D01*
X143472051Y-71058169D01*
X143472051Y-71058165D01*
X143397178Y-70877403D01*
X143396635Y-70876092D01*
X143396628Y-70876079D01*
X143287139Y-70712218D01*
X143287136Y-70712214D01*
X143147785Y-70572863D01*
X143147781Y-70572860D01*
X142983920Y-70463371D01*
X142983907Y-70463364D01*
X142801839Y-70387950D01*
X142801829Y-70387947D01*
X142608543Y-70349500D01*
X142608541Y-70349500D01*
X142411459Y-70349500D01*
X142411457Y-70349500D01*
X142218170Y-70387947D01*
X142218160Y-70387950D01*
X142036092Y-70463364D01*
X142036079Y-70463371D01*
X141872218Y-70572860D01*
X141872214Y-70572863D01*
X141732863Y-70712214D01*
X141732860Y-70712218D01*
X141623371Y-70876079D01*
X141623364Y-70876092D01*
X141547950Y-71058160D01*
X141547947Y-71058170D01*
X141509500Y-71251456D01*
X141509500Y-71251459D01*
X141509500Y-71448541D01*
X141509500Y-71448543D01*
X141509499Y-71448543D01*
X120500500Y-71448543D01*
X120500500Y-69656277D01*
X124900000Y-69656277D01*
X124900000Y-69823722D01*
X124932663Y-69987928D01*
X124932665Y-69987936D01*
X124996740Y-70142627D01*
X124996740Y-70142628D01*
X125089758Y-70281839D01*
X125089764Y-70281847D01*
X125208152Y-70400235D01*
X125208160Y-70400241D01*
X125347371Y-70493259D01*
X125502063Y-70557334D01*
X125502071Y-70557336D01*
X125666277Y-70589999D01*
X125666280Y-70590000D01*
X125833720Y-70590000D01*
X125833722Y-70589999D01*
X125997928Y-70557336D01*
X125997936Y-70557334D01*
X126152627Y-70493259D01*
X126152628Y-70493259D01*
X126291839Y-70400241D01*
X126291847Y-70400235D01*
X126410235Y-70281847D01*
X126410241Y-70281839D01*
X126503259Y-70142628D01*
X126503259Y-70142627D01*
X126567334Y-69987936D01*
X126567336Y-69987928D01*
X126599999Y-69823722D01*
X126600000Y-69823720D01*
X126600000Y-69656279D01*
X126599999Y-69656277D01*
X126567336Y-69492071D01*
X126567334Y-69492063D01*
X126503259Y-69337372D01*
X126503259Y-69337371D01*
X126410241Y-69198160D01*
X126410235Y-69198152D01*
X126291847Y-69079764D01*
X126291839Y-69079758D01*
X126152628Y-68986740D01*
X125997936Y-68922665D01*
X125997928Y-68922663D01*
X125926942Y-68908543D01*
X141509499Y-68908543D01*
X141547947Y-69101829D01*
X141547950Y-69101839D01*
X141623364Y-69283907D01*
X141623371Y-69283920D01*
X141732860Y-69447781D01*
X141732863Y-69447785D01*
X141872214Y-69587136D01*
X141872218Y-69587139D01*
X142036079Y-69696628D01*
X142036092Y-69696635D01*
X142203414Y-69765941D01*
X142218165Y-69772051D01*
X142218169Y-69772051D01*
X142218170Y-69772052D01*
X142411456Y-69810500D01*
X142411459Y-69810500D01*
X142608543Y-69810500D01*
X142738582Y-69784632D01*
X142801835Y-69772051D01*
X142983914Y-69696632D01*
X143147782Y-69587139D01*
X143287139Y-69447782D01*
X143396632Y-69283914D01*
X143472051Y-69101835D01*
X143504547Y-68938469D01*
X143510500Y-68908543D01*
X143510500Y-68711456D01*
X143472052Y-68518170D01*
X143472051Y-68518169D01*
X143472051Y-68518165D01*
X143397178Y-68337403D01*
X143396635Y-68336092D01*
X143396628Y-68336079D01*
X143287139Y-68172218D01*
X143287136Y-68172214D01*
X143147785Y-68032863D01*
X143147781Y-68032860D01*
X142983920Y-67923371D01*
X142983907Y-67923364D01*
X142801839Y-67847950D01*
X142801829Y-67847947D01*
X142608543Y-67809500D01*
X142608541Y-67809500D01*
X142411459Y-67809500D01*
X142411457Y-67809500D01*
X142218170Y-67847947D01*
X142218160Y-67847950D01*
X142036092Y-67923364D01*
X142036079Y-67923371D01*
X141872218Y-68032860D01*
X141872214Y-68032863D01*
X141732863Y-68172214D01*
X141732860Y-68172218D01*
X141623371Y-68336079D01*
X141623364Y-68336092D01*
X141547950Y-68518160D01*
X141547947Y-68518170D01*
X141509500Y-68711456D01*
X141509500Y-68711459D01*
X141509500Y-68908541D01*
X141509500Y-68908543D01*
X141509499Y-68908543D01*
X125926942Y-68908543D01*
X125833721Y-68890000D01*
X125666279Y-68890000D01*
X125502071Y-68922663D01*
X125502063Y-68922665D01*
X125347372Y-68986740D01*
X125347371Y-68986740D01*
X125208160Y-69079758D01*
X125208152Y-69079764D01*
X125089764Y-69198152D01*
X125089758Y-69198160D01*
X124996740Y-69337371D01*
X124996740Y-69337372D01*
X124932665Y-69492063D01*
X124932663Y-69492071D01*
X124900000Y-69656277D01*
X120500500Y-69656277D01*
X120500500Y-67096530D01*
X124699500Y-67096530D01*
X124699500Y-67303469D01*
X124739868Y-67506412D01*
X124739870Y-67506420D01*
X124819058Y-67697596D01*
X124934024Y-67869657D01*
X125080342Y-68015975D01*
X125080345Y-68015977D01*
X125252402Y-68130941D01*
X125443580Y-68210130D01*
X125646530Y-68250499D01*
X125646534Y-68250500D01*
X125646535Y-68250500D01*
X125853466Y-68250500D01*
X125853467Y-68250499D01*
X126056420Y-68210130D01*
X126247598Y-68130941D01*
X126419655Y-68015977D01*
X126565977Y-67869655D01*
X126680941Y-67697598D01*
X126760130Y-67506420D01*
X126800500Y-67303465D01*
X126800500Y-67096535D01*
X126760130Y-66893580D01*
X126680941Y-66702402D01*
X126565977Y-66530345D01*
X126565975Y-66530342D01*
X126419657Y-66384024D01*
X126396488Y-66368543D01*
X141509499Y-66368543D01*
X141547947Y-66561829D01*
X141547950Y-66561839D01*
X141623364Y-66743907D01*
X141623371Y-66743920D01*
X141732860Y-66907781D01*
X141732863Y-66907785D01*
X141872214Y-67047136D01*
X141872218Y-67047139D01*
X142036079Y-67156628D01*
X142036092Y-67156635D01*
X142203414Y-67225941D01*
X142218165Y-67232051D01*
X142218169Y-67232051D01*
X142218170Y-67232052D01*
X142411456Y-67270500D01*
X142411459Y-67270500D01*
X142608543Y-67270500D01*
X142738582Y-67244632D01*
X142801835Y-67232051D01*
X142983914Y-67156632D01*
X143147782Y-67047139D01*
X143287139Y-66907782D01*
X143396632Y-66743914D01*
X143472051Y-66561835D01*
X143504547Y-66398469D01*
X143510500Y-66368543D01*
X143510500Y-66171456D01*
X143472052Y-65978170D01*
X143472051Y-65978169D01*
X143472051Y-65978165D01*
X143397178Y-65797403D01*
X143396635Y-65796092D01*
X143396628Y-65796079D01*
X143287139Y-65632218D01*
X143287136Y-65632214D01*
X143147785Y-65492863D01*
X143147781Y-65492860D01*
X142983920Y-65383371D01*
X142983907Y-65383364D01*
X142801839Y-65307950D01*
X142801829Y-65307947D01*
X142608543Y-65269500D01*
X142608541Y-65269500D01*
X142411459Y-65269500D01*
X142411457Y-65269500D01*
X142218170Y-65307947D01*
X142218160Y-65307950D01*
X142036092Y-65383364D01*
X142036079Y-65383371D01*
X141872218Y-65492860D01*
X141872214Y-65492863D01*
X141732863Y-65632214D01*
X141732860Y-65632218D01*
X141623371Y-65796079D01*
X141623364Y-65796092D01*
X141547950Y-65978160D01*
X141547947Y-65978170D01*
X141509500Y-66171456D01*
X141509500Y-66171459D01*
X141509500Y-66368541D01*
X141509500Y-66368543D01*
X141509499Y-66368543D01*
X126396488Y-66368543D01*
X126247595Y-66269057D01*
X126056420Y-66189870D01*
X126056412Y-66189868D01*
X125853469Y-66149500D01*
X125853465Y-66149500D01*
X125646535Y-66149500D01*
X125646530Y-66149500D01*
X125443587Y-66189868D01*
X125443579Y-66189870D01*
X125252403Y-66269058D01*
X125080342Y-66384024D01*
X124934024Y-66530342D01*
X124819058Y-66702403D01*
X124739870Y-66893579D01*
X124739868Y-66893587D01*
X124699500Y-67096530D01*
X120500500Y-67096530D01*
X120500500Y-64556530D01*
X124699500Y-64556530D01*
X124699500Y-64763469D01*
X124739868Y-64966412D01*
X124739870Y-64966420D01*
X124819058Y-65157596D01*
X124934024Y-65329657D01*
X125080342Y-65475975D01*
X125080345Y-65475977D01*
X125252402Y-65590941D01*
X125443580Y-65670130D01*
X125646530Y-65710499D01*
X125646534Y-65710500D01*
X125646535Y-65710500D01*
X125853466Y-65710500D01*
X125853467Y-65710499D01*
X126056420Y-65670130D01*
X126247598Y-65590941D01*
X126419655Y-65475977D01*
X126565977Y-65329655D01*
X126680941Y-65157598D01*
X126760130Y-64966420D01*
X126800500Y-64763465D01*
X126800500Y-64556535D01*
X126760130Y-64353580D01*
X126680941Y-64162402D01*
X126565977Y-63990345D01*
X126565975Y-63990342D01*
X126419657Y-63844024D01*
X126396488Y-63828543D01*
X141509499Y-63828543D01*
X141547947Y-64021829D01*
X141547950Y-64021839D01*
X141623364Y-64203907D01*
X141623371Y-64203920D01*
X141732860Y-64367781D01*
X141732863Y-64367785D01*
X141872214Y-64507136D01*
X141872218Y-64507139D01*
X142036079Y-64616628D01*
X142036092Y-64616635D01*
X142203414Y-64685941D01*
X142218165Y-64692051D01*
X142218169Y-64692051D01*
X142218170Y-64692052D01*
X142411456Y-64730500D01*
X142411459Y-64730500D01*
X142608543Y-64730500D01*
X142738582Y-64704632D01*
X142801835Y-64692051D01*
X142983914Y-64616632D01*
X143147782Y-64507139D01*
X143287139Y-64367782D01*
X143396632Y-64203914D01*
X143472051Y-64021835D01*
X143504547Y-63858469D01*
X143510500Y-63828543D01*
X143510500Y-63631456D01*
X143472052Y-63438170D01*
X143472051Y-63438169D01*
X143472051Y-63438165D01*
X143397178Y-63257403D01*
X143396635Y-63256092D01*
X143396628Y-63256079D01*
X143287139Y-63092218D01*
X143287136Y-63092214D01*
X143147785Y-62952863D01*
X143147781Y-62952860D01*
X142983920Y-62843371D01*
X142983907Y-62843364D01*
X142801839Y-62767950D01*
X142801829Y-62767947D01*
X142608543Y-62729500D01*
X142608541Y-62729500D01*
X142411459Y-62729500D01*
X142411457Y-62729500D01*
X142218170Y-62767947D01*
X142218160Y-62767950D01*
X142036092Y-62843364D01*
X142036079Y-62843371D01*
X141872218Y-62952860D01*
X141872214Y-62952863D01*
X141732863Y-63092214D01*
X141732860Y-63092218D01*
X141623371Y-63256079D01*
X141623364Y-63256092D01*
X141547950Y-63438160D01*
X141547947Y-63438170D01*
X141509500Y-63631456D01*
X141509500Y-63631459D01*
X141509500Y-63828541D01*
X141509500Y-63828543D01*
X141509499Y-63828543D01*
X126396488Y-63828543D01*
X126247595Y-63729057D01*
X126056420Y-63649870D01*
X126056412Y-63649868D01*
X125853469Y-63609500D01*
X125853465Y-63609500D01*
X125646535Y-63609500D01*
X125646530Y-63609500D01*
X125443587Y-63649868D01*
X125443579Y-63649870D01*
X125252403Y-63729058D01*
X125080342Y-63844024D01*
X124934024Y-63990342D01*
X124819058Y-64162403D01*
X124739870Y-64353579D01*
X124739868Y-64353587D01*
X124699500Y-64556530D01*
X120500500Y-64556530D01*
X120500500Y-61250247D01*
X124699500Y-61250247D01*
X124699500Y-62989752D01*
X124711131Y-63048229D01*
X124711132Y-63048230D01*
X124755447Y-63114552D01*
X124821769Y-63158867D01*
X124821770Y-63158868D01*
X124880247Y-63170499D01*
X124880250Y-63170500D01*
X124880252Y-63170500D01*
X126619750Y-63170500D01*
X126619751Y-63170499D01*
X126634568Y-63167552D01*
X126678229Y-63158868D01*
X126678229Y-63158867D01*
X126678231Y-63158867D01*
X126744552Y-63114552D01*
X126788867Y-63048231D01*
X126788867Y-63048229D01*
X126788868Y-63048229D01*
X126800499Y-62989752D01*
X126800500Y-62989750D01*
X126800500Y-61250249D01*
X126800499Y-61250247D01*
X126788868Y-61191770D01*
X126788867Y-61191769D01*
X126744552Y-61125447D01*
X126678230Y-61081132D01*
X126678229Y-61081131D01*
X126619752Y-61069500D01*
X126619748Y-61069500D01*
X124880252Y-61069500D01*
X124880247Y-61069500D01*
X124821770Y-61081131D01*
X124821769Y-61081132D01*
X124755447Y-61125447D01*
X124711132Y-61191769D01*
X124711131Y-61191770D01*
X124699500Y-61250247D01*
X120500500Y-61250247D01*
X120500500Y-58748543D01*
X141509499Y-58748543D01*
X141547947Y-58941829D01*
X141547950Y-58941839D01*
X141623364Y-59123907D01*
X141623371Y-59123920D01*
X141732860Y-59287781D01*
X141732863Y-59287785D01*
X141872214Y-59427136D01*
X141872218Y-59427139D01*
X142036079Y-59536628D01*
X142036092Y-59536635D01*
X142218160Y-59612049D01*
X142218165Y-59612051D01*
X142218169Y-59612051D01*
X142218170Y-59612052D01*
X142411456Y-59650500D01*
X142609903Y-59650500D01*
X142676942Y-59670185D01*
X142697584Y-59686819D01*
X143106830Y-60096065D01*
X143140315Y-60157388D01*
X143135331Y-60227080D01*
X143093459Y-60283013D01*
X143027995Y-60307430D01*
X142971697Y-60298307D01*
X142801839Y-60227950D01*
X142801829Y-60227947D01*
X142608543Y-60189500D01*
X142608541Y-60189500D01*
X142411459Y-60189500D01*
X142411457Y-60189500D01*
X142218170Y-60227947D01*
X142218160Y-60227950D01*
X142036092Y-60303364D01*
X142036079Y-60303371D01*
X141872218Y-60412860D01*
X141872214Y-60412863D01*
X141732863Y-60552214D01*
X141732860Y-60552218D01*
X141623371Y-60716079D01*
X141623364Y-60716092D01*
X141547950Y-60898160D01*
X141547947Y-60898170D01*
X141509500Y-61091456D01*
X141509500Y-61091459D01*
X141509500Y-61288541D01*
X141509500Y-61288543D01*
X141509499Y-61288543D01*
X141547947Y-61481829D01*
X141547950Y-61481839D01*
X141623364Y-61663907D01*
X141623371Y-61663920D01*
X141732860Y-61827781D01*
X141732863Y-61827785D01*
X141872214Y-61967136D01*
X141872218Y-61967139D01*
X142036079Y-62076628D01*
X142036092Y-62076635D01*
X142218160Y-62152049D01*
X142218165Y-62152051D01*
X142218169Y-62152051D01*
X142218170Y-62152052D01*
X142411456Y-62190500D01*
X142411459Y-62190500D01*
X142608543Y-62190500D01*
X142738582Y-62164632D01*
X142801835Y-62152051D01*
X142983914Y-62076632D01*
X143147782Y-61967139D01*
X143287139Y-61827782D01*
X143396632Y-61663914D01*
X143472051Y-61481835D01*
X143508475Y-61298722D01*
X143510500Y-61288543D01*
X143510500Y-61091456D01*
X143472052Y-60898170D01*
X143472051Y-60898169D01*
X143472051Y-60898165D01*
X143401691Y-60728301D01*
X143394223Y-60658833D01*
X143425498Y-60596354D01*
X143485587Y-60560702D01*
X143555412Y-60563196D01*
X143603934Y-60593169D01*
X150363181Y-67352416D01*
X150396666Y-67413739D01*
X150399500Y-67440097D01*
X150399500Y-78466556D01*
X150440423Y-78619283D01*
X150440426Y-78619290D01*
X150519475Y-78756209D01*
X150519479Y-78756214D01*
X150519480Y-78756216D01*
X150631284Y-78868020D01*
X150631286Y-78868021D01*
X150631290Y-78868024D01*
X150768209Y-78947073D01*
X150768216Y-78947077D01*
X150920943Y-78988000D01*
X150920945Y-78988000D01*
X151079055Y-78988000D01*
X151079057Y-78988000D01*
X151231784Y-78947077D01*
X151368716Y-78868020D01*
X151480520Y-78756216D01*
X151559577Y-78619284D01*
X151600500Y-78466557D01*
X151600500Y-67060943D01*
X151559577Y-66908216D01*
X151559577Y-66908215D01*
X151522794Y-66844505D01*
X151492826Y-66792598D01*
X151480524Y-66771290D01*
X151480521Y-66771286D01*
X151480520Y-66771284D01*
X151368716Y-66659480D01*
X151368715Y-66659479D01*
X151364385Y-66655149D01*
X151364374Y-66655139D01*
X143546819Y-58837584D01*
X143513334Y-58776261D01*
X143510500Y-58749903D01*
X143510500Y-58551456D01*
X143472052Y-58358170D01*
X143472051Y-58358169D01*
X143472051Y-58358165D01*
X143472049Y-58358160D01*
X143396635Y-58176092D01*
X143396628Y-58176079D01*
X143287139Y-58012218D01*
X143287136Y-58012214D01*
X143147785Y-57872863D01*
X143147781Y-57872860D01*
X142983920Y-57763371D01*
X142983907Y-57763364D01*
X142801839Y-57687950D01*
X142801829Y-57687947D01*
X142608543Y-57649500D01*
X142608541Y-57649500D01*
X142411459Y-57649500D01*
X142411457Y-57649500D01*
X142218170Y-57687947D01*
X142218160Y-57687950D01*
X142036092Y-57763364D01*
X142036079Y-57763371D01*
X141872218Y-57872860D01*
X141872214Y-57872863D01*
X141732863Y-58012214D01*
X141732860Y-58012218D01*
X141623371Y-58176079D01*
X141623364Y-58176092D01*
X141547950Y-58358160D01*
X141547947Y-58358170D01*
X141509500Y-58551456D01*
X141509500Y-58551459D01*
X141509500Y-58748541D01*
X141509500Y-58748543D01*
X141509499Y-58748543D01*
X120500500Y-58748543D01*
X120500500Y-56031202D01*
X141710000Y-56031202D01*
X141710000Y-56188797D01*
X141740741Y-56343343D01*
X141740743Y-56343351D01*
X141801047Y-56488939D01*
X141801052Y-56488948D01*
X141888598Y-56619969D01*
X141888601Y-56619973D01*
X142000026Y-56731398D01*
X142000030Y-56731401D01*
X142131051Y-56818947D01*
X142131060Y-56818952D01*
X142276648Y-56879256D01*
X142276656Y-56879258D01*
X142431202Y-56909999D01*
X142431206Y-56910000D01*
X142588794Y-56910000D01*
X142588797Y-56909999D01*
X142743343Y-56879258D01*
X142743351Y-56879256D01*
X142888939Y-56818952D01*
X142888948Y-56818947D01*
X143019969Y-56731401D01*
X143019973Y-56731398D01*
X143131398Y-56619973D01*
X143131401Y-56619969D01*
X143218947Y-56488948D01*
X143218952Y-56488939D01*
X143279256Y-56343351D01*
X143279258Y-56343343D01*
X143309999Y-56188797D01*
X143310000Y-56188794D01*
X143310000Y-56031206D01*
X143309999Y-56031202D01*
X143279258Y-55876656D01*
X143279256Y-55876648D01*
X143218952Y-55731060D01*
X143218947Y-55731051D01*
X143131401Y-55600030D01*
X143131398Y-55600026D01*
X143019973Y-55488601D01*
X143019969Y-55488598D01*
X142888948Y-55401052D01*
X142888939Y-55401047D01*
X142743351Y-55340743D01*
X142743343Y-55340741D01*
X142588797Y-55310000D01*
X142431202Y-55310000D01*
X142276656Y-55340741D01*
X142276648Y-55340743D01*
X142131060Y-55401047D01*
X142131051Y-55401052D01*
X142000030Y-55488598D01*
X142000026Y-55488601D01*
X141888601Y-55600026D01*
X141888598Y-55600030D01*
X141801052Y-55731051D01*
X141801047Y-55731060D01*
X141740743Y-55876648D01*
X141740741Y-55876656D01*
X141710000Y-56031202D01*
X120500500Y-56031202D01*
X120500500Y-52895785D01*
X141509500Y-52895785D01*
X141509500Y-52895789D01*
X141509500Y-52895790D01*
X141509500Y-54244213D01*
X141515654Y-54286453D01*
X141519709Y-54314286D01*
X141519709Y-54314287D01*
X141519710Y-54314289D01*
X141519710Y-54314291D01*
X141572548Y-54422372D01*
X141572550Y-54422375D01*
X141657624Y-54507449D01*
X141657627Y-54507451D01*
X141761201Y-54558084D01*
X141765714Y-54560291D01*
X141835785Y-54570500D01*
X142609902Y-54570499D01*
X142676941Y-54590183D01*
X142697583Y-54606818D01*
X153463181Y-65372416D01*
X153496666Y-65433739D01*
X153499500Y-65460097D01*
X153499500Y-81579056D01*
X153540423Y-81731783D01*
X153540426Y-81731790D01*
X153619475Y-81868709D01*
X153619479Y-81868714D01*
X153619480Y-81868716D01*
X153731284Y-81980520D01*
X153731286Y-81980521D01*
X153731290Y-81980524D01*
X153829755Y-82037372D01*
X153868216Y-82059577D01*
X154020943Y-82100500D01*
X154020945Y-82100500D01*
X154179055Y-82100500D01*
X154179057Y-82100500D01*
X154331784Y-82059577D01*
X154468716Y-81980520D01*
X154580520Y-81868716D01*
X154659577Y-81731784D01*
X154700500Y-81579057D01*
X154700500Y-73988543D01*
X156749499Y-73988543D01*
X156787947Y-74181829D01*
X156787950Y-74181839D01*
X156863364Y-74363907D01*
X156863371Y-74363920D01*
X156972860Y-74527781D01*
X156972863Y-74527785D01*
X157112214Y-74667136D01*
X157112218Y-74667139D01*
X157276079Y-74776628D01*
X157276092Y-74776635D01*
X157436869Y-74843230D01*
X157458165Y-74852051D01*
X157458169Y-74852051D01*
X157458170Y-74852052D01*
X157651456Y-74890500D01*
X157651459Y-74890500D01*
X157848543Y-74890500D01*
X157978582Y-74864632D01*
X158041835Y-74852051D01*
X158182655Y-74793721D01*
X158223907Y-74776635D01*
X158223907Y-74776634D01*
X158223914Y-74776632D01*
X158387782Y-74667139D01*
X158527139Y-74527782D01*
X158636632Y-74363914D01*
X158712051Y-74181835D01*
X158750500Y-73988541D01*
X158750500Y-73791459D01*
X158750500Y-73791456D01*
X158712052Y-73598170D01*
X158712051Y-73598169D01*
X158712051Y-73598165D01*
X158712049Y-73598160D01*
X158636635Y-73416092D01*
X158636628Y-73416079D01*
X158527139Y-73252218D01*
X158527136Y-73252214D01*
X158387785Y-73112863D01*
X158387781Y-73112860D01*
X158286592Y-73045247D01*
X162999500Y-73045247D01*
X162999500Y-74784752D01*
X163011131Y-74843229D01*
X163011132Y-74843230D01*
X163055447Y-74909552D01*
X163121769Y-74953867D01*
X163121770Y-74953868D01*
X163180247Y-74965499D01*
X163180250Y-74965500D01*
X163180252Y-74965500D01*
X164919750Y-74965500D01*
X164919751Y-74965499D01*
X164934568Y-74962552D01*
X164978229Y-74953868D01*
X164978229Y-74953867D01*
X164978231Y-74953867D01*
X165044552Y-74909552D01*
X165088867Y-74843231D01*
X165088867Y-74843229D01*
X165088868Y-74843229D01*
X165100499Y-74784752D01*
X165100500Y-74784750D01*
X165100500Y-73045249D01*
X165100499Y-73045247D01*
X165088868Y-72986770D01*
X165088867Y-72986769D01*
X165044552Y-72920447D01*
X164978230Y-72876132D01*
X164978229Y-72876131D01*
X164919752Y-72864500D01*
X164919748Y-72864500D01*
X163180252Y-72864500D01*
X163180247Y-72864500D01*
X163121770Y-72876131D01*
X163121769Y-72876132D01*
X163055447Y-72920447D01*
X163011132Y-72986769D01*
X163011131Y-72986770D01*
X162999500Y-73045247D01*
X158286592Y-73045247D01*
X158223920Y-73003371D01*
X158223907Y-73003364D01*
X158041839Y-72927950D01*
X158041829Y-72927947D01*
X157848543Y-72889500D01*
X157848541Y-72889500D01*
X157651459Y-72889500D01*
X157651457Y-72889500D01*
X157458170Y-72927947D01*
X157458160Y-72927950D01*
X157276092Y-73003364D01*
X157276079Y-73003371D01*
X157112218Y-73112860D01*
X157112214Y-73112863D01*
X156972863Y-73252214D01*
X156972860Y-73252218D01*
X156863371Y-73416079D01*
X156863364Y-73416092D01*
X156787950Y-73598160D01*
X156787947Y-73598170D01*
X156749500Y-73791456D01*
X156749500Y-73791459D01*
X156749500Y-73988541D01*
X156749500Y-73988543D01*
X156749499Y-73988543D01*
X154700500Y-73988543D01*
X154700500Y-71448543D01*
X156749499Y-71448543D01*
X156787947Y-71641829D01*
X156787950Y-71641839D01*
X156863364Y-71823907D01*
X156863371Y-71823920D01*
X156972860Y-71987781D01*
X156972863Y-71987785D01*
X157112214Y-72127136D01*
X157112218Y-72127139D01*
X157276079Y-72236628D01*
X157276092Y-72236635D01*
X157443414Y-72305941D01*
X157458165Y-72312051D01*
X157458169Y-72312051D01*
X157458170Y-72312052D01*
X157651456Y-72350500D01*
X157651459Y-72350500D01*
X157848543Y-72350500D01*
X157978582Y-72324632D01*
X158041835Y-72312051D01*
X158223914Y-72236632D01*
X158387782Y-72127139D01*
X158527139Y-71987782D01*
X158636632Y-71823914D01*
X158712051Y-71641835D01*
X158744547Y-71478469D01*
X158750500Y-71448543D01*
X158750500Y-71271530D01*
X162999500Y-71271530D01*
X162999500Y-71478469D01*
X163039868Y-71681412D01*
X163039870Y-71681420D01*
X163119058Y-71872596D01*
X163234024Y-72044657D01*
X163380342Y-72190975D01*
X163380345Y-72190977D01*
X163552402Y-72305941D01*
X163743580Y-72385130D01*
X163946530Y-72425499D01*
X163946534Y-72425500D01*
X163946535Y-72425500D01*
X164153466Y-72425500D01*
X164153467Y-72425499D01*
X164356420Y-72385130D01*
X164547598Y-72305941D01*
X164719655Y-72190977D01*
X164865977Y-72044655D01*
X164980941Y-71872598D01*
X165060130Y-71681420D01*
X165100500Y-71478465D01*
X165100500Y-71271535D01*
X165060130Y-71068580D01*
X164980941Y-70877402D01*
X164865977Y-70705345D01*
X164865975Y-70705342D01*
X164719657Y-70559024D01*
X164633626Y-70501541D01*
X164547598Y-70444059D01*
X164412132Y-70387947D01*
X164356420Y-70364870D01*
X164356412Y-70364868D01*
X164153469Y-70324500D01*
X164153465Y-70324500D01*
X163946535Y-70324500D01*
X163946530Y-70324500D01*
X163743587Y-70364868D01*
X163743579Y-70364870D01*
X163552403Y-70444058D01*
X163380342Y-70559024D01*
X163234024Y-70705342D01*
X163119058Y-70877403D01*
X163039870Y-71068579D01*
X163039868Y-71068587D01*
X162999500Y-71271530D01*
X158750500Y-71271530D01*
X158750500Y-71251456D01*
X158712052Y-71058170D01*
X158712051Y-71058169D01*
X158712051Y-71058165D01*
X158637178Y-70877403D01*
X158636635Y-70876092D01*
X158636628Y-70876079D01*
X158527139Y-70712218D01*
X158527136Y-70712214D01*
X158387785Y-70572863D01*
X158387781Y-70572860D01*
X158223920Y-70463371D01*
X158223907Y-70463364D01*
X158041839Y-70387950D01*
X158041829Y-70387947D01*
X157848543Y-70349500D01*
X157848541Y-70349500D01*
X157651459Y-70349500D01*
X157651457Y-70349500D01*
X157458170Y-70387947D01*
X157458160Y-70387950D01*
X157276092Y-70463364D01*
X157276079Y-70463371D01*
X157112218Y-70572860D01*
X157112214Y-70572863D01*
X156972863Y-70712214D01*
X156972860Y-70712218D01*
X156863371Y-70876079D01*
X156863364Y-70876092D01*
X156787950Y-71058160D01*
X156787947Y-71058170D01*
X156749500Y-71251456D01*
X156749500Y-71251459D01*
X156749500Y-71448541D01*
X156749500Y-71448543D01*
X156749499Y-71448543D01*
X154700500Y-71448543D01*
X154700500Y-68908543D01*
X156749499Y-68908543D01*
X156787947Y-69101829D01*
X156787950Y-69101839D01*
X156863364Y-69283907D01*
X156863371Y-69283920D01*
X156972860Y-69447781D01*
X156972863Y-69447785D01*
X157112214Y-69587136D01*
X157112218Y-69587139D01*
X157276079Y-69696628D01*
X157276092Y-69696635D01*
X157443414Y-69765941D01*
X157458165Y-69772051D01*
X157458169Y-69772051D01*
X157458170Y-69772052D01*
X157651456Y-69810500D01*
X157651459Y-69810500D01*
X157848543Y-69810500D01*
X157978582Y-69784632D01*
X158041835Y-69772051D01*
X158223914Y-69696632D01*
X158387782Y-69587139D01*
X158527139Y-69447782D01*
X158636632Y-69283914D01*
X158712051Y-69101835D01*
X158744547Y-68938469D01*
X158750500Y-68908543D01*
X158750500Y-68731530D01*
X162999500Y-68731530D01*
X162999500Y-68938469D01*
X163039868Y-69141412D01*
X163039870Y-69141420D01*
X163119059Y-69332598D01*
X163122249Y-69337372D01*
X163234024Y-69504657D01*
X163380342Y-69650975D01*
X163380345Y-69650977D01*
X163552402Y-69765941D01*
X163743580Y-69845130D01*
X163946530Y-69885499D01*
X163946534Y-69885500D01*
X163946535Y-69885500D01*
X164153466Y-69885500D01*
X164153467Y-69885499D01*
X164356420Y-69845130D01*
X164547598Y-69765941D01*
X164719655Y-69650977D01*
X164865977Y-69504655D01*
X164980941Y-69332598D01*
X165060130Y-69141420D01*
X165100500Y-68938465D01*
X165100500Y-68731535D01*
X165060130Y-68528580D01*
X164980941Y-68337402D01*
X164865977Y-68165345D01*
X164865975Y-68165342D01*
X164719657Y-68019024D01*
X164633626Y-67961541D01*
X164547598Y-67904059D01*
X164412132Y-67847947D01*
X164356420Y-67824870D01*
X164356412Y-67824868D01*
X164153469Y-67784500D01*
X164153465Y-67784500D01*
X163946535Y-67784500D01*
X163946530Y-67784500D01*
X163743587Y-67824868D01*
X163743579Y-67824870D01*
X163552403Y-67904058D01*
X163380342Y-68019024D01*
X163234024Y-68165342D01*
X163119058Y-68337403D01*
X163039870Y-68528579D01*
X163039868Y-68528587D01*
X162999500Y-68731530D01*
X158750500Y-68731530D01*
X158750500Y-68711456D01*
X158712052Y-68518170D01*
X158712051Y-68518169D01*
X158712051Y-68518165D01*
X158637178Y-68337403D01*
X158636635Y-68336092D01*
X158636628Y-68336079D01*
X158527139Y-68172218D01*
X158527136Y-68172214D01*
X158387785Y-68032863D01*
X158387781Y-68032860D01*
X158223920Y-67923371D01*
X158223907Y-67923364D01*
X158041839Y-67847950D01*
X158041829Y-67847947D01*
X157848543Y-67809500D01*
X157848541Y-67809500D01*
X157651459Y-67809500D01*
X157651457Y-67809500D01*
X157458170Y-67847947D01*
X157458160Y-67847950D01*
X157276092Y-67923364D01*
X157276079Y-67923371D01*
X157112218Y-68032860D01*
X157112214Y-68032863D01*
X156972863Y-68172214D01*
X156972860Y-68172218D01*
X156863371Y-68336079D01*
X156863364Y-68336092D01*
X156787950Y-68518160D01*
X156787947Y-68518170D01*
X156749500Y-68711456D01*
X156749500Y-68711459D01*
X156749500Y-68908541D01*
X156749500Y-68908543D01*
X156749499Y-68908543D01*
X154700500Y-68908543D01*
X154700500Y-66368543D01*
X156749499Y-66368543D01*
X156787947Y-66561829D01*
X156787950Y-66561839D01*
X156863364Y-66743907D01*
X156863371Y-66743920D01*
X156972860Y-66907781D01*
X156972863Y-66907785D01*
X157112214Y-67047136D01*
X157112218Y-67047139D01*
X157276079Y-67156628D01*
X157276092Y-67156635D01*
X157443414Y-67225941D01*
X157458165Y-67232051D01*
X157458169Y-67232051D01*
X157458170Y-67232052D01*
X157651456Y-67270500D01*
X157651459Y-67270500D01*
X157848543Y-67270500D01*
X157978582Y-67244632D01*
X158041835Y-67232051D01*
X158223914Y-67156632D01*
X158387782Y-67047139D01*
X158527139Y-66907782D01*
X158636632Y-66743914D01*
X158712051Y-66561835D01*
X158744547Y-66398469D01*
X158750500Y-66368543D01*
X158750500Y-66191530D01*
X162999500Y-66191530D01*
X162999500Y-66398469D01*
X163039868Y-66601412D01*
X163039870Y-66601420D01*
X163119058Y-66792596D01*
X163234024Y-66964657D01*
X163380342Y-67110975D01*
X163380345Y-67110977D01*
X163552402Y-67225941D01*
X163743580Y-67305130D01*
X163946530Y-67345499D01*
X163946534Y-67345500D01*
X163946535Y-67345500D01*
X164153466Y-67345500D01*
X164153467Y-67345499D01*
X164356420Y-67305130D01*
X164547598Y-67225941D01*
X164719655Y-67110977D01*
X164865977Y-66964655D01*
X164980941Y-66792598D01*
X165060130Y-66601420D01*
X165100500Y-66398465D01*
X165100500Y-66191535D01*
X165060130Y-65988580D01*
X164980941Y-65797402D01*
X164865977Y-65625345D01*
X164865975Y-65625342D01*
X164719657Y-65479024D01*
X164614461Y-65408735D01*
X164547598Y-65364059D01*
X164412132Y-65307947D01*
X164356420Y-65284870D01*
X164356412Y-65284868D01*
X164153469Y-65244500D01*
X164153465Y-65244500D01*
X163946535Y-65244500D01*
X163946530Y-65244500D01*
X163743587Y-65284868D01*
X163743579Y-65284870D01*
X163552403Y-65364058D01*
X163380342Y-65479024D01*
X163234024Y-65625342D01*
X163119058Y-65797403D01*
X163039870Y-65988579D01*
X163039868Y-65988587D01*
X162999500Y-66191530D01*
X158750500Y-66191530D01*
X158750500Y-66171456D01*
X158712052Y-65978170D01*
X158712051Y-65978169D01*
X158712051Y-65978165D01*
X158637178Y-65797403D01*
X158636635Y-65796092D01*
X158636628Y-65796079D01*
X158527139Y-65632218D01*
X158527136Y-65632214D01*
X158387785Y-65492863D01*
X158387781Y-65492860D01*
X158223920Y-65383371D01*
X158223907Y-65383364D01*
X158041839Y-65307950D01*
X158041829Y-65307947D01*
X157848543Y-65269500D01*
X157848541Y-65269500D01*
X157651459Y-65269500D01*
X157651457Y-65269500D01*
X157458170Y-65307947D01*
X157458160Y-65307950D01*
X157276092Y-65383364D01*
X157276079Y-65383371D01*
X157112218Y-65492860D01*
X157112214Y-65492863D01*
X156972863Y-65632214D01*
X156972860Y-65632218D01*
X156863371Y-65796079D01*
X156863364Y-65796092D01*
X156787950Y-65978160D01*
X156787947Y-65978170D01*
X156749500Y-66171456D01*
X156749500Y-66171459D01*
X156749500Y-66368541D01*
X156749500Y-66368543D01*
X156749499Y-66368543D01*
X154700500Y-66368543D01*
X154700500Y-65080943D01*
X154659577Y-64928216D01*
X154659577Y-64928215D01*
X154659577Y-64928214D01*
X154630639Y-64878095D01*
X154630637Y-64878092D01*
X154588727Y-64805500D01*
X154580520Y-64791284D01*
X154468716Y-64679480D01*
X154468715Y-64679479D01*
X154464385Y-64675149D01*
X154464374Y-64675139D01*
X153617778Y-63828543D01*
X156749499Y-63828543D01*
X156787947Y-64021829D01*
X156787950Y-64021839D01*
X156863364Y-64203907D01*
X156863371Y-64203920D01*
X156972860Y-64367781D01*
X156972863Y-64367785D01*
X157112214Y-64507136D01*
X157112218Y-64507139D01*
X157276079Y-64616628D01*
X157276092Y-64616635D01*
X157443414Y-64685941D01*
X157458165Y-64692051D01*
X157458169Y-64692051D01*
X157458170Y-64692052D01*
X157651456Y-64730500D01*
X157651459Y-64730500D01*
X157848543Y-64730500D01*
X157978582Y-64704632D01*
X158041835Y-64692051D01*
X158223914Y-64616632D01*
X158387782Y-64507139D01*
X158527139Y-64367782D01*
X158636632Y-64203914D01*
X158712051Y-64021835D01*
X158744547Y-63858469D01*
X158750500Y-63828543D01*
X158750500Y-63651530D01*
X162999500Y-63651530D01*
X162999500Y-63858469D01*
X163039868Y-64061412D01*
X163039870Y-64061420D01*
X163119058Y-64252596D01*
X163234024Y-64424657D01*
X163380342Y-64570975D01*
X163380345Y-64570977D01*
X163552402Y-64685941D01*
X163743580Y-64765130D01*
X163946530Y-64805499D01*
X163946534Y-64805500D01*
X163946535Y-64805500D01*
X164153466Y-64805500D01*
X164153467Y-64805499D01*
X164356420Y-64765130D01*
X164547598Y-64685941D01*
X164719655Y-64570977D01*
X164865977Y-64424655D01*
X164980941Y-64252598D01*
X165060130Y-64061420D01*
X165100500Y-63858465D01*
X165100500Y-63651535D01*
X165060130Y-63448580D01*
X164980941Y-63257402D01*
X164865977Y-63085345D01*
X164865975Y-63085342D01*
X164719657Y-62939024D01*
X164633626Y-62881541D01*
X164547598Y-62824059D01*
X164412132Y-62767947D01*
X164356420Y-62744870D01*
X164356412Y-62744868D01*
X164153469Y-62704500D01*
X164153465Y-62704500D01*
X163946535Y-62704500D01*
X163946530Y-62704500D01*
X163743587Y-62744868D01*
X163743579Y-62744870D01*
X163552403Y-62824058D01*
X163380342Y-62939024D01*
X163234024Y-63085342D01*
X163119058Y-63257403D01*
X163039870Y-63448579D01*
X163039868Y-63448587D01*
X162999500Y-63651530D01*
X158750500Y-63651530D01*
X158750500Y-63631456D01*
X158712052Y-63438170D01*
X158712051Y-63438169D01*
X158712051Y-63438165D01*
X158637178Y-63257403D01*
X158636635Y-63256092D01*
X158636628Y-63256079D01*
X158527139Y-63092218D01*
X158527136Y-63092214D01*
X158387785Y-62952863D01*
X158387781Y-62952860D01*
X158223920Y-62843371D01*
X158223907Y-62843364D01*
X158041839Y-62767950D01*
X158041829Y-62767947D01*
X157848543Y-62729500D01*
X157848541Y-62729500D01*
X157651459Y-62729500D01*
X157651457Y-62729500D01*
X157458170Y-62767947D01*
X157458160Y-62767950D01*
X157276092Y-62843364D01*
X157276079Y-62843371D01*
X157112218Y-62952860D01*
X157112214Y-62952863D01*
X156972863Y-63092214D01*
X156972860Y-63092218D01*
X156863371Y-63256079D01*
X156863364Y-63256092D01*
X156787950Y-63438160D01*
X156787947Y-63438170D01*
X156749500Y-63631456D01*
X156749500Y-63631459D01*
X156749500Y-63828541D01*
X156749500Y-63828543D01*
X156749499Y-63828543D01*
X153617778Y-63828543D01*
X151077778Y-61288543D01*
X156749499Y-61288543D01*
X156787947Y-61481829D01*
X156787950Y-61481839D01*
X156863364Y-61663907D01*
X156863371Y-61663920D01*
X156972860Y-61827781D01*
X156972863Y-61827785D01*
X157112214Y-61967136D01*
X157112218Y-61967139D01*
X157276079Y-62076628D01*
X157276092Y-62076635D01*
X157458160Y-62152049D01*
X157458165Y-62152051D01*
X157458169Y-62152051D01*
X157458170Y-62152052D01*
X157651456Y-62190500D01*
X157651459Y-62190500D01*
X157848543Y-62190500D01*
X157978582Y-62164632D01*
X158041835Y-62152051D01*
X158223914Y-62076632D01*
X158387782Y-61967139D01*
X158527139Y-61827782D01*
X158636632Y-61663914D01*
X158712051Y-61481835D01*
X158748475Y-61298722D01*
X158750500Y-61288543D01*
X158750500Y-61131277D01*
X163200000Y-61131277D01*
X163200000Y-61298722D01*
X163232663Y-61462928D01*
X163232665Y-61462936D01*
X163296740Y-61617627D01*
X163296740Y-61617628D01*
X163389758Y-61756839D01*
X163389764Y-61756847D01*
X163508152Y-61875235D01*
X163508160Y-61875241D01*
X163647371Y-61968259D01*
X163802063Y-62032334D01*
X163802071Y-62032336D01*
X163966277Y-62064999D01*
X163966280Y-62065000D01*
X164133720Y-62065000D01*
X164133722Y-62064999D01*
X164297928Y-62032336D01*
X164297936Y-62032334D01*
X164452627Y-61968259D01*
X164452628Y-61968259D01*
X164591839Y-61875241D01*
X164591847Y-61875235D01*
X164710235Y-61756847D01*
X164710241Y-61756839D01*
X164803259Y-61617628D01*
X164803259Y-61617627D01*
X164867334Y-61462936D01*
X164867336Y-61462928D01*
X164899999Y-61298722D01*
X164900000Y-61298720D01*
X164900000Y-61131279D01*
X164899999Y-61131277D01*
X164867336Y-60967071D01*
X164867334Y-60967063D01*
X164803259Y-60812372D01*
X164803259Y-60812371D01*
X164710241Y-60673160D01*
X164710235Y-60673152D01*
X164591847Y-60554764D01*
X164591839Y-60554758D01*
X164452628Y-60461740D01*
X164297936Y-60397665D01*
X164297928Y-60397663D01*
X164133721Y-60365000D01*
X163966279Y-60365000D01*
X163802071Y-60397663D01*
X163802063Y-60397665D01*
X163647372Y-60461740D01*
X163647371Y-60461740D01*
X163508160Y-60554758D01*
X163508152Y-60554764D01*
X163389764Y-60673152D01*
X163389758Y-60673160D01*
X163296740Y-60812371D01*
X163296740Y-60812372D01*
X163232665Y-60967063D01*
X163232663Y-60967071D01*
X163200000Y-61131277D01*
X158750500Y-61131277D01*
X158750500Y-61091456D01*
X158712052Y-60898170D01*
X158712051Y-60898169D01*
X158712051Y-60898165D01*
X158676515Y-60812372D01*
X158636635Y-60716092D01*
X158636628Y-60716079D01*
X158527139Y-60552218D01*
X158527136Y-60552214D01*
X158387785Y-60412863D01*
X158387781Y-60412860D01*
X158223920Y-60303371D01*
X158223907Y-60303364D01*
X158041839Y-60227950D01*
X158041829Y-60227947D01*
X157848543Y-60189500D01*
X157848541Y-60189500D01*
X157651459Y-60189500D01*
X157651457Y-60189500D01*
X157458170Y-60227947D01*
X157458160Y-60227950D01*
X157276092Y-60303364D01*
X157276079Y-60303371D01*
X157112218Y-60412860D01*
X157112214Y-60412863D01*
X156972863Y-60552214D01*
X156972860Y-60552218D01*
X156863371Y-60716079D01*
X156863364Y-60716092D01*
X156787950Y-60898160D01*
X156787947Y-60898170D01*
X156749500Y-61091456D01*
X156749500Y-61091459D01*
X156749500Y-61288541D01*
X156749500Y-61288543D01*
X156749499Y-61288543D01*
X151077778Y-61288543D01*
X148537778Y-58748543D01*
X156749499Y-58748543D01*
X156787947Y-58941829D01*
X156787950Y-58941839D01*
X156863364Y-59123907D01*
X156863371Y-59123920D01*
X156972860Y-59287781D01*
X156972863Y-59287785D01*
X157112214Y-59427136D01*
X157112218Y-59427139D01*
X157276079Y-59536628D01*
X157276092Y-59536635D01*
X157458160Y-59612049D01*
X157458165Y-59612051D01*
X157458169Y-59612051D01*
X157458170Y-59612052D01*
X157651456Y-59650500D01*
X157651459Y-59650500D01*
X157848543Y-59650500D01*
X157978582Y-59624632D01*
X158041835Y-59612051D01*
X158223914Y-59536632D01*
X158387782Y-59427139D01*
X158527139Y-59287782D01*
X158636632Y-59123914D01*
X158712051Y-58941835D01*
X158750500Y-58748541D01*
X158750500Y-58551459D01*
X158750500Y-58551456D01*
X158712052Y-58358170D01*
X158712051Y-58358169D01*
X158712051Y-58358165D01*
X158712049Y-58358160D01*
X158636635Y-58176092D01*
X158636628Y-58176079D01*
X158527139Y-58012218D01*
X158527136Y-58012214D01*
X158387785Y-57872863D01*
X158387781Y-57872860D01*
X158223920Y-57763371D01*
X158223907Y-57763364D01*
X158041839Y-57687950D01*
X158041829Y-57687947D01*
X157848543Y-57649500D01*
X157848541Y-57649500D01*
X157651459Y-57649500D01*
X157651457Y-57649500D01*
X157458170Y-57687947D01*
X157458160Y-57687950D01*
X157276092Y-57763364D01*
X157276079Y-57763371D01*
X157112218Y-57872860D01*
X157112214Y-57872863D01*
X156972863Y-58012214D01*
X156972860Y-58012218D01*
X156863371Y-58176079D01*
X156863364Y-58176092D01*
X156787950Y-58358160D01*
X156787947Y-58358170D01*
X156749500Y-58551456D01*
X156749500Y-58551459D01*
X156749500Y-58748541D01*
X156749500Y-58748543D01*
X156749499Y-58748543D01*
X148537778Y-58748543D01*
X145997778Y-56208543D01*
X156749499Y-56208543D01*
X156787947Y-56401829D01*
X156787950Y-56401839D01*
X156863364Y-56583907D01*
X156863371Y-56583920D01*
X156972860Y-56747781D01*
X156972863Y-56747785D01*
X157112214Y-56887136D01*
X157112218Y-56887139D01*
X157276079Y-56996628D01*
X157276092Y-56996635D01*
X157458160Y-57072049D01*
X157458165Y-57072051D01*
X157458169Y-57072051D01*
X157458170Y-57072052D01*
X157651456Y-57110500D01*
X157651459Y-57110500D01*
X157848543Y-57110500D01*
X157978582Y-57084632D01*
X158041835Y-57072051D01*
X158223914Y-56996632D01*
X158387782Y-56887139D01*
X158527139Y-56747782D01*
X158636632Y-56583914D01*
X158712051Y-56401835D01*
X158750500Y-56208541D01*
X158750500Y-56011459D01*
X158750500Y-56011456D01*
X158712052Y-55818170D01*
X158712051Y-55818169D01*
X158712051Y-55818165D01*
X158675971Y-55731060D01*
X158636635Y-55636092D01*
X158636628Y-55636079D01*
X158527139Y-55472218D01*
X158527136Y-55472214D01*
X158387785Y-55332863D01*
X158387781Y-55332860D01*
X158223920Y-55223371D01*
X158223907Y-55223364D01*
X158041839Y-55147950D01*
X158041829Y-55147947D01*
X157848543Y-55109500D01*
X157848541Y-55109500D01*
X157651459Y-55109500D01*
X157651457Y-55109500D01*
X157458170Y-55147947D01*
X157458160Y-55147950D01*
X157276092Y-55223364D01*
X157276079Y-55223371D01*
X157112218Y-55332860D01*
X157112214Y-55332863D01*
X156972863Y-55472214D01*
X156972860Y-55472218D01*
X156863371Y-55636079D01*
X156863364Y-55636092D01*
X156787950Y-55818160D01*
X156787947Y-55818170D01*
X156749500Y-56011456D01*
X156749500Y-56011459D01*
X156749500Y-56208541D01*
X156749500Y-56208543D01*
X156749499Y-56208543D01*
X145997778Y-56208543D01*
X143546818Y-53757583D01*
X143532114Y-53730655D01*
X143515522Y-53704837D01*
X143514630Y-53698636D01*
X143513333Y-53696260D01*
X143510499Y-53669902D01*
X143510499Y-53668543D01*
X156749499Y-53668543D01*
X156787947Y-53861829D01*
X156787950Y-53861839D01*
X156863364Y-54043907D01*
X156863371Y-54043920D01*
X156972860Y-54207781D01*
X156972863Y-54207785D01*
X157112214Y-54347136D01*
X157112218Y-54347139D01*
X157276079Y-54456628D01*
X157276092Y-54456635D01*
X157458160Y-54532049D01*
X157458165Y-54532051D01*
X157458169Y-54532051D01*
X157458170Y-54532052D01*
X157651456Y-54570500D01*
X157651459Y-54570500D01*
X157848543Y-54570500D01*
X157978582Y-54544632D01*
X158041835Y-54532051D01*
X158223914Y-54456632D01*
X158387782Y-54347139D01*
X158527139Y-54207782D01*
X158636632Y-54043914D01*
X158712051Y-53861835D01*
X158744514Y-53698636D01*
X158750500Y-53668543D01*
X158750500Y-53471456D01*
X158712052Y-53278170D01*
X158712051Y-53278169D01*
X158712051Y-53278165D01*
X158712049Y-53278160D01*
X158636635Y-53096092D01*
X158636628Y-53096079D01*
X158527139Y-52932218D01*
X158527136Y-52932214D01*
X158387785Y-52792863D01*
X158387781Y-52792860D01*
X158223920Y-52683371D01*
X158223907Y-52683364D01*
X158041839Y-52607950D01*
X158041829Y-52607947D01*
X157848543Y-52569500D01*
X157848541Y-52569500D01*
X157651459Y-52569500D01*
X157651457Y-52569500D01*
X157458170Y-52607947D01*
X157458160Y-52607950D01*
X157276092Y-52683364D01*
X157276079Y-52683371D01*
X157112218Y-52792860D01*
X157112214Y-52792863D01*
X156972863Y-52932214D01*
X156972860Y-52932218D01*
X156863371Y-53096079D01*
X156863364Y-53096092D01*
X156787950Y-53278160D01*
X156787947Y-53278170D01*
X156749500Y-53471456D01*
X156749500Y-53471459D01*
X156749500Y-53668541D01*
X156749500Y-53668543D01*
X156749499Y-53668543D01*
X143510499Y-53668543D01*
X143510499Y-52895786D01*
X143510499Y-52895785D01*
X143500291Y-52825714D01*
X143500289Y-52825709D01*
X143500289Y-52825708D01*
X143447451Y-52717627D01*
X143447449Y-52717624D01*
X143362375Y-52632550D01*
X143362372Y-52632548D01*
X143254289Y-52579710D01*
X143254287Y-52579709D01*
X143254286Y-52579709D01*
X143184215Y-52569500D01*
X143184209Y-52569500D01*
X141835786Y-52569500D01*
X141786342Y-52576703D01*
X141765714Y-52579709D01*
X141765712Y-52579709D01*
X141765710Y-52579710D01*
X141765708Y-52579710D01*
X141657627Y-52632548D01*
X141657624Y-52632550D01*
X141572550Y-52717624D01*
X141572548Y-52717627D01*
X141519710Y-52825710D01*
X141519709Y-52825712D01*
X141519709Y-52825714D01*
X141509500Y-52895785D01*
X120500500Y-52895785D01*
X120500500Y-52004427D01*
X120500816Y-51995581D01*
X120515130Y-51795443D01*
X120515131Y-51795434D01*
X120517646Y-51777938D01*
X120559356Y-51586200D01*
X120564335Y-51569242D01*
X120632911Y-51385382D01*
X120640251Y-51369310D01*
X120734294Y-51197083D01*
X120743854Y-51182210D01*
X120861443Y-51025128D01*
X120873017Y-51011771D01*
X121011771Y-50873017D01*
X121025132Y-50861441D01*
X121182214Y-50743850D01*
X121197083Y-50734294D01*
X121369310Y-50640251D01*
X121385382Y-50632911D01*
X121569242Y-50564335D01*
X121586200Y-50559356D01*
X121777938Y-50517646D01*
X121795436Y-50515130D01*
X121995582Y-50500816D01*
X122004428Y-50500500D01*
X122065892Y-50500500D01*
X167934108Y-50500500D01*
X167995572Y-50500500D01*
X168004418Y-50500816D01*
G37*
%TD.AperFunction*%
%TD*%
M02*
